<svg width="613" height="226" viewBox="0 0 613 226" fill="none" xmlns="http://www.w3.org/2000/svg">
<g clip-path="url(#clip0_3047_884)">
<path d="M492.324 152.018C491.901 152.02 491.482 151.939 491.091 151.778C490.7 151.618 490.345 151.381 490.046 151.082C489.747 150.783 489.511 150.428 489.35 150.037C489.189 149.646 489.108 149.227 489.111 148.804C489.111 147.067 490.533 145.591 492.324 145.591C494.061 145.591 495.537 147.014 495.537 148.804C495.523 149.652 495.18 150.461 494.58 151.061C493.981 151.66 493.172 152.004 492.324 152.018ZM492.324 146.224C491.64 146.226 490.985 146.499 490.501 146.982C490.018 147.466 489.745 148.121 489.743 148.804C489.745 149.488 490.018 150.143 490.501 150.627C490.985 151.11 491.64 151.383 492.324 151.385C493.007 151.383 493.663 151.11 494.146 150.627C494.63 150.143 494.902 149.488 494.904 148.804C494.902 148.121 494.63 147.466 494.146 146.982C493.663 146.499 493.007 146.226 492.324 146.224ZM493.956 150.49H493.217L492.585 149.278H491.743V150.49H491.058V146.961H492.744C493.483 146.961 493.956 147.434 493.956 148.12C493.96 148.351 493.891 148.577 493.758 148.766C493.626 148.955 493.437 149.097 493.218 149.173L493.958 150.503L493.956 150.49ZM492.692 148.646C492.955 148.646 493.218 148.488 493.218 148.12C493.218 147.698 493.008 147.593 492.692 147.593H491.639V148.646H492.692ZM180.099 174.823H157.623V145.275H165.84V167.659H180.114L180.099 174.823ZM188.579 160.128V160.025C188.579 151.544 195.425 144.646 204.538 144.646C213.651 144.646 220.392 151.441 220.392 159.921V160.025C220.392 168.505 213.546 175.403 204.433 175.403C195.32 175.403 188.579 168.608 188.579 160.128ZM212.069 160.128V160.025C212.069 155.759 209.014 152.069 204.483 152.069C200.006 152.069 197.004 155.704 197.004 159.97V160.073C197.004 164.339 200.059 168.029 204.537 168.029C209.066 168.029 212.069 164.394 212.069 160.128ZM230.449 161.865V145.275H238.771V161.707C238.771 165.973 240.929 167.977 244.197 167.977C247.465 167.977 249.624 166.028 249.624 161.92V145.275H257.946V161.654C257.946 171.187 252.519 175.346 244.094 175.346C235.719 175.346 230.452 171.132 230.452 161.861M270.479 145.27H281.856C292.39 145.27 298.553 151.327 298.553 159.86V159.964C298.553 168.496 292.338 174.817 281.699 174.817H270.48V145.275L270.479 145.27ZM282.013 167.549C286.911 167.549 290.175 164.863 290.175 160.07V159.967C290.175 155.226 286.91 152.488 282.013 152.488H278.694V167.499H282.013V167.549ZM318.618 157.49H332.628V164.285H318.618V174.819H310.456V145.275H334.104V152.438H318.62L318.618 157.49ZM367.97 174.82H345.494V145.275H353.657V167.659H367.985L367.97 174.82ZM389.354 145.063H397.255L409.843 174.821H401.045L398.886 169.555H387.509L385.402 174.821H376.817L389.354 145.063ZM396.57 163.181L393.305 154.823L389.987 163.198H396.57V163.181ZM420.377 145.275H434.335C438.864 145.275 441.972 146.434 443.973 148.488C445.71 150.174 446.605 152.436 446.605 155.387V155.491C446.605 160.02 444.18 163.023 440.548 164.551L447.606 174.875H438.125L432.173 165.921H428.592V174.875H420.375L420.377 145.275ZM433.98 159.443C436.772 159.443 438.351 158.074 438.351 155.969V155.865C438.351 153.548 436.666 152.39 433.927 152.39H428.555V159.448H433.982L433.98 159.443ZM466.53 156.705H480.699V163.181H466.53V167.869H482.384V174.821H458.42V145.275H482.174V152.228H466.53V156.705ZM139.7 163.606C138.541 166.186 136.119 168.03 132.958 168.03C128.48 168.03 125.425 164.289 125.425 160.075V159.971C125.425 155.705 128.427 152.071 132.904 152.071C136.276 152.071 138.856 154.126 139.909 156.97H148.547C147.178 149.912 140.962 144.697 132.958 144.697C123.846 144.694 117 151.596 117 160.075V160.178C117 168.658 123.743 175.453 132.854 175.453C140.65 175.453 146.76 170.396 148.339 163.653L139.7 163.6V163.606Z" fill="white"/>
<path d="M353.539 131.055H472.468V98.1353L449.874 85.1793L445.976 83.4937L353.541 84.125L353.539 131.055Z" fill="white"/>
<path d="M431.333 126.735C432.439 122.943 432.018 119.466 430.174 116.888C428.488 114.517 425.645 113.147 422.219 112.99L357.382 112.147C357.185 112.149 356.991 112.101 356.816 112.009C356.641 111.918 356.492 111.784 356.381 111.621C356.171 111.304 356.118 110.881 356.223 110.461C356.433 109.83 357.066 109.355 357.751 109.302L423.167 108.459C430.909 108.09 439.336 101.823 442.286 94.131L446.027 84.3719C446.185 83.9504 446.237 83.529 446.13 83.1076C441.92 64.058 424.907 49.8378 404.577 49.8378C385.827 49.8378 369.92 61.9524 364.232 78.753C360.545 76.0145 355.857 74.5388 350.801 75.0119C341.796 75.908 334.58 83.1224 333.684 92.1289C333.474 94.446 333.631 96.7128 334.157 98.8184C319.462 99.2398 307.719 111.248 307.719 126.048C307.719 127.379 307.822 128.68 307.982 129.996C308.085 130.627 308.613 131.102 309.246 131.102H428.911C429.596 131.102 430.242 130.629 430.439 129.943L431.335 126.73L431.333 126.735Z" fill="#F38020"/>
<path d="M451.982 85.0741L450.193 85.1273C449.771 85.1273 449.403 85.4438 449.247 85.8667L446.733 94.6647C445.627 98.4574 446.048 101.934 447.892 104.513C449.578 106.883 452.421 108.254 455.847 108.41L469.646 109.253C469.843 109.252 470.038 109.299 470.213 109.391C470.387 109.483 470.537 109.616 470.647 109.78C470.857 110.096 470.91 110.569 470.805 110.939C470.595 111.57 469.963 112.045 469.278 112.098L454.899 112.941C447.104 113.311 438.73 119.577 435.78 127.269L434.728 129.956C434.518 130.482 434.886 131.009 435.467 131.009H484.869C485.449 131.009 485.975 130.639 486.133 130.062C486.976 127.007 487.464 123.793 487.464 120.476C487.464 100.987 471.558 85.0815 452.018 85.0815" fill="#FAAE40"/>
</g>
<defs>
<clipPath id="clip0_3047_884">
<rect width="378.537" height="125.686" fill="white" transform="translate(117 49.8027)"/>
</clipPath>
</defs>
</svg>
