<svg width="214" height="35" viewBox="0 0 214 35" fill="none" xmlns="http://www.w3.org/2000/svg">
<g clip-path="url(#clip0_856_727)">
<path d="M16.9235 26.3088C15.2612 26.9371 13.3894 27.2512 11.2821 27.2512C4.38421 27.2512 0.928711 23.9136 0.928711 17.2382C0.928711 10.9162 4.38421 7.76172 11.2821 7.76172C13.3894 7.76172 15.2743 8.07585 16.9235 8.70412V11.924C15.2612 11.2041 13.468 10.8507 11.5439 10.8507C6.92347 10.8507 4.61981 12.9842 4.61981 17.2382C4.61981 21.8586 6.92347 24.1622 11.5439 24.1622C13.468 24.1622 15.2612 23.8088 16.9235 23.0889V26.3088Z" fill="#0B2E44"/>
<path d="M18.7827 17.526C18.7827 11.0077 22.0026 7.74854 28.4293 7.74854C34.7644 7.74854 37.9319 11.0077 37.9319 17.526C37.9319 24.0051 34.7644 27.2512 28.4293 27.2512C22.2775 27.2512 19.0707 24.0051 18.7827 17.526ZM28.4293 24.1491C32.3037 24.1491 34.2408 21.9108 34.2408 17.4475C34.2408 13.0496 32.3037 10.8506 28.4293 10.8506C24.4633 10.8506 22.4738 13.0496 22.4738 17.4475C22.4738 21.9239 24.4633 24.1491 28.4293 24.1491Z" fill="#0B2E44"/>
<path d="M40.7324 27.1075V7.89282H44.4235L50.9418 22.474L57.3293 7.89282H60.8895V27.1206H57.5911V13.7174L52.3816 27.1075H49.345L44.0178 13.7174V27.1075H40.7324Z" fill="#0B2E44"/>
<path d="M64.9214 27.1075V7.89282H68.6256L75.1439 22.474L81.5313 7.89282H85.0915V27.1206H81.7931V13.7174L76.5837 27.1075H73.547L68.2198 13.7174V27.1075H64.9214Z" fill="#0B2E44"/>
<path d="M106.845 7.89273L98.416 27.1205H94.5809L86.5181 7.89273H90.7589L96.7013 22.6048L102.644 7.87964H106.845V7.89273Z" fill="#0B2E44"/>
<path d="M102.919 27.1074L111.073 7.87964H114.908L123.246 27.1074H119.411L116.99 21.8587H110.969L112.199 18.7697H116.06L112.919 11.5446L106.584 27.0943H102.919V27.1074Z" fill="#0B2E44"/>
<path d="M123.73 19.5551V7.89282H127.29V19.5551C127.29 22.618 128.861 24.1494 131.989 24.1494C135.131 24.1494 136.688 22.618 136.688 19.5551V7.89282H140.248V19.5551C140.248 24.686 137.487 27.2384 131.976 27.2384C126.466 27.2384 123.73 24.686 123.73 19.5551Z" fill="#0B2E44"/>
<path d="M147.421 7.89282V24.0185H156.4V27.1075H143.861V7.89282H147.421Z" fill="#0B2E44"/>
<path d="M169.018 7.89282V10.9818H163.508V27.1075H159.947V10.9818H154.437V7.89282H169.018Z" fill="#0B2E44"/>
<path d="M172.552 8.5209C172.775 8.5209 172.932 8.56017 173.036 8.65179C173.141 8.74342 173.193 8.87431 173.193 9.04446C173.193 9.21462 173.141 9.33242 173.049 9.41096C172.958 9.48949 172.84 9.52876 172.709 9.54185L173.233 10.3534H172.932L172.434 9.56802H172.133V10.3534H171.845V8.50781H172.552V8.5209ZM172.434 9.33242H172.617C172.67 9.33242 172.722 9.31933 172.775 9.29315C172.814 9.26697 172.853 9.2408 172.879 9.20153C172.905 9.16227 172.919 9.10991 172.919 9.03137C172.919 8.96593 172.905 8.92666 172.879 8.8874C172.853 8.84813 172.827 8.82195 172.788 8.80886C172.748 8.79577 172.709 8.76959 172.657 8.76959C172.604 8.7565 172.565 8.75651 172.513 8.75651H172.133V9.34551H172.434V9.33242Z" fill="#0B2E44"/>
<path d="M172.421 7.86646C171.557 7.86646 170.851 8.57326 170.851 9.43714C170.851 10.301 171.557 11.0078 172.421 11.0078C173.285 11.0078 173.992 10.301 173.992 9.43714C173.992 8.57326 173.285 7.86646 172.421 7.86646ZM172.421 10.7853C171.675 10.7853 171.073 10.1832 171.073 9.43714C171.073 8.69106 171.675 8.08897 172.421 8.08897C173.167 8.08897 173.769 8.69106 173.769 9.43714C173.769 10.1832 173.167 10.7853 172.421 10.7853Z" fill="#0B2E44"/>
<path d="M198.338 0L182.879 8.91361V26.0733L198.338 35L213.796 26.0733V8.91361L198.338 0ZM211.125 24.5419L198.338 31.9241L185.55 24.5419V10.4581L198.338 3.07592L211.125 10.4581V24.5419Z" fill="#FF4A6A"/>
<path d="M197.421 28.364C197.421 28.4949 197.277 28.5734 197.159 28.5079L188.167 23.3116C188.01 23.22 187.905 23.0498 187.905 22.8666V12.8142C187.905 12.6833 188.049 12.6048 188.167 12.6703L197.159 17.8666C197.316 17.9582 197.421 18.1284 197.421 18.3116V28.364Z" fill="#FF4A6A"/>
<path d="M207.369 11.2958L198.757 16.2697C198.547 16.3875 198.285 16.3875 198.076 16.2697L189.463 11.2958C189.346 11.2304 189.346 11.0602 189.463 10.9948L198.076 6.02097C198.285 5.90317 198.547 5.90317 198.757 6.02097L207.369 10.9948C207.474 11.0733 207.474 11.2304 207.369 11.2958Z" fill="#FF4A6A"/>
<path d="M207.369 24.0052L199.555 28.5078C199.437 28.5732 199.293 28.4947 199.293 28.3638V19.3455C199.293 19.2146 199.437 19.1361 199.555 19.2015L207.369 23.7041C207.474 23.7696 207.474 23.9266 207.369 24.0052Z" fill="#FF4A6A"/>
</g>
<defs>
<clipPath id="clip0_856_727">
<rect width="212.827" height="35" fill="white" transform="translate(0.928711)"/>
</clipPath>
</defs>
</svg>
