<svg width="613" height="226" viewBox="0 0 613 226" fill="none" xmlns="http://www.w3.org/2000/svg">
<g clip-path="url(#clip0_3047_900)">
<path d="M116.084 112.038V111.044L107.668 103.8H106.687C104.373 106.357 100.799 108.273 96.8016 108.273C90.5607 108.273 85.6501 103.515 85.6501 96.9826C85.6501 90.4504 90.5607 85.692 96.8016 85.692C100.799 85.692 104.373 87.6083 106.687 90.1655H107.668L116.084 82.9211V81.9274C111.666 76.5313 104.726 73.0515 96.8696 73.0515C82.4261 73.0515 71.4883 83.2772 71.4883 96.9826C71.4883 97.5135 71.6081 98.0023 71.6437 98.5234C77.5544 102.544 82.7724 105.761 87.2654 108.707C93.7426 112.805 98.9704 116.576 103.276 120.082C108.643 118.726 112.993 115.783 116.084 112.038ZM76.7549 111.782C80.1278 115.926 84.8894 118.897 90.5056 120.166C86.7119 118.033 83.0379 115.938 79.6164 113.621C78.6129 112.999 77.7195 112.397 76.7549 111.782Z" fill="#FF5353"/>
<path d="M164.799 117.864L162.695 108.774L161.925 108.276C161.504 108.49 161.154 108.774 160.102 108.774C158.487 108.774 157.506 107.069 156.664 105.722C155.263 103.589 154.14 102.453 153.159 101.957C158.277 99.6849 161.714 95.4251 161.714 89.3168C161.714 79.8713 155.263 73.9055 143.273 73.9055H122.375V120.065H136.258V103.874H137.521C140.606 103.874 144.535 110.548 146.358 113.533C150.145 119.57 153.159 120.916 158.558 120.916C161.083 120.916 163.187 119.994 164.449 118.858L164.799 117.864ZM147.549 90.097C147.549 93.1527 145.306 94.6417 142.71 94.6417H136.258V85.2674H142.71C145.306 85.2674 147.549 86.9733 147.549 90.097Z" fill="#FF5353"/>
<path d="M218.439 96.9984C218.439 83.2929 207.502 73.0673 192.987 73.0673C178.469 73.0673 167.531 83.2929 167.531 96.9984C167.531 110.704 178.469 120.929 192.987 120.929C207.502 120.929 218.439 110.633 218.439 96.9984ZM204.274 96.9984C204.274 103.602 199.225 108.289 192.987 108.289C186.746 108.289 181.696 103.602 181.696 96.9984C181.696 90.3949 186.746 85.7077 192.987 85.7077C199.225 85.7077 204.274 90.3949 204.274 96.9984Z" fill="#FF5353"/>
<path d="M249.381 73.9188L240.738 99.326L232.549 73.9188H219.277L218.662 74.9838L235.624 120.075H244.04L253.589 94.9237L263.171 120.075H271.587L288.581 74.9838L287.934 73.9188H274.694L266.473 99.4878L257.797 73.9188H249.381Z" fill="#FF5353"/>
<path d="M339.401 96.9307C339.401 83.154 330.214 73.9221 315.279 73.9221H294.031V120.082H315.279C330.214 120.082 339.401 110.85 339.401 96.9307ZM325.236 97.0019C325.236 104.528 320.817 108.72 314.719 108.72H307.915V85.284H314.719C320.817 85.284 325.236 89.4759 325.236 97.0019Z" fill="#FF5353"/>
<path d="M385.336 85.2807H398.931V120.075H412.85V85.2807H426.769V73.9188H385.336V85.2807Z" fill="#FF5353"/>
<path d="M471.115 89.3272C471.115 79.8817 464.663 73.9159 452.673 73.9159H431.775V120.075H445.662V103.884H448.957L457.581 120.075H471.396L472.027 119.01L462.77 101.896C467.748 99.5529 471.115 95.3642 471.115 89.3272ZM456.95 90.1073C456.95 93.1631 454.706 94.6521 452.11 94.6521H445.662V85.2777H452.11C454.706 85.2777 456.95 86.9836 456.95 90.1073Z" fill="#FF5353"/>
<path d="M479.531 120.075H493.45V73.9188H479.531V120.075Z" fill="#FF5353"/>
<path d="M516.11 90.3239V73.9188H502.191V120.075H516.11V105.865L518.7 102.887L530.353 120.075H544.92L545.567 119.007L528.735 94.5676L544.272 74.9838L543.949 73.9188H529.058L516.11 90.3239Z" fill="#FF5353"/>
<path d="M563.37 108.714V102.337H579.232V91.6708H563.37V85.281H584.087V73.9159H549.451V120.075H584.411V108.714H563.37Z" fill="#FF5353"/>
<path d="M363 120.615C373.17 120.615 381.998 115.646 381.998 106.064C381.998 95.6218 373.099 92.9222 365.246 90.6498C362.158 89.7272 358.999 88.659 358.999 86.3867C358.999 84.752 360.753 83.7582 363.42 83.7582C367.981 83.7582 371.837 86.6003 373.798 88.4486H374.779L381.298 80.6378V79.644C377.864 75.7402 370.856 72.7589 363.139 72.7589C352.34 72.7589 344.843 78.579 344.843 87.0276C344.843 96.1203 353.111 100.099 360.122 102.086C364.683 103.365 367.774 103.578 367.774 106.064C367.774 107.841 365.596 108.906 362.226 108.906C357.947 108.906 352.761 106.136 350.239 103.65H349.259L342.811 111.745V112.739C346.944 117.352 354.373 120.615 363 120.615Z" fill="#FF5353"/>
<path d="M123.528 163.052C120.165 155.354 113.409 145.478 86.9501 131.375C74.7466 124.59 53.9004 114.144 35.1582 94.2786C36.8576 101.445 45.5651 117.193 83.001 136.845C93.3723 142.519 110.91 147.841 123.528 163.026" fill="#FF5353"/>
<path d="M121.844 149.877C118.652 140.781 112.89 129.134 85.5572 111.842C72.2499 103.122 52.7017 92.1711 27 64.2585C28.8386 71.7846 36.9635 91.3554 77.9179 116.763C91.3709 125.878 108.734 131.501 121.844 149.877Z" fill="#FF5353"/>
</g>
<defs>
<clipPath id="clip0_3047_900">
<rect width="560" height="103.584" fill="white" transform="translate(27 61)"/>
</clipPath>
</defs>
</svg>
