<svg width="217" height="41" viewBox="0 0 217 41" fill="none" xmlns="http://www.w3.org/2000/svg">
<g clip-path="url(#clip0_856_685)">
<path d="M34.4 20.4891V20.1053L31.15 17.3078H30.7712C29.8775 18.2953 28.4975 19.0353 26.9537 19.0353C24.5437 19.0353 22.6475 17.1978 22.6475 14.6753C22.6475 12.1528 24.5437 10.3153 26.9537 10.3153C28.4975 10.3153 29.8775 11.0553 30.7712 12.0428H31.15L34.4 9.24533V8.86158C32.6937 6.77783 30.0137 5.43408 26.98 5.43408C21.4025 5.43408 17.1787 9.38283 17.1787 14.6753C17.1787 14.8803 17.225 15.0691 17.2387 15.2703C19.5212 16.8228 21.5362 18.0653 23.2712 19.2028C25.7725 20.7853 27.7912 22.2416 29.4537 23.5953C31.5262 23.0716 33.2062 21.9353 34.4 20.4891ZM19.2125 20.3903C20.515 21.9903 22.3537 23.1378 24.5225 23.6278C23.0575 22.8041 21.6387 21.9953 20.3175 21.1003C19.93 20.8603 19.585 20.6278 19.2125 20.3903Z" fill="#FC0000"/>
<path d="M53.2126 22.7389L52.4001 19.2289L52.1026 19.0364C51.9401 19.1189 51.8051 19.2289 51.3988 19.2289C50.7751 19.2289 50.3963 18.5702 50.0713 18.0502C49.5301 17.2264 49.0963 16.7877 48.7176 16.5964C50.6938 15.7189 52.0213 14.0739 52.0213 11.7152C52.0213 8.06767 49.5301 5.76392 44.9001 5.76392H36.8301V23.5889H42.1913V17.3364H42.6788C43.8701 17.3364 45.3876 19.9139 46.0913 21.0664C47.5538 23.3977 48.7176 23.9177 50.8026 23.9177C51.7776 23.9177 52.5901 23.5614 53.0776 23.1227L53.2126 22.7389ZM46.5513 12.0164C46.5513 13.1964 45.6851 13.7714 44.6826 13.7714H42.1913V10.1514H44.6826C45.6851 10.1514 46.5513 10.8102 46.5513 12.0164Z" fill="#FC0000"/>
<path d="M73.9249 14.6814C73.9249 9.38893 69.7011 5.44019 64.0961 5.44019C58.4899 5.44019 54.2661 9.38893 54.2661 14.6814C54.2661 19.9739 58.4899 23.9227 64.0961 23.9227C69.7011 23.9227 73.9249 19.9464 73.9249 14.6814ZM68.4549 14.6814C68.4549 17.2314 66.5049 19.0414 64.0961 19.0414C61.6861 19.0414 59.7361 17.2314 59.7361 14.6814C59.7361 12.1314 61.6861 10.3214 64.0961 10.3214C66.5049 10.3214 68.4549 12.1314 68.4549 14.6814Z" fill="#FC0000"/>
<path d="M85.8747 5.76904L82.5372 15.5803L79.3747 5.76904H74.2497L74.0122 6.18029L80.5622 23.5928H83.8122L87.4997 13.8803L91.1997 23.5928H94.4497L101.012 6.18029L100.762 5.76904H95.6497L92.4747 15.6428L89.1247 5.76904H85.8747Z" fill="#FC0000"/>
<path d="M120.638 14.6553C120.638 9.33526 117.09 5.77026 111.323 5.77026H103.118V23.5953H111.323C117.09 23.5953 120.638 20.0303 120.638 14.6553ZM115.168 14.6828C115.168 17.589 113.461 19.2078 111.106 19.2078H108.479V10.1578H111.106C113.461 10.1578 115.168 11.7765 115.168 14.6828Z" fill="#FC0000"/>
<path d="M138.375 10.1565H143.625V23.5928H149V10.1565H154.375V5.76904H138.375V10.1565Z" fill="#FC0000"/>
<path d="M171.5 11.7191C171.5 8.07157 169.009 5.76782 164.379 5.76782H156.309V23.5928H161.671V17.3403H162.944L166.274 23.5928H171.609L171.852 23.1816L168.277 16.5728C170.2 15.6678 171.5 14.0503 171.5 11.7191ZM166.03 12.0203C166.03 13.2003 165.164 13.7753 164.161 13.7753H161.671V10.1553H164.161C165.164 10.1553 166.03 10.8141 166.03 12.0203Z" fill="#FC0000"/>
<path d="M174.75 23.5928H180.125V5.76904H174.75V23.5928Z" fill="#FC0000"/>
<path d="M188.875 12.104V5.76904H183.5V23.5928H188.875V18.1053L189.875 16.9553L194.375 23.5928H200L200.25 23.1803L193.75 13.7428L199.75 6.18029L199.625 5.76904H193.875L188.875 12.104Z" fill="#FC0000"/>
<path d="M207.125 19.2053V16.7428H213.25V12.6241H207.125V10.1566H215.125V5.76782H201.75V23.5928H215.25V19.2053H207.125Z" fill="#FC0000"/>
<path d="M129.75 23.801C133.677 23.801 137.086 21.8823 137.086 18.1823C137.086 14.1498 133.65 13.1073 130.617 12.2298C129.425 11.8735 128.205 11.461 128.205 10.5835C128.205 9.95229 128.882 9.56855 129.912 9.56855C131.674 9.56855 133.162 10.666 133.92 11.3798H134.299L136.816 8.36354V7.97979C135.49 6.47229 132.784 5.32104 129.804 5.32104C125.634 5.32104 122.739 7.56855 122.739 10.831C122.739 14.3423 125.931 15.8785 128.639 16.646C130.4 17.1398 131.594 17.2223 131.594 18.1823C131.594 18.8685 130.752 19.2798 129.451 19.2798C127.799 19.2798 125.796 18.2098 124.822 17.2498H124.444L121.954 20.376V20.7598C123.55 22.541 126.419 23.801 129.75 23.801Z" fill="#FC0000"/>
<path d="M37.2749 40.1886C35.9761 37.2161 33.3674 33.4024 23.1499 27.9561C18.4374 25.3361 10.3874 21.3024 3.1499 13.6311C3.80615 16.3986 7.16865 22.4799 21.6249 30.0686C25.6299 32.2599 32.4024 34.3149 37.2749 40.1786" fill="#FC0000"/>
<path d="M36.625 35.1011C35.3925 31.5886 33.1675 27.0911 22.6125 20.4136C17.4737 17.0461 9.925 12.8173 0 2.03857C0.71 4.94482 3.8475 12.5023 19.6625 22.3136C24.8575 25.8336 31.5625 28.0048 36.625 35.1011Z" fill="#FC0000"/>
</g>
<defs>
<clipPath id="clip0_856_685">
<rect width="216.25" height="40" fill="white" transform="translate(0 0.780273)"/>
</clipPath>
</defs>
</svg>
