<svg width="159" height="51" viewBox="0 0 159 51" fill="none" xmlns="http://www.w3.org/2000/svg">
<path d="M31.6367 8.51697L31.9084 8.55579L32.7236 8.74988L36.1008 9.40979L38.3135 9.72034L41.6519 10.1085L41.7683 10.1473L41.8071 10.4191V20.4342L41.7295 22.1034L41.5742 23.5397L41.186 25.83L40.8367 27.4603L40.4873 28.7802L40.0603 30.1388L39.5557 31.4586L39.2063 32.235L38.6628 33.3607L38.0806 34.4476L37.6924 35.1075L37.1877 35.9227L36.6831 36.6603L36.2173 37.3202L35.7515 37.9413L35.2468 38.5624L34.9751 38.9117L34.5093 39.4552L33.8882 40.1151L33.1506 40.8527L32.8401 41.1244L32.4131 41.5126L31.9861 41.8619L31.4038 42.3666L31.0156 42.6771L30.5886 43.0265L30.084 43.4535L29.5793 43.8417L28.8806 44.3851L28.2207 44.851L27.5608 45.278L26.7456 45.7438L25.8528 46.1708L23.7954 46.986L23.3296 47.0636L22.825 46.9083L21.6216 46.326L21.0005 46.0155L20.2629 45.6273L19.3313 45.0839L18.5549 44.618L17.7009 44.0746L16.7693 43.4923L16.0317 43.0265L15.9541 42.8712L16.3811 42.7159L17.7786 42.2501L18.7878 41.9008L20.03 41.3961L21.3887 40.7362L22.2039 40.3092L23.252 39.6881L23.7954 39.3387L24.4165 38.9117L24.96 38.5236L25.6587 37.9801L26.2798 37.4755L26.8621 36.9708L27.2502 36.5826L27.5608 36.3109L28.376 35.4957L28.6477 35.1852L28.8806 34.9135H28.9583L29.0359 34.7582L29.5017 34.2147L29.8899 33.7101L30.3557 33.089L30.8992 32.3126L31.3262 31.6527L31.792 30.8763L32.1802 30.1776L32.6848 29.2072L33.2671 27.8873L33.6941 26.7616L34.0823 25.5582L34.4316 24.2384L34.781 22.5692L34.9751 21.2882L35.0916 20.046L35.1304 18.8815V17.2123L35.0916 16.1642L34.5869 16.0865L32.8013 15.776L31.2485 15.4655L29.3076 14.9996L27.949 14.6115L26.3962 14.1068L25.1929 13.641L25.0376 13.4857L25.4258 13.214L26.5127 12.5541L27.6384 11.8165L28.3372 11.3507L28.8418 10.9625L29.3853 10.5355L29.9287 10.0697L30.2393 9.75916H30.3169L30.3945 9.60388L30.7051 9.33215L31.2097 8.86633L31.6367 8.51697Z" fill="#25A8FF"/>
<path d="M19.8364 3.89758L20.147 3.9364L20.7292 4.32458L21.7773 4.86804L22.9807 5.4115L25.3486 6.45959L26.2803 6.84778L26.5908 7.00305L26.5132 7.19714L26.0085 7.66296L25.6204 7.97351L24.9604 8.51697L24.1453 9.13806L23.4465 9.6427L22.709 10.1473L21.855 10.6908L21.0398 11.1566L20.147 11.6224L19.0989 12.1659L18.2061 12.5929L16.6533 13.2528L15.4888 13.6798L13.8584 14.2233L12.228 14.6891L9.6272 15.349L8.5791 15.6207L8.61792 17.8722L8.69556 19.8907L8.88965 22.0646L9.08374 23.3068L9.35547 24.549L9.70483 25.7911L10.1318 26.9169L10.947 28.819L11.4128 29.7894L11.9563 30.7599L12.5386 31.6139L12.9268 32.1185L13.4702 32.8173L13.8196 33.2443L14.2854 33.7877L14.6348 34.1759L14.9065 34.4865L15.6829 35.2628L16.9639 36.3109L17.5073 36.7379L18.2449 37.2814L18.4778 37.4755L18.439 37.6696L17.7791 38.0189L16.925 38.4847L15.877 39.0282L14.8677 39.494L13.5479 40.0375L12.4998 40.4257L11.801 40.6974L11.5293 40.8138L11.3352 40.775L11.0247 40.5033L10.2483 39.7269L9.97656 39.4164L9.0061 38.4459L8.73438 38.1354L8.30737 37.6696L7.95801 37.2426L7.49219 36.6991L7.104 36.1945L6.56055 35.4569L6.17236 34.9135L5.78418 34.3312L5.35718 33.6324L4.89136 32.7784L4.42554 31.7692L3.57153 29.673L3.06689 28.2755L2.67871 26.9945L2.36816 25.7523L2.09644 24.3937L1.82471 22.8021L1.70825 21.8705L1.63062 20.6283L1.5918 19.1144V9.75916L1.63062 9.2157L1.74707 9.13806L3.26099 8.98279L5.66772 8.74988L7.104 8.55579L8.85083 8.24524L10.093 7.97351L11.1411 7.66296L12.1116 7.35242L13.936 6.73132L15.4111 6.14905L16.6921 5.56677L17.585 5.13977L18.3225 4.75159L19.4094 4.20813L19.8364 3.89758Z" fill="#25A8FF"/>
<path d="M71.5037 8.86633H72.8235L73.2505 8.90515L73.2893 8.94397V14.3785L74.0269 13.9904L74.6479 13.8351L74.9585 13.7963L76.4724 13.7574L77.4429 13.7963L78.1416 13.9127L78.6851 14.1068L79.1897 14.3785L79.5779 14.6891L79.9272 15.0385L80.199 15.4655L80.4319 15.9701L80.5872 16.5912L80.626 17.057V35.3405L80.5483 36.1556L80.3931 36.7767L80.0049 37.5143L79.5779 37.9801L79.1897 38.2906L78.6074 38.6012L77.9475 38.7953L77.0935 38.9117H74.4927L74.0269 38.7953L73.4834 38.4459L73.2505 38.3683L73.2893 38.4459V38.8341L73.2117 38.9506H71.6978L71.5037 38.8729L71.4648 33.8265V8.90515L71.5037 8.86633ZM75.0361 15.4655L74.415 15.5431L73.988 15.6984L73.6387 15.9313L73.4058 16.203L73.2893 16.5524L73.2505 35.4569L73.2893 36.0392L73.4058 36.4274L73.6387 36.7767L73.9492 37.0096L74.415 37.2037L75.1914 37.2814H76.9771L77.6758 37.1649L78.1416 36.932L78.3745 36.7379L78.6851 36.3109L78.8015 36.0392L78.8403 35.8063V16.7465L78.7239 16.3583L78.4521 16.0089L78.1804 15.776L77.8699 15.6207L77.2488 15.5043L76.6665 15.4655H75.0361Z" fill="black"/>
<path d="M59.3921 13.7574H59.9744L61.1389 13.7963L61.2166 13.9515V34.0206L61.2942 34.37L61.5271 34.797L61.8765 35.1075L62.3035 35.3016L62.7693 35.4181L63.0798 35.4569L63.8174 35.4957H64.7102L65.603 35.4181L65.9912 35.3016L66.3794 35.0687L66.6511 34.7194L66.7288 34.5253L66.7676 34.0983L66.8064 13.7574L68.5532 13.7963L68.592 13.8351V39.0282L68.5532 42.6771L68.4756 43.2206L68.2427 43.8029L67.9321 44.2687L67.738 44.5016L67.4275 44.7733L67.0005 45.045L66.3794 45.2391L65.5254 45.3556L64.6326 45.3944H61.1777L61.1001 45.278V43.7252L61.1389 43.6864L65.3313 43.6476L65.7195 43.5699L66.1853 43.3759L66.457 43.1429L66.6899 42.7159L66.7676 42.2113L66.8064 37.5919L66.8452 36.6215L66.1465 37.0096L65.6418 37.1649L65.0208 37.2426L63.6621 37.2814L62.4587 37.2037L61.8376 37.0873L61.333 36.8932L60.8284 36.6215L60.3625 36.1945L60.0908 35.8839L59.7803 35.3405L59.5862 34.9135L59.4309 34.2147L59.3921 33.5548V13.7574Z" fill="black"/>
<path d="M107.022 8.86633H109.468L110.167 8.98279L110.71 9.13806L111.176 9.33215L111.603 9.60388L111.991 9.91443L112.341 10.3026L112.573 10.6908L112.729 11.1178L112.768 11.3119L112.806 11.8553V18.1439L112.729 18.2216H111.991L111.06 18.1827L111.021 11.9718L110.904 11.5448L110.671 11.1566L110.322 10.8849L109.934 10.7296L109.352 10.652H106.867L106.285 10.7684L105.819 11.0013L105.509 11.3507L105.353 11.7001L105.314 11.9718L105.276 17.9498V19.4249L105.314 20.046L105.47 20.5507L105.741 20.9L106.13 21.1329L106.557 21.2882L107.022 21.3658L108.886 21.4047L110.011 21.4823L110.671 21.6376L111.254 21.8705L111.719 22.1422L112.146 22.5304L112.418 22.9186L112.651 23.3844L112.768 23.8114L112.806 24.549V35.8451L112.768 36.5826L112.651 37.0485L112.341 37.6307L112.03 38.0189L111.642 38.3683L111.215 38.64L110.71 38.8341L110.089 38.9894L109.507 39.067L108.769 39.1058H106.984L106.207 39.0282L105.547 38.8729L104.926 38.6012L104.499 38.2906L104.111 37.9413L103.762 37.3978L103.568 36.8932L103.49 36.5438L103.451 35.9615V29.7894H105.198L105.237 29.8282V35.8451L105.353 36.4662L105.586 36.8156L105.936 37.0485L106.363 37.2037L106.751 37.2814L107.333 37.3202H109.08L109.74 37.2426L110.244 37.0485L110.555 36.8156L110.788 36.5438L110.943 36.1945L111.021 35.651V24.549L110.943 24.1996L110.749 23.8502L110.516 23.5785L110.05 23.3068L109.584 23.1903L106.751 23.1515L106.052 23.035L105.237 22.7633L104.732 22.4916L104.228 22.0646L103.878 21.5988L103.645 21.0941L103.529 20.6283L103.49 20.3177V11.6224L103.645 11.0013L103.956 10.3802L104.344 9.91443L104.849 9.52625L105.237 9.29333L105.858 9.06042L106.634 8.90515L107.022 8.86633Z" fill="black"/>
<path d="M51.6282 8.86633H54.1125L55.0442 9.02161L55.6265 9.2157L56.2476 9.56506L56.7522 9.99207L57.0239 10.3026L57.3345 10.8461L57.4897 11.2731L57.5286 11.5836V18.1827H55.7817L55.7429 18.1439V12.3212L55.7041 11.6613L55.4324 11.1178L54.7336 10.7684L53.9961 10.652L53.2974 10.6132H52.3657L51.6282 10.652L51.0459 10.7684L50.6577 10.9237L50.3083 11.1954L50.1531 11.3895L50.0754 11.6224L50.0366 35.5345L50.1143 36.2333L50.3472 36.6991L50.6965 37.0096L51.0459 37.1649L51.5117 37.2814L52.094 37.3202H53.8408L54.5396 37.2426L54.9666 37.0873L55.3159 36.8544L55.5876 36.4274L55.7041 35.9227L55.7429 29.8282H57.5286V36.2333L57.4509 36.8932L57.2568 37.3978L56.9851 37.8636L56.5581 38.3295L56.0146 38.6788L55.3159 38.9117L54.6948 39.0282L53.5303 39.1058H51.7446L50.8906 39.0282L50.2695 38.8729L49.6873 38.64L49.2603 38.3295L48.9497 38.0577L48.5615 37.5143L48.3286 36.932L48.251 36.5438V11.5448L48.3674 11.0013L48.678 10.3802L48.9497 10.0309L49.2991 9.68152L49.8813 9.29333L50.4636 9.06042L51.24 8.90515L51.6282 8.86633Z" fill="black"/>
<path d="M119.172 13.7574H120.376L121.269 13.8351L122.006 14.0292L122.666 14.3785L123.132 14.8055L123.365 15.0773L123.675 15.6207L123.831 16.0865L123.869 16.3195L123.908 17.0958V26.4899L123.831 26.5287H120.415L117.154 26.4899V35.8451L117.231 36.3109L117.464 36.7767L117.891 37.0873L118.357 37.2814L118.784 37.359L119.25 37.3978H120.143L120.919 37.3202L121.424 37.1261L121.734 36.8932L121.967 36.5438L122.084 36.1556L122.123 35.651V31.4198L122.278 31.3422L123.869 31.381L123.908 31.4198V35.5734L123.869 36.3497L123.753 36.9708L123.559 37.4755L123.248 37.9025L122.977 38.213L122.511 38.5624L122.045 38.7953L121.074 39.0282L120.337 39.1058H118.901L118.085 38.9894L117.27 38.7177L116.766 38.4459L116.339 38.0966L115.989 37.7472L115.679 37.2426L115.446 36.6215L115.368 35.9615V16.7076L115.446 16.1254L115.64 15.6207L115.95 15.0773L116.377 14.6115L116.882 14.2621L117.426 13.9904L118.085 13.8351L119.172 13.7574ZM119.25 15.349L118.474 15.4266L118.047 15.5819L117.658 15.8148L117.348 16.1642L117.193 16.5135L117.154 16.7076L117.115 23.2679V24.6654L117.154 24.7819L119.988 24.8207H122.123L122.161 24.743V17.1346L122.084 16.5524L121.851 16.1254L121.54 15.776L121.152 15.5431L120.764 15.4266L119.871 15.349H119.25Z" fill="black"/>
<path d="M87.0698 13.7574H88.1567L88.8167 13.7963L89.4766 13.9127L89.9424 14.068L90.5247 14.3785L90.9128 14.6891L91.2234 15.0385L91.5339 15.5819L91.728 16.203L91.7668 16.5524L91.8057 26.451L91.6892 26.5287H89.1272L85.0125 26.4899L85.0513 36.0392L85.1677 36.4662L85.4006 36.8156L85.7112 37.0485L86.1382 37.2426L86.6428 37.359L87.0698 37.3978H88.0015L88.739 37.3202L89.2048 37.1649L89.5154 36.9708L89.8259 36.6215L89.9424 36.2721L89.9812 35.8063V31.4198L90.0588 31.3422L91.728 31.381L91.7668 31.4198V35.9615L91.6892 36.7379L91.4951 37.359L91.2234 37.786L90.874 38.1742L90.5635 38.4459L90.0977 38.7177L89.4766 38.9117L88.6226 39.067L88.1567 39.1058H86.7593L85.9829 38.9894L85.3618 38.7953L84.7407 38.4847L84.3137 38.1742L83.8479 37.7084L83.5374 37.2037L83.3433 36.6215L83.2656 36.1556V16.5524L83.3821 15.9313L83.6926 15.3102L83.9255 14.9608L84.3525 14.5338L84.7795 14.2621L85.323 13.9904L85.9829 13.8351L86.2935 13.7963L87.0698 13.7574ZM86.9922 15.349L86.3323 15.4266L85.8276 15.6207L85.4783 15.8925L85.2454 16.1642L85.0901 16.4747L85.0513 16.63L85.0125 17.2511V24.8207H90.02V16.9406L89.9036 16.3971L89.6318 16.0089L89.3213 15.6984L88.9331 15.5043L88.3508 15.3878L87.8074 15.349H86.9922Z" fill="black"/>
<path d="M144.986 13.7574L146.733 13.7963L146.772 13.8351V38.8729L146.694 38.9506H145.103L144.986 38.7953L144.909 38.4071L144.521 38.6012L144.171 38.8341L143.899 38.9117L142.696 38.9894H141.182L140.406 38.9117L139.823 38.7565L139.358 38.5624L138.969 38.3295L138.581 37.9801L138.271 37.6696L137.96 37.1649L137.727 36.6603L137.572 36.0392L137.533 35.5345V13.7963H139.047L139.319 13.8351V35.3793L139.358 35.9227L139.474 36.3109L139.668 36.6215L139.94 36.8544L140.406 37.0873L140.755 37.1649L141.104 37.2037H143.162L143.899 37.1261L144.326 36.9708L144.559 36.8156L144.792 36.5438L144.909 36.2721L144.948 36.0004L144.986 13.7574Z" fill="black"/>
<path d="M130.43 13.7574H131.672L132.526 13.8351L133.186 13.9904L133.807 14.3009L134.234 14.6115L134.622 14.9996L134.971 15.5431L135.127 15.9701L135.166 16.2418L135.204 21.4435L135.049 21.5211H133.496L133.419 21.4435L133.38 16.8629L133.225 16.3583L133.069 16.0865L132.914 15.8925L132.526 15.6595L131.905 15.5431L131.012 15.5043H130.546L129.731 15.5819L129.343 15.6984L128.955 15.9313L128.722 16.203L128.489 16.6688L128.45 16.9017L128.411 20.2401V35.7675L128.489 36.3109L128.644 36.6215L128.877 36.8932L129.265 37.1261L129.615 37.2426L130.236 37.3202H131.75L132.409 37.2037L132.759 37.0485L133.069 36.8156L133.263 36.5438L133.341 36.2721L133.38 31.4586L133.458 31.381H135.088L135.204 31.4586L135.166 36.4662L135.088 36.932L134.894 37.3978L134.583 37.8636L134.273 38.213L133.768 38.5624L133.302 38.7953L132.565 38.9894L132.06 39.067L131.594 39.1058H129.925L129.265 39.0282L128.683 38.8729L128.062 38.6012L127.635 38.2906L127.324 38.0189L127.052 37.6307L126.82 37.1649L126.664 36.505L126.625 36.0392V16.5524L126.742 15.9701L126.936 15.4655L127.208 15.0385L127.557 14.6503L127.868 14.3785L128.411 14.068L128.993 13.8739L129.615 13.7963L130.43 13.7574Z" fill="black"/>
<path d="M149.839 13.7574L151.469 13.7963L151.547 14.0292L151.585 14.2621L151.857 14.2233L152.245 13.9515L152.634 13.8351L152.944 13.7963H154.458L155.234 13.9127L155.817 14.1068L156.399 14.4174L156.826 14.7667L157.136 15.1161L157.447 15.6595L157.602 16.1642L157.68 16.7853L157.719 17.6005L157.602 17.7557H155.972L155.894 17.5616V16.8241L155.739 16.3195L155.467 15.9313L155.118 15.6984L154.497 15.5431L154.109 15.5043H153.099L152.556 15.6207L152.168 15.8148L151.857 16.1254L151.663 16.5135L151.624 16.7853L151.585 38.8729L151.508 38.9117L149.994 38.9506L149.839 38.9117L149.8 38.8341V14.4562L149.839 13.7574Z" fill="black"/>
<path d="M95.8035 13.7574H96.114L96.2305 13.8739V14.3009L96.541 14.2233L96.968 13.9515L97.3174 13.8351L97.5891 13.7963H99.2583L99.957 13.9127L100.5 14.1068L100.966 14.3397L101.432 14.6891L101.743 14.9996L102.092 15.5431L102.286 16.0477L102.403 16.7853V17.7169L102.364 17.7557H100.656L100.617 17.7169L100.578 16.7465L100.423 16.3195L100.19 15.9701L99.8794 15.7372L99.4136 15.5819L98.7537 15.5043H97.8608L97.2397 15.6207L96.9292 15.776L96.5798 16.0865L96.3857 16.4359L96.3469 16.6688L96.3081 17.6781V38.8729L96.2693 38.9117L94.6001 38.9506L94.5225 38.8729V13.7963L95.8035 13.7574Z" fill="black"/>
</svg>
