<svg width="613" height="226" viewBox="0 0 613 226" fill="none" xmlns="http://www.w3.org/2000/svg">
<path d="M134.185 77.7572H118.738V62.3103H126.462H134.185V77.7572ZM495.491 147.959H487.768H480.045V163.406H495.491V147.959Z" fill="white"/>
<path d="M134.185 140.675H118.738V85.1034H126.462H134.185V140.675ZM205.454 83.8476C216.882 83.8476 223.727 91.8222 223.727 104.381V140.675H208.28V107.583C208.28 101.618 205.643 97.6619 200.305 97.6619C196.349 97.6619 192.707 100.174 191.703 104.883V140.675H176.193V107.583C176.193 101.618 173.681 97.6619 168.344 97.6619C164.388 97.6619 160.621 100.174 159.616 104.883V140.675H144.295V85.1034H159.742V89.6873C162.504 86.2337 167.591 83.8476 173.807 83.8476C180.4 83.8476 185.612 86.8616 188.752 90.9431C192.268 86.9244 197.605 83.8476 205.454 83.8476ZM249.032 163.405H233.648V85.1034H249.095V89.6873C251.607 86.6732 257.069 83.8476 263.035 83.8476C279.172 83.8476 288.403 97.2851 288.403 112.92C288.403 128.556 279.172 141.868 263.035 141.868C257.069 141.868 251.607 138.979 249.095 136.028V163.405H249.032ZM249.032 122.025C250.916 125.856 254.997 128.493 259.456 128.493C267.807 128.493 272.768 121.774 272.768 112.983C272.768 104.004 267.807 97.3479 259.456 97.3479C254.872 97.3479 250.853 100.111 249.032 103.815V122.025ZM308.999 116.437C310.254 125.542 316.848 129.246 325.011 129.246C331.101 129.246 335.434 127.865 340.897 124.411V137.033C336.313 140.361 330.097 141.868 322.625 141.868C305.733 141.868 294.18 130.942 294.18 113.297C294.18 95.9037 305.106 83.8476 320.301 83.8476C336.439 83.8476 344.79 95.0246 344.79 111.476V116.437H308.999ZM309.501 106.327H330.536C330.16 100.362 326.832 96.1548 320.741 96.1548C315.592 96.1548 311.259 99.3573 309.501 106.327ZM386.798 100.236C384.663 98.9805 381.963 98.3526 379.075 98.3526C373.863 98.3526 369.656 101.115 368.526 106.202V140.612H353.079V85.0406H368.526V90.5035C370.912 86.5476 375.496 83.7848 380.958 83.7848C383.596 83.7848 385.919 84.2871 386.798 84.7894V100.236ZM410.785 140.675L389.749 85.1034H405.887L418.697 122.025L431.255 85.1034H446.765L425.604 140.675H410.785ZM480.107 105.95C480.107 100.613 475.524 97.2223 467.675 97.2223C462.086 97.2223 456.874 98.8549 452.479 101.681V88.3686C456.435 85.8569 463.656 83.7848 471.002 83.7848C486.324 83.7848 495.491 91.6338 495.491 105.197V140.612H480.107V137.66C478.224 139.544 472.761 141.616 466.67 141.616C455.493 141.616 446.137 135.149 446.137 123.595C446.137 113.046 455.493 105.825 467.675 105.825C472.51 105.825 477.847 107.457 480.107 109.09V105.95ZM480.107 121.523C478.726 118.509 474.644 116.688 470.312 116.688C465.477 116.688 460.516 118.823 460.516 123.532C460.516 128.367 465.477 130.377 470.312 130.377C474.644 130.377 478.789 128.493 480.107 125.542V121.523Z" fill="#3C6FFF"/>
</svg>
