<svg width="106" height="37" viewBox="0 0 106 37" fill="none" xmlns="http://www.w3.org/2000/svg">
<g clip-path="url(#clip0_445_2661)">
<path fill-rule="evenodd" clip-rule="evenodd" d="M63.0976 17.0368C64.5282 15.3173 65.2904 13.1626 65.2904 10.9154C65.2904 5.73382 61.1587 1.46902 56.0817 1.44591H56.0587H47.4038C44.565 1.44591 42.2568 3.80788 42.2568 6.69679V30.8165C42.2568 33.7285 44.565 36.0666 47.4038 36.0666H47.9575C48.2575 36.0666 48.4882 35.8147 48.4882 35.5166V6.90325C48.4882 6.76536 48.6036 6.65057 48.742 6.65057H55.9194C58.2276 6.65057 60.1204 8.53029 60.1657 10.846C60.1896 11.9931 59.7504 13.0932 58.9659 13.896C58.1814 14.721 57.12 15.1794 55.9894 15.1794H53.4037C53.0352 15.1794 52.7122 15.409 52.5507 15.7526L51.1655 19.0089C51.0963 19.1692 51.0963 19.3757 51.2117 19.5359C51.304 19.6961 51.4886 19.7878 51.6501 19.7878H55.9894C58.989 19.7878 61.4586 22.2414 61.5048 25.2451C61.5278 26.7358 60.9741 28.1572 59.9358 29.2118C58.8967 30.2665 57.5354 30.862 56.0817 30.862H52.1577C51.7654 30.862 51.4193 31.1146 51.2809 31.4813L49.8042 35.3563C49.7342 35.5166 49.758 35.723 49.8734 35.8609C49.9657 36.0219 50.1272 36.0897 50.3118 36.0897H55.9664C61.897 36.0897 66.7432 31.2071 66.7432 25.222C66.7209 22.0589 65.405 19.1006 63.0976 17.0368Z" fill="#333232"/>
<path fill-rule="evenodd" clip-rule="evenodd" d="M84.8604 3.624C84.3297 2.27122 83.1291 1.42303 81.6986 1.42303C80.2672 1.42303 79.0674 2.27122 78.5367 3.624L66.3054 35.3335C66.2355 35.4945 66.2585 35.6771 66.3516 35.8381C66.4439 35.976 66.6054 36.0669 66.79 36.0669H69.4211C71.1055 36.0669 72.5822 35.0353 73.206 33.453L81.5832 11.763C81.6063 11.6721 81.6755 11.6721 81.6986 11.6721C81.7216 11.6721 81.7909 11.6721 81.8139 11.7407L85.1604 20.3843C85.1834 20.4305 85.1604 20.476 85.1373 20.4991C85.1142 20.5445 85.0681 20.5445 85.045 20.5445H80.6372C80.2672 20.5445 79.9211 20.7741 79.7827 21.1408L78.3983 24.6946C78.3291 24.8556 78.3521 25.0382 78.4444 25.1992C78.5367 25.3371 78.6982 25.4287 78.8836 25.4287H86.937C87.0532 25.4287 87.1455 25.4973 87.1685 25.589L90.215 33.4306C90.8372 35.013 92.3147 36.0438 93.9768 36.0438H96.4695C96.7002 36.0438 96.8848 35.9297 97.0225 35.7464C97.1386 35.5623 97.1609 35.3335 97.0917 35.127L84.8604 3.624Z" fill="#333232"/>
<mask id="mask0_445_2661" style="mask-type:luminance" maskUnits="userSpaceOnUse" x="98" y="1" width="7" height="36">
<path d="M98.2456 1.42311H104.454V36.0669H98.2456V1.42311Z" fill="white"/>
</mask>
<g mask="url(#mask0_445_2661)">
<path fill-rule="evenodd" clip-rule="evenodd" d="M99.3308 1.42311H98.7763C98.4771 1.42311 98.2456 1.67502 98.2456 1.97316V30.8399C98.2456 33.7288 100.554 36.0669 103.369 36.0669H103.923C104.223 36.0669 104.454 35.815 104.454 35.5169V6.67323C104.454 3.78431 102.146 1.42311 99.3308 1.42311Z" fill="#333232"/>
</g>
<path fill-rule="evenodd" clip-rule="evenodd" d="M4.82776 1.57538H36.2078V32.1508C36.2078 34.3726 34.4066 36.1738 32.1847 36.1738H0.804688V5.59846C0.804688 3.37657 2.60588 1.57538 4.82776 1.57538Z" fill="url(#paint0_radial_445_2661)"/>
<path fill-rule="evenodd" clip-rule="evenodd" d="M1.80029 18.7566C1.80029 27.8131 9.18536 35.1494 18.3017 35.1494C27.4181 35.1494 34.8031 27.8131 34.8031 18.7566C34.8031 9.70004 27.4181 2.36292 18.3017 2.36292C9.20844 2.33987 1.80029 9.70004 1.80029 18.7566Z" fill="#002D74"/>
<path fill-rule="evenodd" clip-rule="evenodd" d="M30.6945 28.0425C30.7406 27.8129 30.8791 27.6295 31.0637 27.4916C31.1098 27.4462 31.179 27.4231 31.2482 27.4231C31.3867 27.4 31.4798 27.4916 31.4798 27.6295C31.4798 27.6527 31.4798 27.675 31.4559 27.7212C31.4098 27.9508 31.2713 28.1341 31.0867 28.272C31.0406 28.3175 30.9714 28.3406 30.9021 28.3629C30.7868 28.386 30.6945 28.3175 30.6714 28.2027C30.6714 28.1341 30.6714 28.0887 30.6945 28.0425ZM30.556 26.9185C30.5791 26.6666 30.6945 26.437 30.9483 26.2999C30.9944 26.2544 31.0637 26.2544 31.1329 26.2305C31.2713 26.2082 31.3867 26.2999 31.4098 26.4601V26.5749C31.3636 26.8276 31.2482 27.0102 31.0637 27.1712C31.0406 27.1935 30.9944 27.2174 30.9714 27.2174C30.7406 27.3314 30.556 27.1935 30.556 26.9185ZM30.3715 25.8184C30.3484 25.7729 30.3484 25.7267 30.3484 25.6574C30.3484 25.3831 30.4868 25.1535 30.7176 24.9925C30.8329 24.924 30.9483 24.9016 31.0867 24.9702C31.2021 25.0388 31.2482 25.1535 31.2482 25.3138C31.2252 25.5657 31.1098 25.7953 30.9021 25.9555C30.856 26.0017 30.7868 26.0248 30.7406 26.0248C30.5791 26.0472 30.4407 25.9786 30.3715 25.8184ZM30.3945 29.4407C30.3253 29.7165 30.1407 29.8991 29.8869 30.037C29.8408 30.0601 29.7946 30.0601 29.7715 30.0601C29.61 30.0601 29.5408 29.9907 29.587 29.8536C29.6562 29.5555 29.8408 29.3259 30.1638 29.235C30.3253 29.1657 30.4407 29.2805 30.3945 29.4407ZM29.4716 28.8906C29.4485 28.5925 29.7946 28.1804 30.0946 28.1565C30.2561 28.1341 30.3715 28.2258 30.3715 28.4092C30.3715 28.4323 30.3715 28.4546 30.3484 28.5008C30.2792 28.7304 30.1407 28.9138 29.9331 29.0517C29.8638 29.0971 29.7946 29.0971 29.7254 29.1194C29.587 29.0971 29.4947 29.0054 29.4716 28.8906ZM29.3101 27.561C29.3562 27.3314 29.4716 27.1712 29.6562 27.0564C29.7254 27.0102 29.8177 26.9878 29.8869 26.9647C30.0946 26.9416 30.233 27.0564 30.2099 27.3091C30.1638 27.561 30.0254 27.7905 29.7715 27.9508C29.6562 28.0194 29.5177 28.0425 29.3793 27.9508C29.2862 27.836 29.2862 27.6989 29.3101 27.561ZM29.0324 26.323C29.0563 26.0703 29.1947 25.8415 29.4485 25.6813C29.4947 25.6574 29.5639 25.635 29.6331 25.6119C29.8638 25.5888 30.0254 25.7267 30.0484 25.9555C30.0484 26.0703 30.0254 26.1851 29.9792 26.2768C29.91 26.4147 29.8408 26.5287 29.7254 26.598C29.6562 26.6442 29.587 26.6897 29.4947 26.6897C29.2409 26.7814 29.0324 26.6203 29.0324 26.323ZM28.7555 24.9016C28.7555 24.6258 28.8947 24.4202 29.1247 24.2823C29.4254 24.1212 29.7485 24.2823 29.7485 24.6258C29.7485 24.8785 29.6562 25.1073 29.4254 25.2676C29.2862 25.3831 29.1247 25.4055 28.964 25.3138C28.8025 25.2452 28.7555 25.0842 28.7555 24.9016ZM28.4333 23.7091C28.3633 23.5943 28.3402 23.4572 28.3402 23.3193C28.3633 23.1128 28.4556 22.9526 28.5948 22.8147C28.7555 22.6768 28.9409 22.6082 29.1247 22.6999C29.3324 22.7923 29.4254 22.9526 29.4254 23.1583C29.4254 23.4341 29.3101 23.6398 29.1024 23.8008C28.8709 24.0072 28.5948 23.961 28.4333 23.7091ZM27.9249 22.0351C27.9018 21.9665 27.9018 21.8972 27.9018 21.8748C27.9018 21.6684 27.948 21.485 28.0633 21.3479C28.1787 21.1638 28.3633 21.0721 28.5948 21.1183C28.8248 21.1638 28.9409 21.3017 29.0101 21.5081C29.0786 21.7832 28.9409 22.1499 28.7094 22.3109C28.4333 22.4942 28.0172 22.3563 27.9249 22.0351ZM27.6019 20.6137C27.2788 20.3156 27.3942 19.6962 27.8095 19.536C27.9941 19.4674 28.1787 19.4897 28.3171 19.6276C28.4794 19.7424 28.5248 19.9258 28.5479 20.1091C28.5479 20.3156 28.4794 20.4989 28.3171 20.6368C28.0864 20.8202 27.8095 20.8202 27.6019 20.6137ZM26.8866 18.6878C26.8174 18.4359 26.8635 18.1832 27.025 17.9775C27.1635 17.7934 27.3481 17.7479 27.5788 17.8165C27.8557 17.885 28.0403 18.1377 28.0403 18.4813C28.0403 18.6416 27.9941 18.8026 27.8557 18.9405C27.6942 19.1462 27.4173 19.1924 27.1865 19.0545C27.025 18.9859 26.9327 18.8711 26.8866 18.6878ZM26.9327 21.1869C26.7712 21.4157 26.5405 21.5081 26.2867 21.4157C26.0321 21.3479 25.8483 21.1183 25.8483 20.8664C25.8244 20.6137 25.9175 20.3849 26.1252 20.2239C26.4482 19.9489 26.9558 20.1553 27.0712 20.5683C27.0942 20.6137 27.0942 20.6592 27.0942 20.7285C27.0712 20.8887 27.025 21.0498 26.9327 21.1869ZM25.3407 19.4443C25.1791 19.1462 25.2714 18.7109 25.5483 18.5268C25.756 18.3896 25.9636 18.3896 26.1713 18.5044C26.379 18.6192 26.5174 18.8257 26.5174 19.0776C26.5174 19.2155 26.4943 19.3295 26.4251 19.4443C26.3097 19.6508 26.1482 19.7879 25.8944 19.7655C25.6629 19.7655 25.4791 19.6508 25.3407 19.4443ZM24.6708 17.335C24.6708 17.2202 24.7177 17.1054 24.7861 16.9914C24.9253 16.7618 25.133 16.6702 25.3868 16.7156C25.7329 16.785 25.9636 17.0369 25.9636 17.4267C25.9636 17.5415 25.9175 17.6562 25.8483 17.771C25.6868 18.0229 25.4091 18.1377 25.133 18.0229C24.8323 17.9313 24.6477 17.6562 24.6708 17.335ZM24.2093 20.3849C24.0478 20.361 23.9093 20.3156 23.817 20.2008C23.6555 19.9951 23.5863 19.7655 23.6786 19.5136C23.7478 19.2609 23.9324 19.123 24.1862 19.0776C24.44 19.0083 24.6708 19.123 24.8323 19.3295C24.9015 19.4443 24.9476 19.5822 24.9476 19.6739C24.9253 20.1091 24.5785 20.4073 24.2093 20.3849ZM22.9864 17.9313C23.0556 17.6331 23.171 17.4036 23.4709 17.3119C23.7247 17.2433 24.0478 17.3812 24.2093 17.61C24.2785 17.7017 24.3247 17.8165 24.3247 17.9544C24.3247 18.1601 24.2554 18.3665 24.117 18.5268C24.0016 18.6647 23.817 18.7109 23.6786 18.7109C23.2633 18.6878 22.9402 18.3211 22.9864 17.9313ZM22.548 21.0721C22.1788 21.0721 21.8789 20.7508 21.8789 20.3387C21.8789 19.9712 22.225 19.6508 22.6172 19.6508C22.9864 19.6508 23.2863 19.9712 23.2863 20.361C23.2633 20.774 22.9633 21.0721 22.548 21.0721ZM21.3013 18.6192C21.3013 18.2525 21.6012 17.9544 21.9935 17.9544C22.3626 17.9544 22.6403 18.2525 22.6403 18.6416C22.6403 19.0314 22.3403 19.3064 21.9473 19.3064C21.5781 19.3064 21.3013 18.9859 21.3013 18.6192ZM20.8859 21.6915C20.4706 21.6915 20.1476 21.4157 20.1476 21.0498C20.1476 20.6137 20.4475 20.2694 20.8167 20.2694C21.232 20.2694 21.5551 20.5683 21.5551 20.9119C21.5551 21.3479 21.2559 21.6915 20.8859 21.6915ZM19.5015 19.3064C19.5015 18.8711 19.8245 18.5499 20.2168 18.5499C20.609 18.5499 20.9321 18.8711 20.909 19.2609C20.909 19.6508 20.586 19.9712 20.2168 19.9712C19.8476 19.9712 19.5015 19.6508 19.5015 19.3064ZM19.1323 22.3332C18.717 22.3332 18.3932 22.0127 18.3932 21.6684C18.3932 21.2554 18.717 20.9119 19.0862 20.9119C19.5015 20.9119 19.8245 21.2323 19.8245 21.5998C19.8015 22.0127 19.5015 22.3563 19.1323 22.3332ZM17.7472 19.9489C17.7472 19.536 18.0479 19.1924 18.4632 19.1924C18.8785 19.1924 19.1785 19.4897 19.1785 19.9034C19.1785 20.2694 18.8547 20.6137 18.5094 20.6137C18.0933 20.6137 17.7472 20.2925 17.7472 19.9489ZM17.4011 22.9757C16.9857 22.9757 16.6627 22.6544 16.6627 22.3109C16.6627 21.921 16.9627 21.5767 17.3318 21.5767C17.7472 21.5767 18.0933 21.8972 18.0933 22.2646C18.0702 22.6313 17.7472 22.9757 17.4011 22.9757ZM15.9936 20.5452C15.9936 20.1553 16.2935 19.811 16.6627 19.811C17.078 19.811 17.4241 20.1322 17.4241 20.4766C17.4241 20.8887 17.1242 21.21 16.7319 21.2323C16.3397 21.2323 15.9936 20.9342 15.9936 20.5452ZM14.9776 21.8294C14.6084 21.8294 14.2861 21.5081 14.3084 21.1407C14.3084 20.774 14.6084 20.4989 14.9776 20.4989C15.3244 20.4989 15.6475 20.8202 15.6475 21.1869C15.6475 21.5312 15.3706 21.8294 14.9776 21.8294ZM13.6393 19.4443C13.6393 19.0545 13.9623 18.7109 14.3084 18.7109C14.7015 18.7109 15.0476 19.0314 15.0476 19.3757C15.0476 19.7879 14.7238 20.1091 14.3546 20.1091C13.9623 20.1091 13.6393 19.811 13.6393 19.4443ZM13.0855 17.4498C13.1317 17.3581 13.1778 17.2664 13.2471 17.1748C13.3624 17.0369 13.5239 16.9914 13.7316 16.9914C13.9393 16.9914 14.1238 17.0823 14.2861 17.2664C14.3777 17.3812 14.4238 17.5183 14.4238 17.6562C14.4007 17.885 14.3084 18.0684 14.1469 18.2294C14.0316 18.3442 13.8931 18.3896 13.7547 18.3896C13.2471 18.3896 12.924 17.9082 13.0855 17.4498ZM14.863 14.6749C15.2091 14.6749 15.509 14.9738 15.509 15.3405C15.509 15.7072 15.1852 16.0053 14.8161 16.0053C14.4699 16.0053 14.17 15.7072 14.17 15.3636C14.17 14.9738 14.4938 14.6749 14.863 14.6749ZM15.3244 12.8868C15.3929 12.6118 15.5782 12.4516 15.8551 12.4054H15.9474C16.2474 12.4054 16.5012 12.5664 16.5935 12.8183C16.6858 13.0479 16.6166 13.3229 16.4089 13.5062C16.1551 13.7119 15.7628 13.7119 15.509 13.5062C15.3244 13.3229 15.2552 13.1164 15.3244 12.8868ZM16.9857 12.3599C17.0319 12.0387 17.2857 11.786 17.6087 11.7636H17.7941C18.1633 11.8091 18.3932 12.1072 18.3709 12.4516C18.3471 12.7721 18.0479 13.0479 17.6779 13.0702C17.6087 13.0479 17.5395 13.0479 17.4703 13.0247C17.1703 12.9331 16.9627 12.658 16.9857 12.3599ZM19.0623 11.259C19.3631 11.1219 19.7323 11.1905 19.9399 11.4424C20.1014 11.6257 20.1014 11.8322 20.0322 12.0618C19.9399 12.2906 19.7784 12.4054 19.5246 12.4516H19.4784H19.4092C19.2246 12.4516 19.0862 12.3822 18.9247 12.2906C18.5324 11.9701 18.717 11.3969 19.0623 11.259ZM20.4475 11.0302C20.5398 10.8007 20.7244 10.6404 20.9782 10.6404C21.209 10.6404 21.4397 10.7321 21.6012 10.8923C21.7173 11.0071 21.7396 11.1443 21.7635 11.259C21.7635 11.6257 21.4635 11.9239 21.1167 11.9008C20.909 11.9008 20.7244 11.8091 20.5629 11.6488C20.3783 11.4655 20.3552 11.259 20.4475 11.0302ZM22.548 10.1589C22.8479 10.1127 23.194 10.2737 23.3094 10.5488C23.5402 11.0302 23.1479 11.3969 22.8018 11.3738C22.5249 11.3738 22.2942 11.259 22.155 11.0302C21.9012 10.6628 22.1788 10.2044 22.548 10.1589ZM24.0478 12.3822C24.0708 12.7266 23.7478 13.0479 23.3556 12.9785C22.9633 12.91 22.6864 12.5433 22.7557 12.1766C22.8249 11.8553 23.0556 11.672 23.3786 11.6951C23.6786 11.7182 24.0708 12.0387 24.0478 12.3822ZM24.4631 11.4193C24.6015 11.2367 24.7861 11.1905 24.9938 11.2367C25.3168 11.3045 25.5483 11.5341 25.5945 11.8322C25.6168 11.947 25.5945 12.0618 25.5483 12.1766C25.4553 12.3599 25.2945 12.4747 25.1092 12.4747C24.74 12.4747 24.5092 12.3137 24.3939 12.0155C24.2785 11.8091 24.3247 11.6034 24.4631 11.4193ZM24.2785 15.134C24.3708 15.0424 24.4862 15.0192 24.6246 15.0192C24.9253 15.0192 25.1553 15.1564 25.2714 15.4322C25.3868 15.7072 25.3407 15.9591 25.133 16.1887C25.063 16.2572 24.9938 16.3266 24.8784 16.3489C24.5785 16.4183 24.2324 16.2572 24.0939 15.9822C23.9555 15.6841 24.0247 15.3405 24.2785 15.134ZM23.4017 14.1256C23.3325 13.8729 23.4017 13.6665 23.5863 13.4831C23.6786 13.3914 23.794 13.3452 23.9324 13.3452C24.3477 13.3229 24.7177 13.6896 24.6938 14.0563C24.6938 14.4923 24.3016 14.7673 23.8863 14.6525C23.6555 14.5609 23.4709 14.3775 23.4017 14.1256ZM22.9864 15.5924C23.3786 15.5924 23.7017 15.8905 23.7017 16.2572C23.7017 16.6471 23.4479 16.9452 23.1018 16.9683C22.6864 16.9683 22.3626 16.6702 22.3626 16.2804C22.3626 15.9137 22.6403 15.5701 22.9864 15.5924ZM21.9935 15.0886C21.7858 14.9507 21.6935 14.7673 21.6935 14.5147C21.6935 14.1256 21.9712 13.8729 22.3626 13.8729C22.6634 13.8729 22.9633 14.1025 23.0325 14.4006C23.1018 14.6749 22.9633 15.0192 22.7326 15.1795C22.6172 15.2488 22.5018 15.2712 22.3865 15.2488C22.248 15.2257 22.1088 15.1795 21.9935 15.0886ZM21.3474 16.2118C21.7173 16.2118 22.0173 16.533 22.0173 16.8997C22.0173 17.2664 21.7173 17.5415 21.3474 17.5415C20.9551 17.5415 20.6552 17.2433 20.6552 16.8535C20.6552 16.4868 20.9551 16.2118 21.3474 16.2118ZM21.0936 12.8637C21.0705 12.5201 21.3474 12.2451 21.7396 12.2451C22.1088 12.2451 22.4326 12.5664 22.4095 12.9331C22.4095 13.2304 22.1788 13.46 21.855 13.5062C21.4635 13.5748 21.0936 13.2535 21.0936 12.8637ZM19.9861 15.134C19.9861 14.7673 20.286 14.4461 20.6552 14.4461C21.0474 14.4461 21.3935 14.7442 21.3935 15.1109C21.3935 15.5007 21.0936 15.822 20.7013 15.822C20.3091 15.8451 19.9861 15.5238 19.9861 15.134ZM19.5707 16.8304C19.963 16.8304 20.2629 17.1285 20.2629 17.5183C20.2629 17.885 19.963 18.1832 19.5707 18.1832C19.2016 18.1832 18.9008 17.885 18.9008 17.496C18.9008 17.1285 19.2016 16.8304 19.5707 16.8304ZM19.3631 13.4377C19.3631 13.0933 19.663 12.8183 20.0322 12.8183C20.4014 12.8183 20.7013 13.1395 20.7013 13.5062C20.7013 13.8498 20.4014 14.1256 20.0322 14.1256C19.663 14.1025 19.3631 13.7813 19.3631 13.4377ZM18.2555 15.7758C18.2555 15.4091 18.5547 15.0886 18.9247 15.0886C19.3169 15.0886 19.6169 15.3859 19.6169 15.7526C19.6169 16.1193 19.3169 16.4183 18.9478 16.4183C18.5786 16.4406 18.2778 16.1425 18.2555 15.7758ZM17.8395 17.4729C18.2094 17.4729 18.5094 17.771 18.5094 18.1601C18.5094 18.5499 18.2094 18.848 17.8164 18.848C17.4472 18.848 17.1472 18.5499 17.1472 18.1377C17.1242 17.771 17.4472 17.4729 17.8395 17.4729ZM17.6318 14.0563C17.6318 13.6896 17.9317 13.4146 18.324 13.4146C18.6932 13.4146 18.9939 13.7119 18.9708 14.0794C18.9708 14.4461 18.6709 14.7211 18.3017 14.7211C17.9317 14.7211 17.6318 14.4006 17.6318 14.0563ZM16.4781 16.4406C16.4781 16.0284 16.8011 15.7072 17.2165 15.7072C17.6087 15.7072 17.9087 16.0284 17.9087 16.4183C17.9087 16.785 17.5626 17.1054 17.2165 17.1054C16.8011 17.1054 16.4781 16.8081 16.4781 16.4406ZM16.0859 18.0684C16.455 18.0684 16.8011 18.3896 16.8011 18.7563C16.8011 19.1462 16.4781 19.4897 16.132 19.4897C15.7167 19.4897 15.3706 19.1693 15.3706 18.8026C15.3706 18.3896 15.6705 18.0684 16.0859 18.0684ZM15.9013 14.6749C15.9013 14.3082 16.2243 14.0332 16.5935 14.0332C16.9627 14.0332 17.2395 14.3313 17.2395 14.698C17.2395 15.0655 16.9165 15.3636 16.5473 15.3636C16.1782 15.3405 15.9013 15.0424 15.9013 14.6749ZM16.1551 16.9914C16.1551 17.4036 15.8321 17.7479 15.486 17.7479C15.0476 17.7479 14.7476 17.4498 14.7476 17.06C14.7476 16.6702 15.0706 16.3489 15.4398 16.3489C15.8321 16.3489 16.1551 16.6471 16.1551 16.9914ZM26.2405 13.5517C26.2405 13.6896 26.1944 13.8267 26.1021 13.9415C25.9406 14.1256 25.7098 14.1711 25.4553 14.0794C25.0861 13.9415 24.9015 13.5293 25.063 13.1626C25.1553 12.9331 25.363 12.8183 25.5945 12.8414C25.9636 12.8637 26.2405 13.1626 26.2405 13.5517ZM26.4943 10.8461C26.7943 10.9378 26.9789 11.1674 27.025 11.4424C27.0712 11.786 26.8174 12.0155 26.4713 11.9701C26.1482 11.9239 25.8713 11.6257 25.8713 11.3045C25.8944 10.984 26.1713 10.7552 26.4943 10.8461ZM27.2788 12.4516C27.5326 12.5887 27.648 12.7952 27.6711 13.0247C27.6711 13.46 27.325 13.6896 26.9558 13.5293C26.702 13.4146 26.5405 13.1395 26.5405 12.8868C26.5636 12.497 26.9327 12.2675 27.2788 12.4516ZM27.8095 10.4563C28.1326 10.5256 28.3871 10.823 28.3871 11.1443C28.3871 11.4655 28.1556 11.6488 27.8557 11.5803C27.5326 11.5117 27.2788 11.1905 27.3019 10.8692C27.3019 10.5711 27.5326 10.3877 27.8095 10.4563ZM29.0324 12.658C29.0324 12.7266 29.0324 12.7952 29.0101 12.8637C28.964 13.0702 28.7786 13.185 28.5709 13.1626C28.1556 13.1164 27.8557 12.6812 27.971 12.2906C28.0403 12.0618 28.2018 11.947 28.4556 11.9701C28.7094 11.9932 29.0786 12.3368 29.0324 12.658ZM29.4485 13.7119C29.6331 13.896 29.7023 14.1256 29.6331 14.3775C29.5639 14.7211 29.2639 14.859 28.9409 14.6749C28.7094 14.5378 28.5709 14.3313 28.5709 13.9877C28.5709 13.8729 28.6171 13.7581 28.7094 13.6441C28.8025 13.5293 28.9409 13.4831 29.0786 13.5062C29.2409 13.5517 29.3562 13.5979 29.4485 13.7119ZM30.2099 15.7989C30.2099 15.9591 30.1638 16.1193 30.0484 16.2341C29.9331 16.3489 29.7946 16.3951 29.6331 16.3489C29.4254 16.2804 29.2862 16.1425 29.1947 15.9368C29.1247 15.7526 29.1247 15.547 29.2178 15.3636C29.3324 15.1109 29.587 15.0192 29.8408 15.1564C30.0946 15.2943 30.2099 15.5238 30.2099 15.7989ZM30.233 16.7156C30.4176 16.7387 30.5791 16.8535 30.6483 17.0145C30.7637 17.2433 30.7637 17.496 30.6253 17.7248C30.4637 17.9998 30.1638 18.0453 29.9331 17.8165C29.7946 17.6786 29.7023 17.496 29.7023 17.335C29.7023 17.1285 29.7485 16.9683 29.8869 16.8304C30.0023 16.7156 30.1176 16.6933 30.233 16.7156ZM30.5099 14.9276C30.6022 14.6525 30.856 14.584 31.0867 14.7442C31.2944 14.9045 31.3867 15.1109 31.4098 15.3636C31.3867 15.4553 31.3636 15.547 31.3405 15.6379C31.2252 15.8674 30.9944 15.9368 30.7868 15.7989C30.6714 15.7303 30.6022 15.6155 30.533 15.5007C30.4407 15.2943 30.4176 15.1109 30.5099 14.9276ZM31.6874 16.3489C31.8251 16.4868 31.8951 16.6471 31.8712 16.8304C31.8712 17.0145 31.8482 17.1516 31.7559 17.2664C31.6174 17.4498 31.4328 17.4729 31.2482 17.3581C31.179 17.3119 31.1098 17.2433 31.0637 17.1748C30.9252 16.9221 30.9021 16.6702 31.0406 16.4183C31.179 16.1656 31.4798 16.1193 31.6874 16.3489ZM32.1027 17.885C32.2412 17.9998 32.3104 18.1832 32.3104 18.3896C32.3104 18.5268 32.2643 18.6647 32.195 18.7795C32.0566 18.9859 31.8251 18.9859 31.6636 18.8026C31.4328 18.5499 31.4559 18.1146 31.6874 17.885C31.7789 17.7479 31.9635 17.7479 32.1027 17.885ZM32.5865 19.4897C32.6565 19.6053 32.6796 19.7193 32.6796 19.8796C32.6796 20.0174 32.6334 20.1777 32.5181 20.3387C32.3789 20.522 32.1712 20.522 32.0327 20.361C31.9874 20.3156 31.9412 20.247 31.9174 20.1553C31.8482 19.9034 31.8712 19.6508 32.0327 19.4443C32.1712 19.2155 32.4488 19.2378 32.5865 19.4897ZM32.6565 17.4267C32.7719 17.2433 32.9565 17.2433 33.0949 17.4036C33.2795 17.6331 33.3026 18.0229 33.141 18.2525C33.0257 18.4128 32.8642 18.4359 32.7257 18.298C32.5865 18.1601 32.5642 17.9775 32.5404 17.8165C32.5642 17.6562 32.5865 17.5415 32.6565 17.4267ZM33.4872 18.9174C33.5564 19.0083 33.5794 19.1693 33.5794 19.3526C33.5794 19.4674 33.5333 19.6053 33.441 19.7424C33.3256 19.9258 33.141 19.9258 33.0257 19.7424C32.8642 19.5136 32.8642 19.123 33.0488 18.8942C33.1872 18.7109 33.3718 18.734 33.4872 18.9174ZM33.5794 16.9683C33.6717 16.8081 33.8102 16.7849 33.9255 16.9452C34.1101 17.1971 34.1563 17.4498 34.0178 17.7479C33.9255 17.9313 33.764 17.9544 33.6487 17.7934C33.5333 17.6562 33.5102 17.496 33.5102 17.335C33.4872 17.1748 33.5102 17.06 33.5794 16.9683ZM33.3026 23.8008V23.8924C33.2795 24.1212 33.1872 24.3285 33.0257 24.5111C33.0018 24.5342 32.9565 24.5573 32.9334 24.5804C32.818 24.6258 32.7257 24.6027 32.6565 24.4887C32.6334 24.4425 32.6104 24.3739 32.6104 24.3285C32.6104 24.0758 32.6796 23.8693 32.8642 23.686C32.9334 23.6174 33.0018 23.5481 33.118 23.5943C33.2333 23.5943 33.2795 23.686 33.3026 23.8008ZM33.3487 25.0619C33.3256 25.2914 33.2333 25.4971 33.0718 25.6813C33.0488 25.7036 33.0018 25.7491 32.9795 25.7491C32.8642 25.8184 32.7719 25.7729 32.748 25.6574C32.748 25.635 32.748 25.5888 32.7257 25.5434C32.748 25.2914 32.8411 25.0842 33.0257 24.9016C33.0949 24.8323 33.1641 24.7861 33.2795 24.8323C33.3487 24.8785 33.3487 24.9702 33.3487 25.0619ZM32.4942 23.0666C32.4719 22.998 32.4719 22.9526 32.4719 22.884C32.4719 22.723 32.5181 22.5851 32.6104 22.448C32.6334 22.4025 32.6565 22.3787 32.6796 22.3332C32.748 22.2415 32.8411 22.1953 32.9565 22.2184C33.0718 22.2415 33.118 22.3332 33.141 22.448C33.1872 22.723 33.118 22.9757 32.9334 23.1583C32.7719 23.3655 32.5642 23.2962 32.4942 23.0666ZM32.4488 26.9878C32.4027 27.1935 32.2866 27.3545 32.1489 27.4916C32.125 27.5148 32.0789 27.561 32.0327 27.5833C31.8951 27.6527 31.7559 27.5833 31.7789 27.4231C31.802 27.1481 31.9412 26.9185 32.1712 26.7582C32.195 26.7582 32.195 26.7359 32.2173 26.7359C32.3565 26.6666 32.4719 26.7359 32.4719 26.9185C32.4488 26.9185 32.4488 26.9416 32.4488 26.9878ZM31.7097 26.2082C31.7336 25.9786 31.8251 25.7953 31.9874 25.6574C32.0327 25.6119 32.1027 25.5657 32.1489 25.5434C32.2866 25.4971 32.4027 25.5657 32.4488 25.7036V25.7953C32.425 26.0472 32.3327 26.2768 32.1027 26.437C32.0097 26.5063 31.9174 26.5518 31.802 26.4832C31.7097 26.4147 31.6874 26.323 31.7097 26.2082ZM32.4488 20.8425C32.5642 20.7508 32.7257 20.7508 32.818 20.8664C32.9334 20.9804 32.9565 21.1183 32.9565 21.2786C32.9565 21.4396 32.9103 21.6221 32.7942 21.7832C32.6104 22.0127 32.3565 21.9896 32.2412 21.7138C32.125 21.4396 32.2173 21.0035 32.4488 20.8425ZM31.5713 25.1304C31.5713 25.1073 31.5482 25.0842 31.5482 25.0842C31.4798 24.81 31.6636 24.4202 31.9174 24.2823C32.1027 24.1675 32.2866 24.2591 32.3327 24.4656V24.5573C32.3104 24.81 32.2412 25.0157 32.0566 25.1998C32.0097 25.2452 31.9874 25.2676 31.9412 25.2914C31.802 25.36 31.6405 25.2914 31.5713 25.1304ZM31.6174 22.9757C31.6405 22.9526 31.6874 22.9295 31.7336 22.9064C31.8951 22.8378 32.0566 22.884 32.125 23.0443C32.1489 23.1128 32.1712 23.2045 32.195 23.2738C32.1712 23.4572 32.125 23.6174 32.0097 23.7553C31.9874 23.8008 31.9412 23.8231 31.8951 23.8693C31.7097 24.0072 31.5021 23.961 31.4098 23.7777C31.3867 23.7314 31.3636 23.6629 31.3636 23.5943C31.3405 23.3655 31.4328 23.1359 31.6174 22.9757ZM31.0406 22.1953C31.0175 21.9665 31.0637 21.76 31.2021 21.5767C31.2482 21.5312 31.2944 21.4619 31.3636 21.4396C31.5021 21.3479 31.6636 21.3702 31.7789 21.485C31.8712 21.5767 31.9174 21.7138 31.9174 21.8972C31.9174 22.0813 31.8482 22.287 31.6874 22.448C31.4798 22.6544 31.2021 22.6082 31.0867 22.3563C31.0637 22.3109 31.0406 22.2415 31.0406 22.1953ZM30.0946 24.2368C30.0946 23.9841 30.2099 23.7553 30.4176 23.5943C30.6022 23.4572 30.8099 23.4795 30.9483 23.6629C31.0175 23.7553 31.0406 23.847 31.0406 23.9387C31.0406 24.1906 30.9252 24.397 30.7406 24.5573C30.6253 24.6721 30.4637 24.7183 30.3022 24.649C30.1407 24.5804 30.0946 24.4425 30.0715 24.2823C30.0946 24.2823 30.0946 24.2591 30.0946 24.2368ZM30.0023 22.1499C30.2792 21.921 30.6253 22.0351 30.7176 22.3787C30.7868 22.6544 30.6714 22.998 30.4407 23.1814C30.2099 23.3416 29.8869 23.25 29.7946 22.998C29.7715 22.9295 29.7715 22.8378 29.7485 22.7685C29.7485 22.5166 29.8177 22.3109 30.0023 22.1499ZM31.4559 20.0174C31.5482 20.1322 31.5944 20.247 31.5944 20.4304C31.5944 20.5906 31.5482 20.774 31.4098 20.9342C31.2252 21.1407 30.9944 21.1407 30.7868 20.9342C30.6714 20.8202 30.6253 20.6823 30.6483 20.522C30.6483 20.3387 30.7176 20.1553 30.856 19.9951C31.0406 19.811 31.2713 19.811 31.4559 20.0174ZM31.0406 19.3526C30.856 19.5822 30.6022 19.5822 30.3945 19.3757C30.2792 19.2609 30.233 19.1007 30.233 18.9174C30.233 18.7563 30.2792 18.5961 30.3945 18.4813C30.5791 18.2749 30.856 18.2749 31.0175 18.4813C31.2252 18.7109 31.2252 19.123 31.0406 19.3526ZM29.61 20.5906C29.8177 20.4304 30.0946 20.4766 30.233 20.6823C30.3022 20.7971 30.3484 20.9119 30.3484 21.0952C30.3484 21.2323 30.2792 21.4157 30.1407 21.5536C29.9331 21.7832 29.587 21.7369 29.4254 21.4619C29.2639 21.21 29.3562 20.7971 29.61 20.5906ZM29.1024 18.9628C29.2639 18.8257 29.4254 18.8257 29.61 18.9174C29.8177 19.0314 29.9331 19.2378 29.9331 19.536C29.9331 19.6962 29.8638 19.8572 29.7254 19.9951C29.4716 20.2239 29.1486 20.1777 28.964 19.9034C28.7786 19.6276 28.8486 19.1924 29.1024 18.9628ZM28.4333 17.496C28.6171 17.1971 28.987 17.1285 29.2409 17.3812C29.3793 17.5183 29.4485 17.7017 29.4485 17.9313C29.4485 18.0915 29.3793 18.2749 29.2178 18.4128C29.1024 18.5044 28.964 18.5268 28.8248 18.5044C28.5479 18.4359 28.3402 18.1832 28.3402 17.9082C28.3171 17.771 28.3633 17.6331 28.4333 17.496ZM27.971 15.7303C28.1095 15.5924 28.271 15.5701 28.4333 15.6155C28.7094 15.7072 28.9171 15.9822 28.9171 16.3035C28.9171 16.4183 28.8709 16.533 28.8025 16.6702C28.6632 16.8997 28.4094 16.9683 28.1556 16.8535C27.7403 16.6471 27.6249 16.0516 27.971 15.7303ZM27.2558 14.2165C27.3942 13.9646 27.648 13.896 27.9249 14.0108C28.1787 14.1256 28.3402 14.3775 28.3402 14.6749C28.3402 14.7673 28.3171 14.9045 28.2479 14.9961C28.1556 15.1564 28.0172 15.2488 27.8095 15.2257C27.3711 15.2488 26.9558 14.698 27.2558 14.2165ZM25.8244 15.5701C25.5483 15.2712 25.5483 14.8821 25.8244 14.6071C25.9175 14.5147 26.0321 14.4692 26.1713 14.4692C26.5405 14.4461 26.8866 14.8128 26.8635 15.1564C26.8635 15.4322 26.7251 15.661 26.4943 15.7526C26.3097 15.8451 26.0098 15.7526 25.8244 15.5701ZM26.5405 16.2341C26.6328 16.1656 26.7251 16.1425 26.8404 16.1425C27.2558 16.1425 27.5326 16.533 27.5096 16.785C27.5096 17.0145 27.4403 17.1971 27.3019 17.335C27.1635 17.4729 26.9789 17.5183 26.7943 17.4498C26.5174 17.3581 26.3559 17.1971 26.2867 16.9221C26.2175 16.6471 26.3097 16.3951 26.5405 16.2341ZM29.4024 8.5997C29.4716 8.62281 29.5639 8.64515 29.61 8.69138C29.7715 8.78305 29.8638 8.92018 29.9331 9.08119C29.9561 9.14975 29.9792 9.24142 29.9561 9.3331C29.9561 9.44788 29.8408 9.51645 29.7254 9.51645H29.6562C29.3793 9.471 29.1024 9.17286 29.0786 8.89707V8.85161C29.1024 8.66826 29.2178 8.57659 29.4024 8.5997ZM29.61 7.29237C29.6562 7.29237 29.7023 7.31548 29.7254 7.33859C29.8869 7.43027 30.0484 7.54505 30.1407 7.7284C30.1869 7.79697 30.2099 7.88864 30.233 7.95721C30.2099 8.0951 30.1407 8.14133 30.0023 8.11822C29.7485 8.07199 29.4254 7.75152 29.3793 7.49883C29.3793 7.36171 29.4716 7.27003 29.61 7.29237ZM30.3484 8.48491C30.3945 8.50803 30.4637 8.53037 30.5099 8.55348C30.6714 8.66826 30.8099 8.80616 30.8791 8.98951C30.9021 9.05807 30.9252 9.12664 30.9252 9.17286C30.9252 9.35621 30.8099 9.44789 30.6483 9.37855C30.3715 9.26454 30.1869 9.05807 30.1176 8.75994V8.64515C30.1407 8.50803 30.233 8.4618 30.3484 8.48491ZM27.6019 5.87103C27.4634 5.87103 27.3481 5.82557 27.2327 5.71079C27.0712 5.57289 26.9097 5.41265 26.7481 5.25241C26.7481 5.25241 26.7481 5.2293 26.7251 5.2293C26.6789 5.15997 26.702 5.13763 26.7712 5.11452H26.8174C27.0481 5.15997 27.2558 5.18308 27.4634 5.29787C27.5557 5.34409 27.6249 5.41265 27.6942 5.50433C27.7172 5.52667 27.7403 5.57289 27.7634 5.61911C27.8326 5.75624 27.7634 5.84792 27.6019 5.87103ZM32.4027 10.9609C32.4942 10.9155 32.5642 10.9609 32.6104 11.0071C32.7942 11.1674 32.9103 11.3969 32.9334 11.6488V11.7182C32.9103 11.8322 32.8411 11.8553 32.748 11.8322C32.7027 11.8091 32.6565 11.786 32.6104 11.7405C32.4488 11.5803 32.3565 11.3969 32.3327 11.1674C32.3104 11.0988 32.3327 11.0071 32.4027 10.9609ZM34.2717 16.6008C34.2947 16.533 34.3178 16.4406 34.4101 16.4406C34.5024 16.4183 34.5485 16.4868 34.5947 16.5554C34.687 16.6933 34.71 16.8535 34.71 17.0145C34.687 17.1054 34.687 17.1971 34.6639 17.2895C34.6408 17.3581 34.6178 17.4267 34.5255 17.4267C34.4562 17.4498 34.4101 17.3812 34.3639 17.335C34.3178 17.2433 34.2716 17.1748 34.2486 17.0823C34.2255 16.9221 34.2255 16.7618 34.2717 16.6008ZM30.8791 29.3259C30.7868 29.3259 30.7176 29.2805 30.7176 29.2119C30.7176 29.1657 30.7176 29.1194 30.7406 29.074C30.8099 28.8444 30.9483 28.6618 31.156 28.5463C31.2021 28.5239 31.2482 28.5008 31.3175 28.5008C31.4098 28.5008 31.4559 28.5463 31.4559 28.638C31.4559 28.6618 31.4559 28.6842 31.4328 28.7073C31.9174 28.0887 32.3565 27.4231 32.7257 26.7359V26.6666C32.7257 26.5518 32.7719 26.4147 32.8411 26.323C32.9103 26.2305 32.9565 26.1389 33.0488 26.0472C33.0718 26.0248 33.118 25.9786 33.1641 25.9786C33.3256 25.635 33.4872 25.2676 33.6487 24.924V24.7861C33.6717 24.6027 33.741 24.4425 33.8333 24.3046C33.8794 24.2591 33.9025 24.2129 33.9486 24.1444C33.9948 24.0296 34.0178 23.9156 34.064 23.8008H34.0409C33.9948 23.8231 33.9486 23.847 33.8794 23.8693C33.7179 23.9387 33.6256 23.8924 33.5794 23.7314C33.5564 23.6629 33.5794 23.5943 33.5794 23.5257C33.6025 23.3193 33.6948 23.1359 33.8102 22.9757C33.8563 22.9064 33.9255 22.8378 33.9717 22.7685C34.0178 22.6768 33.9717 22.6313 33.8794 22.6313C33.8333 22.6313 33.764 22.6544 33.7179 22.6544C33.6256 22.6768 33.5564 22.6313 33.5102 22.5397C33.4872 22.4942 33.4641 22.448 33.4641 22.4025C33.441 22.2184 33.4641 22.0351 33.5564 21.8517C33.6025 21.76 33.6717 21.6684 33.741 21.5536C33.764 21.5081 33.8102 21.4619 33.8333 21.4157C33.8563 21.3933 33.8563 21.324 33.8563 21.3017C33.8333 21.2786 33.7871 21.2786 33.764 21.2554C33.7179 21.2554 33.6948 21.2554 33.6487 21.2786C33.441 21.324 33.3487 21.2554 33.2795 21.0498C33.1641 20.7971 33.2103 20.5452 33.3718 20.3156C33.3949 20.2925 33.3949 20.2694 33.4179 20.2694C33.5333 20.1777 33.6717 20.1777 33.764 20.3156C33.8102 20.361 33.8333 20.4304 33.8563 20.4989C33.8794 20.5906 33.9255 20.6823 33.9486 20.774C33.9717 20.8202 33.9717 20.8664 34.0409 20.8664C34.0871 20.8202 34.0871 20.774 34.0871 20.7054V20.3156C34.0871 20.0406 34.1563 19.811 34.3409 19.6053C34.387 19.5591 34.4101 19.5136 34.4332 19.4674C34.4562 19.4219 34.5255 19.3757 34.4793 19.3064C34.4332 19.2609 34.387 19.2841 34.3178 19.2841C34.2716 19.3064 34.2255 19.3064 34.1563 19.3295C34.0409 19.3526 33.9486 19.3064 33.9025 19.2155C33.764 18.9405 33.764 18.6416 33.9255 18.3665C34.0178 18.2063 34.1563 18.2294 34.2486 18.3665C34.2716 18.4128 34.2947 18.4359 34.3178 18.4813C34.3409 18.5499 34.3639 18.5961 34.4101 18.6647C34.4332 18.6878 34.4562 18.734 34.4793 18.7563C34.5255 18.7109 34.5485 18.6647 34.5485 18.5961V18.298C34.5485 18.1832 34.5716 18.0915 34.5947 17.9775C34.5947 17.9313 34.6178 17.885 34.6639 17.8396C34.71 17.771 34.7562 17.771 34.8023 17.7934C34.7562 16.8766 34.6178 15.9822 34.4332 15.0886C34.4101 15.0655 34.387 15.0192 34.3409 15.0192V15.1795C34.3639 15.2943 34.387 15.4322 34.387 15.547C34.387 15.6379 34.387 15.7526 34.3639 15.8451C34.3178 16.0053 34.1794 16.0284 34.0871 15.9137C34.0409 15.8451 34.0178 15.7758 33.9717 15.7303C33.9025 15.6155 33.8563 15.5007 33.8102 15.3859C33.7871 15.3405 33.764 15.3174 33.7179 15.2943H33.6948C33.6948 15.3405 33.6717 15.3859 33.6717 15.4322C33.6717 15.547 33.6948 15.661 33.7179 15.7758C33.7179 15.8674 33.741 15.9591 33.741 16.0516C33.741 16.1193 33.7179 16.2118 33.6948 16.2804C33.6256 16.4637 33.4641 16.4868 33.3256 16.3489C33.2564 16.3266 33.2103 16.2804 33.1872 16.2341C33.141 16.1656 33.118 16.097 33.0718 16.0284C33.0257 15.9368 32.9795 15.8451 32.9334 15.7758C32.9103 15.7303 32.8642 15.7072 32.8411 15.6841C32.7719 15.7526 32.7942 15.7989 32.7942 15.8674C32.818 16.0284 32.8411 16.1887 32.8642 16.3489C32.8872 16.4868 32.8642 16.6239 32.7942 16.7618C32.6796 16.9683 32.4942 17.0145 32.3104 16.8535C32.0327 16.6008 31.9635 16.0284 32.3327 15.7526C32.4027 15.7072 32.4719 15.661 32.5181 15.6155C32.5642 15.5701 32.6334 15.5238 32.5865 15.4553C32.5642 15.3859 32.4942 15.4091 32.425 15.4091C32.3327 15.4091 32.2412 15.4091 32.1489 15.4322C31.9874 15.4322 31.8482 15.3636 31.7559 15.2488C31.6636 15.134 31.6174 14.9961 31.5944 14.8359C31.5713 14.6071 31.6405 14.423 31.8251 14.2858C31.8951 14.2396 31.9635 14.1934 32.0097 14.1256C32.0566 14.1025 32.1027 14.0563 32.0789 13.9877C32.0566 13.9191 31.9874 13.9415 31.9412 13.9191H31.8251H31.6174C31.4559 13.9191 31.3175 13.8729 31.2252 13.735C31.156 13.6441 31.0867 13.5517 31.0406 13.46C30.9714 13.3452 30.9021 13.2304 30.8329 13.1164C30.8099 13.0702 30.7868 13.0247 30.7176 13.0247C30.6714 13.0702 30.6945 13.1395 30.6945 13.185C30.7176 13.3452 30.7637 13.5293 30.7868 13.6896C30.8099 13.8044 30.8099 13.9192 30.7637 14.0108C30.6714 14.2627 30.4176 14.3544 30.1869 14.1934C29.9792 14.0563 29.8638 13.8498 29.8638 13.5979C29.8638 13.3914 29.9331 13.2535 30.0946 13.1395C30.1869 13.0702 30.2792 13.0247 30.3715 12.9562C30.4176 12.9331 30.4868 12.8868 30.4637 12.8183C30.4407 12.7489 30.3715 12.7489 30.3022 12.7489H29.9331C29.7023 12.7489 29.5177 12.658 29.3562 12.4747C29.1024 12.1766 29.1486 11.786 29.4947 11.5803C29.5639 11.5341 29.6331 11.4886 29.7023 11.4424C29.7485 11.3969 29.8177 11.3738 29.7946 11.3045C29.7715 11.2367 29.7023 11.2367 29.6331 11.2367C29.4947 11.2367 29.3793 11.2367 29.2409 11.2136C29.1947 11.2136 29.0786 11.2136 28.987 11.1443C28.8486 11.0526 28.7332 10.9378 28.6632 10.7776C28.6171 10.6628 28.5948 10.5488 28.6409 10.4109C28.6871 10.2275 28.8486 10.1358 29.0324 10.1813C29.1486 10.2044 29.2639 10.2506 29.3562 10.3415C29.4254 10.4109 29.4947 10.5025 29.5408 10.5711C29.6331 10.6859 29.7023 10.823 29.7946 10.9378C29.8177 10.984 29.8638 11.0302 29.91 11.0302C29.9561 10.984 29.9331 10.9378 29.9331 10.8923C29.91 10.7552 29.8638 10.6173 29.8408 10.4794C29.8177 10.3877 29.7946 10.2737 29.8177 10.1813C29.8177 9.99793 29.9561 9.90626 30.1176 9.92937C30.233 9.95248 30.3253 9.99793 30.4176 10.0896C30.4868 10.1589 30.533 10.2275 30.6022 10.2961C30.6714 10.3646 30.7176 10.4563 30.7868 10.5256C30.8099 10.5711 30.856 10.5942 30.9021 10.5942C30.9483 10.5488 30.9252 10.4794 30.9252 10.4109C30.9021 10.2961 30.8791 10.1813 30.856 10.0673C30.856 9.97482 30.856 9.86004 30.9483 9.79224C31.0406 9.72291 31.1329 9.76913 31.2252 9.8377C31.4328 9.97482 31.5713 10.1589 31.6174 10.3877C31.6636 10.5488 31.6174 10.6859 31.4798 10.7776C31.4328 10.8007 31.4098 10.8461 31.3636 10.8692C31.3175 10.9378 31.3175 10.984 31.4098 11.0302C31.4798 11.0526 31.5251 11.0526 31.5944 11.0757C31.9412 11.1443 32.1712 11.3969 32.2412 11.7636C32.2643 11.9239 32.2173 12.0618 32.1027 12.1766C32.0789 12.1997 32.0566 12.222 32.0327 12.2451C31.9874 12.2906 31.9635 12.3137 31.9635 12.3822C31.9874 12.4516 32.0327 12.4516 32.1027 12.4747C32.125 12.4747 32.1712 12.497 32.195 12.497C32.4027 12.5201 32.5642 12.6118 32.6796 12.7952C32.7257 12.8868 32.7942 12.9785 32.8411 13.0479C32.8642 13.0933 32.8872 13.1395 32.9565 13.1395C33.0018 13.0702 33.0018 13.0702 32.9795 13.0016C32.9565 12.8868 32.9334 12.7721 32.9334 12.658V12.4285C32.9565 12.2906 33.0718 12.2675 33.1641 12.3368C33.2103 12.3599 33.2564 12.4054 33.3026 12.4516C33.3718 12.5433 33.4179 12.6349 33.4872 12.7266C33.5102 12.7721 33.5333 12.8183 33.6025 12.7952V12.658C33.6025 12.6118 33.5794 12.5664 33.5794 12.5201C33.1872 11.6034 32.7257 10.709 32.195 9.88315V9.92937C32.2173 10.0442 32.2643 10.1813 32.3104 10.2961C32.3327 10.3877 32.3565 10.4563 32.2643 10.5256C32.195 10.5711 32.1027 10.5256 32.0327 10.4794C31.8482 10.3415 31.7336 10.1589 31.6874 9.92937C31.6636 9.79224 31.6874 9.6998 31.802 9.63123C31.8251 9.60812 31.8482 9.60812 31.8712 9.58578C31.9174 9.56267 31.9174 9.51645 31.9174 9.49334C31.8951 9.471 31.8712 9.42477 31.8482 9.40166H31.8251C31.7559 9.37855 31.7097 9.35621 31.6405 9.35621C31.3405 9.28765 31.156 9.08119 31.0175 8.82927C30.9483 8.69138 30.9252 8.53037 31.0637 8.41558C30.9714 8.32468 30.9021 8.20989 30.8099 8.11822C30.7868 8.0951 30.7637 8.0951 30.7176 8.07199C30.5099 7.95721 30.3715 7.82008 30.2792 7.61362C30.2561 7.5674 30.2561 7.54505 30.233 7.49883C29.9331 7.17836 29.6331 6.88022 29.3101 6.60443C29.3324 6.62754 29.3562 6.65065 29.3562 6.67376C29.3793 6.71921 29.4024 6.78855 29.4254 6.834C29.4485 6.92567 29.3793 6.99424 29.2862 6.97112C29.2409 6.97112 29.1947 6.94878 29.1716 6.94878C28.964 6.85711 28.7786 6.71921 28.6632 6.51275C28.6409 6.4673 28.6171 6.42185 28.6171 6.37562C28.5948 6.28395 28.6632 6.21539 28.7786 6.23773C28.8025 6.23773 28.8248 6.23773 28.8486 6.26084L28.987 6.3294C28.8248 6.19227 28.6632 6.05438 28.5017 5.94036C28.4794 5.94036 28.4556 5.94036 28.4333 5.91725C28.2256 5.84792 28.0403 5.71079 27.9249 5.52667C27.9018 5.50433 27.9018 5.48122 27.8787 5.45888C27.5788 5.25241 27.2788 5.04518 26.9558 4.83949C26.9327 4.8626 26.9097 4.88495 26.8635 4.90806C26.7943 4.93117 26.7251 4.95428 26.6789 4.97739C26.5866 5.02284 26.5174 5.09141 26.5405 5.20619C26.5405 5.27476 26.5636 5.34409 26.5866 5.41265C26.6097 5.50433 26.6558 5.57289 26.6789 5.66457C26.7251 5.80246 26.702 5.89414 26.5636 5.9627C26.5174 5.98581 26.4482 6.00815 26.402 6.03127C26.379 6.05438 26.3328 6.1006 26.3328 6.12294C26.3328 6.14605 26.379 6.19227 26.402 6.19227C26.4943 6.21539 26.5866 6.23773 26.702 6.26084C26.9789 6.30706 27.1865 6.42185 27.3711 6.62754C27.4403 6.71921 27.5326 6.81089 27.6019 6.90333C27.6249 6.94878 27.6711 6.97112 27.7172 6.99424C27.7403 7.01735 27.7634 7.01735 27.8095 7.01735C27.8095 6.94878 27.8095 6.90333 27.7864 6.85711C27.7634 6.74232 27.7403 6.62754 27.6942 6.53586C27.6711 6.48964 27.6711 6.42185 27.6711 6.37562C27.6711 6.28395 27.7172 6.21539 27.8095 6.21539H27.9249C28.2256 6.28395 28.4094 6.44419 28.5479 6.69687C28.5948 6.81089 28.571 6.90333 28.4794 6.97112C28.4556 6.99424 28.4094 7.01735 28.3633 7.04046C28.3402 7.06357 28.3171 7.06357 28.2941 7.08591C28.2479 7.13213 28.2479 7.17836 28.3171 7.22381C28.3402 7.24692 28.3871 7.24692 28.4094 7.27003C28.4794 7.29237 28.5479 7.29237 28.6171 7.31548C28.8709 7.36171 29.0786 7.52194 29.2178 7.75152C29.2639 7.82008 29.2862 7.88864 29.2862 7.95721C29.3101 8.14133 29.1947 8.25534 29.0101 8.233C28.8709 8.20989 28.7332 8.14133 28.6409 8.04888C28.5709 7.98032 28.5017 7.88864 28.4094 7.79697C28.3402 7.70529 28.271 7.61362 28.1787 7.52194C28.1556 7.49883 28.1095 7.47572 28.0633 7.45261C28.0172 7.52194 28.0403 7.5674 28.0403 7.61362C28.0864 7.75152 28.1326 7.88864 28.1556 8.02654C28.2018 8.18678 28.1556 8.30156 28.0172 8.39324C27.971 8.43869 27.9018 8.4618 27.8557 8.50803C27.8095 8.53037 27.7403 8.57659 27.7634 8.64515C27.7865 8.71449 27.8557 8.71449 27.9018 8.73683C27.9941 8.75994 28.0864 8.75994 28.1787 8.75994C28.5017 8.78305 28.7094 8.9664 28.8709 9.24142C28.9171 9.3331 28.9409 9.42477 28.9171 9.51645C28.8947 9.74602 28.7332 9.86004 28.5017 9.8377C28.3171 9.81458 28.1787 9.72291 28.0864 9.58578C27.971 9.44789 27.8787 9.3331 27.7864 9.19597C27.7634 9.14975 27.7172 9.1043 27.6711 9.08119C27.648 9.05807 27.6019 9.05807 27.5788 9.05807C27.5557 9.05807 27.5557 9.1043 27.5557 9.12664C27.5557 9.19597 27.5788 9.26453 27.5788 9.3331C27.6019 9.44788 27.6249 9.58578 27.648 9.6998C27.6711 9.92937 27.5096 10.0896 27.2788 10.0896C27.1404 10.0896 27.025 10.0442 26.9097 9.97482C26.8404 9.90626 26.7712 9.86004 26.702 9.76913L26.4251 9.42477C26.402 9.37855 26.3559 9.35621 26.3097 9.31076C26.2636 9.28765 26.2174 9.28765 26.2174 9.35621V9.471C26.2405 9.58578 26.2636 9.6998 26.2867 9.81458C26.3097 9.88315 26.3097 9.95248 26.3097 10.021C26.3097 10.2737 26.1482 10.4563 25.8944 10.4794C25.6868 10.5025 25.5245 10.434 25.363 10.2961C25.2945 10.2275 25.2476 10.1589 25.1791 10.1127C25.0861 10.021 25.0176 9.90626 24.9476 9.79224C24.9253 9.74602 24.9015 9.72291 24.8553 9.6998C24.8092 9.67746 24.7861 9.67746 24.7638 9.74602V9.88315C24.7861 9.99793 24.8092 10.1127 24.8323 10.2275C24.8323 10.2961 24.8553 10.3646 24.8553 10.434C24.8553 10.709 24.6246 10.9155 24.3708 10.9378C24.0708 10.9378 23.8401 10.823 23.6786 10.5488C23.5171 10.2737 23.5863 9.99793 23.8401 9.81458C23.9324 9.74602 24.0247 9.6998 24.117 9.63123C24.1401 9.60812 24.1862 9.58578 24.2093 9.56267C24.2554 9.51645 24.2554 9.471 24.1631 9.44789C24.117 9.42477 24.0708 9.42477 24.0247 9.42477H23.6786C23.3786 9.42477 23.1479 9.31076 22.9864 9.08119C22.9864 8.92018 22.8941 8.82927 22.8249 8.71449C22.8018 8.66826 22.7557 8.62281 22.7095 8.5997C22.6403 8.55348 22.5941 8.57659 22.5941 8.64515V8.80616C22.6172 8.94329 22.6403 9.1043 22.6634 9.24142C22.6864 9.53956 22.4788 9.76913 22.1788 9.79224C21.925 9.81458 21.7173 9.72291 21.5551 9.53956C21.4397 9.40166 21.3474 9.26454 21.232 9.14975C21.209 9.1043 21.1628 9.08119 21.1167 9.03496C21.0705 8.98951 21.0244 9.01185 21.0013 9.08119V9.19597C21.0244 9.31076 21.0244 9.44789 21.0474 9.56267C21.0474 9.63123 21.0705 9.6998 21.0705 9.76913C21.0474 10.0896 20.8167 10.2961 20.5168 10.3192C20.2629 10.3415 20.0322 10.2275 19.8707 10.0442C19.7784 9.92937 19.6861 9.81458 19.5938 9.6998C19.5477 9.65435 19.5015 9.56267 19.4323 9.60812C19.3631 9.63123 19.3861 9.72291 19.3861 9.79224C19.3861 9.92937 19.4092 10.0673 19.4323 10.2044C19.4554 10.5711 19.1554 10.8692 18.7862 10.8692C18.5324 10.8692 18.324 10.7776 18.1633 10.5488C18.0702 10.4109 17.9779 10.2506 17.8856 10.1127C17.8395 10.0673 17.8164 10.021 17.7702 9.99793C17.7241 9.95248 17.6779 9.97482 17.6549 10.0442V10.2044C17.6779 10.3877 17.701 10.5711 17.7241 10.7552C17.7241 10.9378 17.6779 11.0757 17.5626 11.2136C17.2857 11.4886 16.8242 11.4886 16.5704 11.1905C16.5012 11.0988 16.432 11.0071 16.3627 10.9155C16.2935 10.823 16.2243 10.709 16.1551 10.6173C16.1089 10.5711 16.0859 10.5256 16.0397 10.5488C15.9705 10.5488 15.9705 10.6173 15.9705 10.6628V10.8007C15.9936 10.9155 16.0166 11.0526 16.0166 11.1674C16.0166 11.259 16.0397 11.3507 16.0166 11.4424C15.9936 11.786 15.7398 12.0155 15.4167 12.0387C15.1629 12.0618 14.9553 11.9701 14.7937 11.786C14.7015 11.6488 14.6315 11.5341 14.5399 11.3969C14.4938 11.3507 14.4699 11.3045 14.4238 11.2822C14.3777 11.2136 14.3084 11.2367 14.3084 11.3276V11.4886C14.3315 11.6257 14.3315 11.7636 14.3546 11.9008C14.3777 12.1766 14.2623 12.4054 14.0085 12.5887C13.9623 12.6118 13.8931 12.658 13.847 12.6812C13.7085 12.7721 13.5932 12.8414 13.4547 12.9331C13.4086 12.9562 13.3393 13.0016 13.3624 13.0702C13.3855 13.1395 13.4547 13.1164 13.5239 13.1164C13.6854 13.0933 13.87 13.0702 14.0546 13.0479C14.1469 13.0479 14.2392 13.0247 14.3084 13.0247C14.7015 13.0247 14.9776 13.3914 14.8853 13.7581C14.8161 14.0332 14.6315 14.2165 14.3546 14.2627C14.0777 14.3313 13.87 14.2396 13.7085 14.0332C13.6624 13.9646 13.5932 13.896 13.547 13.8267C13.5009 13.7581 13.4316 13.6665 13.3855 13.5979C13.3393 13.5517 13.3163 13.4831 13.2471 13.5062C13.1548 13.5293 13.1778 13.5979 13.1778 13.6665C13.1778 13.8267 13.2009 13.9877 13.2009 14.148C13.2471 14.4461 13.1317 14.6749 12.9009 14.859C12.7856 14.9276 12.6933 15.0192 12.5779 15.0886C12.5548 15.134 12.5087 15.1564 12.4856 15.1795C12.4395 15.2488 12.4395 15.2943 12.5318 15.3174H12.6933C12.8317 15.3174 12.9932 15.2943 13.1317 15.2943C13.3163 15.2943 13.4778 15.3636 13.6162 15.4776C13.8931 15.7303 13.87 16.1656 13.5932 16.4406C13.3393 16.7156 12.9471 16.7387 12.6702 16.4868C12.601 16.4406 12.5548 16.372 12.5087 16.3035C12.4395 16.2118 12.3933 16.1193 12.3472 16.0516C12.3241 16.0053 12.301 15.9822 12.2549 15.9591C12.2318 15.9368 12.1857 15.9137 12.1626 15.9137C12.1388 15.9137 12.1164 15.9591 12.1164 16.0053V16.1425V16.5554C12.1164 16.8304 12.0242 17.0369 11.7934 17.2202C11.6773 17.3119 11.5619 17.3812 11.4473 17.4729C11.4235 17.4729 11.3773 17.496 11.3543 17.5415C11.3312 17.5638 11.3081 17.61 11.3081 17.6331C11.3081 17.6562 11.3773 17.6786 11.4012 17.6786H11.5619C11.7234 17.6786 11.8849 17.6562 12.0472 17.6562C12.4626 17.6562 12.7625 18.0229 12.6702 18.4359C12.6241 18.6192 12.5548 18.7563 12.4164 18.8711C12.278 18.9628 12.1626 19.0545 12.0242 19.1462C12.0011 19.1693 11.9549 19.1924 11.9311 19.2378C11.9088 19.2609 11.8849 19.3064 11.8849 19.3295C11.8849 19.3757 11.9549 19.3981 12.0011 19.3981C12.1164 19.3981 12.2087 19.3981 12.3241 19.3757C12.4164 19.3757 12.5087 19.3526 12.601 19.3526C13.0625 19.3295 13.4086 19.7193 13.3393 20.1777C13.3163 20.3849 13.2009 20.522 13.0394 20.6368C12.9009 20.7054 12.7625 20.7971 12.6471 20.8887C12.601 20.9119 12.5779 20.9342 12.5548 20.9804C12.5087 21.0266 12.5087 21.0721 12.5779 21.0952C12.6241 21.0952 12.6471 21.1183 12.6933 21.0952C12.8087 21.0952 12.924 21.0721 13.0394 21.0721H13.2701C13.5932 21.0952 13.847 21.3017 13.9393 21.5536C14.0316 21.8294 13.9393 22.1267 13.7085 22.3109C13.6393 22.3563 13.5701 22.4025 13.5239 22.448C13.4316 22.4942 13.3624 22.5397 13.2701 22.6082C13.224 22.6313 13.1317 22.6768 13.1548 22.7685C13.1778 22.8601 13.2932 22.8147 13.3624 22.8147C13.5009 22.8147 13.6162 22.7923 13.7547 22.7923C14.0777 22.7685 14.3315 22.884 14.5161 23.1359C14.5853 23.2499 14.6545 23.3416 14.7476 23.4341C14.7699 23.4795 14.8161 23.5026 14.8391 23.5257C14.8853 23.5712 14.9314 23.5481 14.9553 23.4795C14.9553 23.4341 14.9776 23.411 14.9776 23.3655C14.9776 23.2499 14.9553 23.1359 14.9553 23.0211C14.9553 22.9064 14.9553 22.7923 14.9776 22.6768C14.9776 22.5397 15.0706 22.4025 15.2091 22.3109C15.5782 22.0582 16.132 22.2184 16.2705 22.6313C16.2935 22.6768 16.2935 22.7461 16.3166 22.7923C16.3397 23.0443 16.2474 23.2738 16.0397 23.4341C15.9243 23.5257 15.7859 23.6174 15.6475 23.686C15.6006 23.7091 15.5552 23.7553 15.509 23.8008C15.4629 23.847 15.486 23.9156 15.5552 23.9156C15.6006 23.9156 15.6475 23.9387 15.6936 23.9387C15.8551 23.9387 16.0166 23.9156 16.2012 23.9156C16.455 23.9156 16.6627 24.0072 16.8242 24.2129C16.9165 24.3285 16.9857 24.4425 17.078 24.5804C17.1242 24.6258 17.1472 24.6721 17.1934 24.7406C17.2165 24.7861 17.2626 24.8323 17.3088 24.7861C17.3318 24.7637 17.3549 24.7183 17.3549 24.6721V24.5111C17.3318 24.3739 17.3318 24.2591 17.3088 24.1212C17.3088 24.0527 17.2857 23.9841 17.3088 23.9387C17.3318 23.4572 17.7702 23.1583 18.2317 23.3193C18.3932 23.3655 18.5094 23.4572 18.6009 23.5943L18.8785 24.0072C18.9008 24.0527 18.9478 24.0989 18.9939 24.1444C19.017 24.1675 19.0623 24.2129 19.1093 24.1906C19.1323 24.1675 19.1554 24.1212 19.1554 24.0989V23.9387C19.1323 23.8008 19.1323 23.686 19.1093 23.5481C19.1093 23.4795 19.0862 23.4341 19.0862 23.3655C19.0862 22.9064 19.5015 22.5851 19.963 22.6768C20.1245 22.723 20.2629 22.8147 20.3783 22.9526C20.4937 23.1128 20.586 23.2499 20.7013 23.411C20.7244 23.4572 20.7706 23.5026 20.8167 23.5257C20.8629 23.5481 20.8859 23.5481 20.909 23.5026C20.909 23.4572 20.9321 23.4341 20.909 23.3878C20.909 23.2738 20.8859 23.1583 20.8859 23.0666C20.8859 22.9526 20.8629 22.8147 20.8629 22.6768C20.8398 22.3787 21.209 21.9434 21.6474 22.0351C21.855 22.0813 22.0173 22.173 22.155 22.3563C22.248 22.4942 22.3403 22.6313 22.4326 22.7685C22.4557 22.8147 22.5018 22.8601 22.5249 22.884C22.5703 22.9295 22.6172 22.9064 22.6403 22.8378V22.6768C22.6172 22.4942 22.6172 22.3332 22.5941 22.1499C22.5703 21.9434 22.6403 21.7369 22.7787 21.5767C22.9402 21.3702 23.171 21.3017 23.4248 21.3702C23.6094 21.4157 23.7478 21.5312 23.8632 21.6915C23.9555 21.8294 24.0247 21.9665 24.117 22.0813C24.1401 22.1267 24.1631 22.173 24.2093 22.1953C24.2324 22.2184 24.2785 22.2415 24.2785 22.2415C24.3016 22.2184 24.3247 22.1953 24.3247 22.1499V21.9896C24.3247 21.8517 24.3016 21.7138 24.3016 21.5767C24.3016 21.4396 24.3016 21.324 24.3247 21.1869C24.44 20.8425 24.8092 20.6368 25.133 20.774C25.4791 20.8887 25.6168 21.2323 25.5022 21.5767C25.4553 21.7138 25.363 21.8294 25.2476 21.9211C25.1092 22.0127 24.9715 22.1267 24.8323 22.2184C24.7861 22.2415 24.74 22.287 24.7177 22.3109C24.6708 22.3787 24.6938 22.4249 24.7638 22.4249H24.9253C25.063 22.4025 25.2253 22.4025 25.3868 22.3787C25.6406 22.3563 25.8483 22.448 25.9867 22.6544C26.0559 22.7461 26.1252 22.8601 26.1944 22.9526C26.2175 22.998 26.2405 23.0211 26.2867 23.0443C26.3328 23.0897 26.379 23.0666 26.402 22.998C26.4251 22.9526 26.4251 22.9064 26.4251 22.8378V22.4025C26.4251 22.1499 26.5405 21.9434 26.7712 21.7832C27.0942 21.5767 27.5326 21.7369 27.6249 22.1036C27.6942 22.3563 27.6249 22.5851 27.4403 22.7685C27.3942 22.8378 27.325 22.884 27.2558 22.9295C27.1404 23.0211 27.025 23.0897 26.9097 23.1814C26.8635 23.2045 26.8404 23.2276 26.8174 23.2738C26.7712 23.3193 26.7943 23.3655 26.8635 23.3878H27.025C27.1865 23.3655 27.3481 23.3416 27.4865 23.3193C27.8095 23.2738 28.0633 23.5026 28.0633 23.8231C28.0633 24.0527 27.971 24.2368 27.7864 24.397C27.6711 24.4887 27.5326 24.6027 27.3942 24.6944C27.3481 24.7183 27.3019 24.7637 27.2788 24.7861C27.2558 24.81 27.2327 24.8554 27.2558 24.8785C27.2558 24.9016 27.3019 24.924 27.325 24.924C27.3711 24.924 27.4403 24.924 27.4865 24.9016C27.6249 24.8785 27.7864 24.8323 27.9249 24.8323C28.2256 24.7861 28.4556 24.9925 28.4556 25.2914C28.4556 25.474 28.3871 25.6574 28.2479 25.7729C28.1787 25.8415 28.0864 25.9101 27.9941 25.9786C27.9018 26.0472 27.8095 26.1165 27.7172 26.1851C27.6711 26.2082 27.6249 26.2544 27.648 26.2999C27.6711 26.3461 27.7403 26.3461 27.7864 26.323C27.8787 26.2999 27.948 26.2999 28.0403 26.2768C28.1326 26.2544 28.2018 26.2305 28.2941 26.2305C28.6171 26.1851 28.8248 26.4147 28.7555 26.7359C28.7094 26.9185 28.6171 27.0795 28.4556 27.1935C28.3402 27.286 28.2256 27.3776 28.1095 27.4693C28.0633 27.4916 28.0403 27.5379 27.9941 27.5833C27.948 27.6295 27.971 27.675 28.0403 27.675H28.1556C28.271 27.6526 28.3871 27.6295 28.5017 27.6072C28.5709 27.5833 28.6171 27.5833 28.6871 27.5833C28.8709 27.5833 28.987 27.6989 28.987 27.8815C28.987 28.0194 28.964 28.1341 28.8947 28.2258C28.8248 28.2944 28.7786 28.386 28.6871 28.4323C28.5948 28.5239 28.4794 28.6156 28.3633 28.6842C28.3171 28.7073 28.2941 28.7535 28.271 28.7759C28.2479 28.799 28.2479 28.8221 28.2479 28.8444C28.271 28.8675 28.2941 28.8906 28.3171 28.8906C28.3871 28.8906 28.4333 28.8675 28.5017 28.8675C28.6171 28.8444 28.7555 28.799 28.8709 28.7759C29.1024 28.7535 29.2409 28.8906 29.1716 29.1433C29.1247 29.3036 29.0324 29.4176 28.9171 29.5331C28.8248 29.6009 28.7332 29.6703 28.6409 29.7388C28.5948 29.7851 28.5248 29.8305 28.4794 29.8767C28.4556 29.8991 28.4556 29.9222 28.4333 29.9684H28.5948C28.6871 29.9453 28.7786 29.9222 28.8709 29.8991C28.9409 29.8767 29.0101 29.8767 29.0786 29.8767C29.2178 29.8767 29.2862 29.9684 29.2639 30.0824C29.2409 30.1749 29.1947 30.2665 29.1486 30.3351C29.1024 30.4037 29.0101 30.4722 28.9409 30.5416C28.8486 30.6332 28.7332 30.7018 28.6409 30.7935C28.6171 30.8166 28.5948 30.862 28.5709 30.9083C28.5709 30.9083 28.5709 30.9314 28.5948 30.9314H28.7094C28.7786 30.9083 28.8486 30.8851 28.9171 30.862C28.964 30.8397 29.0324 30.8166 29.0786 30.8166C29.1947 30.7935 29.2409 30.8166 29.3101 30.9314V30.9537C29.4254 30.862 29.5408 30.748 29.6331 30.6563C29.7023 30.4722 29.8408 30.312 30.0023 30.198C30.0484 30.1518 30.1176 30.1286 30.1869 30.1063H30.2099C30.4868 29.8305 30.7406 29.5331 30.9944 29.235C30.9252 29.3036 30.9021 29.3036 30.8791 29.3259Z" fill="white"/>
<path fill-rule="evenodd" clip-rule="evenodd" d="M14.7012 2.82166C14.7243 2.79854 14.7243 2.75309 14.7474 2.72998C14.6089 2.77543 14.4705 2.79854 14.332 2.82166C14.4013 2.84477 14.4474 2.86788 14.5166 2.91333C14.6089 2.98189 14.6781 2.95955 14.7012 2.82166Z" fill="white"/>
<path fill-rule="evenodd" clip-rule="evenodd" d="M12.9009 3.25721C12.9932 3.28032 13.0394 3.37199 12.9701 3.44056C12.9009 3.50989 12.8548 3.55534 12.7856 3.6008C12.6933 3.64702 12.601 3.71558 12.5087 3.7618C12.4856 3.80726 12.4395 3.83037 12.4395 3.89893C12.4856 3.94515 12.5317 3.92204 12.5779 3.92204C12.6702 3.89893 12.7625 3.87659 12.8548 3.87659C13.0624 3.83037 13.224 3.89893 13.3624 4.05994C13.4085 4.10539 13.4316 4.1285 13.4547 4.17396C13.4778 4.19707 13.5247 4.24329 13.5708 4.19707C13.6162 4.17396 13.6393 4.1285 13.6393 4.10539V3.92204C13.6162 3.73869 13.7085 3.6008 13.87 3.50989C13.9623 3.46367 14.0546 3.41745 14.1238 3.37199C14.17 3.34888 14.1938 3.30343 14.2161 3.28032V3.25721C14.17 3.25721 14.1477 3.2341 14.1015 3.2341C14.0323 3.2341 13.9623 3.2341 13.8939 3.25721C13.8008 3.25721 13.6862 3.28032 13.5931 3.25721C13.5247 3.25721 13.4316 3.25721 13.4085 3.16553V3.09697C13.247 3.14242 13.0624 3.18864 12.9009 3.25721Z" fill="white"/>
<path fill-rule="evenodd" clip-rule="evenodd" d="M22.7094 4.08252C22.6402 4.10563 22.5479 4.12874 22.4556 4.12874C22.271 4.10563 22.0864 4.05941 21.9249 3.94539C21.9018 3.94539 21.9018 3.92228 21.8787 3.92228C21.8095 3.85372 21.7634 3.78438 21.7634 3.69271C21.7864 3.60103 21.8787 3.55481 21.948 3.53247C22.2018 3.46391 22.594 3.57792 22.7555 3.78438C22.894 3.89917 22.8709 4.0363 22.7094 4.08252ZM22.0864 5.27506C21.9941 5.36674 21.9018 5.41296 21.7864 5.41296C21.5788 5.4353 21.3711 5.36674 21.1865 5.25195C21.1396 5.22884 21.0935 5.18339 21.0712 5.13716C20.9558 4.99927 20.9789 4.83903 21.1173 4.72424C21.2096 4.63257 21.325 4.61023 21.4173 4.61023C21.648 4.61023 21.8326 4.65568 21.9941 4.79358L22.1325 4.93147C22.2018 5.04549 22.1787 5.16028 22.0864 5.27506ZM20.4705 5.68721C20.3782 5.73344 20.2867 5.73344 20.1936 5.75655C20.0329 5.73344 19.8706 5.68721 19.7321 5.59554C19.5937 5.50386 19.5014 5.38985 19.5245 5.22884C19.5706 5.04549 19.686 4.95381 19.8475 4.88525C19.8706 4.88525 19.9167 4.86214 19.9398 4.86214C20.1475 4.86214 20.332 4.90836 20.4943 4.99927C20.632 5.0686 20.7243 5.18339 20.7243 5.34363C20.702 5.52698 20.6097 5.61865 20.4705 5.68721ZM19.1091 5.91679C18.9707 6.07702 18.8092 6.14636 18.6015 6.14636C18.44 6.14636 18.2554 6.10013 18.117 5.98535C17.9093 5.82511 17.8862 5.55009 18.117 5.38985C18.3016 5.25195 18.5092 5.20573 18.7169 5.25195C18.8323 5.27506 18.9476 5.32051 19.063 5.38985C19.2245 5.52698 19.2476 5.73344 19.1091 5.91679ZM17.5632 6.3066C17.4702 6.48995 17.2402 6.60473 16.9402 6.60473C16.8241 6.60473 16.6857 6.55851 16.5472 6.46683C16.3857 6.32971 16.3396 6.14636 16.4549 5.96224C16.478 5.9399 16.5011 5.89444 16.5241 5.87133C16.7549 5.64176 17.194 5.59554 17.4479 5.77966C17.6555 5.91679 17.7017 6.10013 17.5632 6.3066ZM16.0165 4.83903C16.2242 4.58712 16.6857 4.54089 16.9625 4.72424C17.1241 4.83903 17.1702 4.99927 17.0548 5.16028C16.9625 5.29817 16.8241 5.36674 16.6626 5.41296C16.5934 5.4353 16.5241 5.4353 16.4549 5.4353C16.3165 5.4353 16.178 5.38985 16.0627 5.32051C15.8781 5.20573 15.855 4.99927 16.0165 4.83903ZM15.9704 6.81119C15.8319 7.01765 15.6243 7.10933 15.4166 7.13167C15.2551 7.13167 15.1167 7.10933 15.0013 7.01765C14.7936 6.87976 14.7475 6.69641 14.8628 6.48995C14.9321 6.39827 15.0013 6.3066 15.1167 6.26114C15.3474 6.14636 15.5781 6.12325 15.8089 6.23803C16.0627 6.32971 16.1319 6.58162 15.9704 6.81119ZM14.8859 8.59924C14.7936 8.82881 14.5167 9.01216 14.2168 9.01216C14.1237 9.01216 14.0084 8.98905 13.9399 8.94359C13.7322 8.8057 13.6623 8.57613 13.7545 8.36966C13.8938 8.00296 14.3552 7.84273 14.6783 8.02608C14.8859 8.14086 14.9782 8.36966 14.8859 8.59924ZM13.593 7.65938C13.5246 7.65938 13.4784 7.63627 13.4084 7.59081C13.2469 7.49914 13.2008 7.36124 13.2469 7.17789C13.3169 6.92521 13.4784 6.76497 13.7322 6.69641C13.8007 6.6733 13.8699 6.6733 13.9622 6.65018C14.0322 6.6733 14.1237 6.6733 14.2168 6.71952C14.3775 6.78808 14.4706 6.92521 14.4475 7.10933C14.4475 7.22411 14.4014 7.3389 14.3091 7.40669C14.1237 7.65938 13.8699 7.72794 13.593 7.65938ZM13.2931 9.1724C13.2008 9.44742 12.9239 9.65388 12.6009 9.67699C12.5316 9.65388 12.4394 9.63154 12.3471 9.60843C12.1163 9.51675 12.024 9.31029 12.0933 9.08072C12.1855 8.69091 12.5778 8.46211 12.947 8.55378C13.2469 8.62235 13.3854 8.87426 13.2931 9.1724ZM11.9779 8.27876C11.7702 8.23254 11.6549 8.04919 11.701 7.84273C11.7702 7.4298 12.2548 7.15478 12.6239 7.31579C12.8316 7.40669 12.9239 7.5677 12.8547 7.79727C12.7855 8.0723 12.4624 8.30187 12.1625 8.30187C12.1163 8.30187 12.0471 8.30187 11.9779 8.27876ZM17.0548 3.50936C17.2863 3.32601 17.7017 3.3029 17.9555 3.46391C18.0939 3.57792 18.117 3.71582 17.9785 3.85372C17.8632 3.9685 17.7017 3.99084 17.5401 4.01396H17.4702C17.3317 4.01396 17.194 3.99084 17.0779 3.89917C16.9164 3.78438 16.9164 3.64726 17.0548 3.50936ZM18.5323 4.40377C18.6477 4.51778 18.6477 4.65568 18.5323 4.79358C18.3939 4.95381 18.2093 4.99927 18.0708 4.99927C17.8632 4.99927 17.7017 4.97693 17.5855 4.88525C17.4017 4.74735 17.3779 4.564 17.5401 4.40377C17.7709 4.15108 18.3016 4.15108 18.5323 4.40377ZM18.5785 3.14266C18.6707 3.09644 18.763 3.07333 18.9246 3.07333C19.063 3.07333 19.2014 3.09644 19.3168 3.16577C19.363 3.18811 19.4091 3.21122 19.4322 3.23433C19.5245 3.32601 19.5245 3.41768 19.4322 3.50936C19.386 3.55481 19.3168 3.60103 19.2476 3.62415C19.0169 3.71582 18.7861 3.69271 18.5554 3.57792C18.4862 3.53247 18.3939 3.46391 18.3939 3.37223C18.4169 3.25745 18.4862 3.18811 18.5785 3.14266ZM20.009 4.47233C19.8936 4.58712 19.7552 4.63257 19.6168 4.63257C19.4091 4.63257 19.2476 4.58712 19.1091 4.49544C18.8784 4.35754 18.9015 4.10563 19.1322 3.9685C19.386 3.83061 19.8014 3.89917 20.009 4.08252C20.1244 4.19731 20.1244 4.35754 20.009 4.47233ZM20.009 2.91309C20.0782 2.89075 20.1705 2.89075 20.2405 2.86764C20.402 2.86764 20.5405 2.91309 20.6781 2.98242C20.7243 3.00553 20.7704 3.02787 20.7935 3.05099C20.8858 3.14266 20.8858 3.23433 20.7935 3.3029C20.7481 3.34912 20.6781 3.37223 20.6097 3.39457C20.3782 3.4408 20.1475 3.41768 19.9629 3.3029C19.8706 3.25745 19.8013 3.18811 19.8013 3.07333C19.8244 2.98242 19.9167 2.9362 20.009 2.91309ZM21.3473 3.80749C21.3711 3.80749 21.3711 3.83061 21.3942 3.83061C21.5788 3.9685 21.5557 4.19731 21.3473 4.28898C21.2558 4.3352 21.1635 4.3352 21.0712 4.35754C20.8858 4.3352 20.7243 4.28898 20.5628 4.19731C20.5405 4.17419 20.4943 4.15108 20.4705 4.12874C20.3551 4.01396 20.3782 3.83061 20.5166 3.73893C20.5859 3.69271 20.6558 3.6696 20.7481 3.6696C20.9558 3.64726 21.1635 3.69271 21.3473 3.80749ZM21.3473 2.77596C21.6249 2.72974 21.8557 2.7983 22.0864 2.95931C22.1325 3.00553 22.1787 3.05099 22.1787 3.11955C22.1556 3.18811 22.1095 3.23433 22.0403 3.25745C21.971 3.27979 21.9018 3.27979 21.8326 3.27979C21.6249 3.27979 21.4634 3.21122 21.2788 3.11955C21.2096 3.07333 21.1396 3.02787 21.1635 2.9362C21.1865 2.82141 21.2788 2.77596 21.3473 2.77596ZM24.3476 3.48702C24.0246 3.34912 23.6785 3.23433 23.3554 3.14266C23.3324 3.16577 23.2862 3.18811 23.2401 3.18811H23.1478C22.9401 3.16577 22.7555 3.11955 22.5709 3.00553C22.5248 2.98242 22.4556 2.9362 22.4556 2.86764C21.7403 2.68429 21.0019 2.54639 20.2628 2.45471C20.2628 2.52405 20.2167 2.59184 20.1475 2.61495C20.0552 2.63806 19.9629 2.66117 19.8706 2.66117C19.6398 2.68429 19.4322 2.61495 19.2245 2.50094C19.2014 2.45471 19.1553 2.4316 19.0861 2.40926C18.9938 2.36304 18.9476 2.40926 18.9476 2.50094V2.5695C18.9476 2.72974 18.9246 2.7983 18.763 2.84452C18.5323 2.91309 18.2785 2.91309 18.0478 2.7983C17.9555 2.75285 17.8862 2.70663 17.794 2.66117C17.7478 2.63806 17.6778 2.5695 17.6094 2.61495C17.5401 2.63806 17.5632 2.72974 17.5632 2.77596C17.5632 2.9362 17.494 3.02787 17.3556 3.07333C17.0548 3.21122 16.7787 3.21122 16.5011 3.00553C16.478 2.98242 16.4549 2.95931 16.4088 2.95931C16.2473 2.84452 16.178 2.89075 16.178 3.07333C16.178 3.25745 16.0857 3.37223 15.9242 3.46391C15.8319 3.50936 15.7396 3.55481 15.6704 3.60103C15.6243 3.62415 15.5781 3.64726 15.5781 3.69271C15.6473 3.73893 15.6473 3.73893 15.7396 3.73893C15.8781 3.73893 16.0165 3.71582 16.155 3.71582C16.2703 3.71582 16.3857 3.73893 16.5011 3.80749C16.6395 3.89917 16.6626 4.0363 16.5472 4.15108C16.478 4.24276 16.3857 4.31209 16.2934 4.35754C15.9704 4.47233 15.6935 4.42688 15.4397 4.19731C15.3935 4.15108 15.3474 4.10563 15.3012 4.08252C15.232 4.0363 15.1628 4.05941 15.1397 4.15108C15.1397 4.19731 15.1167 4.24276 15.1397 4.31209C15.1397 4.51778 15.0705 4.67879 14.8859 4.77047C14.7936 4.81669 14.6783 4.86214 14.609 4.90836C14.5629 4.93147 14.5167 4.97693 14.4937 4.99927C14.4475 5.04549 14.4706 5.09171 14.5167 5.09171H14.7244C14.8398 5.09171 14.9551 5.0686 15.0705 5.0686C15.1859 5.0686 15.3012 5.09171 15.3935 5.16028C15.5781 5.29817 15.6012 5.48075 15.4628 5.64176C15.2089 5.98535 14.6552 6.03157 14.3775 5.71032C14.3314 5.64176 14.286 5.59554 14.2399 5.55009C14.1937 5.52698 14.1476 5.48075 14.1014 5.50386C14.0553 5.52698 14.0322 5.5732 14.0322 5.61865C14.0322 5.71032 14.0322 5.77966 14.0084 5.87133C14.0084 6.37593 13.3854 6.60473 13.0393 6.42138C12.947 6.37593 12.9008 6.3066 12.8316 6.23803C12.7624 6.19181 12.7393 6.12325 12.6932 6.07702C12.6239 6.03157 12.5547 6.05468 12.5316 6.12325C12.5316 6.1687 12.5086 6.19181 12.5086 6.23803C12.5086 6.3066 12.4855 6.37593 12.4855 6.44372C12.4624 6.81119 12.1625 7.01765 11.9087 7.06311C11.6779 7.10933 11.4703 7.06311 11.3318 6.85742C11.2857 6.81119 11.2395 6.74263 11.1934 6.69641C11.1242 6.62784 11.0549 6.65018 11.0319 6.74263C11.0088 6.81119 11.0088 6.87976 11.0088 6.97143C11.0088 7.24646 10.8934 7.4298 10.6619 7.59081C10.5473 7.65938 10.432 7.75105 10.3166 7.84273C10.2927 7.86584 10.2466 7.88818 10.2243 7.9344C10.2005 7.98062 10.2005 8.00296 10.2704 8.00296C10.3166 8.00296 10.362 8.00296 10.432 7.98062C10.5704 7.95751 10.7319 7.91129 10.8696 7.88818C11.1934 7.86584 11.401 8.14086 11.2857 8.46211C11.2395 8.59924 11.1703 8.69091 11.0549 8.78336C10.9157 8.87426 10.8011 8.96594 10.6619 9.05761C10.6158 9.10383 10.5935 9.12694 10.5473 9.1724C10.5243 9.1724 10.5243 9.21862 10.5243 9.24173C10.5243 9.26484 10.5704 9.28718 10.5935 9.28718C10.6619 9.28718 10.7081 9.28718 10.7781 9.26484C10.9396 9.24173 11.078 9.21862 11.2395 9.19551C11.5856 9.1724 11.7702 9.44742 11.6779 9.76867C11.6318 9.92891 11.5395 10.0437 11.4241 10.1354C11.3088 10.2278 11.1703 10.3187 11.0549 10.4104C11.0088 10.4335 10.9626 10.4797 10.9157 10.5021C10.8934 10.5483 10.8473 10.5714 10.8696 10.6169C10.8934 10.6631 10.9396 10.6631 10.9857 10.6631C11.0549 10.6631 11.1242 10.64 11.1934 10.64C11.3088 10.6169 11.4241 10.5945 11.5395 10.5945C11.7933 10.5483 11.9779 10.64 12.1163 10.8464C12.1855 10.9612 12.2548 11.076 12.324 11.1908C12.3471 11.2362 12.3701 11.2817 12.4163 11.3279C12.4394 11.351 12.4855 11.3965 12.5086 11.3965C12.5778 11.3965 12.5778 11.3279 12.5778 11.2817V11.1446C12.5778 11.0298 12.5547 10.915 12.5547 10.8002V10.64C12.5547 10.3187 12.7855 10.0437 13.0854 9.95202C13.3623 9.86034 13.6161 9.95202 13.8007 10.2502C13.8699 10.3649 13.9399 10.4797 14.0084 10.5945C14.0322 10.6169 14.0553 10.6631 14.1014 10.6862C14.1237 10.7093 14.1699 10.7316 14.1699 10.7316C14.1937 10.7093 14.2168 10.6862 14.2168 10.64V10.4335C14.2168 10.2956 14.1937 10.1585 14.1699 10.0206C14.1476 9.86034 14.1937 9.7001 14.286 9.56221C14.4937 9.28718 15.0244 9.10383 15.3705 9.56221C15.3935 9.60843 15.4397 9.65388 15.4628 9.7001C15.5551 9.83723 15.6243 9.92891 15.7166 10.0437C15.7396 10.0668 15.7627 10.0899 15.7858 10.1354C15.8319 10.1816 15.9012 10.1585 15.9012 10.0899V9.92891C15.9012 9.76867 15.8781 9.60843 15.855 9.44742C15.8319 9.19551 15.9242 8.98905 16.1319 8.85115C16.178 8.82881 16.2242 8.8057 16.2703 8.78336C16.3626 8.71402 16.4549 8.66857 16.5472 8.62235C16.5934 8.57613 16.6626 8.55378 16.7087 8.50756C16.7549 8.48445 16.8241 8.46211 16.801 8.39278C16.7787 8.32421 16.7087 8.34732 16.6395 8.34732C16.5934 8.34732 16.5472 8.34732 16.5011 8.36966C16.3396 8.39278 16.178 8.41589 16.0396 8.439C15.9012 8.46211 15.7627 8.439 15.6473 8.39278C15.2782 8.27876 15.1859 7.88818 15.4397 7.61315C15.7166 7.29268 16.2011 7.29268 16.478 7.5677C16.5472 7.63627 16.5934 7.7056 16.6395 7.77416C16.6626 7.82039 16.7087 7.86584 16.7549 7.88818C16.7787 7.91129 16.8241 7.9344 16.8702 7.9344C16.9164 7.9344 16.9164 7.86584 16.9402 7.82039V7.7056V7.47603C16.9402 7.201 17.0779 6.99454 17.3556 6.90287C17.6317 6.81119 17.8862 6.85742 18.117 7.08622C18.1862 7.15478 18.2324 7.22411 18.3016 7.29268C18.3246 7.3389 18.3708 7.36124 18.4169 7.40669C18.4862 7.45292 18.5323 7.4298 18.5554 7.3389V7.22411C18.5554 7.15478 18.5323 7.06311 18.5323 6.99454C18.5323 6.69641 18.7169 6.46683 19.0168 6.42138C19.2937 6.37593 19.5245 6.44372 19.7091 6.65018C19.7783 6.71952 19.8475 6.78808 19.9167 6.87976C19.9398 6.90287 19.9629 6.94832 20.009 6.97143C20.0782 7.03999 20.1475 6.99454 20.1475 6.90287V6.78808C20.1475 6.71952 20.1244 6.65018 20.1244 6.58162C20.1013 6.3066 20.2167 6.12325 20.4943 6.05468C20.7704 5.98535 21.025 6.05468 21.2327 6.23803C21.325 6.32971 21.3942 6.42138 21.4865 6.51306C21.5326 6.55851 21.5788 6.62784 21.648 6.60473C21.7172 6.58162 21.6941 6.48995 21.6941 6.42138C21.6941 6.32971 21.6711 6.21492 21.6711 6.12325C21.6711 5.91679 21.8095 5.75655 22.0172 5.73344C22.2941 5.68721 22.5479 5.77966 22.7325 5.96224C22.9401 6.1687 22.894 6.42138 22.6632 6.58162C22.594 6.62784 22.5017 6.6733 22.4325 6.71952C22.3864 6.74263 22.3402 6.76497 22.3171 6.81119C22.271 6.85742 22.271 6.90287 22.3402 6.92521C22.3864 6.94832 22.4325 6.94832 22.5017 6.94832H22.8248C23.0555 6.94832 23.2401 7.03999 23.3785 7.201C23.4708 7.29268 23.5631 7.40669 23.6554 7.49914C23.6785 7.52148 23.7246 7.54459 23.7485 7.5677C23.7938 7.59081 23.84 7.5677 23.84 7.52148V7.38435C23.8169 7.29268 23.8169 7.201 23.7938 7.08622C23.7708 6.87976 23.84 6.76497 23.9784 6.6733C24.0476 6.62784 24.1176 6.60473 24.1861 6.55851C24.2322 6.53617 24.2561 6.51306 24.3015 6.48995C24.3476 6.44372 24.3476 6.39827 24.2792 6.37593C24.2322 6.35282 24.1861 6.35282 24.1176 6.35282C24.0023 6.32971 23.8861 6.32971 23.7708 6.32971C23.54 6.3066 23.3324 6.19181 23.1939 6.00846C23.0555 5.82511 23.1016 5.61865 23.2862 5.50386C23.3324 5.48075 23.3785 5.45841 23.4247 5.4353C23.4708 5.41296 23.4947 5.38985 23.54 5.36674C23.5862 5.34363 23.6323 5.32051 23.6093 5.25195C23.5862 5.22884 23.54 5.20573 23.517 5.18339C23.4708 5.16028 23.4016 5.16028 23.3324 5.16028C23.2401 5.16028 23.1478 5.13716 23.0555 5.13716C22.894 5.11405 22.7555 5.0686 22.6171 4.95382C22.5709 4.93147 22.5479 4.88525 22.5017 4.83903C22.3864 4.67879 22.4094 4.49544 22.594 4.42688C22.6632 4.40377 22.7555 4.38065 22.8248 4.38065C23.0324 4.38065 23.2401 4.44999 23.4016 4.58712C23.4708 4.65568 23.5631 4.72424 23.6323 4.77047C23.6554 4.79358 23.7023 4.81669 23.7485 4.83903C23.8169 4.86214 23.84 4.83903 23.84 4.77047C23.84 4.72424 23.8169 4.67879 23.8169 4.63257C23.7485 4.38065 23.7708 4.31209 24.0246 4.22042L24.1638 4.15108C24.2099 4.12874 24.2099 4.08252 24.1638 4.05941C24.1399 4.0363 24.0938 4.0363 24.0476 4.01396C23.9561 3.99084 23.8631 3.99084 23.7708 3.9685C23.6093 3.94539 23.4477 3.89917 23.2862 3.78438C23.1939 3.71582 23.1016 3.64726 23.1247 3.50936C23.1478 3.41768 23.2631 3.37223 23.4247 3.39457C23.6323 3.41768 23.84 3.48702 24.0023 3.62415C24.0715 3.6696 24.1176 3.71582 24.1638 3.76127C24.1861 3.78438 24.2099 3.80749 24.2561 3.80749C24.3253 3.83061 24.3476 3.80749 24.3476 3.73893C24.3476 3.69271 24.3253 3.6696 24.3253 3.62415C24.3015 3.57792 24.3253 3.50936 24.3476 3.48702Z" fill="white"/>
<path fill-rule="evenodd" clip-rule="evenodd" d="M13.0169 33.1552C12.9246 33.0636 12.8554 32.9719 12.8784 32.834C12.9246 32.6961 13.0399 32.6737 13.1784 32.6514H13.2476C13.4783 32.6737 13.686 32.7423 13.8706 32.9033C14.009 33.0412 13.986 33.2238 13.8014 33.3155C13.7091 33.3617 13.6168 33.3848 13.5245 33.3617C13.3399 33.3617 13.1553 33.2931 13.0169 33.1552ZM12.6008 33.3617C12.5554 33.4765 12.4631 33.4765 12.347 33.4765C12.117 33.4765 11.9093 33.3848 11.7478 33.2238C11.6778 33.1552 11.6086 33.0636 11.6548 32.9488C11.7017 32.834 11.8163 32.834 11.9093 32.834C12.1393 32.834 12.347 32.9257 12.5092 33.109C12.6008 33.1552 12.6477 33.2469 12.6008 33.3617ZM10.9395 32.146C10.9164 32.1237 10.8933 32.0782 10.8933 32.032C10.8472 31.8941 10.9164 31.7793 11.0548 31.7331C11.101 31.7108 11.1471 31.7108 11.1702 31.7108C11.4702 31.7331 11.7017 31.8487 11.8632 32.0782C11.9316 32.1699 11.9555 32.2608 11.9093 32.3525C11.8632 32.4442 11.7701 32.4904 11.6778 32.4904C11.3779 32.5135 11.1241 32.3987 10.9395 32.146ZM12.1855 31.7331C12.2554 31.5729 12.3931 31.5505 12.5554 31.5505H12.5785C12.8092 31.5729 13.0169 31.6422 13.1784 31.8248C13.2015 31.871 13.2476 31.8941 13.2707 31.9403C13.363 32.1006 13.2937 32.2608 13.1322 32.3525C13.0861 32.3756 13.0169 32.3987 12.9476 32.3987C12.6938 32.3987 12.4862 32.3302 12.3247 32.146C12.1855 32.0089 12.117 31.871 12.1855 31.7331ZM14.5397 33.8663C14.6089 33.9117 14.632 33.9803 14.6089 34.072C14.5859 34.1644 14.5166 34.2099 14.4244 34.2099C14.3782 34.2099 14.3321 34.2322 14.2859 34.2322C14.0552 34.2322 13.8706 34.1644 13.686 34.0496C13.5937 33.9803 13.5245 33.9117 13.5476 33.797C13.5706 33.6829 13.686 33.6367 13.7783 33.6367C14.0782 33.6144 14.309 33.7053 14.5397 33.8663ZM10.5242 32.5597H10.4088C10.155 32.5135 9.94732 32.3987 9.80888 32.1923C9.80888 32.1923 9.80888 32.1699 9.7858 32.1699C9.73966 32.1006 9.71658 32.0089 9.76273 31.9403C9.80888 31.871 9.8781 31.8487 9.99346 31.8487C10.2473 31.871 10.4549 32.0089 10.6165 32.2385C10.6395 32.2608 10.6395 32.3063 10.6626 32.3302C10.7087 32.4673 10.6395 32.5597 10.5242 32.5597ZM9.02438 31.0691C8.97823 30.9774 8.95516 30.8857 9.02438 30.794C9.09283 30.7016 9.18589 30.7016 9.30126 30.7016C9.55507 30.7478 9.76273 30.8857 9.90117 31.0914C9.92424 31.1376 9.94732 31.1831 9.97039 31.2516C10.0165 31.4358 9.90117 31.5505 9.69351 31.5505C9.39355 31.5043 9.16282 31.3672 9.02438 31.0691ZM8.63136 31.5729C8.60905 31.5729 8.56214 31.5505 8.51599 31.5505C8.30833 31.4812 8.14681 31.3433 8.03221 31.1607C7.96222 31.0691 7.93915 30.9774 8.00837 30.8857C8.07836 30.794 8.19373 30.8164 8.28602 30.8395C8.51599 30.908 8.6775 31.0459 8.81672 31.2293C8.83979 31.2755 8.86286 31.321 8.88517 31.3895C8.86286 31.5043 8.79364 31.5729 8.63136 31.5729ZM7.86993 30.4728C7.59305 30.4266 7.29309 30.1523 7.22387 29.8765C7.17773 29.6932 7.29309 29.5553 7.45461 29.6015C7.75456 29.6708 7.96222 29.8311 8.07836 30.1061C8.07836 30.1284 8.10067 30.1523 8.10067 30.1978V30.244C8.10067 30.4042 8.00837 30.4959 7.86993 30.4728ZM7.08543 29.2571C6.83162 29.1893 6.55474 28.8904 6.50859 28.6385C6.46245 28.4089 6.62396 28.2718 6.8547 28.3404C7.13158 28.4321 7.40846 28.7533 7.40846 29.0283C7.38539 29.1893 7.27002 29.3033 7.08543 29.2571ZM6.92392 30.4728C6.62396 30.3803 6.4163 30.1746 6.324 29.8765C6.27786 29.7386 6.37015 29.6708 6.48552 29.6932C6.71625 29.7386 7.06236 30.0599 7.08543 30.2887V30.3349C7.1085 30.4497 7.03928 30.5182 6.92392 30.4728ZM6.16249 29.3257C5.90868 29.2117 5.70102 29.0283 5.63103 28.7533C5.63103 28.7302 5.63103 28.684 5.60873 28.6616C5.60873 28.4783 5.70102 28.4089 5.86253 28.4783C6.13942 28.5923 6.30093 28.7756 6.39323 29.0738C6.39323 29.0969 6.4163 29.1431 6.39323 29.1893C6.39323 29.3033 6.30093 29.3719 6.16249 29.3257ZM13.1322 34.3015H13.0399C13.4553 34.4394 13.8706 34.5535 14.2859 34.6683V34.622C14.309 34.5535 14.3551 34.5311 14.4013 34.508C14.4705 34.4857 14.5166 34.4857 14.5859 34.4857C14.7705 34.4857 14.9558 34.5311 15.1166 34.622C15.1635 34.6459 15.2096 34.6914 15.2319 34.7137C15.2781 34.7599 15.2781 34.8061 15.2558 34.8516C15.6472 34.9209 16.0403 34.9895 16.4325 35.035C16.4556 35.0126 16.5017 35.0126 16.5248 34.9895C16.571 34.9672 16.571 34.8978 16.5017 34.8978C16.4556 34.8747 16.3864 34.8747 16.3172 34.8747C16.1787 34.8516 16.0403 34.8516 15.9011 34.8293C15.8095 34.8061 15.6934 34.7599 15.6011 34.6914C15.4857 34.622 15.5096 34.4857 15.6249 34.4163C15.6472 34.3932 15.6934 34.3701 15.7403 34.3701C15.7865 34.3478 15.8326 34.3247 15.8788 34.3247C15.9249 34.3016 15.9941 34.2784 15.9941 34.2099C15.948 34.1405 15.8788 34.1405 15.8326 34.1405C15.7403 34.1405 15.6472 34.1405 15.5788 34.1182C15.4634 34.0959 15.3242 34.072 15.2096 34.0496C15.1396 34.0265 15.0481 33.9803 15.002 33.9349C14.8397 33.797 14.8627 33.6367 15.0481 33.545C15.1166 33.4988 15.1858 33.4765 15.2558 33.4534C15.3019 33.4303 15.3242 33.4071 15.3711 33.3848C15.4173 33.3617 15.3934 33.3155 15.3473 33.2931C15.3242 33.2692 15.2781 33.2692 15.2558 33.2692C15.1635 33.2692 15.0704 33.2469 14.9781 33.2469C14.8858 33.2238 14.7705 33.2238 14.6782 33.2015C14.5397 33.1776 14.4244 33.109 14.309 32.995C14.1475 32.834 14.1705 32.6514 14.3551 32.5358C14.4244 32.4904 14.4936 32.4673 14.5628 32.4218C14.6089 32.3987 14.6551 32.3756 14.6782 32.3525C14.7474 32.3063 14.7243 32.2608 14.6551 32.2385C14.6089 32.2146 14.5628 32.2146 14.4936 32.2146C14.3782 32.2146 14.2398 32.1923 14.1244 32.1923C13.9398 32.1237 13.7552 32.032 13.6168 31.8487C13.4553 31.6422 13.5476 31.3433 13.8014 31.2755C13.8475 31.2516 13.8937 31.2516 13.9398 31.2516C14.1936 31.2293 14.4013 31.321 14.5859 31.4812C14.6782 31.5505 14.7474 31.6422 14.8397 31.7331C14.8627 31.757 14.9089 31.8024 14.9558 31.8024C15.002 31.8248 15.0481 31.8025 15.0704 31.757V31.6422C15.0704 31.5729 15.0481 31.5043 15.0481 31.4357C15.0243 31.2293 15.0935 31.0691 15.2781 30.9774C15.3711 30.9312 15.4634 30.8857 15.5557 30.8164C15.6011 30.794 15.6711 30.7701 15.6472 30.6792C15.6249 30.6099 15.5557 30.6099 15.4857 30.6099H15.0935C14.8397 30.6099 14.632 30.5182 14.4474 30.3349C14.3782 30.244 14.2859 30.1746 14.2167 30.083C14.1936 30.0599 14.1705 30.0144 14.1244 30.0144C14.0552 29.9682 14.009 29.9913 14.009 30.0599V30.1978C14.0321 30.2887 14.0321 30.3803 14.0552 30.4959C14.0782 30.7478 13.8937 30.9543 13.6399 30.9543C13.4091 30.9543 13.2015 30.8857 13.0169 30.7255C12.9246 30.6338 12.8323 30.5182 12.74 30.4266C12.6938 30.3803 12.6477 30.3125 12.6008 30.358C12.5323 30.3803 12.5554 30.4728 12.5554 30.5182C12.5785 30.6099 12.6008 30.7255 12.6008 30.8164C12.6246 31.0459 12.4862 31.1831 12.2785 31.2069C12.0478 31.2293 11.8393 31.1607 11.6778 30.9997C11.6086 30.9312 11.5625 30.8857 11.494 30.8164C11.424 30.7255 11.3325 30.6338 11.2625 30.5413C11.2394 30.5182 11.2164 30.4959 11.1702 30.4728C11.1241 30.4497 11.0779 30.4728 11.0779 30.5182C11.0779 30.5645 11.0779 30.6099 11.101 30.6561C11.1241 30.794 11.1702 30.908 11.1933 31.0459C11.2394 31.2293 11.1241 31.3672 10.9395 31.3895H10.778C10.5934 31.3433 10.4549 31.2755 10.3165 31.1376C10.2703 31.0691 10.2242 30.9997 10.2011 30.9312C10.1319 30.794 10.1781 30.6561 10.3396 30.5876C10.3857 30.5645 10.4549 30.5182 10.5011 30.4959C10.5472 30.4728 10.5934 30.4497 10.6395 30.4266C10.6626 30.4042 10.7087 30.358 10.7087 30.3349C10.7087 30.2663 10.6395 30.2663 10.5934 30.2663C10.5703 30.2663 10.5242 30.244 10.5011 30.244C10.4319 30.244 10.3857 30.2201 10.3165 30.2201C9.94732 30.2201 9.67044 30.0599 9.46277 29.7625C9.39355 29.6708 9.30126 29.5784 9.23204 29.4867C9.20896 29.4412 9.16282 29.4174 9.09283 29.4412V29.5784C9.11667 29.6469 9.13898 29.7386 9.16282 29.8072C9.18589 29.8989 9.23204 30.0144 9.23204 30.1061C9.25511 30.3349 9.11667 30.4497 8.88517 30.4042C8.63136 30.358 8.4237 30.1978 8.30833 29.9682C8.28602 29.9227 8.26218 29.8765 8.26218 29.8311C8.23988 29.6932 8.26218 29.5784 8.37755 29.5098C8.4237 29.4867 8.46984 29.4412 8.51599 29.4174C8.56214 29.3719 8.63136 29.3496 8.63136 29.281C8.60905 29.1893 8.53983 29.1893 8.46984 29.1893C8.37755 29.1655 8.28602 29.1655 8.21603 29.1431C7.96223 29.0969 7.75456 28.9598 7.61612 28.7302C7.45461 28.4783 7.52383 28.2718 7.75456 28.0885C7.82455 28.0422 7.86993 27.9968 7.91608 27.9506C7.9853 27.8812 7.9853 27.8127 7.86993 27.7903C7.82455 27.7903 7.75456 27.7672 7.68534 27.7672C7.36231 27.7672 7.13158 27.607 6.94699 27.3551C6.90084 27.2857 6.83162 27.2172 6.78548 27.1255C6.7624 27.0793 6.71625 27.0338 6.67011 27.0562C6.62396 27.0793 6.62396 27.1478 6.64703 27.1709C6.67011 27.2857 6.69318 27.3774 6.69318 27.4914C6.69318 27.5839 6.71625 27.6755 6.69318 27.7449C6.67011 27.8812 6.57781 27.9275 6.43937 27.9275C6.324 27.9051 6.23171 27.8812 6.16249 27.7903C6.09327 27.721 6.04712 27.6755 5.9779 27.607C5.90868 27.5376 5.86253 27.446 5.79331 27.3774C5.77024 27.3312 5.72409 27.2857 5.65487 27.3088C5.63103 27.3774 5.63103 27.446 5.65487 27.5153C5.67795 27.6293 5.70102 27.7449 5.70102 27.8589C5.70102 28.0422 5.58565 28.1339 5.40106 28.0422C5.37722 28.0422 5.35492 28.0191 5.33184 28.0191C5.14725 27.8812 5.00804 27.6987 4.93959 27.4914C4.89268 27.3312 4.93959 27.1941 5.05419 27.1024C5.10111 27.0793 5.12341 27.0562 5.14725 27.0099C5.1934 26.9421 5.16956 26.8959 5.12341 26.8736C5.07803 26.8497 5.03189 26.8497 4.98574 26.8274C4.73193 26.8042 4.57042 26.6664 4.45428 26.4607C4.38506 26.3459 4.31584 26.2311 4.24662 26.1394C4.22354 26.0932 4.20047 26.047 4.10818 26.047C4.10818 26.0932 4.0851 26.1394 4.10818 26.1849C4.13125 26.3004 4.15432 26.3921 4.1774 26.5061C4.20047 26.5747 4.20047 26.644 4.22354 26.7357C4.22354 26.8042 4.22354 26.8497 4.15432 26.8959C4.0851 26.9421 4.03896 26.8959 3.99281 26.8736C3.94666 26.8497 3.92359 26.8042 3.90051 26.7819L3.87744 26.758C3.99281 26.9876 4.13125 27.1941 4.26969 27.4236C4.29276 27.3774 4.36199 27.3551 4.43121 27.3774C4.45428 27.3774 4.47735 27.3997 4.50043 27.3997C4.68502 27.5376 4.82423 27.721 4.8696 27.9729V28.0191C4.8696 28.1108 4.82423 28.157 4.77808 28.1801C4.8696 28.318 4.98574 28.4544 5.07803 28.5923C5.10111 28.5923 5.12341 28.6154 5.14725 28.6154C5.30877 28.7302 5.44721 28.8904 5.5395 29.0514C5.56258 29.0969 5.56258 29.1431 5.58565 29.1893C6.0702 29.7848 6.60089 30.3349 7.17773 30.8395C7.22387 30.8164 7.27002 30.8395 7.31617 30.8618C7.52383 30.9543 7.70842 31.0914 7.82455 31.2755C7.82455 31.2979 7.84686 31.3433 7.84686 31.3895V31.4357C8.14681 31.6884 8.44754 31.9172 8.77057 32.146C8.77057 32.1237 8.74749 32.1006 8.74749 32.0782C8.70135 31.9858 8.74749 31.9172 8.86286 31.8941C8.90901 31.8941 8.95516 31.8941 9.0013 31.9172C9.20897 31.9858 9.39355 32.1006 9.53199 32.2839C9.55507 32.3063 9.55507 32.3302 9.57814 32.3525C9.62429 32.4673 9.57814 32.5597 9.41663 32.5597C9.8781 32.8571 10.3396 33.1329 10.8472 33.3617C10.7549 33.3155 10.6857 33.2469 10.5934 33.1776C10.5472 33.109 10.5011 33.0636 10.5472 32.9719C10.5934 32.8802 10.6626 32.8802 10.778 32.8802C11.0087 32.9033 11.2394 33.0173 11.4009 33.2015C11.4471 33.2692 11.494 33.3386 11.4471 33.4071C11.4009 33.4988 11.3087 33.4988 11.2394 33.4765C11.1471 33.4534 11.0318 33.4303 10.9395 33.3848C11.4702 33.6367 12.0016 33.8886 12.5554 34.0959C12.5092 34.0959 12.4631 34.072 12.44 34.0496C12.417 34.0265 12.3931 34.0042 12.3708 33.9803C12.3247 33.8886 12.347 33.797 12.44 33.7746C12.4862 33.7507 12.5554 33.7507 12.5785 33.7507C12.8323 33.7507 13.0399 33.8432 13.2245 34.0042C13.2937 34.0496 13.3399 34.1182 13.3168 34.2099C13.2937 34.2784 13.2015 34.3015 13.1322 34.3015Z" fill="white"/>
</g>
<defs>
<radialGradient id="paint0_radial_445_2661" cx="0" cy="0" r="1" gradientUnits="userSpaceOnUse" gradientTransform="translate(-1392.18 1771.66) rotate(90) scale(2406.89 2317.27)">
<stop stop-color="#D8D8D8"/>
<stop offset="1" stop-color="#002D74"/>
</radialGradient>
<clipPath id="clip0_445_2661">
<rect width="105.405" height="36.2077" fill="white" transform="translate(0 0.770752)"/>
</clipPath>
</defs>
</svg>
