<svg width="613" height="226" viewBox="0 0 613 226" fill="none" xmlns="http://www.w3.org/2000/svg">
<g clip-path="url(#clip0_3047_801)">
<path d="M107.255 112.048H86.5942L91.0704 91.7938H110.177C116.466 91.7938 120.166 95.1786 120.166 100.117C120.166 106.628 115.393 112.048 107.255 112.048ZM141.344 98.1196C141.344 84.2101 130.616 74 111.861 74H73.6836L55.002 159.085H76.2731L82.7099 129.86H95.1581L107.532 159.085H128.748L115.56 128.454C131.375 125.976 141.344 113.287 141.344 98.1196Z" fill="white"/>
<path d="M178.041 127.233L196.279 95.863L203.178 127.233H178.06H178.041ZM187.659 74L138.236 159.085H159.452L167.72 144.972H207.081L210.188 159.085H231.404L212.778 74H187.659ZM292.313 112.048H273.447L277.886 91.7938H294.311C300.785 91.7938 304.762 94.8827 304.762 100.117C304.762 106.628 299.86 112.048 292.332 112.048M296.475 74H260.499L241.817 159.085H263.052L269.525 129.823H293.238C313.51 129.823 325.792 114.545 325.792 98.4341C325.792 84.0807 314.602 74.0185 296.457 74.0185" fill="white"/>
<path d="M366.892 74H345.621L326.902 159.085H348.173L366.892 74Z" fill="white"/>
<path d="M519.23 74H452.161C453.178 75.0358 454.196 76.1086 455.12 77.2369C462.63 86.3373 466.588 97.7682 466.588 110.346C466.588 129.767 458.413 147.284 445.28 159.085H486.343L505.857 110.586H481.441L485.51 91.7753H534.009L508.539 159.085H518.527C541.777 159.232 557.499 139.922 557.499 116.468C557.499 93.0145 542.517 74 519.211 74" fill="#E85E26"/>
<path d="M400.816 141.328H389.07L399.983 91.7938H411.081C423.252 91.7938 430.077 100.913 430.077 112.325C430.077 127.677 419.127 141.328 400.853 141.328M443.432 87.8725C436.144 78.9941 424.103 74 409.898 74H382.634L363.896 159.085H398.208C411.525 159.085 421.772 156.125 429.597 151.408C445.504 141.753 451.145 124.773 451.145 110.346C451.145 101.357 448.334 93.7359 443.451 87.8725" fill="white"/>
</g>
<defs>
<clipPath id="clip0_3047_801">
<rect width="503.108" height="85.0845" fill="white" transform="translate(55 74)"/>
</clipPath>
</defs>
</svg>
