<svg width="115" height="19" viewBox="0 0 115 19" fill="none" xmlns="http://www.w3.org/2000/svg">
<path d="M36.0681 2.99187C37.2161 4.49919 37.8567 6.95772 37.8567 9.83739C37.8567 13.1041 36.821 15.7886 34.9771 17.2683C33.5803 18.3854 31.4567 19 28.9429 19C25.3657 19 22.5446 17.8244 21.0909 15.7317C19.9998 14.1951 19.4649 12.1545 19.4649 9.66829C19.4649 6.09106 20.4405 3.38211 22.2893 1.93008C23.7397 0.757723 26.0291 0.113818 28.6584 0.113818C31.9836 0.113818 34.6389 1.14959 36.0616 2.9935M24.6909 5.14471C24.1023 6.06666 23.8242 7.54471 23.8242 9.53496C23.8242 13.8927 25.3315 15.8764 28.686 15.8764C31.982 15.8764 33.4925 13.8911 33.4925 9.59025C33.4925 5.22927 32.0112 3.27479 28.686 3.27479C26.8698 3.27479 25.4437 3.94634 24.6909 5.14797M44.1966 18.9919H40.2259V0.356098H49.5299C52.7966 0.356098 53.9446 0.691056 55.1722 2.06179C56.2649 3.24829 56.8644 4.80659 56.8486 6.41951C56.8486 8.37073 56.0681 10.1902 54.782 11.2813C53.6925 12.2016 52.6844 12.4813 50.5641 12.4813H44.1966V18.9919ZM49.5885 9.15935C50.6502 9.15935 51.2633 9.01951 51.6828 8.62764C52.1852 8.20813 52.4958 7.31545 52.4958 6.2813C52.4958 5.05203 51.995 4.15935 51.1283 3.85041C50.6553 3.72008 50.1647 3.6652 49.6746 3.6878H44.1966V9.16422L49.5885 9.15935ZM74.2811 0.357721H70.3072V7.98536H63.1348V0.357721H59.1673V18.9919H63.1348V11.3089H70.3072V18.9919H74.2746L74.2811 0.357721ZM93.2844 2.99187C94.4324 4.49919 95.073 6.95772 95.073 9.83739C95.073 13.1041 94.0405 15.7886 92.195 17.2683C90.795 18.3772 88.6811 18.9919 86.1592 18.9919C82.582 18.9919 79.7624 17.8163 78.3104 15.7236C77.2193 14.187 76.6844 12.1463 76.6844 9.66016C76.6844 6.08293 77.66 3.37398 79.5072 1.92195C80.9592 0.749595 83.247 0.10569 85.8795 0.10569C89.2031 0.10569 91.8567 1.14146 93.2811 2.98536M81.912 5.13658C81.325 6.05854 81.0454 7.53658 81.0454 9.52683C81.0454 13.8846 82.5527 15.8683 85.9039 15.8683C89.2015 15.8683 90.7088 13.8829 90.7088 9.58212C90.7088 5.22114 89.2291 3.26667 85.9039 3.26667C84.0893 3.26667 82.6633 3.93821 81.9104 5.13983M0.73968 18.9919H10.7852C13.6047 18.9919 14.7998 18.8195 15.7397 18.2244C17.2194 17.3138 18.1592 15.4325 18.1592 13.4114C18.1592 11.761 17.5901 10.0813 16.7364 9.22601C15.6259 8.0878 14.1169 7.66016 11.325 7.66016H8.27952C6.91366 7.66016 5.90553 7.60163 5.33805 7.34797C4.65513 7.03252 4.25675 6.34959 4.25675 5.49593C4.25675 4.49918 4.74456 3.75772 5.53805 3.55772C6.13643 3.41789 6.82911 3.41789 8.62748 3.39512H17.621V0H7.70553C5.48439 0 4.48765 0.0845499 3.64049 0.398371C1.67626 1.0813 0.336426 3.18861 0.336426 5.60162C0.336426 7.25528 0.986832 8.79349 2.12504 9.78861C3.12179 10.6423 4.60309 11.0406 6.87952 11.0406H10.9332C11.8454 11.0406 12.5836 11.1545 12.9852 11.3821C13.3625 11.5672 13.6785 11.857 13.8956 12.2168C14.1127 12.5766 14.2217 12.9913 14.2096 13.4114C14.2187 13.7578 14.1367 14.1005 13.9718 14.4053C13.8068 14.71 13.5648 14.9661 13.2698 15.148C12.782 15.4634 11.9592 15.6049 10.4519 15.6049H0.73968V18.9919ZM96.8372 18.9919H106.893C109.712 18.9919 110.907 18.8195 111.849 18.2244C113.328 17.3138 114.267 15.4325 114.267 13.4114C114.267 11.761 113.699 10.0813 112.845 9.22601C111.732 8.0878 110.224 7.66016 107.431 7.66016H104.385C103.016 7.66016 102.008 7.60163 101.44 7.34797C100.754 7.03252 100.356 6.34959 100.356 5.49593C100.356 4.49918 100.844 3.75772 101.639 3.55772C102.236 3.41789 102.932 3.41789 104.728 3.39512H113.722V0H103.819C101.597 0 100.601 0.0845499 99.7543 0.398371C97.7885 1.0813 96.4502 3.18861 96.4502 5.60162C96.4502 7.25528 97.1007 8.79349 98.2389 9.78861C99.2356 10.6423 100.717 11.0406 102.995 11.0406H107.049C107.961 11.0406 108.702 11.1545 109.099 11.3821C109.475 11.5662 109.791 11.8546 110.008 12.2129C110.225 12.5713 110.335 12.9844 110.323 13.4033C110.332 13.7495 110.25 14.0919 110.086 14.3966C109.921 14.7013 109.68 14.9576 109.385 15.1398C108.897 15.4553 108.076 15.5967 106.564 15.5967H96.8437L96.8372 18.9919Z" fill="#005BC8"/>
</svg>
