<svg width="170" height="51" viewBox="0 0 170 51" fill="none" xmlns="http://www.w3.org/2000/svg">
<g clip-path="url(#clip0_445_2617)">
<path d="M17.9586 30.5694C17.9586 31.6831 17.723 32.718 17.2519 33.6749C16.7808 34.6184 16.1133 35.4305 15.2755 36.086C14.4248 36.7542 13.4172 37.2652 12.2519 37.6319C11.0872 37.9987 9.80471 38.1821 8.41722 38.1821C6.75472 38.1821 5.26305 37.9594 3.95472 37.5009C2.64598 37.0553 1.32417 36.2953 0.00195312 35.2467L2.18806 31.6953C3.235 32.5733 4.17695 33.2148 5.02833 33.6217C5.86597 34.028 6.72972 34.2245 7.61999 34.2245C8.70624 34.2245 9.56999 33.9492 10.238 33.3859C10.9055 32.8224 11.2196 32.0756 11.2196 31.1192C11.2196 30.7131 11.1541 30.3331 11.0364 29.9794C10.9186 29.6255 10.6961 29.2587 10.3821 28.8787C10.0679 28.5119 9.62305 28.0926 9.06027 27.6602C8.51055 27.2277 7.79083 26.6774 6.90055 26.0352C6.23305 25.5635 5.56569 25.0656 4.92417 24.5672C4.28292 24.0562 3.70709 23.519 3.17 22.9422C2.64653 22.3656 2.22778 21.7237 1.90056 21.0033C1.58639 20.2958 1.4164 19.4699 1.4164 18.5658C1.4164 17.5176 1.63889 16.5477 2.0707 15.6825C2.5025 14.8172 3.10459 14.0838 3.86375 13.4686C4.62278 12.8527 5.52625 12.3811 6.59847 12.0408C7.65847 11.7001 8.80958 11.5298 10.0665 11.5298C11.3883 11.5298 12.6582 11.7001 13.8873 12.054C15.1175 12.4077 16.2568 12.9187 17.3165 13.5998L15.3401 16.797C13.9922 15.8536 12.5651 15.3693 11.0735 15.3693C10.1704 15.3693 9.41096 15.6051 8.82208 16.0768C8.23319 16.5484 7.93208 17.1381 7.93208 17.8587C7.93208 18.5401 8.19388 19.1559 8.71735 19.6934C9.24083 20.2437 10.1437 20.9906 11.4271 21.9865C12.7228 22.9299 13.7965 23.7684 14.634 24.4754C15.4847 25.1829 16.1521 25.8642 16.6493 26.4934C17.1466 27.1224 17.4739 27.7513 17.6701 28.4059C17.8664 29.0741 17.9586 29.7826 17.9586 30.5694ZM40.403 24.5819C40.403 25.5645 40.2983 26.6263 40.089 27.7652C39.8926 28.9052 39.5392 29.9541 39.042 30.9235C38.5447 31.8931 37.9034 32.693 37.1045 33.3083C36.3062 33.9371 35.2851 34.2516 34.0684 34.2516C32.0268 34.2516 30.417 33.4392 29.2393 31.8016C28.0613 30.1766 27.4726 27.9363 27.4726 25.0933C27.4726 22.1711 28.0615 19.8655 29.2657 18.1488C30.4566 16.4322 32.0795 15.5808 34.1212 15.5808C36.0587 15.5808 37.5892 16.3931 38.7142 17.9919C39.8398 19.603 40.403 21.8041 40.403 24.5819ZM47.496 24.3329C47.496 22.4329 47.2212 20.7037 46.6846 19.1579C46.1349 17.5981 45.3759 16.262 44.368 15.1356C43.3603 14.0088 42.1819 13.144 40.8083 12.5148C39.4347 11.8857 37.9166 11.5715 36.2541 11.5715C34.4222 11.5715 32.8125 11.9252 31.425 12.6066C30.0377 13.3011 28.7416 14.3886 27.5639 15.8816L27.5247 12.1733H20.9941V50.2843H27.5122V34.1871C28.1534 34.9339 28.7684 35.5628 29.3705 36.0733C29.9594 36.5842 30.5615 37.0035 31.1761 37.318C31.7911 37.6324 32.4323 37.8682 33.1122 37.9994C33.7927 38.1303 34.5261 38.1959 35.2983 38.1959C37.0261 38.1959 38.6483 37.842 40.1399 37.1607C41.6316 36.4663 42.9274 35.4969 44.0135 34.2385C45.0997 32.9802 45.951 31.5135 46.5663 29.8496C47.1945 28.1719 47.496 26.3245 47.496 24.3329ZM50.4016 37.5801H57.1016V0.288452H50.4016V37.5801ZM85.6793 37.5931V12.1487H78.9793V25.8404C78.9793 27.059 78.927 28.0028 78.8222 28.6709C78.7175 29.3391 78.5474 29.9287 78.3118 30.4792C77.3696 32.5751 75.6285 33.6376 73.1035 33.6376C71.1271 33.6376 69.7535 32.9301 68.9674 31.5015C68.6534 30.9642 68.4439 30.3484 68.3261 29.6667C68.2084 28.9855 68.1429 28.0028 68.1429 26.7056V12.1501H61.443V26.6084C61.443 27.591 61.456 28.4292 61.4692 29.0973C61.4823 29.7655 61.5346 30.3813 61.6 30.9056C61.6655 31.4298 61.7439 31.9015 61.8356 32.3084C61.9141 32.7145 62.045 33.1076 62.2152 33.4745C62.8302 35.0342 63.8124 36.2134 65.186 37.012C66.5602 37.8112 68.2485 38.2044 70.2374 38.2044C72.0304 38.2044 73.6138 37.8898 74.9749 37.2609C76.336 36.632 77.6582 35.6095 78.9401 34.1817L78.9532 37.5887L85.6796 37.6017L85.6793 37.5931ZM114.554 37.5801V23.1495C114.554 22.1667 114.541 21.3287 114.528 20.6343C114.515 19.9398 114.476 19.3372 114.397 18.8259C114.332 18.3148 114.24 17.8694 114.149 17.4894C114.044 17.0963 113.926 16.7163 113.795 16.3494C113.18 14.83 112.198 13.6508 110.824 12.8244C109.451 11.998 107.762 11.5797 105.759 11.5797C103.966 11.5797 102.383 11.8941 101.022 12.523C99.6605 13.1519 98.3383 14.1869 97.0564 15.6022L97.0433 12.1952H90.303V37.5841H97.0558V23.8785C97.0558 22.6992 97.0951 21.7688 97.1866 21.1133C97.2651 20.4581 97.4354 19.8423 97.6709 19.2522C98.1028 18.2301 98.7833 17.4702 99.6862 16.9466C100.589 16.423 101.663 16.1605 102.918 16.1605C104.895 16.1605 106.268 16.868 107.054 18.2966C107.355 18.8338 107.565 19.4497 107.682 20.1174C107.8 20.7858 107.866 21.7813 107.866 23.0661V37.5521L114.553 37.5653L114.554 37.5801ZM142.276 35.9023L132.069 23.2051L140.693 13.9551L135.615 11.7676L126.638 22.1842H125.931V0.295397H119.178V37.587H125.931V24.0787L136.034 38.0926L142.275 35.9037L142.276 35.9023ZM168.374 26.7829V22.6287L148.068 12.4343V17.0065L163.804 24.6717L148.068 32.4412V36.9092L168.374 26.7829ZM150.04 5.83844C148.797 5.83844 147.789 6.86039 147.789 8.11899C147.789 9.40302 148.797 10.412 150.04 10.412C151.297 10.412 152.292 9.40316 152.292 8.11899C152.292 6.84802 151.297 5.83844 150.04 5.83844ZM150.054 6.19219C151.061 6.19219 151.872 7.05691 151.872 8.13108C151.872 9.20552 151.061 10.07 150.054 10.0575C149.033 10.0575 148.221 9.2058 148.221 8.11858C148.221 7.05719 149.033 6.19219 150.054 6.19219ZM149.622 8.35469H149.896C150.224 8.35469 150.381 8.47262 150.446 8.80024C150.499 9.14094 150.564 9.36371 150.617 9.44232H151.049C151.008 9.36371 150.943 9.20649 150.892 8.81344C150.839 8.43344 150.694 8.23691 150.46 8.1976V8.17138C150.735 8.09277 150.957 7.88319 150.957 7.55555C150.957 7.31972 150.878 7.13625 150.721 7.03138C150.564 6.91347 150.315 6.83486 149.936 6.83486C149.635 6.83486 149.425 6.86107 149.217 6.90037V9.44203H149.622V8.35469ZM149.622 7.17538C149.688 7.16229 149.779 7.14919 149.91 7.14919C150.368 7.14919 150.525 7.37197 150.525 7.59474C150.525 7.90919 150.236 8.0271 149.91 8.0271H149.622V7.17538Z" fill="black"/>
<path d="M168.373 26.7829V22.6288L148.068 12.4343V17.0065L163.804 24.6718L148.068 32.4412V36.9093L168.373 26.7829Z" fill="#73B037"/>
</g>
<defs>
<clipPath id="clip0_445_2617">
<rect width="169.444" height="49.9999" fill="white" transform="translate(0 0.291748)"/>
</clipPath>
</defs>
</svg>
