<svg width="613" height="226" viewBox="0 0 613 226" fill="none" xmlns="http://www.w3.org/2000/svg">
<g clip-path="url(#clip0_3047_866)">
<path d="M158.91 124.286C158.91 126.761 158.386 129.061 157.339 131.187C156.293 133.284 154.809 135.089 152.947 136.546C151.057 138.031 148.818 139.166 146.228 139.981C143.64 140.796 140.79 141.204 137.706 141.204C134.012 141.204 130.697 140.709 127.789 139.69C124.881 138.7 121.943 137.011 119.005 134.68L123.863 126.788C126.19 128.739 128.283 130.165 130.175 131.069C132.036 131.972 133.956 132.409 135.934 132.409C138.348 132.409 140.268 131.797 141.753 130.545C143.236 129.293 143.934 127.633 143.934 125.508C143.934 124.605 143.788 123.761 143.527 122.975C143.265 122.188 142.77 121.373 142.073 120.529C141.374 119.714 140.386 118.782 139.135 117.821C137.914 116.86 136.314 115.637 134.336 114.21C132.852 113.162 131.369 112.055 129.944 110.947C128.518 109.812 127.239 108.618 126.045 107.336C124.882 106.055 123.951 104.628 123.224 103.027C122.526 101.455 122.148 99.6197 122.148 97.6104C122.148 95.281 122.643 93.1257 123.602 91.2028C124.562 89.2799 125.9 87.6502 127.587 86.2829C129.274 84.9143 131.282 83.8661 133.664 83.1099C136.02 82.3528 138.578 81.9744 141.371 81.9744C144.309 81.9744 147.131 82.3528 149.862 83.1392C152.596 83.9254 155.128 85.0609 157.483 86.5745L153.091 93.6797C150.095 91.583 146.924 90.5068 143.609 90.5068C141.602 90.5068 139.915 91.0309 138.606 92.079C137.297 93.1272 136.628 94.4378 136.628 96.0391C136.628 97.5533 137.21 98.9219 138.373 100.116C139.536 101.339 141.543 102.999 144.395 105.212C147.274 107.309 149.661 109.172 151.522 110.743C153.412 112.316 154.895 113.83 156 115.228C157.106 116.626 157.833 118.023 158.269 119.478C158.705 120.963 158.91 122.537 158.91 124.286ZM208.788 110.98C208.788 113.164 208.555 115.523 208.09 118.054C207.654 120.588 206.869 122.919 205.764 125.073C204.658 127.228 203.233 129.005 201.458 130.373C199.684 131.77 197.415 132.469 194.711 132.469C190.174 132.469 186.596 130.664 183.979 127.024C181.361 123.413 180.053 118.435 180.053 112.116C180.053 105.622 181.362 100.499 184.038 96.6838C186.684 92.8689 190.291 90.9768 194.828 90.9768C199.134 90.9768 202.535 92.7822 205.035 96.335C207.537 99.9154 208.788 104.807 208.788 110.98ZM224.551 110.427C224.551 106.204 223.94 102.361 222.748 98.9262C221.526 95.46 219.839 92.4908 217.6 89.9876C215.36 87.4835 212.741 85.5615 209.689 84.1633C206.636 82.7651 203.263 82.067 199.568 82.067C195.497 82.067 191.92 82.8531 188.836 84.3674C185.753 85.9106 182.873 88.3274 180.256 91.6454L180.169 83.4044H165.656V168.099H180.141V132.326C181.566 133.985 182.933 135.383 184.271 136.517C185.579 137.653 186.917 138.585 188.283 139.283C189.65 139.982 191.075 140.506 192.586 140.798C194.098 141.089 195.728 141.234 197.444 141.234C201.284 141.234 204.889 140.448 208.204 138.934C211.518 137.391 214.398 135.236 216.812 132.44C219.226 129.644 221.118 126.384 222.485 122.687C223.881 118.958 224.551 114.853 224.551 110.427ZM231.008 139.866H245.897V56.9927H231.008V139.866ZM309.406 139.895V83.3497H294.516V113.777C294.516 116.485 294.4 118.582 294.167 120.067C293.934 121.552 293.556 122.862 293.033 124.086C290.939 128.743 287.07 131.104 281.458 131.104C277.066 131.104 274.014 129.532 272.267 126.357C271.569 125.163 271.103 123.795 270.842 122.28C270.58 120.766 270.435 118.582 270.435 115.7V83.3528H255.545V115.484C255.545 117.667 255.574 119.53 255.604 121.015C255.633 122.5 255.749 123.868 255.894 125.033C256.04 126.198 256.214 127.246 256.418 128.151C256.592 129.053 256.883 129.927 257.261 130.742C258.628 134.208 260.811 136.829 263.863 138.603C266.917 140.379 270.669 141.253 275.089 141.253C279.074 141.253 282.592 140.554 285.617 139.157C288.642 137.759 291.58 135.487 294.429 132.314L294.458 139.885L309.406 139.914L309.406 139.895ZM373.575 139.866V107.797C373.575 105.613 373.546 103.75 373.516 102.207C373.487 100.664 373.4 99.3247 373.225 98.1885C373.08 97.0527 372.877 96.0628 372.673 95.2183C372.44 94.3449 372.178 93.5004 371.888 92.6849C370.521 89.3083 368.338 86.6878 365.286 84.8513C362.233 83.0148 358.48 82.0852 354.029 82.0852C350.044 82.0852 346.526 82.784 343.501 84.1816C340.476 85.5791 337.538 87.8792 334.689 91.0244L334.66 83.4531H319.681V139.875H334.688V109.417C334.688 106.796 334.775 104.729 334.978 103.272C335.153 101.816 335.531 100.447 336.055 99.1358C337.014 96.8644 338.527 95.1758 340.533 94.0121C342.54 92.8485 344.925 92.2652 347.716 92.2652C352.108 92.2652 355.16 93.8374 356.907 97.0122C357.576 98.2061 358.042 99.5747 358.303 101.059C358.565 102.544 358.71 104.756 358.71 107.611V139.804L373.572 139.833L373.575 139.866ZM435.182 136.137L412.499 107.92L431.663 87.3641L420.379 82.5028L400.427 105.652H398.857V57.0081H383.85V139.881H398.857V109.862L421.308 141.005L435.179 136.14L435.182 136.137ZM493.177 115.871V106.639L448.052 83.9843V94.1452L483.023 111.18L448.052 128.446V138.375L493.177 115.871ZM452.435 69.3264C449.673 69.3264 447.432 71.5975 447.432 74.3945C447.432 77.248 449.673 79.4903 452.435 79.4903C455.228 79.4903 457.438 77.2483 457.438 74.3945C457.438 71.57 455.228 69.3264 452.435 69.3264ZM452.466 70.1126C454.704 70.1126 456.506 72.0342 456.506 74.4213C456.506 76.8091 454.704 78.7301 452.466 78.7024C450.197 78.7024 448.392 76.8097 448.392 74.3936C448.392 72.0348 450.197 70.1126 452.466 70.1126ZM451.506 74.9183H452.114C452.843 74.9183 453.191 75.1804 453.336 75.9084C453.454 76.6656 453.599 77.1606 453.716 77.3353H454.676C454.586 77.1606 454.441 76.8112 454.327 75.9378C454.21 75.0933 453.889 74.6565 453.367 74.5692V74.5109C453.978 74.3362 454.472 73.8705 454.472 73.1424C454.472 72.6183 454.296 72.2105 453.948 71.9775C453.599 71.7155 453.046 71.5408 452.204 71.5408C451.534 71.5408 451.068 71.599 450.605 71.6863V77.3347H451.506V74.9183ZM451.506 72.2975C451.651 72.2684 451.855 72.2393 452.145 72.2393C453.164 72.2393 453.512 72.7344 453.512 73.2295C453.512 73.9282 452.87 74.1903 452.145 74.1903H451.506V72.2975Z" fill="white"/>
<path d="M493.178 115.871V106.639L448.053 83.9843V94.1451L483.023 111.18L448.053 128.446V138.375L493.178 115.871Z" fill="#73B037"/>
</g>
<defs>
<clipPath id="clip0_3047_866">
<rect width="376.556" height="111.115" fill="white" transform="translate(119 57)"/>
</clipPath>
</defs>
</svg>
