<svg width="40" height="30" viewBox="0 0 40 30" fill="none" xmlns="http://www.w3.org/2000/svg">
<path d="M0.379261 30V21.8182C0.379261 19.4034 0.833807 16.8608 1.7429 14.1903C2.65199 11.5199 3.91619 8.96307 5.53551 6.51989C7.15483 4.0767 9.05824 1.98863 11.2457 0.255682L17.5526 4.77272C15.8196 7.30113 14.3423 9.94318 13.1207 12.6989C11.8991 15.4545 11.2884 18.4517 11.2884 21.6903V30H0.379261ZM22.1122 30V21.8182C22.1122 19.4034 22.5668 16.8608 23.4759 14.1903C24.3849 11.5199 25.6491 8.96307 27.2685 6.51989C28.8878 4.0767 30.7912 1.98863 32.9787 0.255682L39.2855 4.77272C37.5526 7.30113 36.0753 9.94318 34.8537 12.6989C33.6321 15.4545 33.0213 18.4517 33.0213 21.6903V30H22.1122Z" fill="#25A8FF"/>
</svg>
