<svg width="118" height="117" viewBox="0 0 118 117" fill="none" xmlns="http://www.w3.org/2000/svg">
<g id="biozard-icon">
<path id="background" opacity="0.1" d="M116.784 58.3468C116.784 90.4412 90.7659 116.459 58.6715 116.459C26.5771 116.459 0.559448 90.4412 0.559448 58.3468C0.559448 26.2524 26.5771 0.234741 58.6715 0.234741C90.7659 0.234741 116.784 26.2524 116.784 58.3468ZM11.5005 58.3468C11.5005 84.3986 32.6197 105.518 58.6715 105.518C84.7233 105.518 105.842 84.3986 105.842 58.3468C105.842 32.295 84.7233 11.1758 58.6715 11.1758C32.6197 11.1758 11.5005 32.295 11.5005 58.3468Z" fill="#25A8FF"/>
<path id="filler" d="M58.9285 110.986C58.9285 114.007 61.3833 116.483 64.3911 116.199C75.4724 115.153 86.0626 110.94 94.8692 104.009C105.114 95.9453 112.349 84.6711 115.413 71.9987C118.476 59.3263 117.188 45.992 111.758 34.1396C106.327 22.2871 97.0685 12.6052 85.4705 6.65043C73.8726 0.69563 60.6091 -1.18607 47.8125 1.30784C35.0159 3.80176 23.4297 10.5264 14.9166 20.4006C6.40356 30.2748 1.45825 42.7249 0.875774 55.7493C0.37507 66.9452 3.12325 78.0063 8.7308 87.6211C10.2529 90.2309 13.6955 90.7829 16.1507 89.0222V89.0222C18.6058 87.2616 19.1374 83.8563 17.6727 81.2139C13.4642 73.6217 11.4147 64.9805 11.8057 56.2381C12.2785 45.6659 16.2927 35.5599 23.203 27.5447C30.1132 19.5296 39.5181 14.071 49.9054 12.0466C60.2927 10.0223 71.059 11.5497 80.4733 16.3833C89.8877 21.217 97.4031 29.076 101.811 38.6969C106.22 48.3179 107.264 59.1416 104.778 69.4281C102.292 79.7146 96.4183 88.8662 88.1024 95.4114C81.2257 100.824 73.0092 104.194 64.3869 105.199C61.386 105.548 58.9285 107.965 58.9285 110.986V110.986Z" fill="#FF2529"/>
<g id="logo">
<path id="Vector" d="M81.5551 64.8094C81.3406 61.9834 80.1249 59.3233 78.1225 57.2986C76.1201 55.2739 73.4598 54.0149 70.6112 53.7436C70.4286 53.3608 70.2263 52.9875 70.0051 52.6253C71.2864 49.8332 71.4389 46.661 70.431 43.7611C69.4232 40.8611 67.3317 38.4537 64.5866 37.0339L64.5583 37.0179C64.4841 36.9801 64.4071 36.948 64.328 36.9219C63.9424 36.7954 63.5227 36.8174 63.1527 36.9834C62.7827 37.1495 62.4894 37.4475 62.3312 37.818C62.173 38.1886 62.1615 38.6046 62.2991 38.9831C62.4366 39.3617 62.7131 39.6751 63.0734 39.8609H63.0875C63.3259 39.9989 67.0433 42.0316 67.0433 46.4871C67.0442 47.3387 66.9078 48.185 66.6392 48.994C64.418 47.3642 61.7266 46.4844 58.9621 46.4844C56.1976 46.4844 53.5062 47.3642 51.285 48.994C51.0164 48.185 50.88 47.3387 50.8809 46.4871C50.8809 42.0156 54.6245 39.9829 54.8508 39.8649C55.2248 39.6665 55.5051 39.3305 55.6311 38.9293C55.7572 38.5282 55.7189 38.094 55.5245 37.7205C55.3301 37.3471 54.9952 37.0643 54.5921 36.9332C54.189 36.8021 53.75 36.8333 53.3699 37.0199L53.3396 37.0359C50.592 38.457 48.4986 40.8665 47.4897 43.769C46.4807 46.6715 46.633 49.8465 47.9151 52.6413C47.6929 53.0014 47.4868 53.3735 47.309 53.7556C44.4611 54.0286 41.8019 55.2886 39.8005 57.3134C37.799 59.3383 36.5838 61.998 36.3691 64.8234C36.3373 65.1472 36.3279 65.4727 36.3408 65.7978C36.3757 66.2064 36.5677 66.5862 36.8772 66.8588C37.1866 67.1313 37.5899 67.2758 38.0039 67.2625C38.4178 67.2491 38.8107 67.0789 39.1016 66.787C39.3925 66.4951 39.5592 66.1038 39.5672 65.6937C39.5672 65.4216 39.5813 65.1516 39.6056 64.8935C39.7531 63.643 40.4258 61.0762 43.3714 59.3936C44.2032 58.9162 45.1146 58.5903 46.0625 58.4312C46.0423 58.7173 46.0301 59.0074 46.0301 59.2995C46.0327 61.8125 46.7809 64.2694 48.1817 66.3648C49.5825 68.4602 51.5742 70.1018 53.9093 71.0856C53.2507 71.9683 52.415 72.7066 51.4547 73.2543C47.6019 75.4551 44.0038 73.3264 43.6987 73.1383L43.6745 73.1223C43.315 72.8975 42.8805 72.822 42.4652 72.9122C42.0499 73.0024 41.6872 73.251 41.4557 73.6042C41.2243 73.9574 41.1427 74.3867 41.2286 74.799C41.3145 75.2114 41.5611 75.5736 41.9148 75.8072L41.9633 75.8372C43.3098 76.6837 44.8118 77.2585 46.3832 77.5286C47.9546 77.7987 49.5644 77.7588 51.1202 77.4112C52.676 77.0635 54.1471 76.415 55.4492 75.5029C56.7512 74.5908 57.8585 73.433 58.7075 72.0959C58.7924 72.0959 58.8752 72.0959 58.9601 72.0959C59.0449 72.0959 59.1298 72.0959 59.2167 72.0959C60.0668 73.4321 61.1747 74.5889 62.4771 75.5003C63.7794 76.4117 65.2506 77.0596 66.8062 77.4069C68.3619 77.7543 69.9714 77.7943 71.5427 77.5246C73.114 77.2549 74.6161 76.6808 75.9629 75.8352L76.0094 75.8052C76.3631 75.5716 76.6097 75.2094 76.6956 74.797C76.7815 74.3847 76.6999 73.9554 76.4684 73.6022C76.237 73.249 75.8743 73.0004 75.459 72.9102C75.0437 72.82 74.6092 72.8955 74.2497 73.1203L74.2255 73.1363C73.9204 73.3244 70.3222 75.4551 66.4695 73.2523C65.5078 72.7024 64.6713 71.9612 64.0128 71.0756C66.3476 70.0919 68.3391 68.4506 69.7399 66.3556C71.1407 64.2606 71.8891 61.8042 71.892 59.2915C71.892 58.9994 71.8779 58.7113 71.8597 58.4252C72.8081 58.5834 73.7202 58.9087 74.5528 59.3856C77.4761 61.0561 78.161 63.599 78.3166 64.8514C78.3428 65.1295 78.357 65.4096 78.357 65.6937C78.3509 65.9039 78.3866 66.1132 78.4622 66.3097C78.5378 66.5062 78.6517 66.6861 78.7975 66.839C78.9433 66.9919 79.118 67.1148 79.3118 67.2009C79.5055 67.2869 79.7145 67.3343 79.9268 67.3403C80.139 67.3463 80.3504 67.3109 80.5488 67.2361C80.7472 67.1612 80.9288 67.0484 81.0832 66.904C81.2376 66.7597 81.3618 66.5866 81.4487 66.3948C81.5355 66.2029 81.5834 65.996 81.5895 65.7858C81.6003 65.4599 81.5889 65.1337 81.5551 64.8094ZM55.271 68.1706C53.4955 67.4446 51.9772 66.2135 50.9081 64.6331C49.839 63.0527 49.2671 61.1938 49.2646 59.2915C49.2646 59.0375 49.2788 58.7854 49.299 58.5353L49.501 58.5853C51.533 59.1254 53.2721 60.4289 54.3488 62.2189C55.4255 64.0088 55.7549 66.144 55.267 68.1706H55.271ZM58.9621 59.7137L58.9399 59.6757H58.9843L58.9621 59.7137ZM58.9621 54.4899C57.8186 54.4904 56.688 54.25 55.6455 53.7847C54.603 53.3193 53.6723 52.6397 52.9153 51.791C54.6302 50.4298 56.7623 49.6881 58.9601 49.6881C61.1578 49.6881 63.2899 50.4298 65.0048 51.791C64.2485 52.6395 63.3186 53.319 62.2767 53.7844C61.2349 54.2497 60.105 54.4902 58.9621 54.4899ZM62.6572 68.1686C62.4098 67.1481 62.368 66.0893 62.5342 65.0528C62.7004 64.0162 63.0713 63.0224 63.6258 62.128C64.1803 61.2336 64.9075 60.4563 65.7657 59.8405C66.6239 59.2247 67.5963 58.7825 68.6272 58.5393C68.6474 58.7874 68.6595 59.0375 68.6595 59.2915C68.6572 61.1933 68.0855 63.0517 67.0167 64.6317C65.948 66.2118 64.4302 67.4426 62.6552 68.1686H62.6572Z" fill="#FF2529"/>
</g>
</g>
</svg>
