<svg width="33" height="32" viewBox="0 0 33 32" fill="none" xmlns="http://www.w3.org/2000/svg">
<path d="M19.3334 12H13.3334C13.0682 12 12.8138 12.1054 12.6263 12.2929C12.4387 12.4804 12.3334 12.7348 12.3334 13V19C12.3334 19.2652 12.4387 19.5196 12.6263 19.7071C12.8138 19.8946 13.0682 20 13.3334 20H19.3334C19.5986 20 19.8529 19.8946 20.0405 19.7071C20.228 19.5196 20.3334 19.2652 20.3334 19V13C20.3334 12.7348 20.228 12.4804 20.0405 12.2929C19.8529 12.1054 19.5986 12 19.3334 12ZM18.3334 18H14.3334V14H18.3334V18ZM29.3334 18H27.3334V14H29.3334C29.5986 14 29.8529 13.8946 30.0405 13.7071C30.228 13.5196 30.3334 13.2652 30.3334 13C30.3334 12.7348 30.228 12.4804 30.0405 12.2929C29.8529 12.1054 29.5986 12 29.3334 12H27.3334V7C27.3334 6.46957 27.1227 5.96086 26.7476 5.58579C26.3725 5.21071 25.8638 5 25.3334 5H20.3334V3C20.3334 2.73478 20.228 2.48043 20.0405 2.29289C19.8529 2.10536 19.5986 2 19.3334 2C19.0682 2 18.8138 2.10536 18.6263 2.29289C18.4387 2.48043 18.3334 2.73478 18.3334 3V5H14.3334V3C14.3334 2.73478 14.228 2.48043 14.0405 2.29289C13.8529 2.10536 13.5986 2 13.3334 2C13.0682 2 12.8138 2.10536 12.6263 2.29289C12.4387 2.48043 12.3334 2.73478 12.3334 3V5H7.33337C6.80294 5 6.29423 5.21071 5.91916 5.58579C5.54409 5.96086 5.33337 6.46957 5.33337 7V12H3.33337C3.06816 12 2.8138 12.1054 2.62627 12.2929C2.43873 12.4804 2.33337 12.7348 2.33337 13C2.33337 13.2652 2.43873 13.5196 2.62627 13.7071C2.8138 13.8946 3.06816 14 3.33337 14H5.33337V18H3.33337C3.06816 18 2.8138 18.1054 2.62627 18.2929C2.43873 18.4804 2.33337 18.7348 2.33337 19C2.33337 19.2652 2.43873 19.5196 2.62627 19.7071C2.8138 19.8946 3.06816 20 3.33337 20H5.33337V25C5.33337 25.5304 5.54409 26.0391 5.91916 26.4142C6.29423 26.7893 6.80294 27 7.33337 27H12.3334V29C12.3334 29.2652 12.4387 29.5196 12.6263 29.7071C12.8138 29.8946 13.0682 30 13.3334 30C13.5986 30 13.8529 29.8946 14.0405 29.7071C14.228 29.5196 14.3334 29.2652 14.3334 29V27H18.3334V29C18.3334 29.2652 18.4387 29.5196 18.6263 29.7071C18.8138 29.8946 19.0682 30 19.3334 30C19.5986 30 19.8529 29.8946 20.0405 29.7071C20.228 29.5196 20.3334 29.2652 20.3334 29V27H25.3334C25.8638 27 26.3725 26.7893 26.7476 26.4142C27.1227 26.0391 27.3334 25.5304 27.3334 25V20H29.3334C29.5986 20 29.8529 19.8946 30.0405 19.7071C30.228 19.5196 30.3334 19.2652 30.3334 19C30.3334 18.7348 30.228 18.4804 30.0405 18.2929C29.8529 18.1054 29.5986 18 29.3334 18ZM25.3334 25H7.33337V7H25.3334V18.9837C25.3334 18.9837 25.3334 18.995 25.3334 19C25.3334 19.005 25.3334 19.0113 25.3334 19.0163V25Z" fill="#25A8FF"/>
</svg>
