<svg width="117" height="117" viewBox="0 0 117 117" fill="none" xmlns="http://www.w3.org/2000/svg">
<path opacity="0.1" d="M116.234 58.3455C116.234 90.4392 90.2171 116.456 58.1234 116.456C26.0298 116.456 0.0126953 90.4392 0.0126953 58.3455C0.0126953 26.2518 26.0298 0.234741 58.1234 0.234741C90.2171 0.234741 116.234 26.2518 116.234 58.3455ZM10.9535 58.3455C10.9535 84.3967 32.0722 105.515 58.1234 105.515C84.1747 105.515 105.293 84.3967 105.293 58.3455C105.293 32.2943 84.1747 11.1756 58.1234 11.1756C32.0722 11.1756 10.9535 32.2943 10.9535 58.3455Z" fill="#25A8FF"/>
<path d="M36.7069 106.432C35.4777 109.192 36.7126 112.452 39.5758 113.417C45.2168 115.317 51.1267 116.342 57.0997 116.447C64.8995 116.585 72.6472 115.15 79.8808 112.229C87.1145 109.309 93.6859 104.961 99.2035 99.4464C104.721 93.9316 109.072 87.3624 111.996 80.1302C114.921 72.8981 116.359 65.1511 116.226 57.3512C116.092 49.5513 114.39 41.8581 111.219 34.7302C108.049 27.6024 103.476 21.1858 97.7732 15.863C93.4059 11.787 88.4444 8.41623 83.0684 5.86112C80.3397 4.56421 77.1856 6.04977 76.151 8.88831V8.88831C75.1163 11.7268 76.5974 14.8387 79.2972 16.1949C83.3057 18.2085 87.015 20.788 90.3081 23.8614C94.9374 28.1821 98.6494 33.3906 101.223 39.1764C103.796 44.9623 105.178 51.207 105.286 57.5384C105.395 63.8698 104.227 70.1582 101.853 76.0287C99.4795 81.8992 95.9479 87.2316 91.4692 91.7081C86.9904 96.1846 81.6562 99.7135 75.7844 102.084C69.9127 104.455 63.6238 105.62 57.2924 105.508C52.7886 105.429 48.329 104.705 44.0475 103.366C41.1639 102.465 37.936 103.672 36.7069 106.432V106.432Z" fill="#25A8FF"/>
<path d="M48.3637 65.0131C47.3468 65.0131 46.4421 64.8481 45.6497 64.5179C44.8617 64.1833 44.2432 63.7277 43.7941 63.151C43.3451 62.5743 43.1206 61.9205 43.1206 61.1897C43.1206 60.6262 43.2482 60.1089 43.5036 59.6379C43.7633 59.1624 44.1155 58.7684 44.5601 58.4559C45.0048 58.1389 45.5022 57.9364 46.0525 57.8484V57.7559C45.3305 57.6106 44.745 57.2606 44.296 56.7059C43.8469 56.1469 43.6224 55.4975 43.6224 54.7579C43.6224 54.0579 43.8271 53.435 44.2366 52.8891C44.646 52.3388 45.2073 51.9074 45.9204 51.5948C46.638 51.2779 47.4525 51.1194 48.3637 51.1194C49.275 51.1194 50.0873 51.2779 50.8004 51.5948C51.518 51.9118 52.0815 52.3454 52.4909 52.8957C52.9003 53.4416 53.1072 54.0623 53.1117 54.7579C53.1072 55.5019 52.8783 56.1513 52.4249 56.7059C51.9714 57.2606 51.3903 57.6106 50.6816 57.7559V57.8484C51.2231 57.9364 51.7139 58.1389 52.1541 58.4559C52.5988 58.7684 52.951 59.1624 53.2107 59.6379C53.4748 60.1089 53.6091 60.6262 53.6135 61.1897C53.6091 61.9205 53.3824 62.5743 52.9334 63.151C52.4843 63.7277 51.8636 64.1833 51.0712 64.5179C50.2832 64.8481 49.3807 65.0131 48.3637 65.0131ZM48.3637 62.9132C48.8172 62.9132 49.2134 62.8318 49.5524 62.6689C49.8913 62.5016 50.1555 62.2727 50.3448 61.9821C50.5385 61.6872 50.6353 61.3482 50.6353 60.9652C50.6353 60.5734 50.5363 60.2278 50.3382 59.9285C50.1401 59.6247 49.8715 59.387 49.5326 59.2153C49.1936 59.0392 48.804 58.9511 48.3637 58.9511C47.9279 58.9511 47.5383 59.0392 47.1949 59.2153C46.8515 59.387 46.5808 59.6247 46.3827 59.9285C46.189 60.2278 46.0921 60.5734 46.0921 60.9652C46.0921 61.3482 46.1868 61.6872 46.3761 61.9821C46.5654 62.2727 46.8317 62.5016 47.1751 62.6689C47.5185 62.8318 47.9147 62.9132 48.3637 62.9132ZM48.3637 56.871C48.7423 56.871 49.0791 56.794 49.3741 56.6399C49.669 56.4858 49.9002 56.2723 50.0674 55.9994C50.2347 55.7264 50.3184 55.4117 50.3184 55.0551C50.3184 54.7029 50.2347 54.3947 50.0674 54.1306C49.9002 53.862 49.6712 53.6529 49.3807 53.5033C49.0901 53.3492 48.7511 53.2721 48.3637 53.2721C47.9807 53.2721 47.6418 53.3492 47.3468 53.5033C47.0518 53.6529 46.8207 53.862 46.6534 54.1306C46.4905 54.3947 46.4091 54.7029 46.4091 55.0551C46.4091 55.4117 46.4927 55.7264 46.66 55.9994C46.8273 56.2723 47.0584 56.4858 47.3534 56.6399C47.6484 56.794 47.9851 56.871 48.3637 56.871ZM60.5521 65.0131C59.6188 65.0131 58.7868 64.8415 58.056 64.4981C57.3296 64.1547 56.7529 63.6814 56.3259 63.0783C55.8989 62.4752 55.6766 61.784 55.6589 61.0048H58.4324C58.4632 61.5287 58.6834 61.9535 59.0928 62.2793C59.5022 62.6051 59.9886 62.768 60.5521 62.768C61.0012 62.768 61.3974 62.6689 61.7408 62.4708C62.0886 62.2683 62.3593 61.9887 62.553 61.6322C62.7511 61.2712 62.8502 60.8573 62.8502 60.3907C62.8502 59.9152 62.7489 59.497 62.5464 59.136C62.3483 58.775 62.0731 58.4933 61.721 58.2908C61.3688 58.0883 60.966 57.9848 60.5125 57.9804C60.1163 57.9804 59.7311 58.0619 59.3569 58.2248C58.9871 58.3876 58.6988 58.61 58.4918 58.8917L55.9495 58.4361L56.59 51.3043H64.8576V53.6419H58.9475L58.5975 57.0295H58.6767C58.9145 56.6949 59.2733 56.4176 59.7531 56.1975C60.233 55.9774 60.7701 55.8673 61.3644 55.8673C62.1788 55.8673 62.9052 56.0588 63.5435 56.4418C64.1819 56.8248 64.6859 57.3509 65.0557 58.02C65.4255 58.6848 65.6082 59.4508 65.6038 60.3181C65.6082 61.2293 65.3969 62.0394 64.9699 62.7481C64.5473 63.4525 63.9551 64.0072 63.1935 64.4122C62.4363 64.8128 61.5559 65.0131 60.5521 65.0131ZM75.0006 62.2925V61.5793C75.0006 61.0378 75.115 60.5404 75.344 60.0869C75.5773 59.6291 75.9141 59.2637 76.3543 58.9908C76.7989 58.7134 77.3404 58.5747 77.9788 58.5747C78.6259 58.5747 79.1696 58.7112 79.6098 58.9842C80.0545 59.2571 80.389 59.6225 80.6136 60.0803C80.8425 60.5338 80.9569 61.0334 80.9569 61.5793V62.2925C80.9569 62.834 80.8425 63.3337 80.6136 63.7915C80.3846 64.2449 80.0479 64.6081 79.6032 64.8811C79.1586 65.1584 78.6171 65.2971 77.9788 65.2971C77.3316 65.2971 76.7879 65.1584 76.3477 64.8811C75.9075 64.6081 75.5729 64.2449 75.344 63.7915C75.115 63.3337 75.0006 62.834 75.0006 62.2925ZM76.9222 61.5793V62.2925C76.9222 62.6051 76.997 62.9 77.1467 63.1774C77.3008 63.4547 77.5782 63.5934 77.9788 63.5934C78.3794 63.5934 78.6523 63.4569 78.7976 63.184C78.9473 62.911 79.0221 62.6139 79.0221 62.2925V61.5793C79.0221 61.258 78.9517 60.9586 78.8108 60.6813C78.6699 60.4039 78.3926 60.2652 77.9788 60.2652C77.5826 60.2652 77.3074 60.4039 77.1533 60.6813C76.9992 60.9586 76.9222 61.258 76.9222 61.5793ZM68.0603 54.5532V53.84C68.0603 53.2941 68.177 52.7945 68.4103 52.341C68.6436 51.8832 68.9804 51.5178 69.4206 51.2449C69.8653 50.9719 70.4024 50.8354 71.0319 50.8354C71.6834 50.8354 72.2293 50.9719 72.6696 51.2449C73.1098 51.5178 73.4444 51.8832 73.6733 52.341C73.9022 52.7945 74.0167 53.2941 74.0167 53.84V54.5532C74.0167 55.0991 73.9 55.5988 73.6667 56.0522C73.4378 56.5056 73.101 56.8688 72.6563 57.1418C72.2161 57.4103 71.6746 57.5446 71.0319 57.5446C70.3891 57.5446 69.8455 57.4081 69.4008 57.1352C68.9606 56.8578 68.626 56.4946 68.3971 56.0456C68.1726 55.5922 68.0603 55.0947 68.0603 54.5532ZM69.9951 53.84V54.5532C69.9951 54.8746 70.07 55.1717 70.2197 55.4447C70.3737 55.7176 70.6445 55.8541 71.0319 55.8541C71.4369 55.8541 71.712 55.7176 71.8573 55.4447C72.007 55.1717 72.0818 54.8746 72.0818 54.5532V53.84C72.0818 53.5187 72.0114 53.2193 71.8705 52.942C71.7297 52.6646 71.4501 52.5259 71.0319 52.5259C70.6401 52.5259 70.3693 52.6668 70.2197 52.9486C70.07 53.2303 69.9951 53.5275 69.9951 53.84ZM68.932 64.8282L78.2297 51.3043H79.9598L70.6621 64.8282H68.932Z" fill="black"/>
</svg>
