<svg width="33" height="32" viewBox="0 0 33 32" fill="none" xmlns="http://www.w3.org/2000/svg">
<path d="M26.6666 5H6.66663C6.13619 5 5.62749 5.21071 5.25241 5.58579C4.87734 5.96086 4.66663 6.46957 4.66663 7V14C4.66663 20.59 7.85663 24.5838 10.5329 26.7738C13.4154 29.1313 16.2829 29.9325 16.4079 29.965C16.5798 30.0118 16.761 30.0118 16.9329 29.965C17.0579 29.9325 19.9216 29.1313 22.8079 26.7738C25.4766 24.5838 28.6666 20.59 28.6666 14V7C28.6666 6.46957 28.4559 5.96086 28.0808 5.58579C27.7058 5.21071 27.1971 5 26.6666 5ZM26.6666 7V14C26.6666 14.3388 26.6566 14.6712 26.6379 15H17.6666V7H26.6666ZM6.66663 7H15.6666V15H6.69538C6.67663 14.6712 6.66663 14.3388 6.66663 14V7ZM6.92413 17H15.6666V27.5688C14.2757 26.9706 12.9745 26.1823 11.8004 25.2262C9.15663 23.0637 7.52538 20.305 6.92663 17H6.92413ZM21.5916 25.1775C20.4018 26.1538 19.0805 26.958 17.6666 27.5662V17H26.4054C25.8116 20.28 24.2004 23.0225 21.5916 25.1775Z" fill="#25A8FF"/>
</svg>
