<svg width="180" height="60" viewBox="0 0 180 60" fill="none" xmlns="http://www.w3.org/2000/svg">
<g clip-path="url(#clip0_445_2620)">
<path d="M177.501 48.2192C177.302 48.2204 177.104 48.182 176.92 48.1063C176.735 48.0306 176.568 47.9189 176.427 47.778C176.286 47.637 176.174 47.4694 176.098 47.2849C176.022 47.1005 175.984 46.9028 175.985 46.7035C175.985 45.8838 176.656 45.1877 177.501 45.1877C178.321 45.1877 179.017 45.8587 179.017 46.7035C179.01 47.1034 178.848 47.4851 178.566 47.7679C178.283 48.0508 177.901 48.2126 177.501 48.2192ZM177.501 45.4862C177.179 45.4871 176.869 45.6157 176.641 45.8438C176.413 46.0718 176.285 46.3809 176.284 46.7035C176.285 47.026 176.413 47.3351 176.641 47.5631C176.869 47.7912 177.179 47.9198 177.501 47.9207C177.824 47.9198 178.133 47.7912 178.361 47.5631C178.589 47.3351 178.717 47.026 178.718 46.7035C178.717 46.3809 178.589 46.0718 178.361 45.8438C178.133 45.6157 177.824 45.4871 177.501 45.4862ZM178.271 47.4987H177.922L177.625 46.9267H177.227V47.4987H176.904V45.8336H177.699C178.048 45.8336 178.271 46.0568 178.271 46.3805C178.273 46.4894 178.24 46.5961 178.178 46.6853C178.115 46.7745 178.026 46.8417 177.923 46.8771L178.272 47.5049L178.271 47.4987ZM177.675 46.6288C177.799 46.6288 177.923 46.5542 177.923 46.3805C177.923 46.1817 177.824 46.1322 177.675 46.1322H177.178V46.6288H177.675ZM30.2108 58.9775H19.6081V45.0384H23.4844V55.5979H30.2178L30.2108 58.9775ZM34.2113 52.0453V51.9965C34.2113 47.996 37.4409 44.7419 41.7399 44.7419C46.0389 44.7419 49.219 47.9472 49.219 51.9476V51.9965C49.219 55.9969 45.9894 59.251 41.6904 59.251C37.3914 59.251 34.2113 56.0457 34.2113 52.0453ZM45.2925 52.0453V51.9965C45.2925 49.984 43.8514 48.2436 41.7141 48.2436C39.6019 48.2436 38.1859 49.9582 38.1859 51.9706V52.0195C38.1859 54.0319 39.6271 55.7723 41.7392 55.7723C43.8758 55.7723 45.2925 54.0577 45.2925 52.0453ZM53.9631 52.8649V45.0384H57.8889V52.7903C57.8889 54.8027 58.9073 55.7479 60.4489 55.7479C61.9905 55.7479 63.0089 54.8285 63.0089 52.8907V45.0384H66.9347V52.7652C66.9347 57.2623 64.3747 59.2245 60.4001 59.2245C56.4491 59.2245 53.9645 57.2364 53.9645 52.8628M72.8471 45.0363H78.2141C83.1834 45.0363 86.0908 47.8935 86.0908 51.919V51.9679C86.0908 55.9927 83.159 58.9747 78.1401 58.9747H72.8478V45.0384L72.8471 45.0363ZM78.288 55.5463C80.599 55.5463 82.1385 54.2788 82.1385 52.0181V51.9692C82.1385 49.7329 80.5983 48.441 78.288 48.441H76.7227V55.5226H78.288V55.5463ZM95.5565 50.8009H102.166V54.0061H95.5565V58.9754H91.706V45.0384H102.862V48.4173H95.5572L95.5565 50.8009ZM118.838 58.9761H108.235V45.0384H112.086V55.5979H118.845L118.838 58.9761ZM128.926 44.9387H132.653L138.591 58.9768H134.441L133.422 56.4922H128.055L127.061 58.9768H123.011L128.926 44.9387ZM132.33 53.4857L130.79 49.5425L129.224 53.4934H132.33V53.4857ZM143.56 45.0384H150.145C152.282 45.0384 153.748 45.5853 154.692 46.5542C155.512 47.3494 155.934 48.4166 155.934 49.8089V49.8578C155.934 51.9944 154.79 53.4111 153.076 54.1317L156.406 59.0019H151.933L149.125 54.7783H147.436V59.0019H143.56L143.56 45.0384ZM149.978 51.7223C151.295 51.7223 152.04 51.0764 152.04 50.0831V50.0343C152.04 48.9412 151.245 48.395 149.953 48.395H147.419V51.7244H149.979L149.978 51.7223ZM165.333 50.4305H172.017V53.4857H165.333V55.6969H172.812V58.9768H161.507V45.0384H172.713V48.3183H165.333V50.4305ZM11.1531 53.6859C10.6062 54.9031 9.46364 55.773 7.97228 55.773C5.86011 55.773 4.41897 54.0082 4.41897 52.0202V51.9713C4.41897 49.9589 5.83499 48.2443 7.94717 48.2443C9.53758 48.2443 10.7548 49.2139 11.2515 50.5553H15.3265C14.6806 47.2259 11.7481 44.7657 7.97228 44.7657C3.67399 44.7643 0.444336 48.0204 0.444336 52.0202V52.069C0.444336 56.0694 3.62516 59.2747 7.92345 59.2747C11.6009 59.2747 14.4832 56.8891 15.2282 53.7082L11.1531 53.6831V53.6859Z" fill="white"/>
<path d="M112.031 38.3301H168.135V22.8006L157.477 16.6886L155.638 15.8934L112.032 16.1913L112.031 38.3301Z" fill="white"/>
<path d="M148.729 36.2925C149.251 34.5033 149.052 32.8634 148.183 31.6468C147.387 30.5287 146.046 29.882 144.43 29.8081L113.844 29.4105C113.751 29.4112 113.659 29.3889 113.576 29.3456C113.494 29.3023 113.424 29.2393 113.371 29.1622C113.272 29.0129 113.247 28.8134 113.297 28.6153C113.396 28.3174 113.694 28.0935 114.017 28.0684L144.877 27.6708C148.529 27.4964 152.505 24.5402 153.896 20.9116L155.661 16.3077C155.736 16.1089 155.76 15.9101 155.71 15.7113C153.724 6.72481 145.698 0.0164795 136.107 0.0164795C127.262 0.0164795 119.758 5.7315 117.075 13.657C115.336 12.3652 113.124 11.669 110.739 11.8922C106.491 12.315 103.087 15.7183 102.664 19.9671C102.565 21.0601 102.639 22.1295 102.887 23.1228C95.955 23.3216 90.415 28.9864 90.415 35.9681C90.415 36.5959 90.4639 37.2098 90.5392 37.8306C90.588 38.1285 90.8371 38.3524 91.1356 38.3524H147.587C147.91 38.3524 148.215 38.1292 148.307 37.8055L148.73 36.2897L148.729 36.2925Z" fill="#F38020"/>
<path d="M158.469 16.639L157.625 16.6641C157.426 16.6641 157.253 16.8134 157.179 17.0129L155.993 21.1633C155.471 22.9526 155.67 24.5925 156.54 25.809C157.335 26.9272 158.676 27.5738 160.292 27.6478L166.802 28.0454C166.895 28.0446 166.987 28.0669 167.069 28.1103C167.152 28.1536 167.222 28.2166 167.274 28.2937C167.373 28.443 167.398 28.6662 167.349 28.8406C167.25 29.1384 166.951 29.3623 166.628 29.3874L159.845 29.785C156.168 29.9594 152.218 32.9156 150.826 36.5443L150.329 37.8117C150.23 38.0601 150.404 38.3084 150.678 38.3084H173.983C174.257 38.3084 174.505 38.134 174.58 37.862C174.977 36.4208 175.207 34.9044 175.207 33.3398C175.207 24.1461 167.704 16.6425 158.486 16.6425" fill="#FAAE40"/>
</g>
<defs>
<clipPath id="clip0_445_2620">
<rect width="178.573" height="59.2917" fill="white" transform="translate(0.444336)"/>
</clipPath>
</defs>
</svg>
