<svg width="613" height="226" viewBox="0 0 613 226" fill="none" xmlns="http://www.w3.org/2000/svg">
<g clip-path="url(#clip0_3051_968)">
<path d="M96.2121 133.211C92.3446 134.673 87.9897 135.404 83.0867 135.404C67.0377 135.404 58.998 127.638 58.998 112.107C58.998 97.3981 67.0377 90.0588 83.0867 90.0588C87.9897 90.0588 92.375 90.7897 96.2121 92.2515V99.743C92.3446 98.0681 88.1724 97.2458 83.6958 97.2458C72.9457 97.2458 67.5859 102.21 67.5859 112.107C67.5859 122.857 72.9457 128.217 83.6958 128.217C88.1724 128.217 92.3446 127.395 96.2121 125.72V133.211Z" fill="black"/>
<path d="M100.537 112.777C100.537 97.6112 108.029 90.0283 122.981 90.0283C137.721 90.0283 145.09 97.6112 145.09 112.777C145.09 127.851 137.721 135.404 122.981 135.404C108.668 135.404 101.207 127.851 100.537 112.777ZM122.981 128.186C131.995 128.186 136.503 122.979 136.503 112.594C136.503 102.362 131.995 97.2458 122.981 97.2458C113.754 97.2458 109.125 102.362 109.125 112.594C109.125 123.009 113.754 128.186 122.981 128.186Z" fill="black"/>
<path d="M151.609 135.069V90.3635H160.197L175.363 124.289L190.224 90.3635H198.508V135.1H190.833V103.915L178.713 135.069H171.648L159.253 103.915V135.069H151.609Z" fill="black"/>
<path d="M207.885 135.069V90.3635H216.503L231.669 124.289L246.53 90.3635H254.813V135.1H247.139V103.915L235.019 135.069H227.954L215.559 103.915V135.069H207.885Z" fill="black"/>
<path d="M305.429 90.3635L285.817 135.1H276.894L258.135 90.3635H268.002L281.828 124.593L295.653 90.333H305.429V90.3635Z" fill="black"/>
<path d="M296.293 135.069L315.265 90.333H324.188L343.587 135.069H334.664L329.03 122.857H315.022L317.884 115.67H326.868L319.559 98.86L304.82 135.039H296.293V135.069Z" fill="black"/>
<path d="M344.711 117.498V90.3635H352.994V117.498C352.994 124.624 356.649 128.187 363.927 128.187C371.236 128.187 374.86 124.624 374.86 117.498V90.3635H383.143V117.498C383.143 129.435 376.717 135.374 363.897 135.374C351.076 135.374 344.711 129.435 344.711 117.498Z" fill="black"/>
<path d="M399.832 90.3635V127.882H420.723V135.069H391.549V90.3635H399.832Z" fill="black"/>
<path d="M450.081 90.3635V97.5505H437.26V135.069H428.977V97.5505H416.156V90.3635H450.081Z" fill="black"/>
<path d="M458.303 91.8251C458.82 91.8251 459.186 91.9165 459.429 92.1297C459.673 92.3428 459.795 92.6474 459.795 93.0433C459.795 93.4392 459.673 93.7133 459.46 93.896C459.247 94.0787 458.973 94.1701 458.668 94.2005L459.886 96.0886H459.186L458.029 94.2614H457.328V96.0886H456.658V91.7947H458.303V91.8251ZM458.029 93.7132H458.455C458.577 93.7132 458.699 93.6828 458.82 93.6219C458.912 93.561 459.003 93.5001 459.064 93.4087C459.125 93.3174 459.155 93.1955 459.155 93.0128C459.155 92.8605 459.125 92.7692 459.064 92.6778C459.003 92.5865 458.942 92.5256 458.851 92.4951C458.76 92.4647 458.668 92.4037 458.546 92.4037C458.425 92.3733 458.333 92.3733 458.211 92.3733H457.328V93.7437H458.029V93.7132Z" fill="black"/>
<path d="M458 90.3025C455.99 90.3025 454.346 91.947 454.346 93.9569C454.346 95.9668 455.99 97.6113 458 97.6113C460.01 97.6113 461.655 95.9668 461.655 93.9569C461.655 91.947 460.01 90.3025 458 90.3025ZM458 97.0936C456.264 97.0936 454.863 95.6927 454.863 93.9569C454.863 92.2211 456.264 90.8202 458 90.8202C459.736 90.8202 461.137 92.2211 461.137 93.9569C461.137 95.6927 459.736 97.0936 458 97.0936Z" fill="black"/>
<path d="M518.299 72L482.334 92.7388V132.663L518.299 153.432L554.265 132.663V92.7388L518.299 72ZM548.052 129.1L518.299 146.276L488.546 129.1V96.3323L518.299 79.1566L548.052 96.3323V129.1Z" fill="#FF4A6A"/>
<path d="M516.165 137.992C516.165 138.297 515.83 138.48 515.556 138.327L494.634 126.237C494.269 126.024 494.025 125.628 494.025 125.202V101.814C494.025 101.509 494.36 101.327 494.634 101.479L515.556 113.569C515.921 113.782 516.165 114.178 516.165 114.604V137.992Z" fill="#FF4A6A"/>
<path d="M539.309 98.281L519.271 109.853C518.784 110.127 518.175 110.127 517.687 109.853L497.649 98.281C497.375 98.1288 497.375 97.7329 497.649 97.5806L517.687 86.0083C518.175 85.7342 518.784 85.7342 519.271 86.0083L539.309 97.5806C539.553 97.7633 539.553 98.1288 539.309 98.281Z" fill="#FF4A6A"/>
<path d="M539.307 127.852L521.127 138.328C520.853 138.48 520.518 138.297 520.518 137.993V117.01C520.518 116.706 520.853 116.523 521.127 116.675L539.307 127.151C539.551 127.304 539.551 127.669 539.307 127.852Z" fill="#FF4A6A"/>
</g>
<defs>
<clipPath id="clip0_3051_968">
<rect width="495.173" height="81.4325" fill="white" transform="translate(59 72)"/>
</clipPath>
</defs>
</svg>
