<svg width="613" height="226" viewBox="0 0 613 226" fill="none" xmlns="http://www.w3.org/2000/svg">
<g clip-path="url(#clip0_3051_960)">
<path d="M116.084 113.038V112.044L107.668 104.8H106.687C104.373 107.357 100.799 109.273 96.8016 109.273C90.5607 109.273 85.6501 104.515 85.6501 97.9826C85.6501 91.4504 90.5607 86.692 96.8016 86.692C100.799 86.692 104.373 88.6083 106.687 91.1655H107.668L116.084 83.9211V82.9274C111.666 77.5313 104.726 74.0515 96.8696 74.0515C82.4261 74.0515 71.4883 84.2772 71.4883 97.9826C71.4883 98.5135 71.6081 99.0023 71.6437 99.5234C77.5544 103.544 82.7724 106.761 87.2654 109.707C93.7426 113.805 98.9704 117.576 103.276 121.082C108.643 119.726 112.993 116.783 116.084 113.038ZM76.7549 112.782C80.1278 116.926 84.8894 119.897 90.5056 121.166C86.7119 119.033 83.0379 116.938 79.6164 114.621C78.6129 113.999 77.7195 113.397 76.7549 112.782Z" fill="#FC0000"/>
<path d="M164.799 118.864L162.695 109.774L161.925 109.276C161.504 109.49 161.154 109.774 160.102 109.774C158.487 109.774 157.506 108.069 156.664 106.722C155.263 104.589 154.14 103.453 153.159 102.957C158.277 100.685 161.714 96.4251 161.714 90.3168C161.714 80.8713 155.263 74.9055 143.273 74.9055H122.375V121.065H136.258V104.874H137.521C140.606 104.874 144.535 111.548 146.358 114.533C150.145 120.57 153.159 121.916 158.558 121.916C161.083 121.916 163.187 120.994 164.449 119.858L164.799 118.864ZM147.549 91.097C147.549 94.1527 145.306 95.6417 142.71 95.6417H136.258V86.2674H142.71C145.306 86.2674 147.549 87.9733 147.549 91.097Z" fill="#FC0000"/>
<path d="M218.439 97.9982C218.439 84.2928 207.502 74.0671 192.987 74.0671C178.469 74.0671 167.531 84.2928 167.531 97.9982C167.531 111.704 178.469 121.929 192.987 121.929C207.502 121.929 218.439 111.632 218.439 97.9982ZM204.274 97.9982C204.274 104.602 199.225 109.289 192.987 109.289C186.746 109.289 181.696 104.602 181.696 97.9982C181.696 91.3948 186.746 86.7076 192.987 86.7076C199.225 86.7076 204.274 91.3948 204.274 97.9982Z" fill="#FC0000"/>
<path d="M249.381 74.9189L240.738 100.326L232.549 74.9189H219.277L218.662 75.9839L235.624 121.075H244.04L253.589 95.9238L263.171 121.075H271.587L288.581 75.9839L287.934 74.9189H274.694L266.473 100.488L257.797 74.9189H249.381Z" fill="#FC0000"/>
<path d="M339.401 97.9307C339.401 84.154 330.214 74.9221 315.279 74.9221H294.031V121.082H315.279C330.214 121.082 339.401 111.85 339.401 97.9307ZM325.236 98.0019C325.236 105.528 320.817 109.72 314.719 109.72H307.915V86.284H314.719C320.817 86.284 325.236 90.4759 325.236 98.0019Z" fill="#FC0000"/>
<path d="M385.336 86.2808H398.931V121.075H412.85V86.2808H426.769V74.9189H385.336V86.2808Z" fill="#FC0000"/>
<path d="M471.115 90.3271C471.115 80.8816 464.663 74.9158 452.673 74.9158H431.775V121.075H445.662V104.884H448.957L457.581 121.075H471.396L472.027 120.01L462.77 102.896C467.748 100.553 471.115 96.3641 471.115 90.3271ZM456.95 91.1072C456.95 94.1629 454.706 95.652 452.11 95.652H445.662V86.2776H452.11C454.706 86.2776 456.95 87.9835 456.95 91.1072Z" fill="#FC0000"/>
<path d="M479.531 121.075H493.45V74.9189H479.531V121.075Z" fill="#FC0000"/>
<path d="M516.11 91.324V74.9189H502.191V121.075H516.11V106.865L518.7 103.887L530.353 121.075H544.92L545.567 120.007L528.735 95.5677L544.272 75.9839L543.949 74.9189H529.058L516.11 91.324Z" fill="#FC0000"/>
<path d="M563.37 109.713V103.337H579.232V92.6707H563.37V86.2809H584.087V74.9158H549.451V121.075H584.411V109.713H563.37Z" fill="#FC0000"/>
<path d="M363 121.615C373.17 121.615 381.998 116.646 381.998 107.064C381.998 96.6217 373.099 93.922 365.246 91.6497C362.158 90.7271 358.999 89.6589 358.999 87.3865C358.999 85.7519 360.753 84.7581 363.42 84.7581C367.981 84.7581 371.837 87.6002 373.798 89.4485H374.779L381.298 81.6376V80.6439C377.864 76.7401 370.856 73.7588 363.139 73.7588C352.34 73.7588 344.843 79.5789 344.843 88.0275C344.843 97.1202 353.111 101.098 360.122 103.086C364.683 104.365 367.774 104.578 367.774 107.064C367.774 108.841 365.596 109.906 362.226 109.906C357.947 109.906 352.761 107.135 350.239 104.649H349.259L342.811 112.745V113.739C346.944 118.352 354.373 121.615 363 121.615Z" fill="#FC0000"/>
<path d="M123.528 164.052C120.165 156.354 113.409 146.478 86.9501 132.375C74.7466 125.59 53.9004 115.144 35.1582 95.2786C36.8576 102.445 45.5651 118.193 83.001 137.845C93.3723 143.519 110.91 148.841 123.528 164.026" fill="#FC0000"/>
<path d="M121.844 150.877C118.652 141.781 112.89 130.134 85.5572 112.842C72.2499 104.122 52.7017 93.1711 27 65.2585C28.8386 72.7846 36.9635 92.3554 77.9179 117.763C91.3709 126.878 108.734 132.501 121.844 150.877Z" fill="#FC0000"/>
</g>
<defs>
<clipPath id="clip0_3051_960">
<rect width="560" height="103.584" fill="white" transform="translate(27 62)"/>
</clipPath>
</defs>
</svg>
