<svg width="400" height="400" viewBox="0 0 400 400" fill="none" xmlns="http://www.w3.org/2000/svg">
<rect width="400" height="400" fill="#001019"/>
<path d="M247.983 117.445L249.303 117.633L253.264 118.576L269.673 121.783L280.424 123.292L296.645 125.178L297.211 125.366L297.399 126.687V175.348L297.022 183.459L296.268 190.437L294.382 201.565L292.684 209.487L290.987 215.9L288.912 222.501L286.46 228.914L284.762 232.686L282.122 238.156L279.293 243.437L277.406 246.643L274.955 250.604L272.503 254.188L270.239 257.394L267.976 260.412L265.524 263.43L264.204 265.127L261.94 267.768L258.923 270.974L255.339 274.558L253.83 275.878L251.755 277.764L249.681 279.462L246.851 281.914L244.965 283.423L242.891 285.12L240.439 287.195L237.987 289.081L234.592 291.722L231.385 293.985L228.179 296.06L224.218 298.323L219.88 300.398L209.884 304.359L207.62 304.736L205.168 303.981L199.321 301.152L196.304 299.643L192.72 297.757L188.193 295.117L184.421 292.853L180.272 290.213L175.745 287.384L172.161 285.12L171.784 284.366L173.859 283.611L180.649 281.348L185.553 279.65L191.588 277.199L198.19 273.992L202.151 271.917L207.243 268.9L209.884 267.202L212.901 265.127L215.542 263.241L218.937 260.601L221.955 258.149L224.784 255.697L226.67 253.811L228.179 252.49L232.14 248.53L233.46 247.021L234.592 245.7H234.969L235.346 244.946L237.61 242.305L239.496 239.853L241.759 236.836L244.4 233.063L246.474 229.857L248.738 226.085L250.624 222.69L253.076 217.975L255.905 211.562L257.98 206.092L259.866 200.245L261.563 193.832L263.261 185.722L264.204 179.498L264.77 173.462L264.958 167.804V159.694L264.77 154.601L262.318 154.224L253.641 152.715L246.097 151.206L236.666 148.943L230.065 147.057L222.521 144.605L216.674 142.341L215.919 141.587L217.805 140.267L223.086 137.06L228.556 133.477L231.951 131.213L234.403 129.327L237.044 127.253L239.684 124.989L241.193 123.48H241.57L241.948 122.726L243.456 121.406L245.908 119.142L247.983 117.445Z" fill="#4FC0FF"/>
<path d="M190.647 95L192.156 95.1886L194.985 97.0747L200.078 99.7153L205.925 102.356L217.43 107.448L221.957 109.334L223.466 110.089L223.088 111.032L220.637 113.295L218.75 114.804L215.544 117.445L211.583 120.463L208.188 122.914L204.605 125.366L200.455 128.007L196.494 130.27L192.156 132.534L187.064 135.174L182.726 137.249L175.181 140.455L169.523 142.53L161.601 145.171L153.679 147.434L141.043 150.64L135.95 151.961L136.139 162.9L136.516 172.708L137.459 183.27L138.402 189.306L139.722 195.341L141.42 201.377L143.494 206.847L147.455 216.088L149.719 220.804L152.359 225.519L155.188 229.668L157.074 232.12L159.715 235.515L161.413 237.59L163.676 240.231L165.373 242.117L166.694 243.626L170.466 247.398L176.69 252.49L179.331 254.565L182.914 257.206L184.046 258.149L183.857 259.092L180.651 260.789L176.501 263.053L171.409 265.693L166.505 267.957L160.092 270.597L155 272.483L151.605 273.804L150.284 274.369L149.341 274.181L147.833 272.86L144.06 269.088L142.74 267.579L138.025 262.864L136.704 261.355L134.63 259.092L132.932 257.017L130.669 254.377L128.783 251.925L126.142 248.341L124.256 245.7L122.37 242.871L120.295 239.476L118.032 235.327L115.769 230.423L111.619 220.238L109.167 213.448L107.281 207.224L105.772 201.188L104.452 194.587L103.132 186.854L102.566 182.327L102.189 176.291L102 168.936V123.48L102.189 120.84L102.754 120.463L110.11 119.708L121.804 118.576L128.783 117.633L137.27 116.124L143.306 114.804L148.398 113.295L153.114 111.786L161.978 108.769L169.146 105.939L175.37 103.11L179.708 101.036L183.291 99.1494L188.573 96.5089L190.647 95Z" fill="#4FC0FF"/>
</svg>
