<svg width="159" height="51" viewBox="0 0 159 51" fill="none" xmlns="http://www.w3.org/2000/svg">
<path d="M31.637 8.51697L31.9087 8.55579L32.7239 8.74988L36.1011 9.40979L38.3137 9.72034L41.6521 10.1085L41.7686 10.1473L41.8074 10.4191V20.4342L41.7297 22.1034L41.5745 23.5397L41.1863 25.83L40.8369 27.4603L40.4875 28.7802L40.0605 30.1388L39.5559 31.4586L39.2065 32.235L38.6631 33.3607L38.0808 34.4476L37.6926 35.1075L37.188 35.9227L36.6833 36.6603L36.2175 37.3202L35.7517 37.9413L35.2471 38.5624L34.9753 38.9117L34.5095 39.4552L33.8884 40.1151L33.1509 40.8527L32.8403 41.1244L32.4133 41.5126L31.9863 41.8619L31.4041 42.3666L31.0159 42.6771L30.5889 43.0265L30.0842 43.4535L29.5796 43.8417L28.8809 44.3851L28.2209 44.851L27.561 45.278L26.7458 45.7438L25.853 46.1708L23.7957 46.986L23.3298 47.0636L22.8252 46.9083L21.6218 46.326L21.0007 46.0155L20.2632 45.6273L19.3315 45.0839L18.5552 44.618L17.7012 44.0746L16.7695 43.4923L16.032 43.0265L15.9543 42.8712L16.3813 42.7159L17.7788 42.2501L18.7881 41.9008L20.0303 41.3961L21.3889 40.7362L22.2041 40.3092L23.2522 39.6881L23.7957 39.3387L24.4167 38.9117L24.9602 38.5236L25.6589 37.9801L26.28 37.4755L26.8623 36.9708L27.2505 36.5826L27.561 36.3109L28.3762 35.4957L28.6479 35.1852L28.8809 34.9135H28.9585L29.0361 34.7582L29.502 34.2147L29.8901 33.7101L30.356 33.089L30.8994 32.3126L31.3264 31.6527L31.7922 30.8763L32.1804 30.1776L32.6851 29.2072L33.2673 27.8873L33.6943 26.7616L34.0825 25.5582L34.4319 24.2384L34.7812 22.5692L34.9753 21.2882L35.0918 20.046L35.1306 18.8815V17.2123L35.0918 16.1642L34.5872 16.0865L32.8015 15.776L31.2488 15.4655L29.3079 14.9996L27.9492 14.6115L26.3965 14.1068L25.1931 13.641L25.0378 13.4857L25.426 13.214L26.5129 12.5541L27.6387 11.8165L28.3374 11.3507L28.842 10.9625L29.3855 10.5355L29.929 10.0697L30.2395 9.75916H30.3171L30.3948 9.60388L30.7053 9.33215L31.21 8.86633L31.637 8.51697Z" fill="#25A8FF"/>
<path d="M19.8362 3.89758L20.1467 3.9364L20.729 4.32458L21.7771 4.86804L22.9805 5.4115L25.3484 6.45959L26.28 6.84778L26.5906 7.00305L26.5129 7.19714L26.0083 7.66296L25.6201 7.97351L24.9602 8.51697L24.145 9.13806L23.4463 9.6427L22.7087 10.1473L21.8547 10.6908L21.0396 11.1566L20.1467 11.6224L19.0986 12.1659L18.2058 12.5929L16.6531 13.2528L15.4885 13.6798L13.8582 14.2233L12.2278 14.6891L9.62695 15.349L8.57886 15.6207L8.61768 17.8722L8.69531 19.8907L8.8894 22.0646L9.0835 23.3068L9.35522 24.549L9.70459 25.7911L10.1316 26.9169L10.9468 28.819L11.4126 29.7894L11.9561 30.7599L12.5383 31.6139L12.9265 32.1185L13.47 32.8173L13.8193 33.2443L14.2852 33.7877L14.6345 34.1759L14.9062 34.4865L15.6826 35.2628L16.9636 36.3109L17.5071 36.7379L18.2446 37.2814L18.4775 37.4755L18.4387 37.6696L17.7788 38.0189L16.9248 38.4847L15.8767 39.0282L14.8674 39.494L13.5476 40.0375L12.4995 40.4257L11.8008 40.6974L11.5291 40.8138L11.335 40.775L11.0244 40.5033L10.248 39.7269L9.97632 39.4164L9.00586 38.4459L8.73413 38.1354L8.30713 37.6696L7.95776 37.2426L7.49194 36.6991L7.10376 36.1945L6.5603 35.4569L6.17212 34.9135L5.78394 34.3312L5.35693 33.6324L4.89111 32.7784L4.42529 31.7692L3.57129 29.673L3.06665 28.2755L2.67847 26.9945L2.36792 25.7523L2.09619 24.3937L1.82446 22.8021L1.70801 21.8705L1.63037 20.6283L1.59155 19.1144V9.75916L1.63037 9.2157L1.74683 9.13806L3.26074 8.98279L5.66748 8.74988L7.10376 8.55579L8.85059 8.24524L10.0928 7.97351L11.1409 7.66296L12.1113 7.35242L13.9358 6.73132L15.4109 6.14905L16.6919 5.56677L17.5847 5.13977L18.3223 4.75159L19.4092 4.20813L19.8362 3.89758Z" fill="#25A8FF"/>
<path d="M71.5034 8.86633H72.8232L73.2502 8.90515L73.2891 8.94397V14.3785L74.0266 13.9904L74.6477 13.8351L74.9583 13.7963L76.4722 13.7574L77.4426 13.7963L78.1414 13.9127L78.6848 14.1068L79.1895 14.3785L79.5776 14.6891L79.927 15.0385L80.1987 15.4655L80.4316 15.9701L80.5869 16.5912L80.6257 17.057V35.3405L80.5481 36.1556L80.3928 36.7767L80.0046 37.5143L79.5776 37.9801L79.1895 38.2906L78.6072 38.6012L77.9473 38.7953L77.0933 38.9117H74.4924L74.0266 38.7953L73.4832 38.4459L73.2502 38.3683L73.2891 38.4459V38.8341L73.2114 38.9506H71.6975L71.5034 38.8729L71.4646 33.8265V8.90515L71.5034 8.86633ZM75.0359 15.4655L74.4148 15.5431L73.9878 15.6984L73.6384 15.9313L73.4055 16.203L73.2891 16.5524L73.2502 35.4569L73.2891 36.0392L73.4055 36.4274L73.6384 36.7767L73.949 37.0096L74.4148 37.2037L75.1912 37.2814H76.9768L77.6755 37.1649L78.1414 36.932L78.3743 36.7379L78.6848 36.3109L78.8013 36.0392L78.8401 35.8063V16.7465L78.7236 16.3583L78.4519 16.0089L78.1802 15.776L77.8696 15.6207L77.2485 15.5043L76.6663 15.4655H75.0359Z" fill="white"/>
<path d="M59.3921 13.7574H59.9744L61.1389 13.7963L61.2166 13.9515V34.0206L61.2942 34.37L61.5271 34.797L61.8765 35.1075L62.3035 35.3016L62.7693 35.4181L63.0798 35.4569L63.8174 35.4957H64.7102L65.603 35.4181L65.9912 35.3016L66.3794 35.0687L66.6511 34.7194L66.7288 34.5253L66.7676 34.0983L66.8064 13.7574L68.5532 13.7963L68.592 13.8351V39.0282L68.5532 42.6771L68.4756 43.2206L68.2427 43.8029L67.9321 44.2687L67.738 44.5016L67.4275 44.7733L67.0005 45.045L66.3794 45.2391L65.5254 45.3556L64.6326 45.3944H61.1777L61.1001 45.278V43.7252L61.1389 43.6864L65.3313 43.6476L65.7195 43.5699L66.1853 43.3759L66.457 43.1429L66.6899 42.7159L66.7676 42.2113L66.8064 37.5919L66.8452 36.6215L66.1465 37.0096L65.6418 37.1649L65.0208 37.2426L63.6621 37.2814L62.4587 37.2037L61.8376 37.0873L61.333 36.8932L60.8284 36.6215L60.3625 36.1945L60.0908 35.8839L59.7803 35.3405L59.5862 34.9135L59.4309 34.2147L59.3921 33.5548V13.7574Z" fill="white"/>
<path d="M107.022 8.86633H109.468L110.167 8.98279L110.71 9.13806L111.176 9.33215L111.603 9.60388L111.991 9.91443L112.34 10.3026L112.573 10.6908L112.729 11.1178L112.767 11.3119L112.806 11.8553V18.1439L112.729 18.2216H111.991L111.059 18.1827L111.021 11.9718L110.904 11.5448L110.671 11.1566L110.322 10.8849L109.934 10.7296L109.351 10.652H106.867L106.285 10.7684L105.819 11.0013L105.508 11.3507L105.353 11.7001L105.314 11.9718L105.275 17.9498V19.4249L105.314 20.046L105.469 20.5507L105.741 20.9L106.129 21.1329L106.556 21.2882L107.022 21.3658L108.885 21.4047L110.011 21.4823L110.671 21.6376L111.253 21.8705L111.719 22.1422L112.146 22.5304L112.418 22.9186L112.651 23.3844L112.767 23.8114L112.806 24.549V35.8451L112.767 36.5826L112.651 37.0485L112.34 37.6307L112.03 38.0189L111.642 38.3683L111.215 38.64L110.71 38.8341L110.089 38.9894L109.507 39.067L108.769 39.1058H106.983L106.207 39.0282L105.547 38.8729L104.926 38.6012L104.499 38.2906L104.111 37.9413L103.761 37.3978L103.567 36.8932L103.49 36.5438L103.451 35.9615V29.7894H105.198L105.237 29.8282V35.8451L105.353 36.4662L105.586 36.8156L105.935 37.0485L106.362 37.2037L106.75 37.2814L107.333 37.3202H109.08L109.74 37.2426L110.244 37.0485L110.555 36.8156L110.788 36.5438L110.943 36.1945L111.021 35.651V24.549L110.943 24.1996L110.749 23.8502L110.516 23.5785L110.05 23.3068L109.584 23.1903L106.75 23.1515L106.052 23.035L105.237 22.7633L104.732 22.4916L104.227 22.0646L103.878 21.5988L103.645 21.0941L103.529 20.6283L103.49 20.3177V11.6224L103.645 11.0013L103.956 10.3802L104.344 9.91443L104.848 9.52625L105.237 9.29333L105.858 9.06042L106.634 8.90515L107.022 8.86633Z" fill="white"/>
<path d="M51.6284 8.86633H54.1128L55.0444 9.02161L55.6267 9.2157L56.2478 9.56506L56.7524 9.99207L57.0242 10.3026L57.3347 10.8461L57.49 11.2731L57.5288 11.5836V18.1827H55.782L55.7432 18.1439V12.3212L55.7043 11.6613L55.4326 11.1178L54.7339 10.7684L53.9963 10.652L53.2976 10.6132H52.366L51.6284 10.652L51.0461 10.7684L50.658 10.9237L50.3086 11.1954L50.1533 11.3895L50.0757 11.6224L50.0369 35.5345L50.1145 36.2333L50.3474 36.6991L50.6968 37.0096L51.0461 37.1649L51.512 37.2814L52.0942 37.3202H53.8411L54.5398 37.2426L54.9668 37.0873L55.3162 36.8544L55.5879 36.4274L55.7043 35.9227L55.7432 29.8282H57.5288V36.2333L57.4512 36.8932L57.2571 37.3978L56.9854 37.8636L56.5583 38.3295L56.0149 38.6788L55.3162 38.9117L54.6951 39.0282L53.5305 39.1058H51.7449L50.8909 39.0282L50.2698 38.8729L49.6875 38.64L49.2605 38.3295L48.95 38.0577L48.5618 37.5143L48.3289 36.932L48.2512 36.5438V11.5448L48.3677 11.0013L48.6782 10.3802L48.95 10.0309L49.2993 9.68152L49.8816 9.29333L50.4639 9.06042L51.2402 8.90515L51.6284 8.86633Z" fill="white"/>
<path d="M119.172 13.7574H120.376L121.269 13.8351L122.006 14.0292L122.666 14.3785L123.132 14.8055L123.365 15.0773L123.675 15.6207L123.831 16.0865L123.869 16.3195L123.908 17.0958V26.4899L123.831 26.5287H120.415L117.154 26.4899V35.8451L117.231 36.3109L117.464 36.7767L117.891 37.0873L118.357 37.2814L118.784 37.359L119.25 37.3978H120.143L120.919 37.3202L121.424 37.1261L121.734 36.8932L121.967 36.5438L122.084 36.1556L122.123 35.651V31.4198L122.278 31.3422L123.869 31.381L123.908 31.4198V35.5734L123.869 36.3497L123.753 36.9708L123.559 37.4755L123.248 37.9025L122.977 38.213L122.511 38.5624L122.045 38.7953L121.074 39.0282L120.337 39.1058H118.901L118.085 38.9894L117.27 38.7177L116.766 38.4459L116.339 38.0966L115.989 37.7472L115.679 37.2426L115.446 36.6215L115.368 35.9615V16.7076L115.446 16.1254L115.64 15.6207L115.95 15.0773L116.377 14.6115L116.882 14.2621L117.426 13.9904L118.085 13.8351L119.172 13.7574ZM119.25 15.349L118.474 15.4266L118.047 15.5819L117.658 15.8148L117.348 16.1642L117.193 16.5135L117.154 16.7076L117.115 23.2679V24.6654L117.154 24.7819L119.988 24.8207H122.123L122.161 24.743V17.1346L122.084 16.5524L121.851 16.1254L121.54 15.776L121.152 15.5431L120.764 15.4266L119.871 15.349H119.25Z" fill="white"/>
<path d="M87.0696 13.7574H88.1565L88.8164 13.7963L89.4763 13.9127L89.9421 14.068L90.5244 14.3785L90.9126 14.6891L91.2231 15.0385L91.5337 15.5819L91.7278 16.203L91.7666 16.5524L91.8054 26.451L91.689 26.5287H89.127L85.0122 26.4899L85.051 36.0392L85.1675 36.4662L85.4004 36.8156L85.7109 37.0485L86.1379 37.2426L86.6426 37.359L87.0696 37.3978H88.0012L88.7388 37.3202L89.2046 37.1649L89.5151 36.9708L89.8257 36.6215L89.9421 36.2721L89.981 35.8063V31.4198L90.0586 31.3422L91.7278 31.381L91.7666 31.4198V35.9615L91.689 36.7379L91.4949 37.359L91.2231 37.786L90.8738 38.1742L90.5632 38.4459L90.0974 38.7177L89.4763 38.9117L88.6223 39.067L88.1565 39.1058H86.759L85.9827 38.9894L85.3616 38.7953L84.7405 38.4847L84.3135 38.1742L83.8477 37.7084L83.5371 37.2037L83.343 36.6215L83.2654 36.1556V16.5524L83.3818 15.9313L83.6924 15.3102L83.9253 14.9608L84.3523 14.5338L84.7793 14.2621L85.3228 13.9904L85.9827 13.8351L86.2932 13.7963L87.0696 13.7574ZM86.9919 15.349L86.332 15.4266L85.8274 15.6207L85.478 15.8925L85.2451 16.1642L85.0898 16.4747L85.051 16.63L85.0122 17.2511V24.8207H90.0198V16.9406L89.9033 16.3971L89.6316 16.0089L89.321 15.6984L88.9329 15.5043L88.3506 15.3878L87.8071 15.349H86.9919Z" fill="white"/>
<path d="M144.987 13.7574L146.733 13.7963L146.772 13.8351V38.8729L146.695 38.9506H145.103L144.987 38.7953L144.909 38.4071L144.521 38.6012L144.171 38.8341L143.9 38.9117L142.696 38.9894H141.182L140.406 38.9117L139.824 38.7565L139.358 38.5624L138.97 38.3295L138.582 37.9801L138.271 37.6696L137.96 37.1649L137.728 36.6603L137.572 36.0392L137.533 35.5345V13.7963H139.047L139.319 13.8351V35.3793L139.358 35.9227L139.474 36.3109L139.668 36.6215L139.94 36.8544L140.406 37.0873L140.755 37.1649L141.105 37.2037H143.162L143.9 37.1261L144.327 36.9708L144.56 36.8156L144.792 36.5438L144.909 36.2721L144.948 36.0004L144.987 13.7574Z" fill="white"/>
<path d="M130.43 13.7574H131.672L132.526 13.8351L133.186 13.9904L133.807 14.3009L134.234 14.6115L134.622 14.9996L134.971 15.5431L135.127 15.9701L135.166 16.2418L135.204 21.4435L135.049 21.5211H133.496L133.419 21.4435L133.38 16.8629L133.225 16.3583L133.069 16.0865L132.914 15.8925L132.526 15.6595L131.905 15.5431L131.012 15.5043H130.546L129.731 15.5819L129.343 15.6984L128.955 15.9313L128.722 16.203L128.489 16.6688L128.45 16.9017L128.411 20.2401V35.7675L128.489 36.3109L128.644 36.6215L128.877 36.8932L129.265 37.1261L129.615 37.2426L130.236 37.3202H131.75L132.409 37.2037L132.759 37.0485L133.069 36.8156L133.263 36.5438L133.341 36.2721L133.38 31.4586L133.458 31.381H135.088L135.204 31.4586L135.166 36.4662L135.088 36.932L134.894 37.3978L134.583 37.8636L134.273 38.213L133.768 38.5624L133.302 38.7953L132.565 38.9894L132.06 39.067L131.594 39.1058H129.925L129.265 39.0282L128.683 38.8729L128.062 38.6012L127.635 38.2906L127.324 38.0189L127.052 37.6307L126.82 37.1649L126.664 36.505L126.625 36.0392V16.5524L126.742 15.9701L126.936 15.4655L127.208 15.0385L127.557 14.6503L127.868 14.3785L128.411 14.068L128.993 13.8739L129.615 13.7963L130.43 13.7574Z" fill="white"/>
<path d="M149.839 13.7574L151.469 13.7963L151.547 14.0292L151.586 14.2621L151.857 14.2233L152.246 13.9515L152.634 13.8351L152.944 13.7963H154.458L155.235 13.9127L155.817 14.1068L156.399 14.4174L156.826 14.7667L157.137 15.1161L157.447 15.6595L157.603 16.1642L157.68 16.7853L157.719 17.6005L157.603 17.7557H155.972L155.895 17.5616V16.8241L155.739 16.3195L155.468 15.9313L155.118 15.6984L154.497 15.5431L154.109 15.5043H153.1L152.556 15.6207L152.168 15.8148L151.857 16.1254L151.663 16.5135L151.625 16.7853L151.586 38.8729L151.508 38.9117L149.994 38.9506L149.839 38.9117L149.8 38.8341V14.4562L149.839 13.7574Z" fill="white"/>
<path d="M95.8037 13.7574H96.1143L96.2307 13.8739V14.3009L96.5413 14.2233L96.9683 13.9515L97.3176 13.8351L97.5894 13.7963H99.2585L99.9573 13.9127L100.501 14.1068L100.967 14.3397L101.432 14.6891L101.743 14.9996L102.092 15.5431L102.286 16.0477L102.403 16.7853V17.7169L102.364 17.7557H100.656L100.617 17.7169L100.578 16.7465L100.423 16.3195L100.19 15.9701L99.8796 15.7372L99.4138 15.5819L98.7539 15.5043H97.8611L97.24 15.6207L96.9294 15.776L96.5801 16.0865L96.386 16.4359L96.3472 16.6688L96.3083 17.6781V38.8729L96.2695 38.9117L94.6003 38.9506L94.5227 38.8729V13.7963L95.8037 13.7574Z" fill="white"/>
</svg>
