<svg width="613" height="226" viewBox="0 0 613 226" fill="none" xmlns="http://www.w3.org/2000/svg">
<g clip-path="url(#clip0_3047_765)">
<path d="M242.931 105.8V128.634L264.504 101.386C264.769 101.032 265.079 100.723 265.433 100.457C265.765 100.17 266.13 99.9261 266.528 99.727C266.926 99.5279 267.336 99.373 267.756 99.2623C268.176 99.1517 268.608 99.0964 269.05 99.0964H281.264L257.501 129.132L281.529 160.595H268.453C267.988 160.573 267.535 160.506 267.092 160.396C266.65 160.285 266.218 160.119 265.798 159.898C265.4 159.699 265.023 159.444 264.67 159.135C264.338 158.825 264.039 158.482 263.773 158.106L242.931 129.962V160.562H236.559C233.207 160.562 230.519 157.541 230.519 153.824V99.03H236.891C240.243 99.03 242.931 102.05 242.931 105.767V105.8Z" fill="black"/>
<path d="M174.812 109.764H196.484C196.484 109.764 201.396 109.598 204.151 110.926C206.341 111.955 207.569 114.145 207.569 117.796C207.569 120.683 206.872 122.641 205.412 123.703C205.81 124.035 206.186 124.378 206.54 124.732C206.894 125.108 207.237 125.484 207.569 125.861C207.901 126.237 208.222 126.624 208.532 127.022C208.819 127.42 209.107 127.83 209.394 128.25C210.025 129.146 210.921 130.706 212.116 132.897C212.215 133.029 212.315 133.129 212.381 133.262C212.89 132.996 213.377 132.698 213.842 132.366C214.306 132.056 214.749 131.702 215.169 131.303C215.59 130.927 215.988 130.518 216.364 130.075C216.74 129.655 217.083 129.202 217.393 128.715C217.88 127.896 218.311 127.033 218.687 126.126C219.063 125.241 219.373 124.323 219.616 123.371C219.86 122.442 220.037 121.491 220.147 120.517C220.236 119.566 220.258 118.603 220.214 117.63C220.214 117.232 219.849 111.623 218.787 109.067C218.588 108.58 218.377 108.105 218.156 107.64C217.913 107.175 217.647 106.722 217.36 106.279C217.072 105.837 216.773 105.416 216.464 105.018C216.132 104.598 215.789 104.2 215.435 103.823C215.037 103.425 214.616 103.038 214.173 102.662C213.731 102.308 213.266 101.987 212.78 101.699C212.293 101.39 211.784 101.124 211.253 100.903C210.744 100.682 210.213 100.493 209.66 100.339C208.819 100.095 207.978 99.885 207.138 99.708C206.297 99.531 205.456 99.3872 204.615 99.2766C203.752 99.1659 202.9 99.0885 202.06 99.0443C201.197 99 200.334 98.9889 199.471 99.0111H168.705V103.326C168.672 104.155 168.772 104.985 169.07 105.748C169.369 106.545 169.801 107.242 170.365 107.839C170.929 108.437 171.626 108.934 172.389 109.266C173.119 109.598 173.949 109.764 174.779 109.764H174.812Z" fill="black"/>
<path d="M205.751 131.129C202.698 126.483 199.611 125.488 197.72 125.355C195.828 125.222 181.225 125.355 181.225 125.355V121.173C181.225 117.456 178.47 114.436 175.151 114.436H168.779V153.83C168.779 157.548 171.501 160.568 174.853 160.568H181.225V136.141H195.927L208.074 158.908C208.207 159.152 208.362 159.373 208.539 159.572C208.716 159.771 208.926 159.948 209.17 160.103C209.391 160.236 209.634 160.347 209.9 160.435C210.143 160.523 210.409 160.568 210.696 160.568H223.009L208.439 135.71C208.406 135.577 206.315 131.959 205.751 131.129Z" fill="black"/>
<path d="M519.699 114.583C520.032 113.588 520.429 112.625 520.895 111.696C521.36 110.767 521.878 109.87 522.455 109.008C523.053 108.123 523.694 107.293 524.378 106.518C525.087 105.744 525.839 105.025 526.637 104.361C527.278 103.808 527.941 103.31 528.629 102.868C529.313 102.403 530.031 101.983 530.783 101.607C531.514 101.253 532.278 100.932 533.073 100.644C533.85 100.379 534.645 100.157 535.465 99.9803C536.26 99.8254 537.056 99.6927 537.854 99.5821C538.671 99.4714 539.478 99.3719 540.277 99.2834C541.094 99.217 541.913 99.1617 542.733 99.1174C543.529 99.0953 544.336 99.0842 545.156 99.0842H560.155C563.508 99.0842 566.23 102.104 566.23 105.822V109.837H545.72C545.72 109.837 541.405 109.837 539.149 110.036C539.149 110.036 532.411 110.601 527.466 113.289C522.686 115.878 520.263 118.035 517.674 121.686C517.674 121.652 518.904 116.973 519.699 114.583Z" fill="black"/>
<path d="M493.02 160.549C484.026 160.549 477.288 158.127 472.806 153.58C469.255 149.929 466.934 144.718 465.837 137.915C465.939 138.081 466.102 138.413 466.235 138.578C470.217 144.32 477.818 148.834 489.038 149.663C490.73 149.796 497.169 149.829 498.494 149.829H507.655C511.006 149.829 513.727 152.85 513.727 156.567V160.549H493.02Z" fill="black"/>
<path d="M125.514 125.867L114.662 156.367C114.462 156.965 114.197 157.529 113.832 158.027C113.467 158.525 113.035 158.989 112.538 159.355C112.04 159.72 111.476 160.018 110.878 160.251C110.314 160.45 109.683 160.549 109.053 160.583H100.756L123.39 99.0842H138.325C136.5 100.777 134.01 103.2 129.331 115.214C128.236 118.201 127.373 120.458 125.514 125.867Z" fill="black"/>
<path d="M159.612 151.056L140.13 103.63C139.444 104.714 138.781 105.82 138.139 106.949C137.497 108.077 136.9 109.216 136.347 110.367C135.772 111.517 135.24 112.69 134.754 113.885C134.245 115.058 133.78 116.252 133.36 117.469L139.997 134.86H131.269C130.572 134.893 129.908 135.026 129.278 135.258C128.647 135.524 128.05 135.856 127.519 136.287C127.021 136.719 126.556 137.25 126.191 137.814C125.859 138.378 125.594 139.009 125.461 139.672L123.304 145.912H144.146L149.622 160.581H154.103C158.517 160.581 161.47 155.503 159.612 151.056Z" fill="black"/>
<path d="M303.55 114.569V160.568H310.387C313.706 160.568 316.427 157.548 316.427 153.83V114.436H303.55V114.569Z" fill="black"/>
<path d="M290.555 99.1384C287.203 99.1384 284.481 102.159 284.481 105.876V109.792H329.651C332.97 109.792 335.691 106.838 335.691 103.088V99.1384H290.555Z" fill="black"/>
<path d="M56.4125 109.804C56.4125 109.804 70.2853 109.804 70.9159 109.804C71.5465 109.804 74.0024 109.97 75.2967 110.136C91.1277 111.961 96.4709 118.997 98.7611 122.416C97.6989 115.247 95.1104 109.771 91.4929 106.021C87.0013 101.463 80.2198 99.1506 71.1482 99.0842H44V109.804H56.4125Z" fill="black"/>
<path d="M427.288 125.867L416.469 156.367C416.272 156.965 416.007 157.529 415.64 158.027C415.276 158.525 414.811 158.989 414.311 159.355C413.815 159.72 413.285 160.018 412.687 160.251C412.089 160.45 411.46 160.549 410.862 160.583H402.564L425.164 99.0842H440.101C438.274 100.777 435.82 103.2 431.107 115.214C430.044 118.201 429.014 120.756 427.288 125.867Z" fill="black"/>
<path d="M461.402 151.056L441.952 103.63C441.247 104.714 440.581 105.82 439.961 106.949C439.32 108.077 438.713 109.216 438.137 110.367C437.585 111.517 437.052 112.69 436.543 113.885C436.056 115.058 435.603 116.252 435.184 117.469L441.82 134.86H433.226C432.527 134.893 431.864 135.026 431.235 135.258C430.603 135.524 430.005 135.856 429.509 136.287C428.976 136.719 428.513 137.25 428.181 137.814C427.814 138.378 427.549 139.009 427.416 139.672L425.758 145.912H445.969L451.446 160.581H455.894C460.308 160.581 463.261 155.503 461.402 151.056Z" fill="black"/>
<path d="M348.992 109.764H370.696C370.696 109.764 375.609 109.598 378.365 110.893C380.553 111.921 381.783 114.112 381.783 117.763C381.814 120.683 381.084 122.608 379.656 123.67C380.032 124.002 380.399 124.356 380.754 124.732C381.108 125.086 381.45 125.451 381.783 125.827C382.113 126.204 382.434 126.591 382.745 126.989C383.032 127.387 383.318 127.797 383.608 128.217C384.237 129.179 385.134 130.706 386.33 132.863C386.394 132.996 386.527 133.096 386.595 133.228C387.103 132.963 387.59 132.675 388.056 132.366C388.518 132.034 388.962 131.669 389.381 131.27C389.804 130.894 390.201 130.496 390.577 130.075C390.932 129.633 391.261 129.168 391.573 128.682C392.081 127.863 392.513 127 392.867 126.093C393.243 125.208 393.552 124.301 393.795 123.371C394.017 122.42 394.184 121.469 394.295 120.517C394.384 119.544 394.405 118.57 394.359 117.597C394.359 117.198 393.996 111.59 392.932 109.034C392.735 108.547 392.525 108.072 392.303 107.607C392.06 107.142 391.795 106.689 391.505 106.246C391.24 105.826 390.941 105.405 390.611 104.985C390.278 104.587 389.936 104.2 389.582 103.823C389.184 103.403 388.762 103.016 388.321 102.662C387.877 102.308 387.412 101.976 386.925 101.666C386.462 101.379 385.963 101.113 385.433 100.87C384.903 100.648 384.369 100.46 383.839 100.305C382.998 100.062 382.159 99.8518 381.318 99.6748C380.476 99.4978 379.635 99.3651 378.793 99.2766C377.933 99.1659 377.08 99.0885 376.238 99.0443C375.375 99 374.515 98.9889 373.652 99.0111H342.918V103.292C342.885 104.122 343.018 104.952 343.283 105.715C343.582 106.512 344.013 107.209 344.578 107.806C345.175 108.403 345.839 108.901 346.602 109.233C347.365 109.565 348.162 109.731 348.992 109.764Z" fill="black"/>
<path d="M379.937 131.1C376.883 126.453 373.797 125.458 371.905 125.325C369.981 125.192 355.411 125.325 355.411 125.325V121.143C355.411 117.426 352.689 114.406 349.337 114.406H342.965V153.801C342.965 157.518 345.719 160.538 349.038 160.538H355.411V136.144H370.114L382.292 158.911C382.403 159.155 382.548 159.376 382.724 159.575C382.924 159.774 383.134 159.951 383.356 160.106C383.578 160.239 383.821 160.35 384.086 160.438C384.351 160.505 384.616 160.549 384.881 160.571H397.195L382.659 135.713C382.591 135.547 380.501 131.929 379.937 131.1Z" fill="black"/>
<path d="M92.5548 122.003C92.7539 122.224 92.953 122.445 93.1522 122.667C93.3513 122.91 93.5393 123.142 93.7165 123.364C93.8935 123.607 94.0704 123.85 94.2473 124.094C94.4245 124.337 94.5904 124.58 94.7451 124.824C95.3869 125.775 95.9512 126.76 96.4379 127.778C96.9246 128.773 97.334 129.813 97.666 130.897C97.9976 131.981 98.2411 133.077 98.3959 134.183C98.5731 135.311 98.6616 136.429 98.6616 137.535C98.6616 140.555 98.0642 143.542 96.9025 146.33C95.741 149.085 94.0482 151.607 91.9241 153.764C89.8001 155.888 87.2445 157.581 84.4901 158.709C81.7021 159.871 78.7153 160.468 75.6949 160.468L71.5133 160.568H50.0735C46.7215 160.568 44 157.548 44 153.83V114.436H56.4789V149.848H70.9491C71.458 149.848 71.9669 149.848 72.4757 149.848C72.9846 149.826 73.4935 149.804 74.0024 149.781C74.5113 149.737 75.0091 149.682 75.4958 149.616C76.0047 149.549 76.5136 149.472 77.0225 149.383C77.4651 149.273 77.8967 149.129 78.3168 148.952C78.7372 148.775 79.1466 148.565 79.5448 148.321C79.9211 148.078 80.2861 147.801 80.6403 147.492C80.9719 147.182 81.2817 146.85 81.5693 146.496C81.9013 146.098 82.1999 145.688 82.4656 145.268C82.7532 144.848 83.0075 144.405 83.2288 143.94C83.4501 143.498 83.6604 143.033 83.8595 142.547C84.0364 142.082 84.1803 141.595 84.291 141.086C84.4235 140.599 84.5453 140.102 84.656 139.593C84.7444 139.084 84.8329 138.575 84.9213 138.066C85.0098 137.557 85.0875 137.048 85.1538 136.539C85.22 136.03 85.2755 135.522 85.3196 135.013C85.364 134.371 85.3973 133.718 85.4191 133.054C85.4413 132.413 85.4635 131.76 85.4857 131.097C85.4857 130.433 85.4857 129.78 85.4857 129.138C85.4635 128.475 85.4413 127.822 85.4191 127.18C85.3973 126.45 85.3529 125.72 85.2866 124.99C85.22 124.26 85.1427 123.529 85.0542 122.799C84.9657 122.069 84.8551 121.35 84.7222 120.642C84.5897 119.912 84.4457 119.193 84.291 118.485C84.2466 118.33 84.2022 118.175 84.1582 118.02C84.1138 117.865 84.0697 117.71 84.0253 117.556C83.959 117.401 83.9035 117.257 83.8595 117.124C83.7929 116.969 83.7266 116.814 83.6604 116.659C84.479 116.925 85.2755 117.224 86.0498 117.556C86.8244 117.91 87.5765 118.308 88.3067 118.75C89.0369 119.171 89.7449 119.646 90.4307 120.177C91.1166 120.686 91.7583 121.228 92.3557 121.804L92.5548 122.003Z" fill="black"/>
<path d="M488.94 110.082L489.837 109.949C490.059 109.927 490.281 109.905 490.5 109.883C490.722 109.861 490.944 109.849 491.166 109.849C491.409 109.827 491.64 109.816 491.862 109.816C492.084 109.816 492.303 109.816 492.525 109.816L513.766 109.75V105.767C513.766 102.05 511.044 99.03 507.693 99.03H492.692C491.961 99.03 491.243 99.0522 490.534 99.0964C489.803 99.1185 489.085 99.1628 488.376 99.2292C487.646 99.2734 486.928 99.3509 486.219 99.4615C485.491 99.55 484.77 99.6495 484.064 99.7602H483.928C481.308 100.192 478.818 101.088 476.497 102.382C474.207 103.71 472.148 105.402 470.422 107.394C468.695 109.418 467.37 111.708 466.439 114.197C465.511 116.653 465.046 119.275 465.046 121.93C465.046 123.036 465.123 124.143 465.277 125.249C465.456 126.355 465.709 127.439 466.041 128.501C466.374 129.586 466.781 130.626 467.268 131.621C467.755 132.639 468.319 133.602 468.961 134.509C473.079 140.449 477.459 142.341 481.805 143.735V143.668C481.385 142.85 481.009 142.009 480.677 141.146C480.322 140.283 480.026 139.409 479.783 138.524C479.514 137.639 479.283 136.743 479.083 135.836C478.907 134.929 478.775 134.011 478.685 133.082C477.258 121.399 481.839 111.111 488.94 110.082Z" fill="black"/>
<path d="M566.248 132.246C566.248 128.528 563.527 125.508 560.21 125.508H530.706C530.814 124.667 530.958 123.838 531.137 123.019C531.313 122.2 531.535 121.393 531.8 120.596C532.043 119.8 532.321 119.014 532.629 118.24C532.94 117.443 533.283 116.669 533.659 115.917L533.292 116.05C533.048 116.116 532.817 116.182 532.595 116.249C532.373 116.337 532.154 116.415 531.932 116.481C531.711 116.569 531.501 116.658 531.301 116.746C531.082 116.835 530.86 116.923 530.638 117.012C529.642 117.432 528.69 117.908 527.784 118.439C526.856 118.992 525.968 119.612 525.13 120.298C524.31 120.984 523.545 121.725 522.84 122.521C522.109 123.34 521.456 124.192 520.879 125.077C520.238 126.006 519.674 126.969 519.187 127.964C518.7 128.982 518.293 130.022 517.96 131.084C517.627 132.146 517.375 133.23 517.196 134.336C517.02 135.443 516.931 136.56 516.931 137.688C516.965 139.879 517.264 142.036 517.926 144.127C518.558 146.218 519.486 148.209 520.716 150.034C521.909 151.86 523.37 153.486 525.062 154.88C526.754 156.274 528.647 157.436 530.638 158.265C530.992 158.442 531.334 158.597 531.667 158.73C532.022 158.863 532.373 158.995 532.728 159.128C533.082 159.239 533.437 159.349 533.791 159.46C534.167 159.548 534.531 159.626 534.885 159.692C535.684 159.847 536.491 159.991 537.308 160.124C538.106 160.235 538.914 160.323 539.731 160.389C540.529 160.478 541.337 160.533 542.154 160.555C542.973 160.6 543.79 160.622 544.61 160.622H559.544C562.697 160.622 565.321 157.9 565.586 154.515C565.586 154.271 565.586 154.039 565.586 153.818V149.869L544.379 149.835C544.157 149.835 543.935 149.835 543.713 149.835C543.47 149.813 543.239 149.802 543.017 149.802C542.795 149.78 542.564 149.758 542.32 149.736C542.098 149.736 541.879 149.714 541.657 149.67L540.76 149.537C535.748 148.806 531.966 143.463 530.736 136.228H566.217L566.248 132.246Z" fill="black"/>
<path d="M242.964 105.822V128.622L264.537 101.407C264.802 101.053 265.101 100.733 265.433 100.445C265.765 100.157 266.13 99.9139 266.528 99.7148C266.926 99.5378 267.336 99.394 267.756 99.2834C268.198 99.1727 268.641 99.1174 269.083 99.1174H281.264L257.501 129.153L281.529 160.583H268.453C267.988 160.583 267.535 160.527 267.092 160.416C266.65 160.306 266.218 160.14 265.798 159.919C265.4 159.698 265.023 159.443 264.67 159.155C264.338 158.846 264.039 158.503 263.773 158.127L242.964 129.983V160.583H236.592C233.24 160.583 230.519 157.563 230.519 153.845V99.0842H236.891C240.209 99.0842 242.931 102.104 242.931 105.822H242.964Z" fill="black"/>
<path d="M174.812 109.794H196.484C196.484 109.794 201.396 109.628 204.151 110.923C206.341 111.951 207.569 114.175 207.569 117.826C207.569 120.713 206.872 122.638 205.445 123.733C205.821 124.065 206.186 124.408 206.54 124.762C206.894 125.116 207.237 125.481 207.569 125.857C207.901 126.234 208.222 126.621 208.532 127.019C208.841 127.439 209.129 127.86 209.394 128.28C210.025 129.176 210.921 130.736 212.116 132.894C212.138 132.938 212.16 132.971 212.182 132.993C212.204 133.037 212.226 133.07 212.249 133.093C212.271 133.115 212.293 133.148 212.315 133.192C212.337 133.214 212.359 133.247 212.381 133.292C212.89 133.026 213.377 132.727 213.842 132.396C214.306 132.064 214.749 131.71 215.169 131.334C215.59 130.957 215.988 130.548 216.364 130.106C216.718 129.663 217.05 129.209 217.36 128.745C217.869 127.904 218.311 127.041 218.687 126.156C219.063 125.249 219.373 124.331 219.616 123.401C219.86 122.472 220.026 121.521 220.114 120.547C220.225 119.574 220.258 118.611 220.214 117.66C220.214 117.262 219.849 111.62 218.754 109.064C218.577 108.577 218.366 108.102 218.123 107.637C217.902 107.172 217.647 106.719 217.36 106.276C217.072 105.856 216.773 105.435 216.464 105.015C216.132 104.617 215.789 104.23 215.435 103.853C215.037 103.433 214.616 103.046 214.173 102.692C213.731 102.338 213.266 102.006 212.78 101.696C212.293 101.409 211.784 101.154 211.253 100.933C210.744 100.689 210.213 100.49 209.66 100.335C208.819 100.092 207.978 99.8929 207.138 99.7381C206.297 99.561 205.456 99.4172 204.615 99.3066C203.752 99.196 202.889 99.1185 202.027 99.0743C201.186 99.03 200.334 99.019 199.471 99.0411H168.705V103.356C168.672 104.185 168.772 104.982 169.07 105.778C169.369 106.542 169.801 107.239 170.365 107.869C170.929 108.467 171.626 108.931 172.389 109.263C173.119 109.595 173.949 109.794 174.779 109.794H174.812Z" fill="black"/>
<path d="M205.751 131.178C202.698 126.532 199.611 125.503 197.72 125.37C195.795 125.237 181.225 125.37 181.225 125.37V121.221C181.225 117.504 178.504 114.484 175.151 114.484H168.779V153.846C168.779 157.563 171.501 160.583 174.853 160.583H181.225V136.156H195.927L208.108 158.924C208.218 159.167 208.362 159.388 208.539 159.587C208.716 159.786 208.926 159.964 209.17 160.118C209.391 160.251 209.634 160.362 209.9 160.45C210.165 160.517 210.431 160.561 210.696 160.583H223.009L208.473 135.725C208.406 135.625 206.315 131.975 205.751 131.178Z" fill="black"/>
<path d="M519.699 114.616C520.032 113.621 520.429 112.658 520.895 111.729C521.36 110.778 521.878 109.87 522.455 109.008C523.053 108.145 523.694 107.326 524.378 106.552C525.087 105.777 525.839 105.047 526.637 104.361C527.278 103.83 527.941 103.332 528.629 102.868C529.313 102.425 530.031 102.016 530.783 101.64C531.514 101.264 532.278 100.943 533.073 100.677C533.85 100.412 534.645 100.191 535.465 100.014C536.26 99.8586 537.056 99.7148 537.854 99.5821C538.671 99.4714 539.478 99.3829 540.277 99.3165C541.094 99.228 541.901 99.1727 542.699 99.1506C543.516 99.1064 544.336 99.0842 545.156 99.0842H560.155C563.508 99.0842 566.23 102.104 566.23 105.822V109.837H545.751C545.751 109.837 541.405 109.837 539.149 110.036C539.149 110.036 532.411 110.567 527.466 113.256C522.686 115.878 520.263 118.035 517.674 121.686C517.674 121.719 518.938 116.973 519.699 114.616Z" fill="black"/>
<path d="M493.02 160.549C484.057 160.549 477.288 158.16 472.806 153.58C469.255 149.962 466.965 144.752 465.837 137.915C465.939 138.081 466.136 138.446 466.235 138.578C470.217 144.32 477.818 148.867 489.038 149.663C490.73 149.829 497.169 149.829 498.494 149.863H507.655C511.006 149.863 513.727 152.883 513.727 156.6V160.549H493.02Z" fill="black"/>
<path d="M125.514 125.901L114.695 156.401C114.496 156.998 114.197 157.529 113.832 158.06C113.467 158.558 113.035 158.989 112.538 159.388C112.04 159.753 111.476 160.052 110.878 160.251C110.314 160.45 109.683 160.583 109.053 160.583H100.756L123.39 99.0842H138.325C136.5 100.81 134.01 103.2 129.331 115.214C128.236 118.234 127.373 120.491 125.514 125.901Z" fill="black"/>
<path d="M159.618 151.047L140.169 103.654C139.461 104.738 138.787 105.844 138.145 106.972C137.525 108.079 136.928 109.207 136.353 110.358C135.778 111.53 135.247 112.703 134.76 113.876C134.273 115.07 133.808 116.276 133.366 117.493L140.004 134.884H131.275C130.611 134.884 129.914 135.05 129.284 135.282C128.653 135.514 128.056 135.846 127.558 136.311C127.027 136.742 126.562 137.24 126.23 137.838C125.865 138.402 125.6 139.033 125.467 139.696L123.343 145.903H144.152L149.661 160.572H154.109C158.523 160.572 161.476 155.494 159.618 151.047Z" fill="black"/>
<path d="M303.55 114.602V160.568H310.387C313.739 160.568 316.427 157.547 316.427 153.83V114.502H303.55V114.602Z" fill="black"/>
<path d="M290.555 99.1384C287.203 99.1384 284.481 102.159 284.481 105.876V109.825H329.651C332.97 109.825 335.691 106.838 335.691 103.121V99.1384H290.555Z" fill="black"/>
<path d="M56.4125 109.837C56.4125 109.837 70.2853 109.837 70.9159 109.837C71.5465 109.837 74.0024 110.003 75.2967 110.136C91.1277 111.961 96.4709 119.031 98.7611 122.449C97.6989 115.28 95.1104 109.738 91.4929 106.021C87.0013 101.463 80.2198 99.1506 71.1482 99.0842H44V109.804L56.4125 109.837Z" fill="#F57D27"/>
<path d="M427.322 125.901L416.469 156.401C416.272 156.998 416.007 157.529 415.64 158.06C415.276 158.558 414.811 158.989 414.311 159.388C413.815 159.753 413.285 160.052 412.687 160.251C412.089 160.45 411.46 160.583 410.862 160.583H402.564L425.164 99.0842H440.132C438.307 100.81 435.82 103.2 431.107 115.214C430.044 118.234 429.014 120.79 427.322 125.901Z" fill="black"/>
<path d="M461.436 151.047L441.952 103.654C441.268 104.738 440.602 105.844 439.961 106.972C439.32 108.079 438.722 109.207 438.17 110.358C437.594 111.53 437.064 112.703 436.577 113.876C436.068 115.07 435.603 116.276 435.184 117.493L441.82 134.884H433.226C432.561 134.884 431.898 135.05 431.235 135.282C430.603 135.514 430.039 135.846 429.509 136.311C428.976 136.742 428.544 137.24 428.181 137.838C427.814 138.402 427.549 139.033 427.416 139.696L425.758 145.903H445.969L451.48 160.572H455.894C460.308 160.572 463.261 155.494 461.436 151.047Z" fill="black"/>
<path d="M349.025 109.764H370.696C370.696 109.764 375.609 109.598 378.365 110.893C380.553 111.955 381.783 114.145 381.783 117.796C381.814 120.683 381.084 122.608 379.656 123.703C380.032 124.035 380.399 124.378 380.754 124.732C381.108 125.086 381.45 125.451 381.783 125.827C382.113 126.226 382.434 126.624 382.745 127.022C383.053 127.42 383.343 127.83 383.608 128.25C384.237 129.146 385.134 130.706 386.33 132.863C386.428 132.996 386.527 133.129 386.629 133.262C387.113 132.996 387.6 132.698 388.087 132.366C388.552 132.034 388.996 131.68 389.415 131.303C389.834 130.927 390.223 130.518 390.577 130.075C390.953 129.655 391.295 129.202 391.607 128.715C392.094 127.874 392.525 127.011 392.901 126.126C393.253 125.219 393.552 124.301 393.795 123.371C394.017 122.442 394.184 121.491 394.295 120.517C394.384 119.566 394.405 118.603 394.359 117.63C394.359 117.232 393.996 111.623 392.932 109.067C392.735 108.58 392.525 108.105 392.303 107.64C392.06 107.175 391.795 106.722 391.505 106.279C391.24 105.837 390.941 105.416 390.611 105.018C390.278 104.598 389.936 104.2 389.582 103.823C389.184 103.425 388.762 103.038 388.321 102.662C387.877 102.308 387.412 101.987 386.925 101.699C386.441 101.39 385.941 101.124 385.433 100.903C384.903 100.682 384.369 100.482 383.839 100.305C383.022 100.084 382.19 99.885 381.352 99.708C380.51 99.531 379.656 99.3872 378.793 99.2766C377.955 99.1659 377.101 99.0885 376.238 99.0443C375.375 99 374.515 98.9889 373.652 99.0111H342.918V103.326C342.885 104.155 343.018 104.985 343.283 105.748C343.582 106.512 344.013 107.242 344.578 107.839C345.175 108.437 345.839 108.901 346.602 109.233C347.365 109.565 348.162 109.764 349.025 109.764Z" fill="black"/>
<path d="M379.971 131.097C376.883 126.483 373.797 125.454 371.905 125.322C370.012 125.189 355.411 125.322 355.411 125.322V121.173C355.411 117.456 352.689 114.436 349.337 114.436H342.965V153.797C342.965 157.514 345.719 160.535 349.038 160.535H355.411V136.141H370.114L382.292 158.908C382.403 159.152 382.548 159.373 382.724 159.572C382.924 159.771 383.134 159.948 383.356 160.103C383.578 160.236 383.821 160.347 384.086 160.435C384.351 160.502 384.616 160.546 384.881 160.568H397.229L382.659 135.71C382.591 135.577 380.501 131.926 379.971 131.097Z" fill="black"/>
<path d="M92.389 122.301C92.61 122.523 92.8313 122.766 93.0526 123.032C93.2517 123.275 93.4619 123.518 93.6832 123.762C93.8824 124.027 94.0704 124.282 94.2473 124.525C94.4464 124.791 94.6348 125.056 94.8117 125.322C95.4531 126.229 96.0175 127.169 96.5042 128.143C96.9687 129.116 97.3673 130.123 97.6989 131.163C98.0309 132.225 98.2744 133.287 98.4291 134.349C98.5842 135.433 98.6616 136.528 98.6616 137.634C98.6616 140.622 98.0642 143.608 96.9025 146.363C95.741 149.151 94.0482 151.673 91.9241 153.797C89.7671 155.921 87.2445 157.581 84.4568 158.742C81.7021 159.904 78.7153 160.502 75.6949 160.502L71.5133 160.568H50.0735C46.7215 160.568 44 157.548 44 153.83V114.436H56.4789V149.848H70.9491C71.458 149.848 71.9669 149.848 72.4757 149.848C72.9846 149.826 73.4935 149.804 74.0024 149.781C74.5113 149.737 75.0091 149.682 75.4958 149.616C76.0047 149.549 76.5136 149.472 77.0225 149.383C77.4651 149.273 77.8967 149.129 78.3168 148.952C78.7372 148.775 79.1466 148.565 79.5448 148.321C79.9211 148.078 80.2861 147.801 80.6403 147.492C80.9719 147.182 81.2817 146.85 81.5693 146.496C81.9013 146.098 82.1999 145.688 82.4656 145.268C82.7532 144.825 83.0075 144.383 83.2288 143.94C83.4723 143.476 83.6825 143 83.8595 142.513C84.0364 142.027 84.1803 141.54 84.291 141.053C84.4235 140.544 84.5453 140.046 84.656 139.559C84.7444 139.051 84.8329 138.542 84.9213 138.033C85.0098 137.524 85.0875 137.015 85.1538 136.506C85.22 135.997 85.2755 135.488 85.3196 134.979C85.364 134.316 85.3973 133.663 85.4191 133.021C85.4635 132.357 85.4857 131.705 85.4857 131.063C85.4857 130.4 85.4857 129.736 85.4857 129.072C85.4635 128.43 85.4413 127.778 85.4191 127.114C85.3973 126.384 85.3529 125.654 85.2866 124.923C85.22 124.193 85.1427 123.474 85.0542 122.766C84.9657 122.036 84.8551 121.306 84.7222 120.576C84.6116 119.868 84.479 119.149 84.324 118.418C84.2799 118.286 84.2244 118.142 84.1582 117.987C84.1138 117.832 84.0697 117.677 84.0253 117.522C83.959 117.39 83.9035 117.246 83.8595 117.091C83.7929 116.958 83.7266 116.814 83.6604 116.659C84.479 116.947 85.2644 117.279 86.0168 117.655C86.7911 118.009 87.5324 118.418 88.2404 118.883C88.9703 119.348 89.6676 119.846 90.3312 120.377C90.9948 120.93 91.6255 121.505 92.2228 122.102L92.389 122.301Z" fill="black"/>
<path d="M488.94 110.106L489.837 109.973C490.059 109.929 490.281 109.907 490.5 109.907C490.722 109.885 490.944 109.863 491.166 109.84C491.409 109.84 491.64 109.84 491.862 109.84C492.084 109.818 492.303 109.807 492.525 109.807L513.766 109.774V105.791C513.766 102.074 511.044 99.0542 507.693 99.0542H492.692C491.961 99.0542 491.243 99.0653 490.534 99.0874C489.803 99.1095 489.073 99.1538 488.345 99.2201C487.636 99.2865 486.918 99.364 486.188 99.4525C485.479 99.541 484.77 99.6516 484.064 99.7843H483.928C481.308 100.216 478.818 101.112 476.497 102.406C474.207 103.701 472.148 105.393 470.422 107.418C468.695 109.409 467.37 111.699 466.439 114.188C465.511 116.677 465.046 119.299 465.046 121.921C465.046 123.05 465.123 124.167 465.277 125.273C465.456 126.379 465.709 127.464 466.041 128.526C466.374 129.588 466.781 130.627 467.268 131.645C467.755 132.641 468.319 133.603 468.961 134.533C473.045 140.473 477.459 142.332 481.774 143.726C481.373 142.907 481.009 142.067 480.677 141.204C480.322 140.341 480.014 139.467 479.749 138.582C479.505 137.675 479.283 136.767 479.083 135.86C478.907 134.953 478.775 134.046 478.685 133.139C477.258 121.456 481.839 111.135 488.91 110.139" fill="black"/>
<path d="M566.247 132.273C566.247 128.555 563.525 125.535 560.205 125.535H530.701C530.812 124.717 530.957 123.898 531.132 123.079C531.333 122.261 531.555 121.453 531.798 120.657C532.042 119.838 532.316 119.041 532.627 118.267C532.936 117.493 533.281 116.729 533.657 115.977L533.256 116.11C533.037 116.176 532.815 116.243 532.594 116.309C532.372 116.375 532.15 116.453 531.931 116.541C531.709 116.608 531.499 116.685 531.299 116.774C531.077 116.862 530.858 116.962 530.636 117.072C529.641 117.471 528.688 117.946 527.782 118.499C526.851 119.053 525.979 119.672 525.159 120.358C524.317 121.044 523.544 121.785 522.835 122.582C522.107 123.378 521.454 124.23 520.877 125.137C520.236 126.044 519.672 127.007 519.185 128.024C518.698 129.02 518.288 130.06 517.958 131.144C517.626 132.206 517.37 133.29 517.194 134.397C517.04 135.503 516.963 136.609 516.963 137.716C516.963 139.906 517.293 142.096 517.925 144.187C518.553 146.278 519.484 148.27 520.711 150.062C521.907 151.887 523.402 153.547 525.06 154.94C526.752 156.334 528.645 157.463 530.636 158.325C530.991 158.481 531.333 158.635 531.666 158.79C532.017 158.923 532.372 159.045 532.726 159.155C533.081 159.288 533.435 159.399 533.789 159.487C534.166 159.598 534.529 159.686 534.884 159.753C535.679 159.908 536.487 160.04 537.306 160.151C538.102 160.262 538.909 160.361 539.729 160.45C540.524 160.516 541.332 160.571 542.152 160.616C542.972 160.638 543.789 160.649 544.609 160.649H559.543C562.696 160.649 565.319 157.927 565.584 154.542C565.584 154.498 565.584 154.443 565.584 154.376C565.584 154.31 565.584 154.255 565.584 154.21C565.584 154.144 565.584 154.077 565.584 154.011C565.584 153.967 565.584 153.912 565.584 153.845V149.929L544.374 149.863C544.155 149.863 543.933 149.863 543.712 149.863C543.468 149.84 543.237 149.829 543.015 149.829C542.793 149.807 542.562 149.785 542.318 149.763C542.096 149.763 541.874 149.741 541.653 149.696L540.759 149.564C535.747 148.834 531.962 143.49 530.735 136.255H566.213L566.247 132.273Z" fill="black"/>
</g>
<defs>
<clipPath id="clip0_3047_765">
<rect width="524" height="61.6471" fill="white" transform="translate(44 99)"/>
</clipPath>
</defs>
</svg>
