<svg width="613" height="226" viewBox="0 0 613 226" fill="none" xmlns="http://www.w3.org/2000/svg">
<g clip-path="url(#clip0_3046_678)">
<path d="M342.9 115.7V104H356.3V158.8H342.9V115.7ZM283.9 104H335.6V115.8H311.3V158.9H298V115.8H283.9V104ZM550.6 104V115.8H526.3V158.9H513V115.8H498.9V104H550.6ZM63 104H121V115.8H76.4V127.5H114.4V139.3H76.4V158.8H63V104ZM437.5 104H491.5V115.8H450.9V125.6H484.2V137.4H450.9V147.2H492.2V159H437.5V104ZM427.2 119.5V158.8H413.8V119.5C413.8 117.4 412.2 115.8 410.1 115.8H380.1V158.9H366.7V104H411.7C420.2 104 427.2 111 427.2 119.5ZM263.3 104H217.6V158.8H231V139.3H261C262.6 139.4 263.9 140.7 263.9 142.3V158.9H277.3V142.1C277.3 139.2 275.7 136.7 273.3 135.3C276.2 132.6 278 128.7 278 124.5V118.7C278.1 110.6 271.5 104 263.3 104ZM264.7 124.5C264.7 126.1 263.4 127.5 261.7 127.5H231V115.8H261.7C263.3 115.8 264.7 117.1 264.7 118.8V124.5Z" fill="black"/>
<path d="M207.2 124.4V138.6H185V124.4H207.2ZM156.9 158.8H179V144.6H156.9V158.8ZM207.2 115.9C207.2 109.3 201.9 104 195.3 104H185.1V118.2H207.2V115.9ZM156.9 104V118.2H179V104H156.9ZM128.7 124.4V138.6H150.8V124.4H128.7ZM185 158.8H195.2C201.8 158.8 207.1 153.5 207.1 146.9V144.6H185V158.8ZM128.7 146.9C128.7 153.5 134 158.8 140.6 158.8H150.8V144.6H128.7V146.9ZM128.7 115.9V118.2H150.8V104H140.6C134 104 128.7 109.3 128.7 115.9Z" fill="#DA291C"/>
</g>
<defs>
<clipPath id="clip0_3046_678">
<rect width="487.6" height="55" fill="white" transform="translate(63 104)"/>
</clipPath>
</defs>
</svg>
