<svg width="106" height="37" viewBox="0 0 106 37" fill="none" xmlns="http://www.w3.org/2000/svg">
<g clip-path="url(#clip0_34_363)">
<path fill-rule="evenodd" clip-rule="evenodd" d="M63.0975 17.0368C64.5281 15.3173 65.2902 13.1625 65.2902 10.9154C65.2902 5.73381 61.1585 1.469 56.0816 1.44589H56.0585H47.4036C44.5648 1.44589 42.2567 3.80787 42.2567 6.69678V30.8165C42.2567 33.7285 44.5648 36.0666 47.4036 36.0666H47.9574C48.2574 36.0666 48.4881 35.8147 48.4881 35.5166V6.90324C48.4881 6.76534 48.6035 6.65056 48.7419 6.65056H55.9193C58.2274 6.65056 60.1202 8.53027 60.1656 10.846C60.1895 11.9931 59.7503 13.0932 58.9658 13.8959C58.1813 14.721 57.1199 15.1794 55.9893 15.1794H53.4035C53.0351 15.1794 52.7121 15.409 52.5506 15.7526L51.1654 19.0089C51.0962 19.1692 51.0962 19.3756 51.2115 19.5359C51.3038 19.6961 51.4884 19.7878 51.6499 19.7878H55.9893C58.9889 19.7878 61.4585 22.2414 61.5047 25.2451C61.5277 26.7358 60.974 28.1572 59.9357 29.2118C58.8966 30.2664 57.5352 30.8619 56.0816 30.8619H52.1576C51.7653 30.8619 51.4192 31.1146 51.2808 31.4813L49.8041 35.3563C49.7341 35.5166 49.7579 35.723 49.8733 35.8609C49.9656 36.0219 50.1271 36.0897 50.3117 36.0897H55.9662C61.8969 36.0897 66.7431 31.2071 66.7431 25.222C66.7208 22.0589 65.4048 19.1006 63.0975 17.0368Z" fill="white"/>
<path fill-rule="evenodd" clip-rule="evenodd" d="M84.8604 3.624C84.3297 2.27122 83.1291 1.42303 81.6985 1.42303C80.2672 1.42303 79.0674 2.27122 78.5367 3.624L66.3054 35.3335C66.2354 35.4945 66.2585 35.6771 66.3515 35.8381C66.4438 35.976 66.6053 36.0669 66.7899 36.0669H69.4211C71.1055 36.0669 72.5822 35.0353 73.2059 33.453L81.5831 11.763C81.6062 11.6721 81.6754 11.6721 81.6985 11.6721C81.7216 11.6721 81.7908 11.6721 81.8139 11.7407L85.1603 20.3843C85.1834 20.4305 85.1603 20.476 85.1372 20.4991C85.1142 20.5445 85.068 20.5445 85.0449 20.5445H80.6371C80.2672 20.5445 79.9211 20.7741 79.7826 21.1408L78.3982 24.6946C78.329 24.8556 78.3521 25.0382 78.4444 25.1992C78.5367 25.3371 78.6982 25.4287 78.8835 25.4287H86.937C87.0531 25.4287 87.1454 25.4973 87.1685 25.589L90.2149 33.4306C90.8372 35.013 92.3146 36.0438 93.9767 36.0438H96.4694C96.7001 36.0438 96.8847 35.9297 97.0224 35.7464C97.1385 35.5623 97.1609 35.3335 97.0916 35.127L84.8604 3.624Z" fill="white"/>
<mask id="mask0_34_363" style="mask-type:luminance" maskUnits="userSpaceOnUse" x="98" y="1" width="7" height="36">
<path d="M98.2457 1.4231H104.454V36.0669H98.2457V1.4231Z" fill="white"/>
</mask>
<g mask="url(#mask0_34_363)">
<path fill-rule="evenodd" clip-rule="evenodd" d="M99.3309 1.4231H98.7764C98.4772 1.4231 98.2457 1.67501 98.2457 1.97314V30.8399C98.2457 33.7288 100.554 36.0669 103.37 36.0669H103.923C104.223 36.0669 104.454 35.815 104.454 35.5169V6.67321C104.454 3.7843 102.146 1.4231 99.3309 1.4231Z" fill="white"/>
</g>
<path fill-rule="evenodd" clip-rule="evenodd" d="M4.8277 1.57538H36.2077V32.1508C36.2077 34.3726 34.4065 36.1738 32.1846 36.1738H0.804626V5.59846C0.804626 3.37657 2.60582 1.57538 4.8277 1.57538Z" fill="url(#paint0_radial_34_363)"/>
<path fill-rule="evenodd" clip-rule="evenodd" d="M1.80023 18.7566C1.80023 27.8131 9.1853 35.1494 18.3017 35.1494C27.418 35.1494 34.8031 27.8131 34.8031 18.7566C34.8031 9.70006 27.418 2.36294 18.3017 2.36294C9.20837 2.33988 1.80023 9.70006 1.80023 18.7566Z" fill="#002D74"/>
<path fill-rule="evenodd" clip-rule="evenodd" d="M30.6947 28.0425C30.7408 27.8129 30.8793 27.6296 31.0638 27.4917C31.11 27.4462 31.1792 27.4231 31.2484 27.4231C31.3869 27.4 31.4799 27.4917 31.4799 27.6296C31.4799 27.6527 31.4799 27.675 31.4561 27.7212C31.4099 27.9508 31.2715 28.1341 31.0869 28.272C31.0408 28.3175 30.9715 28.3406 30.9023 28.363C30.787 28.3861 30.6947 28.3175 30.6716 28.2027C30.6716 28.1341 30.6716 28.0887 30.6947 28.0425ZM30.5562 26.9185C30.5793 26.6666 30.6947 26.437 30.9485 26.2999C30.9946 26.2544 31.0638 26.2544 31.1331 26.2306C31.2715 26.2082 31.3869 26.2999 31.4099 26.4601V26.5749C31.3638 26.8276 31.2484 27.0102 31.0638 27.1712C31.0408 27.1935 30.9946 27.2174 30.9715 27.2174C30.7408 27.3314 30.5562 27.1935 30.5562 26.9185ZM30.3716 25.8184C30.3486 25.7729 30.3486 25.7267 30.3486 25.6574C30.3486 25.3831 30.487 25.1536 30.7177 24.9926C30.8331 24.924 30.9485 24.9017 31.0869 24.9702C31.2023 25.0388 31.2484 25.1536 31.2484 25.3138C31.2254 25.5657 31.11 25.7953 30.9023 25.9555C30.8562 26.0017 30.787 26.0249 30.7408 26.0249C30.5793 26.0472 30.4409 25.9786 30.3716 25.8184ZM30.3947 29.4407C30.3255 29.7165 30.1409 29.8991 29.8871 30.037C29.8409 30.0601 29.7948 30.0601 29.7717 30.0601C29.6102 30.0601 29.541 29.9908 29.5871 29.8536C29.6564 29.5555 29.8409 29.3259 30.164 29.235C30.3255 29.1657 30.4409 29.2805 30.3947 29.4407ZM29.4718 28.8907C29.4487 28.5925 29.7948 28.1804 30.0948 28.1565C30.2563 28.1342 30.3716 28.2258 30.3716 28.4092C30.3716 28.4323 30.3716 28.4546 30.3486 28.5009C30.2793 28.7304 30.1409 28.9138 29.9332 29.0517C29.864 29.0971 29.7948 29.0971 29.7256 29.1195C29.5871 29.0971 29.4948 29.0054 29.4718 28.8907ZM29.3103 27.561C29.3564 27.3314 29.4718 27.1712 29.6564 27.0564C29.7256 27.0102 29.8179 26.9878 29.8871 26.9647C30.0948 26.9416 30.2332 27.0564 30.2101 27.3091C30.164 27.561 30.0255 27.7906 29.7717 27.9508C29.6564 28.0194 29.5179 28.0425 29.3795 27.9508C29.2864 27.836 29.2864 27.6989 29.3103 27.561ZM29.0326 26.323C29.0564 26.0703 29.1949 25.8415 29.4487 25.6813C29.4948 25.6574 29.5641 25.635 29.6333 25.6119C29.864 25.5888 30.0255 25.7267 30.0486 25.9555C30.0486 26.0703 30.0255 26.1851 29.9794 26.2768C29.9102 26.4147 29.8409 26.5287 29.7256 26.598C29.6564 26.6442 29.5871 26.6897 29.4948 26.6897C29.241 26.7814 29.0326 26.6204 29.0326 26.323ZM28.7557 24.9017C28.7557 24.6259 28.8949 24.4202 29.1249 24.2823C29.4256 24.1213 29.7487 24.2823 29.7487 24.6259C29.7487 24.8785 29.6564 25.1073 29.4256 25.2676C29.2864 25.3831 29.1249 25.4055 28.9642 25.3138C28.8026 25.2452 28.7557 25.0842 28.7557 24.9017ZM28.4335 23.7091C28.3635 23.5943 28.3404 23.4572 28.3404 23.3193C28.3635 23.1128 28.4558 22.9526 28.595 22.8147C28.7557 22.6768 28.9411 22.6082 29.1249 22.6999C29.3326 22.7924 29.4256 22.9526 29.4256 23.1583C29.4256 23.4341 29.3103 23.6398 29.1026 23.8008C28.8711 24.0072 28.595 23.961 28.4335 23.7091ZM27.9251 22.0351C27.902 21.9665 27.902 21.8972 27.902 21.8748C27.902 21.6684 27.9481 21.485 28.0635 21.3479C28.1789 21.1638 28.3635 21.0721 28.595 21.1183C28.8249 21.1638 28.9411 21.3017 29.0103 21.5081C29.0788 21.7832 28.9411 22.1499 28.7096 22.3109C28.4335 22.4942 28.0174 22.3563 27.9251 22.0351ZM27.602 20.6137C27.279 20.3156 27.3944 19.6962 27.8097 19.536C27.9943 19.4674 28.1789 19.4898 28.3173 19.6277C28.4796 19.7424 28.525 19.9258 28.5481 20.1091C28.5481 20.3156 28.4796 20.4989 28.3173 20.6368C28.0866 20.8202 27.8097 20.8202 27.602 20.6137ZM26.8868 18.6878C26.8175 18.4359 26.8637 18.1832 27.0252 17.9775C27.1636 17.7934 27.3482 17.7479 27.579 17.8165C27.8559 17.8851 28.0404 18.1377 28.0404 18.4813C28.0404 18.6416 27.9943 18.8026 27.8559 18.9405C27.6943 19.1462 27.4175 19.1924 27.1867 19.0545C27.0252 18.9859 26.9329 18.8711 26.8868 18.6878ZM26.9329 21.1869C26.7714 21.4157 26.5407 21.5081 26.2869 21.4157C26.0323 21.3479 25.8485 21.1183 25.8485 20.8664C25.8246 20.6137 25.9177 20.3849 26.1253 20.2239C26.4484 19.9489 26.956 20.1554 27.0714 20.5683C27.0944 20.6137 27.0944 20.6592 27.0944 20.7285C27.0714 20.8888 27.0252 21.0498 26.9329 21.1869ZM25.3408 19.4443C25.1793 19.1462 25.2716 18.7109 25.5485 18.5268C25.7562 18.3897 25.9638 18.3897 26.1715 18.5044C26.3791 18.6192 26.5176 18.8257 26.5176 19.0776C26.5176 19.2155 26.4945 19.3295 26.4253 19.4443C26.3099 19.6508 26.1484 19.7879 25.8946 19.7656C25.6631 19.7656 25.4793 19.6508 25.3408 19.4443ZM24.6709 17.335C24.6709 17.2202 24.7179 17.1054 24.7863 16.9914C24.9255 16.7619 25.1332 16.6702 25.387 16.7156C25.7331 16.785 25.9638 17.0369 25.9638 17.4267C25.9638 17.5415 25.9177 17.6563 25.8485 17.771C25.6869 18.023 25.4093 18.1377 25.1332 18.023C24.8325 17.9313 24.6479 17.6563 24.6709 17.335ZM24.2095 20.3849C24.048 20.3611 23.9095 20.3156 23.8172 20.2008C23.6557 19.9951 23.5865 19.7656 23.6788 19.5136C23.748 19.261 23.9326 19.1231 24.1864 19.0776C24.4402 19.0083 24.6709 19.1231 24.8325 19.3295C24.9017 19.4443 24.9478 19.5822 24.9478 19.6739C24.9255 20.1091 24.5786 20.4073 24.2095 20.3849ZM22.9866 17.9313C23.0558 17.6331 23.1712 17.4036 23.4711 17.3119C23.7249 17.2433 24.048 17.3812 24.2095 17.61C24.2787 17.7017 24.3248 17.8165 24.3248 17.9544C24.3248 18.1601 24.2556 18.3665 24.1172 18.5268C24.0018 18.6647 23.8172 18.7109 23.6788 18.7109C23.2635 18.6878 22.9404 18.3211 22.9866 17.9313ZM22.5482 21.0721C22.179 21.0721 21.879 20.7509 21.879 20.3387C21.879 19.9712 22.2251 19.6508 22.6174 19.6508C22.9866 19.6508 23.2865 19.9712 23.2865 20.3611C23.2635 20.774 22.9635 21.0721 22.5482 21.0721ZM21.3014 18.6192C21.3014 18.2525 21.6014 17.9544 21.9936 17.9544C22.3628 17.9544 22.6405 18.2525 22.6405 18.6416C22.6405 19.0314 22.3405 19.3064 21.9475 19.3064C21.5783 19.3064 21.3014 18.9859 21.3014 18.6192ZM20.8861 21.6915C20.4708 21.6915 20.1478 21.4157 20.1478 21.0498C20.1478 20.6137 20.4477 20.2694 20.8169 20.2694C21.2322 20.2694 21.5552 20.5683 21.5552 20.9119C21.5552 21.3479 21.2561 21.6915 20.8861 21.6915ZM19.5017 19.3064C19.5017 18.8711 19.8247 18.5499 20.217 18.5499C20.6092 18.5499 20.9323 18.8711 20.9092 19.261C20.9092 19.6508 20.5862 19.9712 20.217 19.9712C19.8478 19.9712 19.5017 19.6508 19.5017 19.3064ZM19.1325 22.3332C18.7172 22.3332 18.3934 22.0127 18.3934 21.6684C18.3934 21.2555 18.7172 20.9119 19.0864 20.9119C19.5017 20.9119 19.8247 21.2323 19.8247 21.5998C19.8017 22.0127 19.5017 22.3563 19.1325 22.3332ZM17.7473 19.9489C17.7473 19.536 18.0481 19.1924 18.4634 19.1924C18.8787 19.1924 19.1787 19.4898 19.1787 19.9035C19.1787 20.2694 18.8549 20.6137 18.5095 20.6137C18.0934 20.6137 17.7473 20.2925 17.7473 19.9489ZM17.4012 22.9757C16.9859 22.9757 16.6629 22.6545 16.6629 22.3109C16.6629 21.9211 16.9628 21.5767 17.332 21.5767C17.7473 21.5767 18.0934 21.8972 18.0934 22.2647C18.0704 22.6314 17.7473 22.9757 17.4012 22.9757ZM15.9938 20.5452C15.9938 20.1554 16.2937 19.811 16.6629 19.811C17.0782 19.811 17.4243 20.1323 17.4243 20.4766C17.4243 20.8888 17.1244 21.21 16.7321 21.2323C16.3399 21.2323 15.9938 20.9342 15.9938 20.5452ZM14.9777 21.8294C14.6086 21.8294 14.2863 21.5081 14.3086 21.1407C14.3086 20.774 14.6086 20.4989 14.9777 20.4989C15.3246 20.4989 15.6477 20.8202 15.6477 21.1869C15.6477 21.5313 15.3708 21.8294 14.9777 21.8294ZM13.6395 19.4443C13.6395 19.0545 13.9625 18.7109 14.3086 18.7109C14.7016 18.7109 15.0477 19.0314 15.0477 19.3757C15.0477 19.7879 14.7239 20.1091 14.3548 20.1091C13.9625 20.1091 13.6395 19.811 13.6395 19.4443ZM13.0857 17.4498C13.1319 17.3581 13.178 17.2665 13.2472 17.1748C13.3626 17.0369 13.5241 16.9914 13.7318 16.9914C13.9394 16.9914 14.124 17.0823 14.2863 17.2664C14.3778 17.3812 14.424 17.5184 14.424 17.6563C14.4009 17.8851 14.3086 18.0684 14.1471 18.2294C14.0317 18.3442 13.8933 18.3897 13.7549 18.3897C13.2472 18.3897 12.9242 17.9082 13.0857 17.4498ZM14.8632 14.6749C15.2093 14.6749 15.5092 14.9738 15.5092 15.3405C15.5092 15.7072 15.1854 16.0053 14.8162 16.0053C14.4701 16.0053 14.1702 15.7072 14.1702 15.3636C14.1702 14.9738 14.494 14.6749 14.8632 14.6749ZM15.3246 12.8869C15.3931 12.6118 15.5784 12.4516 15.8553 12.4054H15.9476C16.2476 12.4054 16.5014 12.5664 16.5937 12.8183C16.686 13.0479 16.6167 13.3229 16.4091 13.5062C16.1553 13.7119 15.763 13.7119 15.5092 13.5062C15.3246 13.3229 15.2554 13.1164 15.3246 12.8869ZM16.9859 12.3599C17.0321 12.0387 17.2859 11.786 17.6089 11.7637H17.7943C18.1634 11.8091 18.3934 12.1072 18.3711 12.4516C18.3473 12.7721 18.0481 13.0479 17.6781 13.0702C17.6089 13.0479 17.5397 13.0479 17.4705 13.0248C17.1705 12.9331 16.9628 12.6581 16.9859 12.3599ZM19.0625 11.2591C19.3633 11.1219 19.7324 11.1905 19.9401 11.4424C20.1016 11.6258 20.1016 11.8322 20.0324 12.0618C19.9401 12.2906 19.7786 12.4054 19.5248 12.4516H19.4786H19.4094C19.2248 12.4516 19.0864 12.3823 18.9249 12.2906C18.5326 11.9701 18.7172 11.397 19.0625 11.2591ZM20.4477 11.0303C20.54 10.8007 20.7246 10.6404 20.9784 10.6404C21.2091 10.6404 21.4399 10.7321 21.6014 10.8924C21.7175 11.0071 21.7398 11.1443 21.7637 11.2591C21.7637 11.6258 21.4637 11.9239 21.1168 11.9008C20.9092 11.9008 20.7246 11.8091 20.5631 11.6489C20.3785 11.4655 20.3554 11.2591 20.4477 11.0303ZM22.5482 10.159C22.8481 10.1127 23.1942 10.2737 23.3096 10.5488C23.5403 11.0303 23.1481 11.397 22.802 11.3738C22.5251 11.3738 22.2944 11.2591 22.1552 11.0303C21.9013 10.6628 22.179 10.2044 22.5482 10.159ZM24.048 12.3823C24.071 12.7266 23.748 13.0479 23.3557 12.9785C22.9635 12.91 22.6866 12.5433 22.7558 12.1766C22.8251 11.8553 23.0558 11.672 23.3788 11.6951C23.6788 11.7182 24.071 12.0387 24.048 12.3823ZM24.4633 11.4193C24.6017 11.2367 24.7863 11.1905 24.994 11.2367C25.317 11.3045 25.5485 11.5341 25.5947 11.8322C25.617 11.947 25.5946 12.0618 25.5485 12.1766C25.4554 12.3599 25.2947 12.4747 25.1093 12.4747C24.7402 12.4747 24.5094 12.3137 24.3941 12.0156C24.2787 11.8091 24.3248 11.6034 24.4633 11.4193ZM24.2787 15.134C24.371 15.0424 24.4864 15.0193 24.6248 15.0193C24.9255 15.0193 25.1555 15.1564 25.2716 15.4322C25.387 15.7072 25.3408 15.9591 25.1332 16.1887C25.0632 16.2573 24.994 16.3266 24.8786 16.3489C24.5786 16.4183 24.2325 16.2573 24.0941 15.9822C23.9557 15.6841 24.0249 15.3405 24.2787 15.134ZM23.4019 14.1256C23.3327 13.8729 23.4019 13.6665 23.5865 13.4831C23.6788 13.3915 23.7941 13.3452 23.9326 13.3452C24.3479 13.3229 24.7179 13.6896 24.694 14.0563C24.694 14.4923 24.3018 14.7673 23.8864 14.6526C23.6557 14.5609 23.4711 14.3775 23.4019 14.1256ZM22.9866 15.5924C23.3788 15.5924 23.7019 15.8906 23.7019 16.2573C23.7019 16.6471 23.448 16.9452 23.1019 16.9683C22.6866 16.9683 22.3628 16.6702 22.3628 16.2804C22.3628 15.9137 22.6405 15.5701 22.9866 15.5924ZM21.9936 15.0886C21.786 14.9507 21.6937 14.7673 21.6937 14.5147C21.6937 14.1256 21.9713 13.8729 22.3628 13.8729C22.6635 13.8729 22.9635 14.1025 23.0327 14.4007C23.1019 14.6749 22.9635 15.0193 22.7328 15.1795C22.6174 15.2488 22.502 15.2712 22.3867 15.2488C22.2482 15.2257 22.109 15.1795 21.9936 15.0886ZM21.3476 16.2118C21.7175 16.2118 22.0175 16.5331 22.0175 16.8998C22.0175 17.2665 21.7175 17.5415 21.3476 17.5415C20.9553 17.5415 20.6554 17.2433 20.6554 16.8535C20.6554 16.4868 20.9553 16.2118 21.3476 16.2118ZM21.0938 12.8637C21.0707 12.5202 21.3476 12.2451 21.7398 12.2451C22.109 12.2451 22.4328 12.5664 22.4097 12.9331C22.4097 13.2304 22.179 13.46 21.8552 13.5062C21.4637 13.5748 21.0938 13.2536 21.0938 12.8637ZM19.9862 15.134C19.9862 14.7673 20.2862 14.4461 20.6554 14.4461C21.0476 14.4461 21.3937 14.7442 21.3937 15.1109C21.3937 15.5007 21.0938 15.822 20.7015 15.822C20.3093 15.8451 19.9862 15.5239 19.9862 15.134ZM19.5709 16.8304C19.9632 16.8304 20.2631 17.1286 20.2631 17.5184C20.2631 17.8851 19.9632 18.1832 19.5709 18.1832C19.2017 18.1832 18.901 17.8851 18.901 17.496C18.901 17.1286 19.2017 16.8304 19.5709 16.8304ZM19.3633 13.4377C19.3633 13.0933 19.6632 12.8183 20.0324 12.8183C20.4016 12.8183 20.7015 13.1395 20.7015 13.5062C20.7015 13.8498 20.4016 14.1256 20.0324 14.1256C19.6632 14.1025 19.3633 13.7813 19.3633 13.4377ZM18.2557 15.7758C18.2557 15.4091 18.5549 15.0886 18.9249 15.0886C19.3171 15.0886 19.6171 15.386 19.6171 15.7527C19.6171 16.1194 19.3171 16.4183 18.9479 16.4183C18.5788 16.4406 18.278 16.1425 18.2557 15.7758ZM17.8396 17.4729C18.2096 17.4729 18.5095 17.771 18.5095 18.1601C18.5095 18.5499 18.2096 18.848 17.8166 18.848C17.4474 18.848 17.1474 18.5499 17.1474 18.1377C17.1244 17.771 17.4474 17.4729 17.8396 17.4729ZM17.632 14.0563C17.632 13.6896 17.9319 13.4146 18.3242 13.4146C18.6934 13.4146 18.9941 13.7119 18.971 14.0794C18.971 14.4461 18.6711 14.7211 18.3019 14.7211C17.9319 14.7211 17.632 14.4007 17.632 14.0563ZM16.4783 16.4406C16.4783 16.0285 16.8013 15.7072 17.2167 15.7072C17.6089 15.7072 17.9089 16.0285 17.9089 16.4183C17.9089 16.785 17.5628 17.1054 17.2167 17.1054C16.8013 17.1054 16.4783 16.8081 16.4783 16.4406ZM16.086 18.0684C16.4552 18.0684 16.8013 18.3897 16.8013 18.7564C16.8013 19.1462 16.4783 19.4898 16.1322 19.4898C15.7169 19.4898 15.3708 19.1693 15.3708 18.8026C15.3708 18.3897 15.6707 18.0684 16.086 18.0684ZM15.9015 14.6749C15.9015 14.3082 16.2245 14.0332 16.5937 14.0332C16.9628 14.0332 17.2397 14.3313 17.2397 14.698C17.2397 15.0655 16.9167 15.3636 16.5475 15.3636C16.1783 15.3405 15.9015 15.0424 15.9015 14.6749ZM16.1553 16.9914C16.1553 17.4036 15.8322 17.7479 15.4861 17.7479C15.0477 17.7479 14.7478 17.4498 14.7478 17.06C14.7478 16.6702 15.0708 16.3489 15.44 16.3489C15.8322 16.3489 16.1553 16.6471 16.1553 16.9914ZM26.2407 13.5517C26.2407 13.6896 26.1946 13.8267 26.1023 13.9415C25.9408 14.1256 25.71 14.1711 25.4554 14.0794C25.0863 13.9415 24.9017 13.5294 25.0632 13.1627C25.1555 12.9331 25.3631 12.8183 25.5947 12.8414C25.9638 12.8637 26.2407 13.1627 26.2407 13.5517ZM26.4945 10.8461C26.7945 10.9378 26.9791 11.1674 27.0252 11.4424C27.0714 11.786 26.8175 12.0156 26.4714 11.9701C26.1484 11.9239 25.8715 11.6258 25.8715 11.3045C25.8946 10.984 26.1715 10.7552 26.4945 10.8461ZM27.279 12.4516C27.5328 12.5887 27.6482 12.7952 27.6713 13.0248C27.6713 13.46 27.3252 13.6896 26.956 13.5294C26.7022 13.4146 26.5407 13.1395 26.5407 12.8869C26.5637 12.497 26.9329 12.2675 27.279 12.4516ZM27.8097 10.4563C28.1327 10.5257 28.3873 10.823 28.3873 11.1443C28.3873 11.4655 28.1558 11.6489 27.8559 11.5803C27.5328 11.5117 27.279 11.1905 27.3021 10.8692C27.3021 10.5711 27.5328 10.3878 27.8097 10.4563ZM29.0326 12.6581C29.0326 12.7266 29.0326 12.7952 29.0103 12.8637C28.9642 13.0702 28.7788 13.185 28.5711 13.1627C28.1558 13.1164 27.8559 12.6812 27.9712 12.2906C28.0404 12.0618 28.202 11.947 28.4558 11.9701C28.7096 11.9932 29.0788 12.3368 29.0326 12.6581ZM29.4487 13.7119C29.6333 13.8961 29.7025 14.1256 29.6333 14.3775C29.5641 14.7211 29.2641 14.859 28.9411 14.6749C28.7096 14.5378 28.5711 14.3313 28.5711 13.9877C28.5711 13.8729 28.6173 13.7582 28.7096 13.6441C28.8026 13.5294 28.9411 13.4831 29.0787 13.5062C29.241 13.5517 29.3564 13.5979 29.4487 13.7119ZM30.2101 15.7989C30.2101 15.9591 30.164 16.1194 30.0486 16.2341C29.9332 16.3489 29.7948 16.3952 29.6333 16.3489C29.4256 16.2804 29.2864 16.1425 29.1949 15.9368C29.1249 15.7527 29.1249 15.547 29.218 15.3636C29.3326 15.1109 29.5871 15.0193 29.8409 15.1564C30.0948 15.2943 30.2101 15.5239 30.2101 15.7989ZM30.2332 16.7156C30.4178 16.7387 30.5793 16.8535 30.6485 17.0145C30.7639 17.2433 30.7639 17.496 30.6254 17.7248C30.4639 17.9998 30.164 18.0453 29.9332 17.8165C29.7948 17.6786 29.7025 17.496 29.7025 17.335C29.7025 17.1286 29.7487 16.9683 29.8871 16.8304C30.0025 16.7156 30.1178 16.6933 30.2332 16.7156ZM30.5101 14.9276C30.6024 14.6526 30.8562 14.584 31.0869 14.7442C31.2946 14.9045 31.3869 15.1109 31.4099 15.3636C31.3869 15.4553 31.3638 15.547 31.3407 15.6379C31.2254 15.8674 30.9946 15.9368 30.787 15.7989C30.6716 15.7303 30.6024 15.6155 30.5332 15.5007C30.4409 15.2943 30.4178 15.1109 30.5101 14.9276ZM31.6876 16.3489C31.8253 16.4868 31.8953 16.6471 31.8714 16.8304C31.8714 17.0145 31.8483 17.1517 31.756 17.2664C31.6176 17.4498 31.433 17.4729 31.2484 17.3581C31.1792 17.3119 31.11 17.2433 31.0638 17.1748C30.9254 16.9221 30.9023 16.6702 31.0408 16.4183C31.1792 16.1656 31.4799 16.1194 31.6876 16.3489ZM32.1029 17.8851C32.2414 17.9998 32.3106 18.1832 32.3106 18.3897C32.3106 18.5268 32.2644 18.6647 32.1952 18.7795C32.0568 18.9859 31.8253 18.9859 31.6638 18.8026C31.433 18.5499 31.4561 18.1146 31.6876 17.8851C31.7791 17.7479 31.9637 17.7479 32.1029 17.8851ZM32.5867 19.4898C32.6567 19.6053 32.6798 19.7193 32.6798 19.8796C32.6798 20.0175 32.6336 20.1777 32.5182 20.3387C32.379 20.5221 32.1714 20.5221 32.0329 20.3611C31.9876 20.3156 31.9414 20.247 31.9176 20.1554C31.8483 19.9034 31.8714 19.6508 32.0329 19.4443C32.1714 19.2155 32.449 19.2378 32.5867 19.4898ZM32.6567 17.4267C32.7721 17.2433 32.9566 17.2433 33.0951 17.4036C33.2797 17.6331 33.3027 18.023 33.1412 18.2525C33.0259 18.4128 32.8643 18.4359 32.7259 18.298C32.5867 18.1601 32.5644 17.9775 32.5406 17.8165C32.5644 17.6563 32.5867 17.5415 32.6567 17.4267ZM33.4873 18.9174C33.5566 19.0083 33.5796 19.1693 33.5796 19.3526C33.5796 19.4674 33.5335 19.6053 33.4412 19.7424C33.3258 19.9258 33.1412 19.9258 33.0259 19.7424C32.8643 19.5136 32.8643 19.1231 33.0489 18.8943C33.1874 18.7109 33.372 18.734 33.4873 18.9174ZM33.5796 16.9683C33.6719 16.8081 33.8104 16.785 33.9257 16.9452C34.1103 17.1971 34.1565 17.4498 34.018 17.7479C33.9257 17.9313 33.7642 17.9544 33.6488 17.7934C33.5335 17.6563 33.5104 17.496 33.5104 17.335C33.4873 17.1748 33.5104 17.06 33.5796 16.9683ZM33.3027 23.8008V23.8925C33.2797 24.1213 33.1874 24.3285 33.0259 24.5111C33.002 24.5342 32.9566 24.5573 32.9336 24.5804C32.8182 24.6259 32.7259 24.6027 32.6567 24.4887C32.6336 24.4425 32.6105 24.3739 32.6105 24.3285C32.6105 24.0758 32.6798 23.8693 32.8643 23.686C32.9336 23.6174 33.002 23.5481 33.1182 23.5943C33.2335 23.5943 33.2797 23.686 33.3027 23.8008ZM33.3489 25.0619C33.3258 25.2915 33.2335 25.4972 33.072 25.6813C33.0489 25.7036 33.002 25.7491 32.9797 25.7491C32.8643 25.8184 32.7721 25.7729 32.7482 25.6574C32.7482 25.635 32.7482 25.5888 32.7259 25.5434C32.7482 25.2915 32.8413 25.0842 33.0259 24.9017C33.0951 24.8323 33.1643 24.7861 33.2797 24.8323C33.3489 24.8785 33.3489 24.9702 33.3489 25.0619ZM32.4944 23.0666C32.4721 22.9981 32.4721 22.9526 32.4721 22.884C32.4721 22.723 32.5182 22.5851 32.6105 22.448C32.6336 22.4025 32.6567 22.3787 32.6798 22.3332C32.7482 22.2415 32.8413 22.1953 32.9566 22.2184C33.072 22.2415 33.1182 22.3332 33.1412 22.448C33.1874 22.723 33.1182 22.9757 32.9336 23.1583C32.7721 23.3655 32.5644 23.2962 32.4944 23.0666ZM32.449 26.9878C32.4029 27.1935 32.2867 27.3545 32.1491 27.4917C32.1252 27.5148 32.0791 27.561 32.0329 27.5833C31.8953 27.6527 31.7561 27.5833 31.7791 27.4231C31.8022 27.1481 31.9414 26.9185 32.1714 26.7583C32.1952 26.7583 32.1952 26.7359 32.2175 26.7359C32.3567 26.6666 32.4721 26.7359 32.4721 26.9185C32.449 26.9185 32.449 26.9416 32.449 26.9878ZM31.7099 26.2082C31.7337 25.9786 31.8253 25.7953 31.9876 25.6574C32.0329 25.6119 32.1029 25.5657 32.1491 25.5434C32.2867 25.4972 32.4029 25.5657 32.449 25.7036V25.7953C32.4252 26.0472 32.3329 26.2768 32.1029 26.437C32.0099 26.5063 31.9176 26.5518 31.8022 26.4832C31.7099 26.4147 31.6876 26.323 31.7099 26.2082ZM32.449 20.8425C32.5644 20.7509 32.7259 20.7509 32.8182 20.8664C32.9336 20.9804 32.9566 21.1183 32.9566 21.2786C32.9566 21.4396 32.9105 21.6222 32.7944 21.7832C32.6105 22.0127 32.3567 21.9896 32.2414 21.7138C32.1252 21.4396 32.2175 21.0035 32.449 20.8425ZM31.5715 25.1305C31.5715 25.1073 31.5484 25.0842 31.5484 25.0842C31.4799 24.81 31.6638 24.4202 31.9176 24.2823C32.1029 24.1675 32.2867 24.2592 32.3329 24.4656V24.5573C32.3106 24.81 32.2414 25.0157 32.0568 25.1998C32.0099 25.2452 31.9876 25.2676 31.9414 25.2915C31.8022 25.36 31.6407 25.2915 31.5715 25.1305ZM31.6176 22.9757C31.6407 22.9526 31.6876 22.9295 31.7337 22.9064C31.8953 22.8378 32.0568 22.884 32.1252 23.0443C32.1491 23.1128 32.1714 23.2045 32.1952 23.2738C32.1714 23.4572 32.1252 23.6174 32.0099 23.7553C31.9876 23.8008 31.9414 23.8231 31.8953 23.8693C31.7099 24.0072 31.5022 23.961 31.4099 23.7777C31.3869 23.7314 31.3638 23.6629 31.3638 23.5943C31.3407 23.3655 31.433 23.1359 31.6176 22.9757ZM31.0408 22.1953C31.0177 21.9665 31.0638 21.7601 31.2023 21.5767C31.2484 21.5313 31.2946 21.4619 31.3638 21.4396C31.5022 21.3479 31.6638 21.3702 31.7791 21.485C31.8714 21.5767 31.9176 21.7138 31.9176 21.8972C31.9176 22.0813 31.8483 22.287 31.6876 22.448C31.4799 22.6545 31.2023 22.6082 31.0869 22.3563C31.0638 22.3109 31.0408 22.2415 31.0408 22.1953ZM30.0948 24.2368C30.0948 23.9841 30.2101 23.7553 30.4178 23.5943C30.6024 23.4572 30.81 23.4795 30.9485 23.6629C31.0177 23.7553 31.0408 23.847 31.0408 23.9387C31.0408 24.1906 30.9254 24.3971 30.7408 24.5573C30.6254 24.6721 30.4639 24.7183 30.3024 24.649C30.1409 24.5804 30.0948 24.4425 30.0717 24.2823C30.0948 24.2823 30.0948 24.2592 30.0948 24.2368ZM30.0025 22.1499C30.2793 21.9211 30.6254 22.0351 30.7177 22.3787C30.787 22.6545 30.6716 22.9981 30.4409 23.1814C30.2101 23.3416 29.8871 23.25 29.7948 22.9981C29.7717 22.9295 29.7717 22.8378 29.7487 22.7685C29.7487 22.5166 29.8179 22.3109 30.0025 22.1499ZM31.4561 20.0175C31.5484 20.1323 31.5945 20.247 31.5945 20.4304C31.5945 20.5906 31.5484 20.774 31.4099 20.9342C31.2254 21.1407 30.9946 21.1407 30.787 20.9342C30.6716 20.8202 30.6254 20.6823 30.6485 20.5221C30.6485 20.3387 30.7177 20.1554 30.8562 19.9951C31.0408 19.811 31.2715 19.811 31.4561 20.0175ZM31.0408 19.3526C30.8562 19.5822 30.6024 19.5822 30.3947 19.3757C30.2793 19.261 30.2332 19.1007 30.2332 18.9174C30.2332 18.7564 30.2793 18.5961 30.3947 18.4813C30.5793 18.2749 30.8562 18.2749 31.0177 18.4813C31.2254 18.7109 31.2254 19.1231 31.0408 19.3526ZM29.6102 20.5906C29.8179 20.4304 30.0948 20.4766 30.2332 20.6823C30.3024 20.7971 30.3486 20.9119 30.3486 21.0952C30.3486 21.2323 30.2793 21.4157 30.1409 21.5536C29.9332 21.7832 29.5871 21.7369 29.4256 21.4619C29.2641 21.21 29.3564 20.7971 29.6102 20.5906ZM29.1026 18.9628C29.2641 18.8257 29.4256 18.8257 29.6102 18.9174C29.8179 19.0314 29.9332 19.2378 29.9332 19.536C29.9332 19.6962 29.864 19.8572 29.7256 19.9951C29.4718 20.2239 29.1487 20.1777 28.9642 19.9035C28.7788 19.6277 28.8488 19.1924 29.1026 18.9628ZM28.4335 17.496C28.6173 17.1971 28.9872 17.1286 29.241 17.3812C29.3795 17.5184 29.4487 17.7017 29.4487 17.9313C29.4487 18.0915 29.3795 18.2749 29.218 18.4128C29.1026 18.5044 28.9642 18.5268 28.8249 18.5044C28.5481 18.4359 28.3404 18.1832 28.3404 17.9082C28.3173 17.771 28.3635 17.6332 28.4335 17.496ZM27.9712 15.7303C28.1097 15.5924 28.2712 15.5701 28.4335 15.6155C28.7096 15.7072 28.9172 15.9822 28.9172 16.3035C28.9172 16.4183 28.8711 16.5331 28.8026 16.6702C28.6634 16.8998 28.4096 16.9683 28.1558 16.8535C27.7405 16.6471 27.6251 16.0516 27.9712 15.7303ZM27.2559 14.2165C27.3944 13.9646 27.6482 13.8961 27.9251 14.0108C28.1789 14.1256 28.3404 14.3775 28.3404 14.6749C28.3404 14.7673 28.3173 14.9045 28.2481 14.9962C28.1558 15.1564 28.0174 15.2488 27.8097 15.2257C27.3713 15.2488 26.956 14.698 27.2559 14.2165ZM25.8246 15.5701C25.5485 15.2712 25.5485 14.8821 25.8246 14.6071C25.9177 14.5147 26.0323 14.4692 26.1715 14.4692C26.5407 14.4461 26.8868 14.8128 26.8637 15.1564C26.8637 15.4322 26.7253 15.661 26.4945 15.7527C26.3099 15.8451 26.01 15.7527 25.8246 15.5701ZM26.5407 16.2341C26.633 16.1656 26.7253 16.1425 26.8406 16.1425C27.2559 16.1425 27.5328 16.5331 27.5098 16.785C27.5098 17.0145 27.4405 17.1971 27.3021 17.335C27.1636 17.4729 26.9791 17.5184 26.7945 17.4498C26.5176 17.3581 26.3561 17.1971 26.2869 16.9221C26.2176 16.6471 26.3099 16.3952 26.5407 16.2341ZM29.4025 8.59972C29.4718 8.62283 29.5641 8.64517 29.6102 8.69139C29.7717 8.78307 29.864 8.92019 29.9332 9.0812C29.9563 9.14976 29.9794 9.24144 29.9563 9.33311C29.9563 9.4479 29.8409 9.51646 29.7256 9.51646H29.6564C29.3795 9.47101 29.1026 9.17288 29.0787 8.89708V8.85163C29.1026 8.66828 29.218 8.5766 29.4025 8.59972ZM29.6102 7.29239C29.6564 7.29239 29.7025 7.3155 29.7256 7.33861C29.8871 7.43028 30.0486 7.54507 30.1409 7.72842C30.187 7.79698 30.2101 7.88866 30.2332 7.95722C30.2101 8.09512 30.1409 8.14134 30.0025 8.11823C29.7487 8.07201 29.4256 7.75153 29.3795 7.49885C29.3795 7.36172 29.4718 7.27005 29.6102 7.29239ZM30.3486 8.48493C30.3947 8.50804 30.4639 8.53038 30.5101 8.55349C30.6716 8.66828 30.81 8.80618 30.8793 8.98953C30.9023 9.05809 30.9254 9.12665 30.9254 9.17288C30.9254 9.35623 30.81 9.4479 30.6485 9.37857C30.3716 9.26455 30.187 9.05809 30.1178 8.75995V8.64517C30.1409 8.50804 30.2332 8.46182 30.3486 8.48493ZM27.602 5.87104C27.4636 5.87104 27.3482 5.82559 27.2329 5.7108C27.0714 5.57291 26.9098 5.41267 26.7483 5.25243C26.7483 5.25243 26.7483 5.22932 26.7253 5.22932C26.6791 5.15998 26.7022 5.13764 26.7714 5.11453H26.8175C27.0483 5.15998 27.2559 5.1831 27.4636 5.29788C27.5559 5.3441 27.6251 5.41267 27.6943 5.50434C27.7174 5.52668 27.7405 5.57291 27.7636 5.61913C27.8328 5.75626 27.7636 5.84793 27.602 5.87104ZM32.4029 10.9609C32.4944 10.9155 32.5644 10.9609 32.6105 11.0071C32.7944 11.1674 32.9105 11.397 32.9336 11.6489V11.7182C32.9105 11.8322 32.8413 11.8553 32.7482 11.8322C32.7028 11.8091 32.6567 11.786 32.6105 11.7405C32.449 11.5803 32.3567 11.397 32.3329 11.1674C32.3106 11.0988 32.3329 11.0071 32.4029 10.9609ZM34.2718 16.6008C34.2949 16.5331 34.318 16.4406 34.4103 16.4406C34.5026 16.4183 34.5487 16.4868 34.5949 16.5554C34.6872 16.6933 34.7102 16.8535 34.7102 17.0145C34.6872 17.1054 34.6872 17.1971 34.6641 17.2896C34.641 17.3581 34.6179 17.4267 34.5256 17.4267C34.4564 17.4498 34.4103 17.3812 34.3641 17.335C34.318 17.2433 34.2718 17.1748 34.2488 17.0823C34.2257 16.9221 34.2257 16.7619 34.2718 16.6008ZM30.8793 29.3259C30.787 29.3259 30.7177 29.2805 30.7177 29.2119C30.7177 29.1657 30.7177 29.1195 30.7408 29.074C30.81 28.8444 30.9485 28.6619 31.1561 28.5463C31.2023 28.524 31.2484 28.5009 31.3177 28.5009C31.4099 28.5009 31.4561 28.5463 31.4561 28.638C31.4561 28.6619 31.4561 28.6842 31.433 28.7073C31.9176 28.0887 32.3567 27.4231 32.7259 26.7359V26.6666C32.7259 26.5518 32.7721 26.4147 32.8413 26.323C32.9105 26.2306 32.9566 26.1389 33.0489 26.0472C33.072 26.0249 33.1182 25.9786 33.1643 25.9786C33.3258 25.635 33.4873 25.2676 33.6488 24.924V24.7861C33.6719 24.6027 33.7411 24.4425 33.8334 24.3046C33.8796 24.2592 33.9027 24.2129 33.9488 24.1444C33.995 24.0296 34.018 23.9156 34.0642 23.8008H34.0411C33.995 23.8231 33.9488 23.847 33.8796 23.8693C33.7181 23.9387 33.6258 23.8925 33.5796 23.7315C33.5566 23.6629 33.5796 23.5943 33.5796 23.5258C33.6027 23.3193 33.695 23.1359 33.8104 22.9757C33.8565 22.9064 33.9257 22.8378 33.9719 22.7685C34.018 22.6768 33.9719 22.6314 33.8796 22.6314C33.8334 22.6314 33.7642 22.6545 33.7181 22.6545C33.6258 22.6768 33.5566 22.6314 33.5104 22.5397C33.4873 22.4942 33.4643 22.448 33.4643 22.4025C33.4412 22.2184 33.4643 22.0351 33.5566 21.8517C33.6027 21.7601 33.6719 21.6684 33.7411 21.5536C33.7642 21.5081 33.8104 21.4619 33.8334 21.4157C33.8565 21.3934 33.8565 21.324 33.8565 21.3017C33.8334 21.2786 33.7873 21.2786 33.7642 21.2555C33.7181 21.2555 33.695 21.2555 33.6488 21.2786C33.4412 21.324 33.3489 21.2555 33.2797 21.0498C33.1643 20.7971 33.2104 20.5452 33.372 20.3156C33.395 20.2925 33.395 20.2694 33.4181 20.2694C33.5335 20.1777 33.6719 20.1777 33.7642 20.3156C33.8104 20.3611 33.8334 20.4304 33.8565 20.4989C33.8796 20.5906 33.9257 20.6823 33.9488 20.774C33.9719 20.8202 33.9719 20.8664 34.0411 20.8664C34.0872 20.8202 34.0872 20.774 34.0872 20.7054V20.3156C34.0872 20.0406 34.1565 19.811 34.3411 19.6053C34.3872 19.5591 34.4103 19.5136 34.4333 19.4674C34.4564 19.422 34.5256 19.3757 34.4795 19.3064C34.4333 19.261 34.3872 19.2841 34.318 19.2841C34.2718 19.3064 34.2257 19.3064 34.1565 19.3295C34.0411 19.3526 33.9488 19.3064 33.9027 19.2155C33.7642 18.9405 33.7642 18.6416 33.9257 18.3665C34.018 18.2063 34.1565 18.2294 34.2488 18.3665C34.2718 18.4128 34.2949 18.4359 34.318 18.4813C34.3411 18.5499 34.3641 18.5961 34.4103 18.6647C34.4333 18.6878 34.4564 18.734 34.4795 18.7564C34.5256 18.7109 34.5487 18.6647 34.5487 18.5961V18.298C34.5487 18.1832 34.5718 18.0915 34.5949 17.9775C34.5949 17.9313 34.6179 17.8851 34.6641 17.8396C34.7102 17.771 34.7564 17.771 34.8025 17.7934C34.7564 16.8766 34.6179 15.9822 34.4333 15.0886C34.4103 15.0655 34.3872 15.0193 34.3411 15.0193V15.1795C34.3641 15.2943 34.3872 15.4322 34.3872 15.547C34.3872 15.6379 34.3872 15.7527 34.3641 15.8451C34.318 16.0053 34.1795 16.0285 34.0872 15.9137C34.0411 15.8451 34.018 15.7758 33.9719 15.7303C33.9027 15.6155 33.8565 15.5007 33.8104 15.386C33.7873 15.3405 33.7642 15.3174 33.7181 15.2943H33.695C33.695 15.3405 33.6719 15.386 33.6719 15.4322C33.6719 15.547 33.695 15.661 33.7181 15.7758C33.7181 15.8674 33.7411 15.9591 33.7411 16.0516C33.7411 16.1194 33.7181 16.2118 33.695 16.2804C33.6258 16.4637 33.4643 16.4868 33.3258 16.3489C33.2566 16.3266 33.2105 16.2804 33.1874 16.2341C33.1412 16.1656 33.1182 16.097 33.072 16.0285C33.0259 15.9368 32.9797 15.8451 32.9336 15.7758C32.9105 15.7303 32.8643 15.7072 32.8413 15.6841C32.7721 15.7527 32.7944 15.7989 32.7944 15.8674C32.8182 16.0285 32.8413 16.1887 32.8643 16.3489C32.8874 16.4868 32.8643 16.624 32.7944 16.7619C32.6798 16.9683 32.4944 17.0145 32.3106 16.8535C32.0329 16.6008 31.9637 16.0285 32.3329 15.7527C32.4029 15.7072 32.4721 15.661 32.5182 15.6155C32.5644 15.5701 32.6336 15.5239 32.5867 15.4553C32.5644 15.386 32.4944 15.4091 32.4252 15.4091C32.3329 15.4091 32.2414 15.4091 32.1491 15.4322C31.9876 15.4322 31.8483 15.3636 31.756 15.2488C31.6638 15.134 31.6176 14.9962 31.5945 14.8359C31.5715 14.6071 31.6407 14.423 31.8253 14.2859C31.8953 14.2396 31.9637 14.1934 32.0099 14.1256C32.0568 14.1025 32.1029 14.0563 32.0791 13.9877C32.0568 13.9192 31.9876 13.9415 31.9414 13.9192H31.8253H31.6176C31.4561 13.9192 31.3177 13.8729 31.2254 13.735C31.1561 13.6441 31.0869 13.5517 31.0408 13.46C30.9715 13.3452 30.9023 13.2304 30.8331 13.1164C30.81 13.0702 30.787 13.0248 30.7177 13.0248C30.6716 13.0702 30.6947 13.1395 30.6947 13.185C30.7177 13.3452 30.7639 13.5294 30.787 13.6896C30.81 13.8044 30.81 13.9192 30.7639 14.0108C30.6716 14.2628 30.4178 14.3544 30.187 14.1934C29.9794 14.0563 29.864 13.8498 29.864 13.5979C29.864 13.3915 29.9332 13.2536 30.0948 13.1395C30.187 13.0702 30.2793 13.0248 30.3716 12.9562C30.4178 12.9331 30.487 12.8869 30.4639 12.8183C30.4409 12.749 30.3716 12.749 30.3024 12.749H29.9332C29.7025 12.749 29.5179 12.6581 29.3564 12.4747C29.1026 12.1766 29.1487 11.786 29.4948 11.5803C29.5641 11.5341 29.6333 11.4886 29.7025 11.4424C29.7487 11.397 29.8179 11.3738 29.7948 11.3045C29.7717 11.2367 29.7025 11.2367 29.6333 11.2367C29.4948 11.2367 29.3795 11.2367 29.241 11.2136C29.1949 11.2136 29.0788 11.2136 28.9872 11.1443C28.8488 11.0526 28.7334 10.9378 28.6634 10.7776C28.6173 10.6628 28.595 10.5488 28.6411 10.4109C28.6873 10.2275 28.8488 10.1358 29.0326 10.1813C29.1487 10.2044 29.2641 10.2506 29.3564 10.3415C29.4256 10.4109 29.4948 10.5025 29.541 10.5711C29.6333 10.6859 29.7025 10.823 29.7948 10.9378C29.8179 10.984 29.864 11.0303 29.9102 11.0303C29.9563 10.984 29.9332 10.9378 29.9332 10.8924C29.9102 10.7552 29.864 10.6173 29.8409 10.4794C29.8179 10.3878 29.7948 10.2737 29.8179 10.1813C29.8179 9.99795 29.9563 9.90627 30.1178 9.92939C30.2332 9.9525 30.3255 9.99795 30.4178 10.0896C30.487 10.159 30.5332 10.2275 30.6024 10.2961C30.6716 10.3646 30.7177 10.4563 30.787 10.5257C30.81 10.5711 30.8562 10.5942 30.9023 10.5942C30.9485 10.5488 30.9254 10.4794 30.9254 10.4109C30.9023 10.2961 30.8793 10.1813 30.8562 10.0673C30.8562 9.97484 30.8562 9.86005 30.9485 9.79226C31.0408 9.72292 31.1331 9.76915 31.2254 9.83771C31.433 9.97484 31.5715 10.159 31.6176 10.3878C31.6638 10.5488 31.6176 10.6859 31.4799 10.7776C31.433 10.8007 31.4099 10.8461 31.3638 10.8692C31.3177 10.9378 31.3177 10.984 31.4099 11.0303C31.4799 11.0526 31.5253 11.0526 31.5945 11.0757C31.9414 11.1443 32.1714 11.397 32.2414 11.7637C32.2644 11.9239 32.2175 12.0618 32.1029 12.1766C32.0791 12.1997 32.0568 12.222 32.0329 12.2451C31.9876 12.2906 31.9637 12.3137 31.9637 12.3823C31.9876 12.4516 32.0329 12.4516 32.1029 12.4747C32.1252 12.4747 32.1714 12.4971 32.1952 12.4971C32.4029 12.5202 32.5644 12.6118 32.6798 12.7952C32.7259 12.8869 32.7944 12.9785 32.8413 13.0479C32.8643 13.0933 32.8874 13.1395 32.9566 13.1395C33.002 13.0702 33.002 13.0702 32.9797 13.0016C32.9566 12.8869 32.9336 12.7721 32.9336 12.6581V12.4285C32.9566 12.2906 33.072 12.2675 33.1643 12.3368C33.2105 12.3599 33.2566 12.4054 33.3027 12.4516C33.372 12.5433 33.4181 12.6349 33.4873 12.7266C33.5104 12.7721 33.5335 12.8183 33.6027 12.7952V12.6581C33.6027 12.6118 33.5796 12.5664 33.5796 12.5202C33.1874 11.6034 32.7259 10.709 32.1952 9.88316V9.92939C32.2175 10.0442 32.2644 10.1813 32.3106 10.2961C32.3329 10.3878 32.3567 10.4563 32.2644 10.5257C32.1952 10.5711 32.1029 10.5257 32.0329 10.4794C31.8483 10.3415 31.7337 10.159 31.6876 9.92939C31.6638 9.79226 31.6876 9.69981 31.8022 9.63125C31.8253 9.60814 31.8483 9.60814 31.8714 9.5858C31.9176 9.56269 31.9176 9.51646 31.9176 9.49335C31.8953 9.47101 31.8714 9.42479 31.8483 9.40168H31.8253C31.756 9.37857 31.7099 9.35623 31.6407 9.35623C31.3407 9.28766 31.1561 9.0812 31.0177 8.82929C30.9485 8.69139 30.9254 8.53038 31.0638 8.4156C30.9715 8.32469 30.9023 8.20991 30.81 8.11823C30.787 8.09512 30.7639 8.09512 30.7177 8.07201C30.5101 7.95722 30.3716 7.82009 30.2793 7.61363C30.2563 7.56741 30.2563 7.54507 30.2332 7.49885C29.9332 7.17837 29.6333 6.88024 29.3103 6.60444C29.3326 6.62755 29.3564 6.65066 29.3564 6.67377C29.3795 6.71923 29.4025 6.78856 29.4256 6.83401C29.4487 6.92569 29.3795 6.99425 29.2864 6.97114C29.241 6.97114 29.1949 6.9488 29.1718 6.9488C28.9642 6.85712 28.7788 6.71923 28.6634 6.51277C28.6411 6.46731 28.6173 6.42186 28.6173 6.37564C28.595 6.28396 28.6634 6.2154 28.7788 6.23774C28.8026 6.23774 28.8249 6.23774 28.8488 6.26085L28.9872 6.32942C28.8249 6.19229 28.6634 6.05439 28.5019 5.94038C28.4796 5.94038 28.4558 5.94038 28.4335 5.91726C28.2258 5.84793 28.0404 5.7108 27.9251 5.52668C27.902 5.50434 27.902 5.48123 27.8789 5.45889C27.579 5.25243 27.279 5.0452 26.956 4.83951C26.9329 4.86262 26.9098 4.88496 26.8637 4.90807C26.7945 4.93118 26.7253 4.95429 26.6791 4.97741C26.5868 5.02286 26.5176 5.09142 26.5407 5.20621C26.5407 5.27477 26.5637 5.3441 26.5868 5.41267C26.6099 5.50434 26.656 5.57291 26.6791 5.66458C26.7253 5.80248 26.7022 5.89415 26.5637 5.96272C26.5176 5.98583 26.4484 6.00817 26.4022 6.03128C26.3791 6.05439 26.333 6.10061 26.333 6.12296C26.333 6.14607 26.3791 6.19229 26.4022 6.19229C26.4945 6.2154 26.5868 6.23774 26.7022 6.26085C26.9791 6.30708 27.1867 6.42186 27.3713 6.62755C27.4405 6.71923 27.5328 6.8109 27.602 6.90335C27.6251 6.9488 27.6713 6.97114 27.7174 6.99425C27.7405 7.01736 27.7636 7.01736 27.8097 7.01736C27.8097 6.9488 27.8097 6.90335 27.7866 6.85712C27.7636 6.74234 27.7405 6.62755 27.6943 6.53588C27.6713 6.48965 27.6713 6.42186 27.6713 6.37564C27.6713 6.28396 27.7174 6.2154 27.8097 6.2154H27.9251C28.2258 6.28396 28.4096 6.4442 28.5481 6.69689C28.595 6.8109 28.5711 6.90335 28.4796 6.97114C28.4558 6.99425 28.4096 7.01736 28.3635 7.04047C28.3404 7.06359 28.3173 7.06359 28.2943 7.08593C28.2481 7.13215 28.2481 7.17837 28.3173 7.22382C28.3404 7.24693 28.3873 7.24693 28.4096 7.27005C28.4796 7.29239 28.5481 7.29239 28.6173 7.3155C28.8711 7.36172 29.0788 7.52196 29.218 7.75153C29.2641 7.82009 29.2864 7.88866 29.2864 7.95722C29.3103 8.14134 29.1949 8.25536 29.0103 8.23302C28.8711 8.2099 28.7334 8.14134 28.6411 8.0489C28.5711 7.98033 28.5019 7.88866 28.4096 7.79698C28.3404 7.70531 28.2712 7.61363 28.1789 7.52196C28.1558 7.49885 28.1097 7.47574 28.0635 7.45263C28.0174 7.52196 28.0404 7.56741 28.0404 7.61363C28.0866 7.75153 28.1327 7.88866 28.1558 8.02656C28.202 8.18679 28.1558 8.30158 28.0174 8.39325C27.9712 8.43871 27.902 8.46182 27.8559 8.50804C27.8097 8.53038 27.7405 8.5766 27.7636 8.64517C27.7866 8.7145 27.8559 8.7145 27.902 8.73684C27.9943 8.75995 28.0866 8.75995 28.1789 8.75995C28.5019 8.78307 28.7096 8.96642 28.8711 9.24144C28.9172 9.33311 28.9411 9.42479 28.9172 9.51646C28.8949 9.74604 28.7334 9.86005 28.5019 9.83771C28.3173 9.8146 28.1789 9.72292 28.0866 9.5858C27.9712 9.4479 27.8789 9.33311 27.7866 9.19599C27.7636 9.14976 27.7174 9.10431 27.6713 9.0812C27.6482 9.05809 27.602 9.05809 27.579 9.05809C27.5559 9.05809 27.5559 9.10431 27.5559 9.12665C27.5559 9.19599 27.579 9.26455 27.579 9.33311C27.602 9.4479 27.6251 9.5858 27.6482 9.69981C27.6713 9.92939 27.5098 10.0896 27.279 10.0896C27.1406 10.0896 27.0252 10.0442 26.9098 9.97484C26.8406 9.90627 26.7714 9.86005 26.7022 9.76915L26.4253 9.42479C26.4022 9.37857 26.3561 9.35623 26.3099 9.31077C26.2638 9.28766 26.2176 9.28766 26.2176 9.35623V9.47101C26.2407 9.5858 26.2638 9.69981 26.2869 9.8146C26.3099 9.88316 26.3099 9.9525 26.3099 10.0211C26.3099 10.2737 26.1484 10.4563 25.8946 10.4794C25.6869 10.5025 25.5247 10.434 25.3631 10.2961C25.2947 10.2275 25.2478 10.159 25.1793 10.1127C25.0863 10.0211 25.0178 9.90627 24.9478 9.79226C24.9255 9.74604 24.9017 9.72292 24.8555 9.69981C24.8094 9.67747 24.7863 9.67747 24.764 9.74604V9.88316C24.7863 9.99795 24.8094 10.1127 24.8325 10.2275C24.8325 10.2961 24.8555 10.3646 24.8555 10.434C24.8555 10.709 24.6248 10.9155 24.371 10.9378C24.071 10.9378 23.8403 10.823 23.6788 10.5488C23.5173 10.2737 23.5865 9.99795 23.8403 9.8146C23.9326 9.74604 24.0249 9.69981 24.1172 9.63125C24.1402 9.60814 24.1864 9.5858 24.2095 9.56269C24.2556 9.51646 24.2556 9.47101 24.1633 9.4479C24.1172 9.42479 24.071 9.42479 24.0249 9.42479H23.6788C23.3788 9.42479 23.1481 9.31077 22.9866 9.0812C22.9866 8.92019 22.8943 8.82929 22.8251 8.7145C22.802 8.66828 22.7558 8.62283 22.7097 8.59972C22.6405 8.55349 22.5943 8.5766 22.5943 8.64517V8.80618C22.6174 8.9433 22.6405 9.10431 22.6635 9.24144C22.6866 9.53958 22.479 9.76915 22.179 9.79226C21.9252 9.8146 21.7175 9.72292 21.5552 9.53957C21.4399 9.40168 21.3476 9.26455 21.2322 9.14976C21.2091 9.10431 21.163 9.0812 21.1168 9.03498C21.0707 8.98953 21.0246 9.01187 21.0015 9.0812V9.19599C21.0246 9.31077 21.0246 9.4479 21.0476 9.56269C21.0476 9.63125 21.0707 9.69981 21.0707 9.76915C21.0476 10.0896 20.8169 10.2961 20.5169 10.3192C20.2631 10.3415 20.0324 10.2275 19.8709 10.0442C19.7786 9.92939 19.6863 9.8146 19.594 9.69981C19.5478 9.65436 19.5017 9.56269 19.4325 9.60814C19.3633 9.63125 19.3863 9.72292 19.3863 9.79226C19.3863 9.92939 19.4094 10.0673 19.4325 10.2044C19.4556 10.5711 19.1556 10.8692 18.7864 10.8692C18.5326 10.8692 18.3242 10.7776 18.1634 10.5488C18.0704 10.4109 17.9781 10.2506 17.8858 10.1127C17.8396 10.0673 17.8166 10.0211 17.7704 9.99795C17.7243 9.9525 17.6781 9.97484 17.655 10.0442V10.2044C17.6781 10.3878 17.7012 10.5711 17.7243 10.7552C17.7243 10.9378 17.6781 11.0757 17.5628 11.2136C17.2859 11.4886 16.8244 11.4886 16.5706 11.1905C16.5014 11.0988 16.4322 11.0071 16.3629 10.9155C16.2937 10.823 16.2245 10.709 16.1553 10.6173C16.1091 10.5711 16.086 10.5257 16.0399 10.5488C15.9707 10.5488 15.9707 10.6173 15.9707 10.6628V10.8007C15.9938 10.9155 16.0168 11.0526 16.0168 11.1674C16.0168 11.2591 16.0399 11.3507 16.0168 11.4424C15.9938 11.786 15.7399 12.0156 15.4169 12.0387C15.1631 12.0618 14.9554 11.9701 14.7939 11.786C14.7016 11.6489 14.6316 11.5341 14.5401 11.397C14.494 11.3507 14.4701 11.3045 14.424 11.2822C14.3778 11.2136 14.3086 11.2367 14.3086 11.3276V11.4886C14.3317 11.6258 14.3317 11.7637 14.3548 11.9008C14.3778 12.1766 14.2625 12.4054 14.0087 12.5887C13.9625 12.6118 13.8933 12.6581 13.8471 12.6812C13.7087 12.7721 13.5933 12.8414 13.4549 12.9331C13.4087 12.9562 13.3395 13.0016 13.3626 13.0702C13.3857 13.1395 13.4549 13.1164 13.5241 13.1164C13.6856 13.0933 13.8702 13.0702 14.0548 13.0479C14.1471 13.0479 14.2394 13.0248 14.3086 13.0248C14.7016 13.0248 14.9777 13.3915 14.8855 13.7582C14.8162 14.0332 14.6316 14.2165 14.3548 14.2628C14.0779 14.3313 13.8702 14.2396 13.7087 14.0332C13.6626 13.9646 13.5933 13.8961 13.5472 13.8267C13.501 13.7582 13.4318 13.6665 13.3857 13.5979C13.3395 13.5517 13.3165 13.4831 13.2472 13.5062C13.1549 13.5294 13.178 13.5979 13.178 13.6665C13.178 13.8267 13.2011 13.9877 13.2011 14.148C13.2472 14.4461 13.1319 14.6749 12.9011 14.859C12.7858 14.9276 12.6935 15.0193 12.5781 15.0886C12.555 15.134 12.5089 15.1564 12.4858 15.1795C12.4397 15.2488 12.4397 15.2943 12.532 15.3174H12.6935C12.8319 15.3174 12.9934 15.2943 13.1319 15.2943C13.3165 15.2943 13.478 15.3636 13.6164 15.4776C13.8933 15.7303 13.8702 16.1656 13.5933 16.4406C13.3395 16.7156 12.9473 16.7387 12.6704 16.4868C12.6012 16.4406 12.555 16.372 12.5089 16.3035C12.4397 16.2118 12.3935 16.1194 12.3474 16.0516C12.3243 16.0053 12.3012 15.9822 12.2551 15.9591C12.232 15.9368 12.1859 15.9137 12.1628 15.9137C12.1389 15.9137 12.1166 15.9591 12.1166 16.0053V16.1425V16.5554C12.1166 16.8304 12.0243 17.0369 11.7936 17.2202C11.6775 17.3119 11.5621 17.3812 11.4475 17.4729C11.4237 17.4729 11.3775 17.496 11.3544 17.5415C11.3314 17.5638 11.3083 17.61 11.3083 17.6332C11.3083 17.6563 11.3775 17.6786 11.4014 17.6786H11.5621C11.7236 17.6786 11.8851 17.6563 12.0474 17.6563C12.4627 17.6563 12.7627 18.023 12.6704 18.4359C12.6242 18.6192 12.555 18.7564 12.4166 18.8711C12.2781 18.9628 12.1628 19.0545 12.0243 19.1462C12.0013 19.1693 11.9551 19.1924 11.9313 19.2378C11.909 19.261 11.8851 19.3064 11.8851 19.3295C11.8851 19.3757 11.9551 19.3981 12.0013 19.3981C12.1166 19.3981 12.2089 19.3981 12.3243 19.3757C12.4166 19.3757 12.5089 19.3526 12.6012 19.3526C13.0626 19.3295 13.4087 19.7193 13.3395 20.1777C13.3165 20.3849 13.2011 20.5221 13.0396 20.6368C12.9011 20.7054 12.7627 20.7971 12.6473 20.8888C12.6012 20.9119 12.5781 20.9342 12.555 20.9804C12.5089 21.0267 12.5089 21.0721 12.5781 21.0952C12.6242 21.0952 12.6473 21.1183 12.6935 21.0952C12.8088 21.0952 12.9242 21.0721 13.0396 21.0721H13.2703C13.5933 21.0952 13.8471 21.3017 13.9394 21.5536C14.0317 21.8294 13.9394 22.1268 13.7087 22.3109C13.6395 22.3563 13.5703 22.4025 13.5241 22.448C13.4318 22.4942 13.3626 22.5397 13.2703 22.6082C13.2242 22.6314 13.1319 22.6768 13.1549 22.7685C13.178 22.8602 13.2934 22.8147 13.3626 22.8147C13.501 22.8147 13.6164 22.7924 13.7549 22.7924C14.0779 22.7685 14.3317 22.884 14.5163 23.1359C14.5855 23.25 14.6547 23.3416 14.7478 23.4341C14.7701 23.4795 14.8162 23.5026 14.8393 23.5258C14.8855 23.5712 14.9316 23.5481 14.9554 23.4795C14.9554 23.4341 14.9777 23.411 14.9777 23.3655C14.9777 23.25 14.9554 23.1359 14.9554 23.0212C14.9554 22.9064 14.9554 22.7924 14.9777 22.6768C14.9777 22.5397 15.0708 22.4025 15.2093 22.3109C15.5784 22.0582 16.1322 22.2184 16.2706 22.6314C16.2937 22.6768 16.2937 22.7461 16.3168 22.7924C16.3399 23.0443 16.2476 23.2738 16.0399 23.4341C15.9245 23.5258 15.7861 23.6174 15.6477 23.686C15.6007 23.7091 15.5554 23.7553 15.5092 23.8008C15.4631 23.847 15.4861 23.9156 15.5554 23.9156C15.6007 23.9156 15.6476 23.9387 15.6938 23.9387C15.8553 23.9387 16.0168 23.9156 16.2014 23.9156C16.4552 23.9156 16.6629 24.0072 16.8244 24.2129C16.9167 24.3285 16.9859 24.4425 17.0782 24.5804C17.1244 24.6259 17.1474 24.6721 17.1936 24.7406C17.2167 24.7861 17.2628 24.8323 17.3089 24.7861C17.332 24.7638 17.3551 24.7183 17.3551 24.6721V24.5111C17.332 24.3739 17.332 24.2592 17.3089 24.1213C17.3089 24.0527 17.2859 23.9841 17.3089 23.9387C17.332 23.4572 17.7704 23.1583 18.2319 23.3193C18.3934 23.3655 18.5095 23.4572 18.6011 23.5943L18.8787 24.0072C18.901 24.0527 18.9479 24.0989 18.9941 24.1444C19.0172 24.1675 19.0625 24.2129 19.1094 24.1906C19.1325 24.1675 19.1556 24.1213 19.1556 24.0989V23.9387C19.1325 23.8008 19.1325 23.686 19.1094 23.5481C19.1094 23.4795 19.0864 23.4341 19.0864 23.3655C19.0864 22.9064 19.5017 22.5851 19.9632 22.6768C20.1247 22.723 20.2631 22.8147 20.3785 22.9526C20.4939 23.1128 20.5862 23.25 20.7015 23.411C20.7246 23.4572 20.7707 23.5026 20.8169 23.5258C20.863 23.5481 20.8861 23.5481 20.9092 23.5026C20.9092 23.4572 20.9323 23.4341 20.9092 23.3879C20.9092 23.2738 20.8861 23.1583 20.8861 23.0666C20.8861 22.9526 20.863 22.8147 20.863 22.6768C20.84 22.3787 21.2091 21.9434 21.6475 22.0351C21.8552 22.0813 22.0175 22.173 22.1552 22.3563C22.2482 22.4942 22.3405 22.6314 22.4328 22.7685C22.4559 22.8147 22.502 22.8602 22.5251 22.884C22.5705 22.9295 22.6174 22.9064 22.6405 22.8378V22.6768C22.6174 22.4942 22.6174 22.3332 22.5943 22.1499C22.5705 21.9434 22.6405 21.7369 22.7789 21.5767C22.9404 21.3702 23.1712 21.3017 23.425 21.3702C23.6096 21.4157 23.748 21.5313 23.8634 21.6915C23.9557 21.8294 24.0249 21.9665 24.1172 22.0813C24.1402 22.1268 24.1633 22.173 24.2095 22.1953C24.2325 22.2184 24.2787 22.2415 24.2787 22.2415C24.3018 22.2184 24.3248 22.1953 24.3248 22.1499V21.9896C24.3248 21.8517 24.3018 21.7138 24.3018 21.5767C24.3018 21.4396 24.3018 21.324 24.3248 21.1869C24.4402 20.8425 24.8094 20.6368 25.1332 20.774C25.4793 20.8888 25.617 21.2323 25.5024 21.5767C25.4554 21.7138 25.3631 21.8294 25.2478 21.9211C25.1093 22.0127 24.9717 22.1268 24.8325 22.2184C24.7863 22.2415 24.7402 22.287 24.7179 22.3109C24.6709 22.3787 24.694 22.4249 24.764 22.4249H24.9255C25.0632 22.4025 25.2255 22.4025 25.387 22.3787C25.6408 22.3563 25.8485 22.448 25.9869 22.6545C26.0561 22.7461 26.1253 22.8602 26.1946 22.9526C26.2176 22.9981 26.2407 23.0212 26.2869 23.0443C26.333 23.0897 26.3791 23.0666 26.4022 22.9981C26.4253 22.9526 26.4253 22.9064 26.4253 22.8378V22.4025C26.4253 22.1499 26.5407 21.9434 26.7714 21.7832C27.0944 21.5767 27.5328 21.7369 27.6251 22.1036C27.6943 22.3563 27.6251 22.5851 27.4405 22.7685C27.3944 22.8378 27.3252 22.884 27.2559 22.9295C27.1406 23.0212 27.0252 23.0897 26.9098 23.1814C26.8637 23.2045 26.8406 23.2276 26.8175 23.2738C26.7714 23.3193 26.7945 23.3655 26.8637 23.3879H27.0252C27.1867 23.3655 27.3482 23.3416 27.4867 23.3193C27.8097 23.2738 28.0635 23.5026 28.0635 23.8231C28.0635 24.0527 27.9712 24.2368 27.7866 24.3971C27.6713 24.4887 27.5328 24.6027 27.3944 24.6944C27.3482 24.7183 27.3021 24.7638 27.279 24.7861C27.2559 24.81 27.2329 24.8554 27.2559 24.8785C27.2559 24.9017 27.3021 24.924 27.3252 24.924C27.3713 24.924 27.4405 24.924 27.4867 24.9017C27.6251 24.8785 27.7866 24.8323 27.9251 24.8323C28.2258 24.7861 28.4558 24.9926 28.4558 25.2915C28.4558 25.474 28.3873 25.6574 28.2481 25.7729C28.1789 25.8415 28.0866 25.9101 27.9943 25.9786C27.902 26.0472 27.8097 26.1165 27.7174 26.1851C27.6713 26.2082 27.6251 26.2544 27.6482 26.2999C27.6713 26.3461 27.7405 26.3461 27.7866 26.323C27.8789 26.2999 27.9481 26.2999 28.0404 26.2768C28.1327 26.2544 28.202 26.2306 28.2943 26.2306C28.6173 26.1851 28.8249 26.4147 28.7557 26.7359C28.7096 26.9185 28.6173 27.0795 28.4558 27.1935C28.3404 27.286 28.2258 27.3776 28.1097 27.4693C28.0635 27.4917 28.0404 27.5379 27.9943 27.5833C27.9481 27.6296 27.9712 27.675 28.0404 27.675H28.1558C28.2712 27.6527 28.3873 27.6296 28.5019 27.6072C28.5711 27.5833 28.6173 27.5833 28.6873 27.5833C28.8711 27.5833 28.9872 27.6989 28.9872 27.8815C28.9872 28.0194 28.9642 28.1342 28.8949 28.2258C28.8249 28.2944 28.7788 28.3861 28.6873 28.4323C28.595 28.524 28.4796 28.6156 28.3635 28.6842C28.3173 28.7073 28.2943 28.7535 28.2712 28.7759C28.2481 28.799 28.2481 28.8221 28.2481 28.8444C28.2712 28.8675 28.2943 28.8907 28.3173 28.8907C28.3873 28.8907 28.4335 28.8675 28.5019 28.8675C28.6173 28.8444 28.7557 28.799 28.8711 28.7759C29.1026 28.7535 29.241 28.8907 29.1718 29.1433C29.1249 29.3036 29.0326 29.4176 28.9172 29.5332C28.8249 29.6009 28.7334 29.6703 28.6411 29.7388C28.595 29.7851 28.525 29.8305 28.4796 29.8767C28.4558 29.8991 28.4558 29.9222 28.4335 29.9684H28.595C28.6873 29.9453 28.7788 29.9222 28.8711 29.8991C28.9411 29.8767 29.0103 29.8767 29.0787 29.8767C29.218 29.8767 29.2864 29.9684 29.2641 30.0824C29.241 30.1749 29.1949 30.2666 29.1487 30.3351C29.1026 30.4037 29.0103 30.4722 28.9411 30.5416C28.8488 30.6333 28.7334 30.7018 28.6411 30.7935C28.6173 30.8166 28.595 30.8621 28.5711 30.9083C28.5711 30.9083 28.5711 30.9314 28.595 30.9314H28.7096C28.7788 30.9083 28.8488 30.8852 28.9172 30.8621C28.9642 30.8397 29.0326 30.8166 29.0787 30.8166C29.1949 30.7935 29.241 30.8166 29.3103 30.9314V30.9537C29.4256 30.8621 29.541 30.748 29.6333 30.6564C29.7025 30.4722 29.8409 30.312 30.0025 30.198C30.0486 30.1518 30.1178 30.1287 30.187 30.1063H30.2101C30.487 29.8305 30.7408 29.5332 30.9946 29.235C30.9254 29.3036 30.9023 29.3036 30.8793 29.3259Z" fill="white"/>
<path fill-rule="evenodd" clip-rule="evenodd" d="M14.7013 2.82166C14.7244 2.79854 14.7244 2.75309 14.7475 2.72998C14.609 2.77543 14.4706 2.79854 14.3322 2.82166C14.4014 2.84477 14.4475 2.86788 14.5167 2.91333C14.609 2.98189 14.6783 2.95955 14.7013 2.82166Z" fill="white"/>
<path fill-rule="evenodd" clip-rule="evenodd" d="M12.901 3.25722C12.9933 3.28033 13.0394 3.37201 12.9702 3.44057C12.901 3.50991 12.8548 3.55536 12.7856 3.60081C12.6933 3.64703 12.601 3.7156 12.5087 3.76182C12.4857 3.80727 12.4395 3.83038 12.4395 3.89895C12.4857 3.94517 12.5318 3.92206 12.578 3.92206C12.6702 3.89895 12.7625 3.87661 12.8548 3.87661C13.0625 3.83038 13.224 3.89895 13.3625 4.05996C13.4086 4.10541 13.4317 4.12852 13.4547 4.17397C13.4778 4.19708 13.5247 4.24331 13.5709 4.19708C13.6163 4.17397 13.6393 4.12852 13.6393 4.10541V3.92206C13.6163 3.73871 13.7086 3.60081 13.8701 3.50991C13.9624 3.46368 14.0547 3.41746 14.1239 3.37201C14.17 3.3489 14.1939 3.30345 14.2162 3.28033V3.25722C14.17 3.25722 14.1477 3.23411 14.1016 3.23411C14.0324 3.23411 13.9624 3.23411 13.8939 3.25722C13.8009 3.25722 13.6863 3.28033 13.5932 3.25722C13.5247 3.25722 13.4317 3.25722 13.4086 3.16555V3.09698C13.2471 3.14244 13.0625 3.18866 12.901 3.25722Z" fill="white"/>
<path fill-rule="evenodd" clip-rule="evenodd" d="M22.7094 4.08255C22.6402 4.10566 22.5479 4.12877 22.4556 4.12877C22.271 4.10566 22.0865 4.05944 21.9249 3.94542C21.9019 3.94542 21.9019 3.92231 21.8788 3.92231C21.8096 3.85375 21.7634 3.78441 21.7634 3.69274C21.7865 3.60106 21.8788 3.55484 21.948 3.5325C22.2018 3.46394 22.5941 3.57795 22.7556 3.78441C22.894 3.8992 22.871 4.03633 22.7094 4.08255ZM22.0865 5.27509C21.9942 5.36677 21.9019 5.41299 21.7865 5.41299C21.5788 5.43533 21.3712 5.36677 21.1866 5.25198C21.1397 5.22887 21.0935 5.18342 21.0712 5.1372C20.9559 4.9993 20.9789 4.83906 21.1174 4.72427C21.2097 4.6326 21.325 4.61026 21.4173 4.61026C21.6481 4.61026 21.8327 4.65571 21.9942 4.79361L22.1326 4.9315C22.2018 5.04552 22.1788 5.16031 22.0865 5.27509ZM20.4705 5.68724C20.3782 5.73347 20.2867 5.73347 20.1937 5.75658C20.0329 5.73347 19.8706 5.68724 19.7322 5.59557C19.5938 5.50389 19.5015 5.38988 19.5245 5.22887C19.5707 5.04552 19.686 4.95385 19.8476 4.88528C19.8706 4.88528 19.9168 4.86217 19.9399 4.86217C20.1475 4.86217 20.3321 4.90839 20.4944 4.9993C20.6321 5.06863 20.7244 5.18342 20.7244 5.34366C20.702 5.52701 20.6098 5.61868 20.4705 5.68724ZM19.1092 5.91682C18.9708 6.07705 18.8092 6.14639 18.6016 6.14639C18.4401 6.14639 18.2555 6.10017 18.117 5.98538C17.9094 5.82514 17.8863 5.55012 18.117 5.38988C18.3016 5.25198 18.5093 5.20576 18.717 5.25198C18.8323 5.27509 18.9477 5.32054 19.0631 5.38988C19.2246 5.52701 19.2476 5.73347 19.1092 5.91682ZM17.5633 6.30663C17.4702 6.48998 17.2403 6.60476 16.9403 6.60476C16.8242 6.60476 16.6857 6.55854 16.5473 6.46686C16.3858 6.32974 16.3396 6.14639 16.455 5.96227C16.4781 5.93993 16.5011 5.89447 16.5242 5.87136C16.7549 5.64179 17.1941 5.59557 17.4479 5.77969C17.6556 5.91682 17.7017 6.10017 17.5633 6.30663ZM16.0166 4.83906C16.2242 4.58715 16.6857 4.54092 16.9626 4.72427C17.1241 4.83906 17.1703 4.9993 17.0549 5.16031C16.9626 5.2982 16.8242 5.36677 16.6626 5.41299C16.5934 5.43533 16.5242 5.43533 16.455 5.43533C16.3165 5.43533 16.1781 5.38988 16.0627 5.32054C15.8781 5.20576 15.8551 4.9993 16.0166 4.83906ZM15.9704 6.81122C15.832 7.01768 15.6243 7.10936 15.4167 7.1317C15.2552 7.1317 15.1167 7.10936 15.0013 7.01768C14.7937 6.87979 14.7475 6.69644 14.8629 6.48998C14.9321 6.3983 15.0013 6.30663 15.1167 6.26117C15.3475 6.14639 15.5782 6.12328 15.8089 6.23806C16.0627 6.32974 16.132 6.58165 15.9704 6.81122ZM14.886 8.59927C14.7937 8.82884 14.5168 9.01219 14.2168 9.01219C14.1238 9.01219 14.0084 8.98908 13.94 8.94362C13.7323 8.80573 13.6623 8.57616 13.7546 8.36969C13.8938 8.003 14.3553 7.84276 14.6783 8.02611C14.886 8.14089 14.9783 8.36969 14.886 8.59927ZM13.5931 7.65941C13.5246 7.65941 13.4785 7.6363 13.4085 7.59084C13.247 7.49917 13.2008 7.36127 13.247 7.17792C13.317 6.92524 13.4785 6.765 13.7323 6.69644C13.8008 6.67333 13.87 6.67333 13.9623 6.65021C14.0323 6.67333 14.1238 6.67333 14.2168 6.71955C14.3776 6.78811 14.4707 6.92524 14.4476 7.10936C14.4476 7.22414 14.4014 7.33893 14.3091 7.40672C14.1238 7.65941 13.87 7.72797 13.5931 7.65941ZM13.2931 9.17243C13.2008 9.44745 12.924 9.65391 12.6009 9.67702C12.5317 9.65391 12.4394 9.63157 12.3471 9.60846C12.1164 9.51679 12.0241 9.31032 12.0933 9.08075C12.1856 8.69094 12.5779 8.46214 12.947 8.55381C13.247 8.62238 13.3854 8.87429 13.2931 9.17243ZM11.9779 8.27879C11.7703 8.23257 11.6549 8.04922 11.7011 7.84276C11.7703 7.42984 12.2548 7.15481 12.624 7.31582C12.8317 7.40672 12.924 7.56773 12.8547 7.79731C12.7855 8.07233 12.4625 8.3019 12.1625 8.3019C12.1164 8.3019 12.0472 8.3019 11.9779 8.27879ZM17.0549 3.50939C17.2864 3.32604 17.7017 3.30293 17.9555 3.46394C18.094 3.57795 18.117 3.71585 17.9786 3.85375C17.8632 3.96853 17.7017 3.99088 17.5402 4.01399H17.4702C17.3318 4.01399 17.1941 3.99087 17.078 3.8992C16.9165 3.78441 16.9165 3.64729 17.0549 3.50939ZM18.5324 4.4038C18.6477 4.51781 18.6477 4.65571 18.5324 4.79361C18.3939 4.95385 18.2093 4.9993 18.0709 4.9993C17.8632 4.9993 17.7017 4.97696 17.5856 4.88528C17.4018 4.74738 17.3779 4.56404 17.5402 4.4038C17.7709 4.15111 18.3016 4.15111 18.5324 4.4038ZM18.5785 3.14269C18.6708 3.09647 18.7631 3.07336 18.9246 3.07336C19.0631 3.07336 19.2015 3.09647 19.3169 3.1658C19.363 3.18814 19.4092 3.21125 19.4322 3.23437C19.5245 3.32604 19.5245 3.41771 19.4322 3.50939C19.3861 3.55484 19.3169 3.60106 19.2476 3.62418C19.0169 3.71585 18.7862 3.69274 18.5554 3.57795C18.4862 3.5325 18.3939 3.46394 18.3939 3.37226C18.417 3.25748 18.4862 3.18814 18.5785 3.14269ZM20.0091 4.47236C19.8937 4.58715 19.7553 4.6326 19.6168 4.6326C19.4092 4.6326 19.2476 4.58715 19.1092 4.49547C18.8785 4.35757 18.9015 4.10566 19.1323 3.96853C19.3861 3.83064 19.8014 3.8992 20.0091 4.08255C20.1244 4.19734 20.1244 4.35757 20.0091 4.47236ZM20.0091 2.91312C20.0783 2.89078 20.1706 2.89078 20.2406 2.86767C20.4021 2.86767 20.5405 2.91312 20.6782 2.98245C20.7244 3.00556 20.7705 3.0279 20.7936 3.05102C20.8859 3.14269 20.8859 3.23437 20.7936 3.30293C20.7482 3.34915 20.6782 3.37226 20.6098 3.3946C20.3783 3.44083 20.1475 3.41771 19.9629 3.30293C19.8706 3.25748 19.8014 3.18814 19.8014 3.07336C19.8245 2.98245 19.9168 2.93623 20.0091 2.91312ZM21.3473 3.80753C21.3712 3.80753 21.3712 3.83064 21.3943 3.83064C21.5788 3.96853 21.5558 4.19734 21.3473 4.28901C21.2558 4.33523 21.1635 4.33523 21.0712 4.35757C20.8859 4.33523 20.7244 4.28901 20.5628 4.19734C20.5405 4.17422 20.4944 4.15111 20.4705 4.12877C20.3552 4.01399 20.3783 3.83064 20.5167 3.73896C20.5859 3.69274 20.6559 3.66963 20.7482 3.66963C20.9559 3.64729 21.1635 3.69274 21.3473 3.80753ZM21.3473 2.77599C21.625 2.72977 21.8557 2.79833 22.0865 2.95934C22.1326 3.00556 22.1788 3.05102 22.1788 3.11958C22.1557 3.18814 22.1095 3.23437 22.0403 3.25748C21.9711 3.27982 21.9019 3.27982 21.8327 3.27982C21.625 3.27982 21.4635 3.21125 21.2789 3.11958C21.2097 3.07336 21.1397 3.0279 21.1635 2.93623C21.1866 2.82144 21.2789 2.77599 21.3473 2.77599ZM24.3477 3.48705C24.0246 3.34915 23.6785 3.23437 23.3555 3.14269C23.3324 3.1658 23.2863 3.18814 23.2401 3.18814H23.1478C22.9402 3.1658 22.7556 3.11958 22.571 3.00556C22.5249 2.98245 22.4556 2.93623 22.4556 2.86767C21.7404 2.68432 21.002 2.54642 20.2629 2.45474C20.2629 2.52408 20.2167 2.59187 20.1475 2.61498C20.0552 2.63809 19.9629 2.66121 19.8706 2.66121C19.6399 2.68432 19.4322 2.61498 19.2246 2.50097C19.2015 2.45474 19.1554 2.43163 19.0861 2.40929C18.9938 2.36307 18.9477 2.40929 18.9477 2.50097V2.56953C18.9477 2.72977 18.9246 2.79833 18.7631 2.84455C18.5324 2.91312 18.2786 2.91312 18.0478 2.79833C17.9555 2.75288 17.8863 2.70666 17.794 2.66121C17.7479 2.63809 17.6779 2.56953 17.6094 2.61498C17.5402 2.63809 17.5633 2.72977 17.5633 2.77599C17.5633 2.93623 17.4941 3.0279 17.3556 3.07336C17.0549 3.21125 16.7788 3.21125 16.5011 3.00556C16.4781 2.98245 16.455 2.95934 16.4088 2.95934C16.2473 2.84455 16.1781 2.89078 16.1781 3.07336C16.1781 3.25748 16.0858 3.37226 15.9243 3.46394C15.832 3.50939 15.7397 3.55484 15.6705 3.60106C15.6243 3.62418 15.5782 3.64729 15.5782 3.69274C15.6474 3.73896 15.6474 3.73896 15.7397 3.73896C15.8781 3.73896 16.0166 3.71585 16.155 3.71585C16.2704 3.71585 16.3858 3.73896 16.5011 3.80753C16.6396 3.8992 16.6626 4.03633 16.5473 4.15111C16.4781 4.24279 16.3858 4.31212 16.2935 4.35757C15.9704 4.47236 15.6936 4.42691 15.4397 4.19734C15.3936 4.15111 15.3475 4.10566 15.3013 4.08255C15.2321 4.03633 15.1629 4.05944 15.1398 4.15111C15.1398 4.19734 15.1167 4.24279 15.1398 4.31212C15.1398 4.51781 15.0706 4.67882 14.886 4.7705C14.7937 4.81672 14.6783 4.86217 14.6091 4.90839C14.563 4.9315 14.5168 4.97696 14.4937 4.9993C14.4476 5.04552 14.4707 5.09174 14.5168 5.09174H14.7245C14.8398 5.09174 14.9552 5.06863 15.0706 5.06863C15.1859 5.06863 15.3013 5.09174 15.3936 5.16031C15.5782 5.2982 15.6013 5.48078 15.4628 5.64179C15.209 5.98538 14.6552 6.0316 14.3776 5.71036C14.3314 5.64179 14.2861 5.59557 14.2399 5.55012C14.1938 5.52701 14.1476 5.48078 14.1015 5.50389C14.0553 5.52701 14.0323 5.57323 14.0323 5.61868C14.0323 5.71036 14.0323 5.77969 14.0084 5.87136C14.0084 6.37596 13.3854 6.60476 13.0393 6.42141C12.947 6.37596 12.9009 6.30663 12.8317 6.23806C12.7624 6.19184 12.7394 6.12328 12.6932 6.07705C12.624 6.0316 12.5548 6.05471 12.5317 6.12328C12.5317 6.16873 12.5086 6.19184 12.5086 6.23806C12.5086 6.30663 12.4856 6.37596 12.4856 6.44375C12.4625 6.81122 12.1625 7.01768 11.9087 7.06314C11.678 7.10936 11.4703 7.06314 11.3319 6.85745C11.2857 6.81122 11.2396 6.74266 11.1934 6.69644C11.1242 6.62787 11.055 6.65021 11.0319 6.74266C11.0089 6.81122 11.0089 6.87979 11.0089 6.97146C11.0089 7.24649 10.8935 7.42984 10.662 7.59084C10.5474 7.65941 10.432 7.75108 10.3167 7.84276C10.2928 7.86587 10.2467 7.88821 10.2244 7.93443C10.2005 7.98065 10.2005 8.003 10.2705 8.003C10.3167 8.003 10.362 8.003 10.432 7.98065C10.5705 7.95754 10.732 7.91132 10.8696 7.88821C11.1934 7.86587 11.4011 8.14089 11.2857 8.46214C11.2396 8.59927 11.1704 8.69094 11.055 8.78339C10.9158 8.87429 10.8012 8.96597 10.662 9.05764C10.6158 9.10386 10.5935 9.12697 10.5474 9.17243C10.5243 9.17243 10.5243 9.21865 10.5243 9.24176C10.5243 9.26487 10.5705 9.28721 10.5935 9.28721C10.662 9.28721 10.7081 9.28721 10.7781 9.26487C10.9396 9.24176 11.0781 9.21865 11.2396 9.19554C11.5857 9.17243 11.7703 9.44745 11.678 9.7687C11.6318 9.92894 11.5395 10.0437 11.4242 10.1354C11.3088 10.2278 11.1704 10.3187 11.055 10.4104C11.0089 10.4335 10.9627 10.4798 10.9158 10.5021C10.8935 10.5483 10.8473 10.5714 10.8696 10.6169C10.8935 10.6631 10.9396 10.6631 10.9858 10.6631C11.055 10.6631 11.1242 10.64 11.1934 10.64C11.3088 10.6169 11.4242 10.5945 11.5395 10.5945C11.7934 10.5483 11.9779 10.64 12.1164 10.8465C12.1856 10.9612 12.2548 11.076 12.324 11.1908C12.3471 11.2363 12.3702 11.2817 12.4163 11.3279C12.4394 11.3511 12.4856 11.3965 12.5086 11.3965C12.5779 11.3965 12.5779 11.3279 12.5779 11.2817V11.1446C12.5779 11.0298 12.5548 10.915 12.5548 10.8002V10.64C12.5548 10.3187 12.7855 10.0437 13.0855 9.95205C13.3624 9.86037 13.6162 9.95205 13.8008 10.2502C13.87 10.365 13.94 10.4798 14.0084 10.5945C14.0323 10.6169 14.0553 10.6631 14.1015 10.6862C14.1238 10.7093 14.1699 10.7317 14.1699 10.7317C14.1938 10.7093 14.2168 10.6862 14.2168 10.64V10.4335C14.2168 10.2956 14.1938 10.1585 14.1699 10.0206C14.1476 9.86037 14.1938 9.70014 14.2861 9.56224C14.4937 9.28721 15.0244 9.10386 15.3705 9.56224C15.3936 9.60846 15.4397 9.65391 15.4628 9.70014C15.5551 9.83726 15.6243 9.92894 15.7166 10.0437C15.7397 10.0668 15.7628 10.0899 15.7858 10.1354C15.832 10.1816 15.9012 10.1585 15.9012 10.0899V9.92894C15.9012 9.7687 15.8781 9.60846 15.8551 9.44745C15.832 9.19554 15.9243 8.98908 16.132 8.85118C16.1781 8.82884 16.2242 8.80573 16.2704 8.78339C16.3627 8.71405 16.455 8.6686 16.5473 8.62238C16.5934 8.57616 16.6626 8.55381 16.7088 8.50759C16.7549 8.48448 16.8242 8.46214 16.8011 8.39281C16.7788 8.32424 16.7088 8.34735 16.6396 8.34735C16.5934 8.34735 16.5473 8.34735 16.5011 8.36969C16.3396 8.39281 16.1781 8.41592 16.0397 8.43903C15.9012 8.46214 15.7628 8.43903 15.6474 8.39281C15.2782 8.27879 15.1859 7.88821 15.4397 7.61318C15.7166 7.29271 16.2012 7.29271 16.4781 7.56773C16.5473 7.6363 16.5934 7.70563 16.6396 7.77419C16.6626 7.82042 16.7088 7.86587 16.7549 7.88821C16.7788 7.91132 16.8242 7.93443 16.8703 7.93443C16.9165 7.93443 16.9165 7.86587 16.9403 7.82042V7.70563V7.47606C16.9403 7.20103 17.078 6.99457 17.3556 6.9029C17.6317 6.81122 17.8863 6.85745 18.117 7.08625C18.1863 7.15481 18.2324 7.22414 18.3016 7.29271C18.3247 7.33893 18.3709 7.36127 18.417 7.40672C18.4862 7.45295 18.5324 7.42984 18.5554 7.33893V7.22414C18.5554 7.15481 18.5324 7.06314 18.5324 6.99457C18.5324 6.69644 18.717 6.46686 19.0169 6.42141C19.2938 6.37596 19.5245 6.44375 19.7091 6.65021C19.7783 6.71955 19.8476 6.78811 19.9168 6.87979C19.9399 6.9029 19.9629 6.94835 20.0091 6.97146C20.0783 7.04002 20.1475 6.99457 20.1475 6.9029V6.78811C20.1475 6.71955 20.1244 6.65021 20.1244 6.58165C20.1014 6.30663 20.2167 6.12328 20.4944 6.05471C20.7705 5.98538 21.0251 6.05471 21.2327 6.23806C21.325 6.32974 21.3943 6.42141 21.4865 6.51309C21.5327 6.55854 21.5788 6.62787 21.6481 6.60476C21.7173 6.58165 21.6942 6.48998 21.6942 6.42141C21.6942 6.32974 21.6711 6.21495 21.6711 6.12328C21.6711 5.91682 21.8096 5.75658 22.0172 5.73347C22.2941 5.68724 22.5479 5.77969 22.7325 5.96227C22.9402 6.16873 22.894 6.42141 22.6633 6.58165C22.5941 6.62787 22.5018 6.67333 22.4326 6.71955C22.3864 6.74266 22.3403 6.765 22.3172 6.81122C22.271 6.85745 22.271 6.9029 22.3403 6.92524C22.3864 6.94835 22.4326 6.94835 22.5018 6.94835H22.8248C23.0555 6.94835 23.2401 7.04003 23.3786 7.20103C23.4709 7.29271 23.5632 7.40672 23.6555 7.49917C23.6785 7.52151 23.7247 7.54462 23.7485 7.56773C23.7939 7.59084 23.84 7.56773 23.84 7.52151V7.38438C23.817 7.29271 23.817 7.20103 23.7939 7.08625C23.7708 6.87979 23.84 6.765 23.9785 6.67333C24.0477 6.62787 24.1177 6.60476 24.1862 6.55854C24.2323 6.5362 24.2561 6.51309 24.3015 6.48998C24.3477 6.44375 24.3477 6.3983 24.2792 6.37596C24.2323 6.35285 24.1862 6.35285 24.1177 6.35285C24.0023 6.32974 23.8862 6.32974 23.7708 6.32974C23.5401 6.30663 23.3324 6.19184 23.194 6.00849C23.0555 5.82514 23.1017 5.61868 23.2863 5.50389C23.3324 5.48078 23.3786 5.45844 23.4247 5.43533C23.4709 5.41299 23.4947 5.38988 23.5401 5.36677C23.5862 5.34366 23.6324 5.32054 23.6093 5.25198C23.5862 5.22887 23.5401 5.20576 23.517 5.18342C23.4709 5.16031 23.4017 5.16031 23.3324 5.16031C23.2401 5.16031 23.1478 5.1372 23.0555 5.1372C22.894 5.11408 22.7556 5.06863 22.6172 4.95385C22.571 4.9315 22.5479 4.88528 22.5018 4.83906C22.3864 4.67882 22.4095 4.49547 22.5941 4.42691C22.6633 4.4038 22.7556 4.38069 22.8248 4.38069C23.0325 4.38069 23.2401 4.45002 23.4017 4.58715C23.4709 4.65571 23.5632 4.72427 23.6324 4.7705C23.6555 4.79361 23.7024 4.81672 23.7485 4.83906C23.817 4.86217 23.84 4.83906 23.84 4.7705C23.84 4.72427 23.817 4.67882 23.817 4.6326C23.7485 4.38069 23.7708 4.31212 24.0246 4.22045L24.1638 4.15111C24.21 4.12877 24.21 4.08255 24.1638 4.05944C24.14 4.03633 24.0939 4.03633 24.0477 4.01399C23.9562 3.99088 23.8631 3.99087 23.7708 3.96853C23.6093 3.94542 23.4478 3.8992 23.2863 3.78441C23.194 3.71585 23.1017 3.64729 23.1248 3.50939C23.1478 3.41771 23.2632 3.37226 23.4247 3.3946C23.6324 3.41771 23.84 3.48705 24.0023 3.62418C24.0716 3.66963 24.1177 3.71585 24.1638 3.7613C24.1861 3.78441 24.21 3.80753 24.2561 3.80753C24.3254 3.83064 24.3477 3.80753 24.3477 3.73896C24.3477 3.69274 24.3254 3.66963 24.3254 3.62418C24.3015 3.57795 24.3254 3.50939 24.3477 3.48705Z" fill="white"/>
<path fill-rule="evenodd" clip-rule="evenodd" d="M13.0166 33.1552C12.9243 33.0636 12.8551 32.9719 12.8782 32.834C12.9243 32.6961 13.0397 32.6737 13.1781 32.6514H13.2474C13.4781 32.6737 13.6858 32.7423 13.8703 32.9033C14.0088 33.0412 13.9857 33.2238 13.8011 33.3155C13.7088 33.3617 13.6165 33.3848 13.5242 33.3617C13.3397 33.3617 13.1551 33.2931 13.0166 33.1552ZM12.6005 33.3617C12.5552 33.4765 12.4629 33.4765 12.3467 33.4765C12.1168 33.4765 11.9091 33.3848 11.7476 33.2238C11.6776 33.1552 11.6084 33.0636 11.6545 32.9488C11.7014 32.834 11.816 32.834 11.9091 32.834C12.1391 32.834 12.3467 32.9257 12.509 33.109C12.6005 33.1552 12.6474 33.2469 12.6005 33.3617ZM10.9392 32.146C10.9162 32.1237 10.8931 32.0782 10.8931 32.032C10.8469 31.8941 10.9162 31.7793 11.0546 31.7331C11.1007 31.7108 11.1469 31.7108 11.17 31.7108C11.4699 31.7331 11.7014 31.8487 11.8629 32.0782C11.9314 32.1699 11.9552 32.2608 11.9091 32.3525C11.8629 32.4442 11.7699 32.4904 11.6776 32.4904C11.3776 32.5135 11.1238 32.3987 10.9392 32.146ZM12.1852 31.7331C12.2552 31.5729 12.3929 31.5505 12.5552 31.5505H12.5782C12.809 31.5729 13.0166 31.6422 13.1781 31.8248C13.2012 31.871 13.2474 31.8941 13.2704 31.9403C13.3627 32.1006 13.2935 32.2608 13.132 32.3525C13.0858 32.3756 13.0166 32.3987 12.9474 32.3987C12.6936 32.3987 12.4859 32.3302 12.3244 32.146C12.1852 32.0089 12.1168 31.871 12.1852 31.7331ZM14.5395 33.8663C14.6087 33.9117 14.6318 33.9803 14.6087 34.072C14.5856 34.1644 14.5164 34.2099 14.4241 34.2099C14.378 34.2099 14.3318 34.2322 14.2857 34.2322C14.0549 34.2322 13.8703 34.1644 13.6858 34.0496C13.5935 33.9803 13.5242 33.9117 13.5473 33.797C13.5704 33.6829 13.6858 33.6367 13.778 33.6367C14.078 33.6144 14.3087 33.7053 14.5395 33.8663ZM10.5239 32.5597H10.4085C10.1547 32.5135 9.94707 32.3987 9.80863 32.1923C9.80863 32.1923 9.80863 32.1699 9.78556 32.1699C9.73941 32.1006 9.71634 32.0089 9.76249 31.9403C9.80863 31.871 9.87785 31.8487 9.99322 31.8487C10.247 31.871 10.4547 32.0089 10.6162 32.2385C10.6393 32.2608 10.6393 32.3063 10.6624 32.3302C10.7085 32.4673 10.6393 32.5597 10.5239 32.5597ZM9.02413 31.0691C8.97799 30.9774 8.95491 30.8857 9.02413 30.794C9.09258 30.7016 9.18565 30.7016 9.30101 30.7016C9.55482 30.7478 9.76249 30.8857 9.90093 31.0914C9.924 31.1376 9.94707 31.1831 9.97015 31.2516C10.0163 31.4358 9.90093 31.5505 9.69326 31.5505C9.39331 31.5043 9.16257 31.3672 9.02413 31.0691ZM8.63111 31.5729C8.60881 31.5729 8.56189 31.5505 8.51575 31.5505C8.30808 31.4812 8.14657 31.3433 8.03197 31.1607C7.96198 31.0691 7.93891 30.9774 8.00813 30.8857C8.07812 30.794 8.19349 30.8164 8.28578 30.8395C8.51575 30.908 8.67726 31.0459 8.81647 31.2293C8.83954 31.2755 8.86262 31.321 8.88492 31.3895C8.86262 31.5043 8.7934 31.5729 8.63111 31.5729ZM7.86969 30.4728C7.5928 30.4266 7.29285 30.1523 7.22363 29.8765C7.17748 29.6932 7.29285 29.5553 7.45436 29.6015C7.75432 29.6708 7.96198 29.8311 8.07812 30.1061C8.07812 30.1284 8.10042 30.1523 8.10042 30.1978V30.244C8.10042 30.4042 8.00813 30.4959 7.86969 30.4728ZM7.08519 29.2571C6.83138 29.1893 6.5545 28.8904 6.50835 28.6385C6.4622 28.4089 6.62372 28.2718 6.85445 28.3404C7.13133 28.4321 7.40822 28.7533 7.40822 29.0283C7.38514 29.1893 7.26978 29.3033 7.08519 29.2571ZM6.92367 30.4728C6.62372 30.3803 6.41605 30.1746 6.32376 29.8765C6.27761 29.7386 6.36991 29.6708 6.48528 29.6932C6.71601 29.7386 7.06211 30.0599 7.08519 30.2887V30.3349C7.10826 30.4497 7.03904 30.5182 6.92367 30.4728ZM6.16225 29.3257C5.90844 29.2117 5.70078 29.0283 5.63079 28.7533C5.63079 28.7302 5.63079 28.684 5.60848 28.6616C5.60848 28.4783 5.70078 28.4089 5.86229 28.4783C6.13917 28.5923 6.30069 28.7756 6.39298 29.0738C6.39298 29.0969 6.41605 29.1431 6.39298 29.1893C6.39298 29.3033 6.30069 29.3719 6.16225 29.3257ZM13.132 34.3015H13.0397C13.455 34.4394 13.8703 34.5535 14.2857 34.6683V34.622C14.3087 34.5535 14.3549 34.5311 14.401 34.508C14.4703 34.4857 14.5164 34.4857 14.5856 34.4857C14.7702 34.4857 14.9556 34.5311 15.1163 34.622C15.1632 34.6459 15.2094 34.6914 15.2317 34.7137C15.2778 34.7599 15.2778 34.8061 15.2555 34.8516C15.647 34.9209 16.04 34.9895 16.4323 35.035C16.4553 35.0126 16.5015 35.0126 16.5246 34.9895C16.5707 34.9672 16.5707 34.8978 16.5015 34.8978C16.4553 34.8747 16.3861 34.8747 16.3169 34.8747C16.1785 34.8516 16.04 34.8516 15.9008 34.8293C15.8093 34.8061 15.6932 34.7599 15.6009 34.6914C15.4855 34.622 15.5093 34.4857 15.6247 34.4163C15.647 34.3932 15.6932 34.3701 15.7401 34.3701C15.7862 34.3478 15.8324 34.3247 15.8785 34.3247C15.9247 34.3016 15.9939 34.2784 15.9939 34.2099C15.9477 34.1405 15.8785 34.1405 15.8324 34.1405C15.7401 34.1405 15.647 34.1405 15.5786 34.1182C15.4632 34.0959 15.324 34.072 15.2094 34.0496C15.1394 34.0265 15.0479 33.9803 15.0017 33.9349C14.8394 33.797 14.8625 33.6367 15.0479 33.545C15.1163 33.4988 15.1855 33.4765 15.2555 33.4534C15.3017 33.4303 15.324 33.4071 15.3709 33.3848C15.417 33.3617 15.3932 33.3155 15.347 33.2931C15.324 33.2692 15.2778 33.2692 15.2555 33.2692C15.1632 33.2692 15.0702 33.2469 14.9779 33.2469C14.8856 33.2238 14.7702 33.2238 14.6779 33.2015C14.5395 33.1776 14.4241 33.109 14.3087 32.995C14.1472 32.834 14.1703 32.6514 14.3549 32.5358C14.4241 32.4904 14.4933 32.4673 14.5625 32.4218C14.6087 32.3987 14.6548 32.3756 14.6779 32.3525C14.7471 32.3063 14.7241 32.2608 14.6548 32.2385C14.6087 32.2146 14.5625 32.2146 14.4933 32.2146C14.378 32.2146 14.2395 32.1923 14.1242 32.1923C13.9396 32.1237 13.755 32.032 13.6165 31.8487C13.455 31.6422 13.5473 31.3433 13.8011 31.2755C13.8473 31.2516 13.8934 31.2516 13.9396 31.2516C14.1934 31.2293 14.401 31.321 14.5856 31.4812C14.6779 31.5505 14.7471 31.6422 14.8394 31.7331C14.8625 31.757 14.9087 31.8024 14.9556 31.8024C15.0017 31.8248 15.0479 31.8025 15.0702 31.757V31.6422C15.0702 31.5729 15.0479 31.5043 15.0479 31.4357C15.024 31.2293 15.0932 31.0691 15.2778 30.9774C15.3709 30.9312 15.4632 30.8857 15.5555 30.8164C15.6009 30.794 15.6708 30.7701 15.647 30.6792C15.6247 30.6099 15.5555 30.6099 15.4855 30.6099H15.0932C14.8394 30.6099 14.6318 30.5182 14.4472 30.3349C14.378 30.244 14.2857 30.1746 14.2164 30.083C14.1934 30.0599 14.1703 30.0144 14.1242 30.0144C14.0549 29.9682 14.0088 29.9913 14.0088 30.0599V30.1978C14.0319 30.2887 14.0319 30.3803 14.0549 30.4959C14.078 30.7478 13.8934 30.9543 13.6396 30.9543C13.4089 30.9543 13.2012 30.8857 13.0166 30.7255C12.9243 30.6338 12.832 30.5182 12.7397 30.4266C12.6936 30.3803 12.6474 30.3125 12.6005 30.358C12.5321 30.3803 12.5552 30.4728 12.5552 30.5182C12.5782 30.6099 12.6005 30.7255 12.6005 30.8164C12.6244 31.0459 12.4859 31.1831 12.2783 31.2069C12.0475 31.2293 11.8391 31.1607 11.6776 30.9997C11.6084 30.9312 11.5622 30.8857 11.4938 30.8164C11.4238 30.7255 11.3323 30.6338 11.2623 30.5413C11.2392 30.5182 11.2161 30.4959 11.17 30.4728C11.1238 30.4497 11.0777 30.4728 11.0777 30.5182C11.0777 30.5645 11.0777 30.6099 11.1007 30.6561C11.1238 30.794 11.17 30.908 11.193 31.0459C11.2392 31.2293 11.1238 31.3672 10.9392 31.3895H10.7777C10.5931 31.3433 10.4547 31.2755 10.3163 31.1376C10.2701 31.0691 10.224 30.9997 10.2009 30.9312C10.1317 30.794 10.1778 30.6561 10.3393 30.5876C10.3855 30.5645 10.4547 30.5182 10.5008 30.4959C10.547 30.4728 10.5931 30.4497 10.6393 30.4266C10.6624 30.4042 10.7085 30.358 10.7085 30.3349C10.7085 30.2663 10.6393 30.2663 10.5931 30.2663C10.5701 30.2663 10.5239 30.244 10.5008 30.244C10.4316 30.244 10.3855 30.2201 10.3163 30.2201C9.94707 30.2201 9.67019 30.0599 9.46253 29.7625C9.39331 29.6708 9.30101 29.5784 9.23179 29.4867C9.20872 29.4412 9.16257 29.4174 9.09258 29.4412V29.5784C9.11643 29.6469 9.13873 29.7386 9.16257 29.8072C9.18565 29.8989 9.23179 30.0144 9.23179 30.1061C9.25487 30.3349 9.11643 30.4497 8.88492 30.4042C8.63111 30.358 8.42345 30.1978 8.30808 29.9682C8.28578 29.9227 8.26194 29.8765 8.26194 29.8311C8.23963 29.6932 8.26194 29.5784 8.3773 29.5098C8.42345 29.4867 8.4696 29.4412 8.51575 29.4174C8.56189 29.3719 8.63111 29.3496 8.63111 29.281C8.60881 29.1893 8.53959 29.1893 8.4696 29.1893C8.37731 29.1655 8.28578 29.1655 8.21579 29.1431C7.96198 29.0969 7.75432 28.9598 7.61588 28.7302C7.45436 28.4783 7.52358 28.2718 7.75432 28.0885C7.82431 28.0422 7.86969 27.9968 7.91583 27.9506C7.98505 27.8812 7.98505 27.8127 7.86969 27.7903C7.82431 27.7903 7.75432 27.7672 7.6851 27.7672C7.36207 27.7672 7.13133 27.607 6.94675 27.3551C6.9006 27.2857 6.83138 27.2172 6.78523 27.1255C6.76216 27.0793 6.71601 27.0338 6.66986 27.0562C6.62372 27.0793 6.62372 27.1478 6.64679 27.1709C6.66986 27.2857 6.69294 27.3774 6.69294 27.4914C6.69294 27.5839 6.71601 27.6755 6.69294 27.7449C6.66986 27.8812 6.57757 27.9275 6.43913 27.9275C6.32376 27.9051 6.23147 27.8812 6.16225 27.7903C6.09303 27.721 6.04688 27.6755 5.97766 27.607C5.90844 27.5376 5.86229 27.446 5.79307 27.3774C5.77 27.3312 5.72385 27.2857 5.65463 27.3088C5.63079 27.3774 5.63079 27.446 5.65463 27.5153C5.6777 27.6293 5.70078 27.7449 5.70078 27.8589C5.70078 28.0422 5.58541 28.1339 5.40082 28.0422C5.37698 28.0422 5.35467 28.0191 5.3316 28.0191C5.14701 27.8812 5.0078 27.6987 4.93935 27.4914C4.89243 27.3312 4.93935 27.1941 5.05395 27.1024C5.10086 27.0793 5.12317 27.0562 5.14701 27.0099C5.19316 26.9421 5.16932 26.8959 5.12317 26.8736C5.07779 26.8497 5.03164 26.8497 4.9855 26.8274C4.73169 26.8042 4.57017 26.6664 4.45404 26.4607C4.38481 26.3459 4.31559 26.2311 4.24637 26.1394C4.2233 26.0932 4.20023 26.047 4.10793 26.047C4.10793 26.0932 4.08486 26.1394 4.10793 26.1849C4.13101 26.3004 4.15408 26.3921 4.17715 26.5061C4.20023 26.5747 4.20023 26.644 4.2233 26.7357C4.2233 26.8042 4.2233 26.8497 4.15408 26.8959C4.08486 26.9421 4.03871 26.8959 3.99256 26.8736C3.94642 26.8497 3.92334 26.8042 3.90027 26.7819L3.8772 26.758C3.99256 26.9876 4.13101 27.1941 4.26945 27.4236C4.29252 27.3774 4.36174 27.3551 4.43096 27.3774C4.45404 27.3774 4.47711 27.3997 4.50018 27.3997C4.68477 27.5376 4.82398 27.721 4.86936 27.9729V28.0191C4.86936 28.1108 4.82398 28.157 4.77783 28.1801C4.86936 28.318 4.9855 28.4544 5.07779 28.5923C5.10086 28.5923 5.12317 28.6154 5.14701 28.6154C5.30853 28.7302 5.44697 28.8904 5.53926 29.0514C5.56233 29.0969 5.56233 29.1431 5.58541 29.1893C6.06995 29.7848 6.60064 30.3349 7.17748 30.8395C7.22363 30.8164 7.26978 30.8395 7.31592 30.8618C7.52358 30.9543 7.70817 31.0914 7.82431 31.2755C7.82431 31.2979 7.84661 31.3433 7.84661 31.3895V31.4357C8.14657 31.6884 8.44729 31.9172 8.77032 32.146C8.77032 32.1237 8.74725 32.1006 8.74725 32.0782C8.7011 31.9858 8.74725 31.9172 8.86262 31.8941C8.90876 31.8941 8.95491 31.8941 9.00106 31.9172C9.20872 31.9858 9.39331 32.1006 9.53175 32.2839C9.55482 32.3063 9.55482 32.3302 9.5779 32.3525C9.62404 32.4673 9.5779 32.5597 9.41638 32.5597C9.87785 32.8571 10.3393 33.1329 10.8469 33.3617C10.7546 33.3155 10.6854 33.2469 10.5931 33.1776C10.547 33.109 10.5008 33.0636 10.547 32.9719C10.5931 32.8802 10.6624 32.8802 10.7777 32.8802C11.0085 32.9033 11.2392 33.0173 11.4007 33.2015C11.4469 33.2692 11.4938 33.3386 11.4469 33.4071C11.4007 33.4988 11.3084 33.4988 11.2392 33.4765C11.1469 33.4534 11.0315 33.4303 10.9392 33.3848C11.4699 33.6367 12.0014 33.8886 12.5552 34.0959C12.509 34.0959 12.4629 34.072 12.4398 34.0496C12.4167 34.0265 12.3929 34.0042 12.3706 33.9803C12.3244 33.8886 12.3467 33.797 12.4398 33.7746C12.4859 33.7507 12.5552 33.7507 12.5782 33.7507C12.832 33.7507 13.0397 33.8432 13.2243 34.0042C13.2935 34.0496 13.3397 34.1182 13.3166 34.2099C13.2935 34.2784 13.2012 34.3015 13.132 34.3015Z" fill="white"/>
</g>
<defs>
<radialGradient id="paint0_radial_34_363" cx="0" cy="0" r="1" gradientUnits="userSpaceOnUse" gradientTransform="translate(-1392.18 1771.66) rotate(90) scale(2406.89 2317.27)">
<stop stop-color="#D8D8D8"/>
<stop offset="1" stop-color="#002D74"/>
</radialGradient>
<clipPath id="clip0_34_363">
<rect width="105.405" height="36.2077" fill="white" transform="translate(0 0.770752)"/>
</clipPath>
</defs>
</svg>
