<svg width="165" height="30" viewBox="0 0 165 30" fill="none" xmlns="http://www.w3.org/2000/svg">
<g clip-path="url(#clip0_856_704)">
<path d="M69.9242 5.50366C67.8139 5.50366 65.6216 6.08127 62.9084 7.54044L64.4157 11.2834C66.772 9.96229 68.7183 9.38467 70.1437 9.38467C71.7608 9.38467 72.4734 9.99014 72.4734 10.7881V10.8426C72.4734 11.3936 72.0345 11.6963 70.9661 11.8065L69.103 11.9991C64.4435 12.4943 62.5249 14.5311 62.5249 17.338V17.5306C62.5249 20.2007 64.7172 22.2919 67.8139 22.2919C69.853 22.2919 71.6245 21.4273 72.7013 19.9016L73.0486 22.017H77.2692V12.412C77.2692 7.87102 74.6657 5.50366 69.9242 5.50366ZM69.513 18.6301C67.9514 18.6301 67.211 18.0246 67.211 17.0886V17.0341C67.211 16.2082 67.6764 15.6028 69.3755 15.3557L70.1159 15.2455C71.1976 15.0942 71.862 14.8944 72.4734 14.5226V15.7408C72.4734 17.5851 71.3218 18.6301 69.513 18.6301Z" fill="white"/>
<path d="M16.6965 19.2054L30.2385 5.61394L24.8362 0.192627L19.4338 5.61394L22.1229 8.31187L8.58691 21.9057L13.9832 27.3307L19.3856 21.9057L16.6965 19.2054Z" fill="#F04E23"/>
<path d="M14.0415 0.190925L0.500977 13.7881L5.90014 19.2098L19.4407 5.61267L14.0415 0.190925Z" fill="#F04E23"/>
<path d="M32.9234 8.31763L19.3828 21.9148L24.782 27.3365L38.3225 13.7394L32.9234 8.31763Z" fill="#F04E23"/>
<path d="M84.8012 0H80.0054V22.0146H84.8012V0Z" fill="white"/>
<path d="M54.4653 5.50362C52.285 5.50362 50.5341 6.47236 49.5706 7.98965L49.204 5.7785H44.9834V27.5146H49.7792V19.979C50.692 21.3922 52.4189 22.2858 54.4653 22.2858C58.3024 22.2858 61.4268 18.8734 61.4268 14.1666V13.6156C61.4268 8.91237 58.3024 5.49878 54.4653 5.49878M56.4935 14.031C56.4935 16.5073 55.2057 18.297 53.0676 18.297C50.9296 18.297 49.6417 16.5085 49.6417 14.031V13.7561C49.6417 11.2785 50.9296 9.48999 53.0676 9.48999C55.2057 9.48999 56.4935 11.2785 56.4935 13.7561V14.031Z" fill="white"/>
<path d="M149.549 5.50366C144.643 5.50366 141.189 8.91605 141.189 13.6229V14.1739C141.189 18.8795 144.643 22.2931 149.549 22.2931C154.454 22.2931 157.908 18.8807 157.908 14.1739V13.6229C157.908 8.91726 154.454 5.50366 149.549 5.50366ZM152.975 14.0358C152.975 16.5122 151.687 18.3019 149.549 18.3019C147.411 18.3019 146.123 16.5134 146.123 14.0358V13.761C146.123 11.2834 147.411 9.49487 149.549 9.49487C151.687 9.49487 152.975 11.2834 152.975 13.761V14.0358Z" fill="white"/>
<path d="M162.331 6.49533V6.41299C162.331 5.94557 161.975 5.61499 161.345 5.61499H160.249V8.14703H160.769V7.29333H161.348L161.784 8.14703H162.359L161.823 7.1456C162.149 7.04509 162.331 6.80049 162.331 6.49533ZM160.768 6.08241H161.343C161.673 6.08241 161.809 6.1926 161.809 6.44084V6.46869C161.809 6.68908 161.671 6.82591 161.343 6.82591H160.768V6.08241Z" fill="white"/>
<path d="M161.246 4.26611C159.766 4.26611 158.642 5.39469 158.642 6.8805C158.642 8.3663 159.766 9.49488 161.246 9.49488C162.725 9.49488 163.849 8.3663 163.849 6.8805C163.849 5.39469 162.725 4.26611 161.246 4.26611ZM161.246 9.13645C159.958 9.13645 159.026 8.20041 159.026 6.87929C159.026 5.55817 159.958 4.62212 161.246 4.62212C162.533 4.62212 163.466 5.55817 163.466 6.87929C163.466 8.20041 162.533 9.13645 161.246 9.13645Z" fill="white"/>
<path d="M127.092 0H122.296V22.0146H127.092V0Z" fill="white"/>
<path d="M136.525 18.2971C135.128 18.2971 134.607 17.6093 134.607 16.1235V9.49004H140.253V5.77492H134.607V2.05859L129.811 2.77425V16.5909C129.811 20.3617 131.73 22.2883 135.567 22.2883C137.266 22.2883 139.266 21.7652 140.911 20.8291L139.541 17.4167C138.58 17.9399 137.238 18.2983 136.525 18.2983" fill="white"/>
<path d="M112.154 5.50366C110.044 5.50366 107.852 6.08127 105.138 7.54044L106.646 11.2834C109.002 9.96229 110.948 9.38467 112.374 9.38467C113.991 9.38467 114.703 9.99014 114.703 10.7881V10.8426C114.703 11.3936 114.264 11.6963 113.196 11.8065L111.333 11.9991C106.673 12.4943 104.755 14.5311 104.755 17.338V17.5306C104.755 20.2007 106.947 22.2919 110.044 22.2919C112.082 22.2919 113.854 21.4273 114.931 19.9016L115.279 22.017H119.499V12.412C119.499 7.87102 116.896 5.50366 112.154 5.50366ZM111.743 18.6301C110.18 18.6301 109.441 18.0246 109.441 17.0886V17.0341C109.441 16.2082 109.906 15.6028 111.605 15.3557L112.346 15.2455C113.428 15.0942 114.092 14.8944 114.702 14.5226V15.7408C114.702 17.5851 113.552 18.6301 111.743 18.6301Z" fill="white"/>
<path d="M95.2962 5.50366C90.3907 5.50366 86.937 8.91605 86.937 13.6229V14.1739C86.937 18.8795 90.3907 22.2931 95.2962 22.2931C100.202 22.2931 103.655 18.8807 103.655 14.1739V13.6229C103.654 8.91726 100.202 5.50366 95.2962 5.50366ZM98.7209 14.0358C98.7209 16.5122 97.433 18.3019 95.295 18.3019C93.157 18.3019 91.8691 16.5134 91.8691 14.0358V13.761C91.8691 11.2834 93.157 9.49487 95.295 9.49487C97.433 9.49487 98.7209 11.2834 98.7209 13.761V14.0358Z" fill="white"/>
<path d="M117.81 29.8857L116.073 27.585H116.061V29.8857H114.928V25.926H116.158L117.858 28.1662H117.87V25.926H119.004V29.8857H117.81Z" fill="white"/>
<path d="M121.693 28.2994V28.917H124.105L123.984 29.8857H120.499V25.926H123.984V26.8827H121.693V27.4276H123.502V28.2994H121.693Z" fill="white"/>
<path d="M126.516 29.8857V26.9432H125.069V25.926H128.928L129.049 26.9432H127.602V29.8857H126.516Z" fill="white"/>
<path d="M134.837 28.6748L135.44 25.926H136.646L135.56 29.8857H134.113L133.39 27.4881H133.269L132.546 29.8857H130.978L130.013 25.926H131.219L131.943 28.6748L132.787 25.926H133.993L134.716 28.6748H134.837Z" fill="white"/>
<path d="M137.49 27.8995C137.49 26.6087 138.363 25.7998 139.744 25.7998C141.124 25.7998 141.999 26.6087 141.999 27.8995C141.999 29.1904 141.125 29.9993 139.744 29.9993C138.363 29.9993 137.49 29.1892 137.49 27.8995ZM140.82 27.8995C140.82 27.2154 140.426 26.8073 139.744 26.8073C139.061 26.8073 138.667 27.2154 138.667 27.8995C138.667 28.5849 139.061 28.9918 139.738 28.9918C140.42 28.9918 140.82 28.5837 140.82 27.8995Z" fill="white"/>
<path d="M143.278 25.926H145.578C146.626 25.926 147.14 26.4237 147.14 27.3464C147.14 27.9798 146.88 28.4108 146.373 28.6143L147.308 29.8882H145.967L145.24 28.8468H144.462V29.8882H143.278V25.926ZM145.425 27.918C145.819 27.918 145.96 27.6976 145.96 27.3973C145.96 27.097 145.819 26.8827 145.425 26.8827H144.461V27.918H145.425Z" fill="white"/>
<path d="M151.358 27.8272L152.925 29.8736V29.8857H151.599L150.393 28.36H149.91V29.8857H148.705V25.926H149.91V27.3791H150.393L151.478 25.926H152.925L151.358 27.8272Z" fill="white"/>
<path d="M153.89 29.6191V28.5329H153.896C154.556 28.8672 155.198 29.0306 155.756 29.0306C156.179 29.0306 156.392 28.9289 156.392 28.7303C156.392 28.5317 156.251 28.4809 155.406 28.3452C154.482 28.1987 153.867 27.9202 153.867 27.1222C153.867 26.3811 154.516 25.8096 155.783 25.8096C156.291 25.8096 156.82 25.9173 157.311 26.1268V27.2021L157.305 27.2082C156.837 26.9369 156.207 26.7662 155.699 26.7662C155.248 26.7662 155.068 26.874 155.068 27.0544C155.068 27.2869 155.344 27.3087 156.038 27.4286C156.961 27.5872 157.576 27.8476 157.576 28.6855C157.576 29.3358 157.092 29.9873 155.7 29.9873C155.013 29.9873 154.465 29.8456 153.89 29.6191Z" fill="white"/>
</g>
<defs>
<clipPath id="clip0_856_704">
<rect width="164.076" height="30" fill="white" transform="translate(0.203613)"/>
</clipPath>
</defs>
</svg>
