<svg width="613" height="226" viewBox="0 0 613 226" fill="none" xmlns="http://www.w3.org/2000/svg">
<path d="M218.569 94.4399C223.342 100.707 226.006 110.929 226.006 122.903C226.006 136.485 221.699 147.647 214.032 153.8C208.225 158.444 199.395 161 188.943 161C174.069 161 162.339 156.112 156.295 147.411C151.758 141.022 149.534 132.537 149.534 122.2C149.534 107.326 153.591 96.0625 161.278 90.0251C167.308 85.1505 176.827 82.4732 187.76 82.4732C201.586 82.4732 212.626 86.7799 218.542 94.4466M171.263 103.391C168.816 107.225 167.66 113.37 167.66 121.645C167.66 139.764 173.927 148.012 187.875 148.012C201.579 148.012 207.86 139.758 207.86 121.875C207.86 103.743 201.7 95.6162 187.875 95.6162C180.323 95.6162 174.394 98.4085 171.263 103.405M252.366 160.966H235.856V83.4806H274.541C288.124 83.4806 292.897 84.8733 298.001 90.5727C302.545 95.5061 305.037 101.985 304.972 108.692C304.972 116.805 301.727 124.37 296.379 128.906C291.849 132.733 287.657 133.896 278.841 133.896H252.366V160.966ZM274.785 120.084C279.2 120.084 281.748 119.502 283.493 117.873C285.582 116.129 286.873 112.417 286.873 108.117C286.873 103.006 284.791 99.2941 281.187 98.0096C279.221 97.4677 277.181 97.2395 275.143 97.3335H252.366V120.104L274.785 120.084ZM377.454 83.4874H360.931V115.202H331.109V83.4874H314.613V160.966H331.109V129.021H360.931V160.966H377.427L377.454 83.4874ZM456.468 94.4399C461.241 100.707 463.905 110.929 463.905 122.903C463.905 136.485 459.612 147.647 451.938 153.8C446.117 158.411 437.328 160.966 426.842 160.966C411.968 160.966 400.245 156.078 394.208 147.377C389.671 140.988 387.447 132.503 387.447 122.166C387.447 107.292 391.503 96.0287 399.184 89.9913C405.221 85.1167 414.733 82.4394 425.679 82.4394C439.498 82.4394 450.532 86.7461 456.454 94.4128M409.183 103.357C406.742 107.191 405.579 113.336 405.579 121.612C405.579 139.731 411.847 147.979 425.781 147.979C439.491 147.979 445.759 139.724 445.759 121.841C445.759 103.709 439.606 95.5825 425.781 95.5825C418.235 95.5825 412.306 98.3747 409.176 103.371M71.6767 160.966H113.445C125.168 160.966 130.137 160.25 134.045 157.775C140.197 153.989 144.105 146.167 144.105 137.763C144.105 130.901 141.739 123.917 138.189 120.361C133.572 115.628 127.298 113.85 115.69 113.85H103.027C97.3475 113.85 93.1558 113.607 90.7962 112.552C87.9567 111.24 86.3003 108.401 86.3003 104.852C86.3003 100.707 88.3285 97.6242 91.6278 96.7926C94.1158 96.2112 96.9959 96.2112 104.473 96.1166H141.867V82H100.64C91.4047 82 87.2603 82.3515 83.738 83.6564C75.5709 86.4959 70 95.2579 70 105.291C70 112.167 72.7043 118.562 77.4369 122.7C81.5813 126.249 87.7404 127.906 97.2055 127.906H114.06C117.853 127.906 120.922 128.379 122.592 129.326C124.161 130.095 125.475 131.3 126.378 132.796C127.28 134.292 127.733 136.017 127.683 137.763C127.721 139.203 127.38 140.628 126.694 141.896C126.008 143.163 125.002 144.228 123.775 144.984C121.747 146.295 118.326 146.883 112.059 146.883H71.6767V160.966ZM471.24 160.966H513.049C524.772 160.966 529.741 160.25 533.656 157.775C539.808 153.989 543.709 146.167 543.709 137.763C543.709 130.901 541.35 123.917 537.8 120.361C533.169 115.628 526.902 113.85 515.287 113.85H502.624C496.931 113.85 492.74 113.607 490.38 112.552C487.527 111.24 485.871 108.401 485.871 104.852C485.871 100.707 487.899 97.6242 491.205 96.7926C493.686 96.2112 496.58 96.2112 504.05 96.1166H541.444V82H500.271C491.029 82 486.891 82.3515 483.369 83.6564C475.195 86.4959 469.631 95.2579 469.631 105.291C469.631 112.167 472.335 118.562 477.068 122.7C481.212 126.249 487.372 127.906 496.843 127.906H513.698C517.491 127.906 520.574 128.379 522.223 129.326C523.788 130.091 525.1 131.29 526.003 132.78C526.905 134.27 527.361 135.988 527.314 137.729C527.352 139.169 527.011 140.593 526.327 141.86C525.642 143.127 524.638 144.192 523.413 144.95C521.385 146.261 517.971 146.85 511.683 146.85H471.267L471.24 160.966Z" fill="#005BC8"/>
</svg>
